<svg version="1.1" viewBox="0.0 0.0 960.0 540.0" fill="none" stroke="none" stroke-linecap="square" stroke-miterlimit="10" xmlns:xlink="http://www.w3.org/1999/xlink" xmlns="http://www.w3.org/2000/svg"><clipPath id="g9ba95598cb_0_1418.0"><path d="m0 0l960.0 0l0 540.0l-960.0 0l0 -540.0z" clip-rule="nonzero"/></clipPath><g clip-path="url(#g9ba95598cb_0_1418.0)"><path fill="#ffffff" d="m0 0l960.0 0l0 540.0l-960.0 0z" fill-rule="evenodd"/><path fill="#cfe2f3" d="m13.766608 60.200203l0 0c0 -9.149216 7.4169035 -16.56612 16.56612 -16.56612l92.78074 0c4.393608 0 8.607269 1.7453537 11.71402 4.852104c3.1067505 3.1067505 4.8520966 7.320408 4.8520966 11.714016l0 3.320076c0 9.149216 -7.4169006 16.566116 -16.566116 16.566116l-92.78074 0l0 0c-9.149216 0 -16.56612 -7.4169006 -16.56612 -16.566116z" fill-rule="evenodd"/><path fill="#cfe2f3" d="m28.992718 42.11918l0 0c0 -16.235313 13.161324 -29.396637 29.396637 -29.396637l0 0c7.7964745 0 15.273624 3.0971375 20.786564 8.610077c5.5129395 5.5129375 8.610077 12.990089 8.610077 20.78656l0 0c0 16.235317 -13.161324 29.396637 -29.39664 29.396637l0 0c-16.235313 0 -29.396637 -13.16132 -29.396637 -29.396637z" fill-rule="evenodd"/><path fill="#cfe2f3" d="m80.03309 37.55668l0 0c0 -10.066029 8.160133 -18.226156 18.226158 -18.226156l0 0c4.8338776 0 9.469772 1.9202499 12.88784 5.338318c3.418068 3.418068 5.338318 8.053961 5.338318 12.887838l0 0c0 10.066029 -8.160126 18.226158 -18.226158 18.226158l0 0c-10.066025 0 -18.226158 -8.16013 -18.226158 -18.226158z" fill-rule="evenodd"/><path fill="#000000" fill-opacity="0.0" d="m13.766404 43.834644l141.13387 0l0 36.251972l-141.13387 0z" fill-rule="evenodd"/><path fill="#000000" d="m29.797655 64.91215l0 -2.0937538l5.390623 0l0 4.953129q-0.78125 0.75 -2.28125 1.34375q-1.4843731 0.578125 -3.015623 0.578125q-1.953125 0 -3.40625 -0.8125q-1.4375 -0.828125 -2.171875 -2.34375q-0.71875 -1.515625 -0.71875 -3.3125038q0 -1.9375 0.8125 -3.4375q0.8125 -1.5 2.375 -2.3125q1.203125 -0.609375 2.96875 -0.609375q2.312498 0 3.609373 0.96875q1.296875 0.96875 1.671875 2.671875l-2.484375 0.46875q-0.265625 -0.921875 -0.9843731 -1.4375q-0.71875 -0.53125 -1.8125 -0.53125q-1.640625 0 -2.609375 1.046875q-0.96875 1.03125 -0.96875 3.078125q0 2.2031288 0.984375 3.3125038q0.984375 1.109375 2.578125 1.109375q0.78125 0 1.5625 -0.3125q0.7968731 -0.3125 1.3749981 -0.75l0 -1.578125l-2.874998 0zm7.6971264 -5.640629l0 -2.203125l2.375 0l0 2.203125l-2.375 0zm0 10.203129l0 -8.984379l2.375 0l0 8.984379l-2.375 0zm8.923691 -8.984379l0 1.890625l-1.625 0l0 3.6250038q0 1.09375 0.046875 1.28125q0.046875 0.1875 0.203125 0.3125q0.171875 0.109375 0.421875 0.109375q0.328125 0 0.953125 -0.234375l0.203125 1.84375q-0.828125 0.359375 -1.875 0.359375q-0.65625 0 -1.171875 -0.21875q-0.515625 -0.21875 -0.765625 -0.546875q-0.234375 -0.34375 -0.3125 -0.9375q-0.078125 -0.40625 -0.078125 -1.671875l0 -3.9218788l-1.09375 0l0 -1.890625l1.09375 0l0 -1.78125l2.375 -1.390625l0 3.171875l1.625 0zm4.020401 -3.421875l0 4.5625q1.15625 -1.34375 2.75 -1.34375q0.828125 0 1.484375 0.3125q0.65625 0.296875 0.984375 0.78125q0.34375 0.46875 0.46875 1.046875q0.125 0.5625 0.125 1.7812538l0 5.265625l-2.375 0l0 -4.75q0 -1.4062538 -0.140625 -1.7812538q-0.140625 -0.390625 -0.484375 -0.609375q-0.34375 -0.234375 -0.859375 -0.234375q-0.59375 0 -1.0625 0.296875q-0.453125 0.28125 -0.671875 0.859375q-0.21875 0.578125 -0.21875 1.7187538l0 4.5l-2.375 0l0 -12.406254l2.375 0zm14.131592 12.406254l0 -1.34375q-0.484375 0.71875 -1.296875 1.140625q-0.796875 0.40625 -1.671875 0.40625q-0.90625 0 -1.625 -0.390625q-0.71875 -0.40625 -1.046875 -1.125q-0.328125 -0.71875 -0.328125 -1.984375l0 -5.687504l2.390625 0l0 4.125004q0 1.890625 0.125 2.328125q0.125 0.421875 0.46875 0.671875q0.359375 0.25 0.890625 0.25q0.609375 0 1.09375 -0.328125q0.484375 -0.34375 0.65625 -0.828125q0.171875 -0.5 0.171875 -2.421875l0 -3.7968788l2.375 0l0 8.984379l-2.203125 0zm4.569092 0l0 -12.406254l2.375 0l0 4.46875q1.109375 -1.25 2.609375 -1.25q1.640625 0 2.71875 1.1875q1.078125 1.1875 1.078125 3.4218788q0 2.296875 -1.109375 3.546875q-1.09375 1.234375 -2.65625 1.234375q-0.765625 0 -1.515625 -0.375q-0.75 -0.390625 -1.296875 -1.140625l0 1.3125l-2.203125 0zm2.359375 -4.6875q0 1.390625 0.4375 2.0625q0.625 0.953125 1.640625 0.953125q0.796875 0 1.34375 -0.671875q0.5625 -0.671875 0.5625 -2.125q0 -1.5312538 -0.5625 -2.2187538q-0.5625 -0.6875 -1.4375 -0.6875q-0.84375 0 -1.421875 0.671875q-0.5625 0.65625 -0.5625 2.0156288zm20.977158 -1.6406288l-2.34375 0.421875q-0.125 -0.703125 -0.546875 -1.046875q-0.40625 -0.359375 -1.078125 -0.359375q-0.890625 0 -1.421875 0.609375q-0.515625 0.609375 -0.515625 2.0468788q0 1.609375 0.53125 2.265625q0.53125 0.65625 1.4375 0.65625q0.6875 0 1.109375 -0.375q0.4375 -0.390625 0.609375 -1.328125l2.34375 0.390625q-0.375 1.609375 -1.40625 2.4375q-1.03125 0.8125 -2.765625 0.8125q-1.96875 0 -3.140625 -1.234375q-1.171875 -1.25 -1.171875 -3.453125q0 -2.2187538 1.171875 -3.4531288q1.1875 -1.25 3.1875 -1.25q1.640625 0 2.609375 0.703125q0.96875 0.703125 1.390625 2.15625zm1.80896 6.328129l0 -12.406254l2.375 0l0 12.406254l-2.375 0zm4.251816 -4.625q0 -1.1718788 0.578125 -2.2812538q0.59375 -1.109375 1.65625 -1.6875q1.078125 -0.59375 2.40625 -0.59375q2.03125 0 3.328125 1.328125q1.3125 1.3125 1.3125 3.3437538q0 2.03125 -1.328125 3.375q-1.3125 1.34375 -3.296875 1.34375q-1.234375 0 -2.359375 -0.546875q-1.125 -0.5625 -1.71875 -1.640625q-0.578125 -1.09375 -0.578125 -2.640625zm2.4375 0.125q0 1.34375 0.640625 2.0625q0.640625 0.703125 1.5625 0.703125q0.9375 0 1.5625 -0.703125q0.625 -0.71875 0.625 -2.078125q0 -1.3125038 -0.625 -2.0156288q-0.625 -0.71875 -1.5625 -0.71875q-0.921875 0 -1.5625 0.71875q-0.640625 0.703125 -0.640625 2.0312538zm14.615967 4.5l0 -1.34375q-0.484375 0.71875 -1.296875 1.140625q-0.796875 0.40625 -1.671875 0.40625q-0.90625 0 -1.625 -0.390625q-0.71875 -0.40625 -1.046875 -1.125q-0.328125 -0.71875 -0.328125 -1.984375l0 -5.687504l2.390625 0l0 4.125004q0 1.890625 0.125 2.328125q0.125 0.421875 0.46875 0.671875q0.359375 0.25 0.890625 0.25q0.609375 0 1.09375 -0.328125q0.484375 -0.34375 0.65625 -0.828125q0.171875 -0.5 0.171875 -2.421875l0 -3.7968788l2.375 0l0 8.984379l-2.203125 0zm12.912842 0l-2.203125 0l0 -1.3125q-0.5625 0.765625 -1.3125 1.140625q-0.734375 0.375 -1.5 0.375q-1.546875 0 -2.65625 -1.25q-1.109375 -1.25 -1.109375 -3.484375q0 -2.2812538 1.078125 -3.4687538q1.078125 -1.1875 2.71875 -1.1875q1.5 0 2.609375 1.25l0 -4.46875l2.375 0l0 12.406254zm-6.34375 -4.6875q0 1.4375 0.390625 2.078125q0.578125 0.9375 1.609375 0.9375q0.828125 0 1.390625 -0.703125q0.578125 -0.703125 0.578125 -2.078125q0 -1.5468788 -0.5625 -2.2343788q-0.546875 -0.6875 -1.421875 -0.6875q-0.84375 0 -1.421875 0.671875q-0.5625 0.671875 -0.5625 2.0156288z" fill-rule="nonzero"/><path fill="#000000" fill-opacity="0.0" d="m0 269.90158l151.90552 0" fill-rule="evenodd"/><path stroke="#595959" stroke-width="3.0" stroke-linejoin="round" stroke-linecap="butt" stroke-dasharray="12.0,9.0" d="m0 269.90158l151.90552 0" fill-rule="evenodd"/><path fill="#9fc5e8" d="m34.090313 298.91495l0 0c0 -2.2967224 1.8618774 -4.1586 4.1586227 -4.1586l76.949524 0c1.1029358 0 2.160698 0.43814087 2.94059 1.2180176c0.77989197 0.7799072 1.2180328 1.8376465 1.2180328 2.9405823l0 47.13846c0 2.296753 -1.8618774 4.1586304 -4.1586227 4.1586304l-76.949524 0c-2.2967453 0 -4.1586227 -1.8618774 -4.1586227 -4.1586304z" fill-rule="evenodd"/><path stroke="#595959" stroke-width="3.0" stroke-linejoin="round" stroke-linecap="butt" d="m34.090313 298.91495l0 0c0 -2.2967224 1.8618774 -4.1586 4.1586227 -4.1586l76.949524 0c1.1029358 0 2.160698 0.43814087 2.94059 1.2180176c0.77989197 0.7799072 1.2180328 1.8376465 1.2180328 2.9405823l0 47.13846c0 2.296753 -1.8618774 4.1586304 -4.1586227 4.1586304l-76.949524 0c-2.2967453 0 -4.1586227 -1.8618774 -4.1586227 -4.1586304z" fill-rule="evenodd"/><path fill="#595959" d="m65.80634 350.21204l21.834702 0l0 8.310577l-21.834702 0z" fill-rule="evenodd"/><path stroke="#595959" stroke-width="1.0" stroke-linejoin="round" stroke-linecap="butt" d="m65.80634 350.21204l21.834702 0l0 8.310577l-21.834702 0z" fill-rule="evenodd"/><path fill="#595959" d="m58.3573 358.5226l36.732788 0l0.69441223 0.694397l0 3.4720154l0 0l-38.121616 0l0 0l0 -3.4720154z" fill-rule="evenodd"/><path stroke="#595959" stroke-width="1.0" stroke-linejoin="round" stroke-linecap="butt" d="m58.3573 358.5226l36.732788 0l0.69441223 0.694397l0 3.4720154l0 0l-38.121616 0l0 0l0 -3.4720154z" fill-rule="evenodd"/><path fill="#000000" fill-opacity="0.0" d="m26.737534 290.83466l99.968506 0l0 52.91336l-99.968506 0z" fill-rule="evenodd"/><path fill="#000000" d="m55.42095 316.47464l0 -12.296875l2.5 0l0 10.203125l6.234375 0l0 2.09375l-8.734375 0zm9.944092 -4.625q0 -1.171875 0.578125 -2.28125q0.59375 -1.109375 1.65625 -1.6875q1.078125 -0.59375 2.40625 -0.59375q2.03125 0 3.328125 1.328125q1.3125 1.3125 1.3125 3.34375q0 2.03125 -1.328125 3.375q-1.3125 1.34375 -3.296875 1.34375q-1.234375 0 -2.359375 -0.546875q-1.125 -0.5625 -1.71875 -1.640625q-0.578125 -1.09375 -0.578125 -2.640625zm2.4375 0.125q0 1.34375 0.640625 2.0625q0.640625 0.703125 1.5625 0.703125q0.9375 0 1.5625 -0.703125q0.625 -0.71875 0.625 -2.078125q0 -1.3125 -0.625 -2.015625q-0.625 -0.71875 -1.5625 -0.71875q-0.921875 0 -1.5625 0.71875q-0.640625 0.703125 -0.640625 2.03125zm16.537842 -1.828125l-2.34375 0.421875q-0.125 -0.703125 -0.546875 -1.046875q-0.40625 -0.359375 -1.078125 -0.359375q-0.890625 0 -1.421875 0.609375q-0.515625 0.609375 -0.515625 2.046875q0 1.609375 0.53125 2.265625q0.53125 0.65625 1.4375 0.65625q0.6875 0 1.109375 -0.375q0.4375 -0.390625 0.609375 -1.328125l2.34375 0.390625q-0.375 1.609375 -1.40625 2.4375q-1.03125 0.8125 -2.765625 0.8125q-1.96875 0 -3.140625 -1.234375q-1.171875 -1.25 -1.171875 -3.453125q0 -2.21875 1.171875 -3.453125q1.1875 -1.25 3.1875 -1.25q1.640625 0 2.609375 0.703125q0.96875 0.703125 1.390625 2.15625zm3.574585 0.078125l-2.15625 -0.390625q0.375 -1.296875 1.25 -1.921875q0.890625 -0.625 2.640625 -0.625q1.59375 0 2.375 0.375q0.78125 0.375 1.09375 0.953125q0.3125 0.578125 0.3125 2.125l-0.015625 2.78125q0 1.1875 0.109375 1.75q0.109375 0.5625 0.421875 1.203125l-2.34375 0q-0.09375 -0.234375 -0.234375 -0.703125q-0.0625 -0.203125 -0.078125 -0.28125q-0.609375 0.59375 -1.3125 0.890625q-0.6875 0.296875 -1.46875 0.296875q-1.390625 0 -2.1875 -0.75q-0.796875 -0.75 -0.796875 -1.90625q0 -0.765625 0.359375 -1.359375q0.359375 -0.59375 1.015625 -0.90625q0.65625 -0.328125 1.890625 -0.5625q1.671875 -0.3125 2.3125 -0.578125l0 -0.234375q0 -0.6875 -0.34375 -0.984375q-0.328125 -0.296875 -1.28125 -0.296875q-0.625 0 -0.984375 0.25q-0.359375 0.25 -0.578125 0.875zm3.1875 1.9375q-0.453125 0.15625 -1.453125 0.375q-0.984375 0.203125 -1.296875 0.40625q-0.453125 0.328125 -0.453125 0.828125q0 0.5 0.359375 0.875q0.375 0.359375 0.953125 0.359375q0.640625 0 1.234375 -0.421875q0.421875 -0.328125 0.5625 -0.796875q0.09375 -0.296875 0.09375 -1.15625l0 -0.46875zm4.68396 4.3125l0 -12.40625l2.375 0l0 12.40625l-2.375 0z" fill-rule="nonzero"/><path fill="#000000" d="m46.325096 331.1465l-2.34375 0.421875q-0.125 -0.703125 -0.546875 -1.046875q-0.40625 -0.359375 -1.078125 -0.359375q-0.890625 0 -1.421875 0.609375q-0.515625 0.609375 -0.515625 2.046875q0 1.609375 0.53125 2.265625q0.53125 0.65625 1.4375 0.65625q0.6875 0 1.109375 -0.375q0.4375 -0.390625 0.609375 -1.328125l2.34375 0.390625q-0.375 1.609375 -1.40625 2.4375q-1.03125 0.8125 -2.765625 0.8125q-1.96875 0 -3.140625 -1.234375q-1.171875 -1.25 -1.171875 -3.453125q0 -2.21875 1.171875 -3.453125q1.1875 -1.25 3.1875 -1.25q1.640625 0 2.609375 0.703125q0.96875 0.703125 1.390625 2.15625zm1.24646 1.703125q0 -1.171875 0.578125 -2.28125q0.59375 -1.109375 1.65625 -1.6875q1.078125 -0.59375 2.40625 -0.59375q2.03125 0 3.328125 1.328125q1.3125 1.3125 1.3125 3.34375q0 2.03125 -1.328125 3.375q-1.3125 1.34375 -3.296875 1.34375q-1.234375 0 -2.359375 -0.546875q-1.125 -0.5625 -1.71875 -1.640625q-0.578125 -1.09375 -0.578125 -2.640625zm2.4375 0.125q0 1.34375 0.640625 2.0625q0.640625 0.703125 1.5625 0.703125q0.9375 0 1.5625 -0.703125q0.625 -0.71875 0.625 -2.078125q0 -1.3125 -0.625 -2.015625q-0.625 -0.71875 -1.5625 -0.71875q-0.921875 0 -1.5625 0.71875q-0.640625 0.703125 -0.640625 2.03125zm8.522217 -4.484375l2.1875 0l0 1.21875q1.1875 -1.421875 2.8125 -1.421875q0.859375 0 1.484375 0.359375q0.640625 0.34375 1.046875 1.0625q0.59375 -0.71875 1.28125 -1.0625q0.6875 -0.359375 1.46875 -0.359375q0.984375 0 1.671875 0.40625q0.6875 0.390625 1.015625 1.171875q0.25 0.578125 0.25 1.859375l0 5.75l-2.375 0l0 -5.140625q0 -1.328125 -0.25 -1.71875q-0.328125 -0.515625 -1.015625 -0.515625q-0.5 0 -0.9375 0.3125q-0.4375 0.296875 -0.640625 0.890625q-0.1875 0.59375 -0.1875 1.859375l0 4.3125l-2.375 0l0 -4.921875q0 -1.3125 -0.125 -1.6875q-0.125 -0.390625 -0.390625 -0.578125q-0.265625 -0.1875 -0.734375 -0.1875q-0.546875 0 -0.984375 0.296875q-0.4375 0.296875 -0.640625 0.859375q-0.1875 0.5625 -0.1875 1.859375l0 4.359375l-2.375 0l0 -8.984375zm15.516861 0l2.21875 0l0 1.3125q0.4375 -0.671875 1.171875 -1.09375q0.734375 -0.421875 1.625 -0.421875q1.578125 0 2.65625 1.234375q1.09375 1.21875 1.09375 3.40625q0 2.25 -1.109375 3.5q-1.09375 1.25 -2.65625 1.25q-0.734375 0 -1.34375 -0.296875q-0.609375 -0.296875 -1.28125 -1.015625l0 4.53125l-2.375 0l0 -12.40625zm2.359375 4.34375q0 1.515625 0.59375 2.234375q0.609375 0.71875 1.46875 0.71875q0.828125 0 1.375 -0.65625q0.546875 -0.671875 0.546875 -2.1875q0 -1.40625 -0.5625 -2.09375q-0.5625 -0.6875 -1.40625 -0.6875q-0.875 0 -1.453125 0.671875q-0.5625 0.671875 -0.5625 2.0zm14.209717 4.640625l0 -1.34375q-0.484375 0.71875 -1.296875 1.140625q-0.796875 0.40625 -1.671875 0.40625q-0.90625 0 -1.625 -0.390625q-0.71875 -0.40625 -1.046875 -1.125q-0.328125 -0.71875 -0.328125 -1.984375l0 -5.6875l2.390625 0l0 4.125q0 1.890625 0.125 2.328125q0.125 0.421875 0.46875 0.671875q0.359375 0.25 0.890625 0.25q0.609375 0 1.09375 -0.328125q0.484375 -0.34375 0.65625 -0.828125q0.171875 -0.5 0.171875 -2.421875l0 -3.796875l2.375 0l0 8.984375l-2.203125 0zm8.787842 -8.984375l0 1.890625l-1.625 0l0 3.625q0 1.09375 0.046875 1.28125q0.046875 0.1875 0.203125 0.3125q0.171875 0.109375 0.421875 0.109375q0.328125 0 0.953125 -0.234375l0.203125 1.84375q-0.828125 0.359375 -1.875 0.359375q-0.65625 0 -1.171875 -0.21875q-0.515625 -0.21875 -0.765625 -0.546875q-0.234375 -0.34375 -0.3125 -0.9375q-0.078125 -0.40625 -0.078125 -1.671875l0 -3.921875l-1.09375 0l0 -1.890625l1.09375 0l0 -1.78125l2.375 -1.390625l0 3.171875l1.625 0zm6.864151 6.125l2.359375 0.390625q-0.453125 1.3125 -1.4375 2.0q-0.984375 0.671875 -2.46875 0.671875q-2.34375 0 -3.46875 -1.53125q-0.890625 -1.234375 -0.890625 -3.09375q0 -2.234375 1.171875 -3.5q1.171875 -1.265625 2.953125 -1.265625q2.0 0 3.15625 1.328125q1.171875 1.3125 1.109375 4.046875l-5.953125 0q0.03125 1.0625 0.578125 1.65625q0.546875 0.578125 1.375 0.578125q0.546875 0 0.921875 -0.296875q0.390625 -0.3125 0.59375 -0.984375zm0.125 -2.40625q-0.015625 -1.03125 -0.53125 -1.5625q-0.5 -0.546875 -1.234375 -0.546875q-0.78125 0 -1.28125 0.578125q-0.515625 0.5625 -0.5 1.53125l3.546875 0zm6.574585 5.265625l-2.375 0l0 -8.984375l2.203125 0l0 1.28125q0.578125 -0.90625 1.03125 -1.1875q0.453125 -0.296875 1.015625 -0.296875q0.8125 0 1.578125 0.453125l-0.734375 2.0625q-0.609375 -0.390625 -1.125 -0.390625q-0.5 0 -0.84375 0.28125q-0.34375 0.28125 -0.546875 1.0q-0.203125 0.71875 -0.203125 3.0l0 2.78125z" fill-rule="nonzero"/><path fill="#f1c232" d="m151.85628 104.07619l16.997421 0l9.658813 9.658798l0 21.994873l-31.931946 0l0 -26.37796l0 0c0 -2.9136963 2.3620148 -5.275711 5.275711 -5.275711z" fill-rule="evenodd"/><path stroke="#595959" stroke-width="1.0" stroke-linejoin="round" stroke-linecap="butt" d="m151.85628 104.07619l16.997421 0l9.658813 9.658798l0 21.994873l-31.931946 0l0 -26.37796l0 0c0 -2.9136963 2.3620148 -5.275711 5.275711 -5.275711z" fill-rule="evenodd"/><path fill="#ffe599" d="m146.58136 114.10578l0 0c0 -2.4965897 2.02388 -4.5204773 4.5204773 -4.5204773l68.3801 0c1.1989136 0 2.348709 0.47626495 3.196457 1.3240204c0.84776306 0.8477478 1.3240204 1.997551 1.3240204 3.196457l0 43.89199c0 2.496582 -2.02388 4.5204773 -4.5204773 4.5204773l-68.3801 0c-2.4965973 0 -4.5204773 -2.0238953 -4.5204773 -4.5204773z" fill-rule="evenodd"/><path stroke="#595959" stroke-width="1.0" stroke-linejoin="round" stroke-linecap="butt" d="m146.58136 114.10578l0 0c0 -2.4965897 2.02388 -4.5204773 4.5204773 -4.5204773l68.3801 0c1.1989136 0 2.348709 0.47626495 3.196457 1.3240204c0.84776306 0.8477478 1.3240204 1.997551 1.3240204 3.196457l0 43.89199c0 2.496582 -2.02388 4.5204773 -4.5204773 4.5204773l-68.3801 0c-2.4965973 0 -4.5204773 -2.0238953 -4.5204773 -4.5204773z" fill-rule="evenodd"/><path fill="#000000" fill-opacity="0.0" d="m228.65092 136.43045l36.25197 0" fill-rule="evenodd"/><path stroke="#000000" stroke-width="2.0" stroke-linejoin="round" stroke-linecap="butt" d="m228.65092 136.43045l28.671982 0" fill-rule="evenodd"/><path fill="#000000" stroke="#000000" stroke-width="2.0" stroke-linecap="butt" d="m263.9029 136.43045c0 1.8170166 -1.472992 3.2899933 -3.2900085 3.2899933c-1.8170166 0 -3.2900085 -1.4729767 -3.2900085 -3.2899933c0 -1.8170166 1.472992 -3.2900085 3.2900085 -3.2900085c1.8170166 0 3.2900085 1.472992 3.2900085 3.2900085z" fill-rule="nonzero"/><path fill="#ffffff" d="m283.4791 92.74898l0 0c0 -6.1111374 4.9540405 -11.065193 11.065186 -11.065193l44.25943 0l0 0c2.9346619 0 5.7491455 1.1657944 7.82428 3.240921c2.0751343 2.0751266 3.2409058 4.8896027 3.2409058 7.824272l0 60.93689c0 6.111145 -4.9540405 11.065201 -11.065186 11.065201l-44.25943 0c-6.111145 0 -11.065186 -4.954056 -11.065186 -11.065201z" fill-rule="evenodd"/><path stroke="#000000" stroke-width="1.0" stroke-linejoin="round" stroke-linecap="butt" d="m283.4791 92.74898l0 0c0 -6.1111374 4.9540405 -11.065193 11.065186 -11.065193l44.25943 0l0 0c2.9346619 0 5.7491455 1.1657944 7.82428 3.240921c2.0751343 2.0751266 3.2409058 4.8896027 3.2409058 7.824272l0 60.93689c0 6.111145 -4.9540405 11.065201 -11.065186 11.065201l-44.25943 0c-6.111145 0 -11.065186 -4.954056 -11.065186 -11.065201z" fill-rule="evenodd"/><path fill="#f1c232" d="m285.97424 96.66426l61.399506 0c0.6617737 0 1.2964172 -0.26287842 1.7643433 -0.7308121c0.46792603 -0.46792603 0.73080444 -1.1025772 0.73080444 -1.7643356l0 -5.1760864l0 0c0 -4.0313263 -3.268036 -7.299362 -7.299347 -7.299362l-51.791107 0c-4.031311 0 -7.299347 3.268036 -7.299347 7.299362l0 5.1760864l0 0c0 1.3780365 1.1171265 2.4951477 2.4951477 2.4951477z" fill-rule="evenodd"/><path stroke="#595959" stroke-width="1.0" stroke-linejoin="round" stroke-linecap="butt" d="m285.97424 96.66426l61.399506 0c0.6617737 0 1.2964172 -0.26287842 1.7643433 -0.7308121c0.46792603 -0.46792603 0.73080444 -1.1025772 0.73080444 -1.7643356l0 -5.1760864l0 0c0 -4.0313263 -3.268036 -7.299362 -7.299347 -7.299362l-51.791107 0c-4.031311 0 -7.299347 3.268036 -7.299347 7.299362l0 5.1760864l0 0c0 1.3780365 1.1171265 2.4951477 2.4951477 2.4951477z" fill-rule="evenodd"/><path fill="#000000" fill-opacity="0.0" d="m290.0825 109.76359l50.921356 0" fill-rule="evenodd"/><path stroke="#000000" stroke-width="2.0" stroke-linejoin="round" stroke-linecap="butt" d="m290.0825 109.76359l50.921356 0" fill-rule="evenodd"/><path fill="#000000" fill-opacity="0.0" d="m290.0825 120.80711l50.921356 0" fill-rule="evenodd"/><path stroke="#000000" stroke-width="2.0" stroke-linejoin="round" stroke-linecap="butt" d="m290.0825 120.80711l50.921356 0" fill-rule="evenodd"/><path fill="#000000" fill-opacity="0.0" d="m290.0825 133.98375l50.921356 0" fill-rule="evenodd"/><path stroke="#000000" stroke-width="2.0" stroke-linejoin="round" stroke-linecap="butt" d="m290.0825 133.98375l50.921356 0" fill-rule="evenodd"/><path fill="#000000" fill-opacity="0.0" d="m290.0825 146.09239l50.921356 0" fill-rule="evenodd"/><path stroke="#000000" stroke-width="2.0" stroke-linejoin="round" stroke-linecap="butt" d="m290.0825 146.09239l50.921356 0" fill-rule="evenodd"/><path fill="#ffffff" d="m289.50418 102.95619l0 0c0 -6.1111298 4.954071 -11.065186 11.065186 -11.065186l44.25943 0l0 0c2.9346924 0 5.7491455 1.1657944 7.82428 3.240921c2.0751343 2.075119 3.2409363 4.889595 3.2409363 7.8242645l0 60.936905c0 6.1111298 -4.954071 11.065186 -11.065216 11.065186l-44.25943 0c-6.1111145 0 -11.065186 -4.954056 -11.065186 -11.065186z" fill-rule="evenodd"/><path stroke="#000000" stroke-width="1.0" stroke-linejoin="round" stroke-linecap="butt" d="m289.50418 102.95619l0 0c0 -6.1111298 4.954071 -11.065186 11.065186 -11.065186l44.25943 0l0 0c2.9346924 0 5.7491455 1.1657944 7.82428 3.240921c2.0751343 2.075119 3.2409363 4.889595 3.2409363 7.8242645l0 60.936905c0 6.1111298 -4.954071 11.065186 -11.065216 11.065186l-44.25943 0c-6.1111145 0 -11.065186 -4.954056 -11.065186 -11.065186z" fill-rule="evenodd"/><path fill="#f1c232" d="m291.99933 106.87148l61.399536 0c0.66174316 0 1.2963867 -0.26287842 1.7643127 -0.7308121c0.46795654 -0.46793365 0.73083496 -1.1025848 0.73083496 -1.7643356l0 -5.1760864l0 0c0 -4.031334 -3.268036 -7.29937 -7.2993774 -7.29937l-51.791077 0c-4.0313416 0 -7.2993774 3.268036 -7.2993774 7.29937l0 5.1760864l0 0c0 1.3780289 1.1171265 2.4951477 2.4951477 2.4951477z" fill-rule="evenodd"/><path stroke="#595959" stroke-width="1.0" stroke-linejoin="round" stroke-linecap="butt" d="m291.99933 106.87148l61.399536 0c0.66174316 0 1.2963867 -0.26287842 1.7643127 -0.7308121c0.46795654 -0.46793365 0.73083496 -1.1025848 0.73083496 -1.7643356l0 -5.1760864l0 0c0 -4.031334 -3.268036 -7.29937 -7.2993774 -7.29937l-51.791077 0c-4.0313416 0 -7.2993774 3.268036 -7.2993774 7.29937l0 5.1760864l0 0c0 1.3780289 1.1171265 2.4951477 2.4951477 2.4951477z" fill-rule="evenodd"/><path fill="#000000" fill-opacity="0.0" d="m296.10757 119.97081l50.921387 0" fill-rule="evenodd"/><path stroke="#000000" stroke-width="2.0" stroke-linejoin="round" stroke-linecap="butt" d="m296.10757 119.97081l50.921387 0" fill-rule="evenodd"/><path fill="#000000" fill-opacity="0.0" d="m296.10757 131.01433l50.921387 0" fill-rule="evenodd"/><path stroke="#000000" stroke-width="2.0" stroke-linejoin="round" stroke-linecap="butt" d="m296.10757 131.01433l50.921387 0" fill-rule="evenodd"/><path fill="#000000" fill-opacity="0.0" d="m296.10757 144.19096l50.921387 0" fill-rule="evenodd"/><path stroke="#000000" stroke-width="2.0" stroke-linejoin="round" stroke-linecap="butt" d="m296.10757 144.19096l50.921387 0" fill-rule="evenodd"/><path fill="#000000" fill-opacity="0.0" d="m296.10757 156.2996l50.921387 0" fill-rule="evenodd"/><path stroke="#000000" stroke-width="2.0" stroke-linejoin="round" stroke-linecap="butt" d="m296.10757 156.2996l50.921387 0" fill-rule="evenodd"/><path fill="#ffffff" d="m289.50418 102.95619l0 0c0 -6.1111298 4.954071 -11.065186 11.065186 -11.065186l44.25943 0l0 0c2.9346924 0 5.7491455 1.1657944 7.82428 3.240921c2.0751343 2.075119 3.2409363 4.889595 3.2409363 7.8242645l0 60.936905c0 6.1111298 -4.954071 11.065186 -11.065216 11.065186l-44.25943 0c-6.1111145 0 -11.065186 -4.954056 -11.065186 -11.065186z" fill-rule="evenodd"/><path stroke="#000000" stroke-width="1.0" stroke-linejoin="round" stroke-linecap="butt" d="m289.50418 102.95619l0 0c0 -6.1111298 4.954071 -11.065186 11.065186 -11.065186l44.25943 0l0 0c2.9346924 0 5.7491455 1.1657944 7.82428 3.240921c2.0751343 2.075119 3.2409363 4.889595 3.2409363 7.8242645l0 60.936905c0 6.1111298 -4.954071 11.065186 -11.065216 11.065186l-44.25943 0c-6.1111145 0 -11.065186 -4.954056 -11.065186 -11.065186z" fill-rule="evenodd"/><path fill="#f1c232" d="m291.99933 106.87148l61.399536 0c0.66174316 0 1.2963867 -0.26287842 1.7643127 -0.7308121c0.46795654 -0.46793365 0.73083496 -1.1025848 0.73083496 -1.7643356l0 -5.1760864l0 0c0 -4.031334 -3.268036 -7.29937 -7.2993774 -7.29937l-51.791077 0c-4.0313416 0 -7.2993774 3.268036 -7.2993774 7.29937l0 5.1760864l0 0c0 1.3780289 1.1171265 2.4951477 2.4951477 2.4951477z" fill-rule="evenodd"/><path stroke="#595959" stroke-width="1.0" stroke-linejoin="round" stroke-linecap="butt" d="m291.99933 106.87148l61.399536 0c0.66174316 0 1.2963867 -0.26287842 1.7643127 -0.7308121c0.46795654 -0.46793365 0.73083496 -1.1025848 0.73083496 -1.7643356l0 -5.1760864l0 0c0 -4.031334 -3.268036 -7.29937 -7.2993774 -7.29937l-51.791077 0c-4.0313416 0 -7.2993774 3.268036 -7.2993774 7.29937l0 5.1760864l0 0c0 1.3780289 1.1171265 2.4951477 2.4951477 2.4951477z" fill-rule="evenodd"/><path fill="#000000" fill-opacity="0.0" d="m296.10757 119.97081l50.921387 0" fill-rule="evenodd"/><path stroke="#000000" stroke-width="2.0" stroke-linejoin="round" stroke-linecap="butt" d="m296.10757 119.97081l50.921387 0" fill-rule="evenodd"/><path fill="#000000" fill-opacity="0.0" d="m296.10757 131.01433l50.921387 0" fill-rule="evenodd"/><path stroke="#000000" stroke-width="2.0" stroke-linejoin="round" stroke-linecap="butt" d="m296.10757 131.01433l50.921387 0" fill-rule="evenodd"/><path fill="#000000" fill-opacity="0.0" d="m296.10757 144.19096l50.921387 0" fill-rule="evenodd"/><path stroke="#000000" stroke-width="2.0" stroke-linejoin="round" stroke-linecap="butt" d="m296.10757 144.19096l50.921387 0" fill-rule="evenodd"/><path fill="#000000" fill-opacity="0.0" d="m296.10757 156.2996l50.921387 0" fill-rule="evenodd"/><path stroke="#000000" stroke-width="2.0" stroke-linejoin="round" stroke-linecap="butt" d="m296.10757 156.2996l50.921387 0" fill-rule="evenodd"/><path fill="#ffffff" d="m295.52927 113.163414l0 0c0 -6.1111374 4.954071 -11.065193 11.065216 -11.065193l44.25943 0l0 0c2.9346619 0 5.7491455 1.1657944 7.82428 3.240921c2.0751038 2.0751266 3.2409058 4.8896027 3.2409058 7.824272l0 60.936897c0 6.1111298 -4.954071 11.065186 -11.065186 11.065186l-44.25943 0c-6.111145 0 -11.065216 -4.954056 -11.065216 -11.065186z" fill-rule="evenodd"/><path stroke="#000000" stroke-width="1.0" stroke-linejoin="round" stroke-linecap="butt" d="m295.52927 113.163414l0 0c0 -6.1111374 4.954071 -11.065193 11.065216 -11.065193l44.25943 0l0 0c2.9346619 0 5.7491455 1.1657944 7.82428 3.240921c2.0751038 2.0751266 3.2409058 4.8896027 3.2409058 7.824272l0 60.936897c0 6.1111298 -4.954071 11.065186 -11.065186 11.065186l-44.25943 0c-6.111145 0 -11.065216 -4.954056 -11.065216 -11.065186z" fill-rule="evenodd"/><path fill="#f1c232" d="m298.02444 117.078705l61.399506 0c0.66174316 0 1.2964172 -0.26288605 1.7643433 -0.7308197c0.46792603 -0.46792603 0.73080444 -1.1025772 0.73080444 -1.7643356l0 -5.1760864l0 0c0 -4.0313263 -3.268036 -7.299362 -7.2993774 -7.299362l-51.791077 0c-4.031311 0 -7.2993774 3.268036 -7.2993774 7.299362l0 5.1760864l0 0c0 1.3780365 1.1171265 2.4951553 2.4951782 2.4951553z" fill-rule="evenodd"/><path stroke="#595959" stroke-width="1.0" stroke-linejoin="round" stroke-linecap="butt" d="m298.02444 117.078705l61.399506 0c0.66174316 0 1.2964172 -0.26288605 1.7643433 -0.7308197c0.46792603 -0.46792603 0.73080444 -1.1025772 0.73080444 -1.7643356l0 -5.1760864l0 0c0 -4.0313263 -3.268036 -7.299362 -7.2993774 -7.299362l-51.791077 0c-4.031311 0 -7.2993774 3.268036 -7.2993774 7.299362l0 5.1760864l0 0c0 1.3780365 1.1171265 2.4951553 2.4951782 2.4951553z" fill-rule="evenodd"/><path fill="#f1c232" d="m151.85628 408.07617l16.997421 0l9.658813 9.658813l0 21.994873l-31.931946 0l0 -26.37796l0 0c0 -2.9136963 2.3620148 -5.2757263 5.275711 -5.2757263z" fill-rule="evenodd"/><path stroke="#595959" stroke-width="1.0" stroke-linejoin="round" stroke-linecap="butt" d="m151.85628 408.07617l16.997421 0l9.658813 9.658813l0 21.994873l-31.931946 0l0 -26.37796l0 0c0 -2.9136963 2.3620148 -5.2757263 5.275711 -5.2757263z" fill-rule="evenodd"/><path fill="#ffe599" d="m146.58136 418.10577l0 0c0 -2.496582 2.02388 -4.5204773 4.5204773 -4.5204773l68.3801 0c1.1989136 0 2.348709 0.47628784 3.196457 1.3240356c0.84776306 0.8477478 1.3240204 1.9975281 1.3240204 3.1964417l0 43.892c0 2.496582 -2.02388 4.5204773 -4.5204773 4.5204773l-68.3801 0c-2.4965973 0 -4.5204773 -2.0238953 -4.5204773 -4.5204773z" fill-rule="evenodd"/><path stroke="#595959" stroke-width="1.0" stroke-linejoin="round" stroke-linecap="butt" d="m146.58136 418.10577l0 0c0 -2.496582 2.02388 -4.5204773 4.5204773 -4.5204773l68.3801 0c1.1989136 0 2.348709 0.47628784 3.196457 1.3240356c0.84776306 0.8477478 1.3240204 1.9975281 1.3240204 3.1964417l0 43.892c0 2.496582 -2.02388 4.5204773 -4.5204773 4.5204773l-68.3801 0c-2.4965973 0 -4.5204773 -2.0238953 -4.5204773 -4.5204773z" fill-rule="evenodd"/><path fill="#000000" fill-opacity="0.0" d="m228.65092 440.43045l36.25197 0" fill-rule="evenodd"/><path stroke="#000000" stroke-width="2.0" stroke-linejoin="round" stroke-linecap="butt" d="m228.65092 440.43045l28.671982 0" fill-rule="evenodd"/><path fill="#000000" stroke="#000000" stroke-width="2.0" stroke-linecap="butt" d="m263.9029 440.43045c0 1.8170166 -1.472992 3.2900085 -3.2900085 3.2900085c-1.8170166 0 -3.2900085 -1.472992 -3.2900085 -3.2900085c0 -1.8170166 1.472992 -3.2900085 3.2900085 -3.2900085c1.8170166 0 3.2900085 1.472992 3.2900085 3.2900085z" fill-rule="nonzero"/><path fill="#ffffff" d="m283.4791 396.74896l0 0c0 -6.1111145 4.9540405 -11.065186 11.065186 -11.065186l44.25943 0l0 0c2.9346619 0 5.7491455 1.165802 7.82428 3.2409363c2.0751343 2.0751038 3.2409058 4.8895874 3.2409058 7.8242493l0 60.93692c0 6.1111145 -4.9540405 11.065186 -11.065186 11.065186l-44.25943 0c-6.111145 0 -11.065186 -4.954071 -11.065186 -11.065186z" fill-rule="evenodd"/><path stroke="#000000" stroke-width="1.0" stroke-linejoin="round" stroke-linecap="butt" d="m283.4791 396.74896l0 0c0 -6.1111145 4.9540405 -11.065186 11.065186 -11.065186l44.25943 0l0 0c2.9346619 0 5.7491455 1.165802 7.82428 3.2409363c2.0751343 2.0751038 3.2409058 4.8895874 3.2409058 7.8242493l0 60.93692c0 6.1111145 -4.9540405 11.065186 -11.065186 11.065186l-44.25943 0c-6.111145 0 -11.065186 -4.954071 -11.065186 -11.065186z" fill-rule="evenodd"/><path fill="#f1c232" d="m285.97424 400.66428l61.399506 0c0.6617737 0 1.2964172 -0.26290894 1.7643433 -0.73083496c0.46792603 -0.46792603 0.73080444 -1.1025696 0.73080444 -1.7643127l0 -5.1760864l0 0c0 -4.0313416 -3.268036 -7.2993774 -7.299347 -7.2993774l-51.791107 0c-4.031311 0 -7.299347 3.268036 -7.299347 7.2993774l0 5.1760864l0 0c0 1.3780212 1.1171265 2.4951477 2.4951477 2.4951477z" fill-rule="evenodd"/><path stroke="#595959" stroke-width="1.0" stroke-linejoin="round" stroke-linecap="butt" d="m285.97424 400.66428l61.399506 0c0.6617737 0 1.2964172 -0.26290894 1.7643433 -0.73083496c0.46792603 -0.46792603 0.73080444 -1.1025696 0.73080444 -1.7643127l0 -5.1760864l0 0c0 -4.0313416 -3.268036 -7.2993774 -7.299347 -7.2993774l-51.791107 0c-4.031311 0 -7.299347 3.268036 -7.299347 7.2993774l0 5.1760864l0 0c0 1.3780212 1.1171265 2.4951477 2.4951477 2.4951477z" fill-rule="evenodd"/><path fill="#000000" fill-opacity="0.0" d="m290.0825 413.76358l50.921356 0" fill-rule="evenodd"/><path stroke="#000000" stroke-width="2.0" stroke-linejoin="round" stroke-linecap="butt" d="m290.0825 413.76358l50.921356 0" fill-rule="evenodd"/><path fill="#000000" fill-opacity="0.0" d="m290.0825 424.8071l50.921356 0" fill-rule="evenodd"/><path stroke="#000000" stroke-width="2.0" stroke-linejoin="round" stroke-linecap="butt" d="m290.0825 424.8071l50.921356 0" fill-rule="evenodd"/><path fill="#000000" fill-opacity="0.0" d="m290.0825 437.98373l50.921356 0" fill-rule="evenodd"/><path stroke="#000000" stroke-width="2.0" stroke-linejoin="round" stroke-linecap="butt" d="m290.0825 437.98373l50.921356 0" fill-rule="evenodd"/><path fill="#000000" fill-opacity="0.0" d="m290.0825 450.0924l50.921356 0" fill-rule="evenodd"/><path stroke="#000000" stroke-width="2.0" stroke-linejoin="round" stroke-linecap="butt" d="m290.0825 450.0924l50.921356 0" fill-rule="evenodd"/><path fill="#ffffff" d="m289.50418 406.9562l0 0c0 -6.111145 4.954071 -11.065216 11.065186 -11.065216l44.25943 0l0 0c2.9346924 0 5.7491455 1.165802 7.82428 3.2409363c2.0751343 2.0751343 3.2409363 4.8895874 3.2409363 7.82428l0 60.93689c0 6.111145 -4.954071 11.065186 -11.065216 11.065186l-44.25943 0c-6.1111145 0 -11.065186 -4.9540405 -11.065186 -11.065186z" fill-rule="evenodd"/><path stroke="#000000" stroke-width="1.0" stroke-linejoin="round" stroke-linecap="butt" d="m289.50418 406.9562l0 0c0 -6.111145 4.954071 -11.065216 11.065186 -11.065216l44.25943 0l0 0c2.9346924 0 5.7491455 1.165802 7.82428 3.2409363c2.0751343 2.0751343 3.2409363 4.8895874 3.2409363 7.82428l0 60.93689c0 6.111145 -4.954071 11.065186 -11.065216 11.065186l-44.25943 0c-6.1111145 0 -11.065186 -4.9540405 -11.065186 -11.065186z" fill-rule="evenodd"/><path fill="#f1c232" d="m291.99933 410.8715l61.399536 0c0.66174316 0 1.2963867 -0.26287842 1.7643127 -0.73083496c0.46795654 -0.46792603 0.73083496 -1.1025696 0.73083496 -1.7643127l0 -5.1760864l0 0c0 -4.0313416 -3.268036 -7.2993774 -7.2993774 -7.2993774l-51.791077 0c-4.0313416 0 -7.2993774 3.268036 -7.2993774 7.2993774l0 5.1760864l0 0c0 1.3780212 1.1171265 2.4951477 2.4951477 2.4951477z" fill-rule="evenodd"/><path stroke="#595959" stroke-width="1.0" stroke-linejoin="round" stroke-linecap="butt" d="m291.99933 410.8715l61.399536 0c0.66174316 0 1.2963867 -0.26287842 1.7643127 -0.73083496c0.46795654 -0.46792603 0.73083496 -1.1025696 0.73083496 -1.7643127l0 -5.1760864l0 0c0 -4.0313416 -3.268036 -7.2993774 -7.2993774 -7.2993774l-51.791077 0c-4.0313416 0 -7.2993774 3.268036 -7.2993774 7.2993774l0 5.1760864l0 0c0 1.3780212 1.1171265 2.4951477 2.4951477 2.4951477z" fill-rule="evenodd"/><path fill="#000000" fill-opacity="0.0" d="m296.10757 423.97083l50.921387 0" fill-rule="evenodd"/><path stroke="#000000" stroke-width="2.0" stroke-linejoin="round" stroke-linecap="butt" d="m296.10757 423.97083l50.921387 0" fill-rule="evenodd"/><path fill="#000000" fill-opacity="0.0" d="m296.10757 435.01434l50.921387 0" fill-rule="evenodd"/><path stroke="#000000" stroke-width="2.0" stroke-linejoin="round" stroke-linecap="butt" d="m296.10757 435.01434l50.921387 0" fill-rule="evenodd"/><path fill="#000000" fill-opacity="0.0" d="m296.10757 448.19098l50.921387 0" fill-rule="evenodd"/><path stroke="#000000" stroke-width="2.0" stroke-linejoin="round" stroke-linecap="butt" d="m296.10757 448.19098l50.921387 0" fill-rule="evenodd"/><path fill="#000000" fill-opacity="0.0" d="m296.10757 460.29962l50.921387 0" fill-rule="evenodd"/><path stroke="#000000" stroke-width="2.0" stroke-linejoin="round" stroke-linecap="butt" d="m296.10757 460.29962l50.921387 0" fill-rule="evenodd"/><path fill="#ffffff" d="m289.50418 406.9562l0 0c0 -6.111145 4.954071 -11.065216 11.065186 -11.065216l44.25943 0l0 0c2.9346924 0 5.7491455 1.165802 7.82428 3.2409363c2.0751343 2.0751343 3.2409363 4.8895874 3.2409363 7.82428l0 60.93689c0 6.111145 -4.954071 11.065186 -11.065216 11.065186l-44.25943 0c-6.1111145 0 -11.065186 -4.9540405 -11.065186 -11.065186z" fill-rule="evenodd"/><path stroke="#000000" stroke-width="1.0" stroke-linejoin="round" stroke-linecap="butt" d="m289.50418 406.9562l0 0c0 -6.111145 4.954071 -11.065216 11.065186 -11.065216l44.25943 0l0 0c2.9346924 0 5.7491455 1.165802 7.82428 3.2409363c2.0751343 2.0751343 3.2409363 4.8895874 3.2409363 7.82428l0 60.93689c0 6.111145 -4.954071 11.065186 -11.065216 11.065186l-44.25943 0c-6.1111145 0 -11.065186 -4.9540405 -11.065186 -11.065186z" fill-rule="evenodd"/><path fill="#f1c232" d="m291.99933 410.8715l61.399536 0c0.66174316 0 1.2963867 -0.26287842 1.7643127 -0.73083496c0.46795654 -0.46792603 0.73083496 -1.1025696 0.73083496 -1.7643127l0 -5.1760864l0 0c0 -4.0313416 -3.268036 -7.2993774 -7.2993774 -7.2993774l-51.791077 0c-4.0313416 0 -7.2993774 3.268036 -7.2993774 7.2993774l0 5.1760864l0 0c0 1.3780212 1.1171265 2.4951477 2.4951477 2.4951477z" fill-rule="evenodd"/><path stroke="#595959" stroke-width="1.0" stroke-linejoin="round" stroke-linecap="butt" d="m291.99933 410.8715l61.399536 0c0.66174316 0 1.2963867 -0.26287842 1.7643127 -0.73083496c0.46795654 -0.46792603 0.73083496 -1.1025696 0.73083496 -1.7643127l0 -5.1760864l0 0c0 -4.0313416 -3.268036 -7.2993774 -7.2993774 -7.2993774l-51.791077 0c-4.0313416 0 -7.2993774 3.268036 -7.2993774 7.2993774l0 5.1760864l0 0c0 1.3780212 1.1171265 2.4951477 2.4951477 2.4951477z" fill-rule="evenodd"/><path fill="#000000" fill-opacity="0.0" d="m296.10757 423.97083l50.921387 0" fill-rule="evenodd"/><path stroke="#000000" stroke-width="2.0" stroke-linejoin="round" stroke-linecap="butt" d="m296.10757 423.97083l50.921387 0" fill-rule="evenodd"/><path fill="#000000" fill-opacity="0.0" d="m296.10757 435.01434l50.921387 0" fill-rule="evenodd"/><path stroke="#000000" stroke-width="2.0" stroke-linejoin="round" stroke-linecap="butt" d="m296.10757 435.01434l50.921387 0" fill-rule="evenodd"/><path fill="#000000" fill-opacity="0.0" d="m296.10757 448.19098l50.921387 0" fill-rule="evenodd"/><path stroke="#000000" stroke-width="2.0" stroke-linejoin="round" stroke-linecap="butt" d="m296.10757 448.19098l50.921387 0" fill-rule="evenodd"/><path fill="#000000" fill-opacity="0.0" d="m296.10757 460.29962l50.921387 0" fill-rule="evenodd"/><path stroke="#000000" stroke-width="2.0" stroke-linejoin="round" stroke-linecap="butt" d="m296.10757 460.29962l50.921387 0" fill-rule="evenodd"/><path fill="#ffffff" d="m295.52927 417.16342l0 0c0 -6.111145 4.954071 -11.065186 11.065216 -11.065186l44.25943 0l0 0c2.9346619 0 5.7491455 1.1657715 7.82428 3.2409058c2.0751038 2.0751343 3.2409058 4.8895874 3.2409058 7.82428l0 60.93689c0 6.111145 -4.954071 11.065186 -11.065186 11.065186l-44.25943 0c-6.111145 0 -11.065216 -4.9540405 -11.065216 -11.065186z" fill-rule="evenodd"/><path stroke="#000000" stroke-width="1.0" stroke-linejoin="round" stroke-linecap="butt" d="m295.52927 417.16342l0 0c0 -6.111145 4.954071 -11.065186 11.065216 -11.065186l44.25943 0l0 0c2.9346619 0 5.7491455 1.1657715 7.82428 3.2409058c2.0751038 2.0751343 3.2409058 4.8895874 3.2409058 7.82428l0 60.93689c0 6.111145 -4.954071 11.065186 -11.065186 11.065186l-44.25943 0c-6.111145 0 -11.065216 -4.9540405 -11.065216 -11.065186z" fill-rule="evenodd"/><path fill="#f1c232" d="m298.02444 421.0787l61.399506 0c0.66174316 0 1.2964172 -0.26287842 1.7643433 -0.73080444c0.46792603 -0.46795654 0.73080444 -1.1026001 0.73080444 -1.7643433l0 -5.1760864l0 0c0 -4.0313416 -3.268036 -7.2993774 -7.2993774 -7.2993774l-51.791077 0c-4.031311 0 -7.2993774 3.268036 -7.2993774 7.2993774l0 5.1760864l0 0c0 1.3780212 1.1171265 2.4951477 2.4951782 2.4951477z" fill-rule="evenodd"/><path stroke="#595959" stroke-width="1.0" stroke-linejoin="round" stroke-linecap="butt" d="m298.02444 421.0787l61.399506 0c0.66174316 0 1.2964172 -0.26287842 1.7643433 -0.73080444c0.46792603 -0.46795654 0.73080444 -1.1026001 0.73080444 -1.7643433l0 -5.1760864l0 0c0 -4.0313416 -3.268036 -7.2993774 -7.2993774 -7.2993774l-51.791077 0c-4.031311 0 -7.2993774 3.268036 -7.2993774 7.2993774l0 5.1760864l0 0c0 1.3780212 1.1171265 2.4951477 2.4951782 2.4951477z" fill-rule="evenodd"/><path fill="#000000" fill-opacity="0.0" d="m259.98425 185.57742l141.13385 0l0 36.25197l-141.13385 0z" fill-rule="evenodd"/><path fill="#000000" d="m270.04675 212.49742l2.796875 -13.359375l1.78125 0l-2.796875 13.359375l-1.78125 0zm4.7457886 0l2.015625 -9.671875l1.5 0l-0.359375 1.6875q0.96875 -1.0 1.8125 -1.453125q0.859375 -0.453125 1.734375 -0.453125q1.1875 0 1.84375 0.640625q0.671875 0.625 0.671875 1.703125q0 0.53125 -0.234375 1.6875l-1.234375 5.859375l-1.640625 0l1.28125 -6.125q0.1875 -0.890625 0.1875 -1.328125q0 -0.484375 -0.328125 -0.78125q-0.328125 -0.296875 -0.953125 -0.296875q-1.28125 0 -2.265625 0.90625q-0.984375 0.90625 -1.453125 3.125l-0.9375 4.5l-1.640625 0zm12.703857 -11.484375l0.40625 -1.875l1.625 0l-0.390625 1.875l-1.640625 0zm-2.390625 11.484375l2.015625 -9.671875l1.65625 0l-2.03125 9.671875l-1.640625 0zm8.051056 -1.34375l-0.265625 1.359375q-0.59375 0.140625 -1.15625 0.140625q-0.984375 0 -1.5625 -0.46875q-0.4375 -0.375 -0.4375 -1.0q0 -0.3125 0.234375 -1.46875l1.171875 -5.625l-1.296875 0l0.265625 -1.265625l1.296875 0l0.5 -2.375l1.890625 -1.140625l-0.734375 3.515625l1.625 0l-0.28125 1.265625l-1.609375 0l-1.125 5.359375q-0.203125 1.015625 -0.203125 1.21875q0 0.28125 0.15625 0.4375q0.171875 0.15625 0.5625 0.15625q0.546875 0 0.96875 -0.109375zm3.667694 -10.140625l0.40625 -1.875l1.625 0l-0.390625 1.875l-1.640625 0zm-2.390625 11.484375l2.015625 -9.671875l1.65625 0l-2.03125 9.671875l-1.640625 0zm10.722931 -1.203125q-0.859375 0.734375 -1.65625 1.078125q-0.78125 0.34375 -1.6875 0.34375q-1.34375 0 -2.171875 -0.78125q-0.8125 -0.796875 -0.8125 -2.03125q0 -0.796875 0.375 -1.421875q0.375 -0.625 0.984375 -1.0q0.609375 -0.390625 1.484375 -0.546875q0.5625 -0.109375 2.109375 -0.171875q1.5625 -0.0625 2.234375 -0.328125q0.1875 -0.671875 0.1875 -1.125q0 -0.578125 -0.421875 -0.90625q-0.5625 -0.453125 -1.671875 -0.453125q-1.03125 0 -1.703125 0.46875q-0.65625 0.453125 -0.953125 1.296875l-1.671875 -0.140625q0.515625 -1.4375 1.609375 -2.203125q1.109375 -0.765625 2.796875 -0.765625q1.796875 0 2.84375 0.859375q0.796875 0.625 0.796875 1.65625q0 0.765625 -0.21875 1.796875l-0.53125 2.40625q-0.265625 1.140625 -0.265625 1.859375q0 0.453125 0.203125 1.3125l-1.671875 0q-0.125 -0.46875 -0.1875 -1.203125zm0.609375 -3.703125q-0.34375 0.140625 -0.75 0.21875q-0.390625 0.0625 -1.3125 0.15625q-1.4375 0.125 -2.03125 0.328125q-0.59375 0.1875 -0.90625 0.625q-0.296875 0.421875 -0.296875 0.9375q0 0.6875 0.484375 1.140625q0.484375 0.4375 1.359375 0.4375q0.828125 0 1.578125 -0.421875q0.75 -0.4375 1.1875 -1.203125q0.4375 -0.78125 0.6875 -2.21875zm3.1101074 4.90625l2.796875 -13.359375l1.640625 0l-2.78125 13.359375l-1.65625 0zm20.09375 -4.703125l1.765625 0.25q-0.84375 2.3125 -2.453125 3.5q-1.59375 1.1875 -3.578125 1.1875q-2.4375 0 -3.875 -1.484375q-1.421875 -1.484375 -1.421875 -4.265625q0 -3.609375 2.171875 -5.96875q1.9375 -2.09375 4.796875 -2.09375q2.125 0 3.4375 1.140625q1.328125 1.125 1.53125 3.0625l-1.671875 0.140625q-0.25 -1.4375 -1.078125 -2.15625q-0.828125 -0.71875 -2.125 -0.71875q-2.453125 0 -3.96875 2.1875q-1.3125 1.875 -1.3125 4.453125q0 2.046875 1.015625 3.140625q1.015625 1.078125 2.625 1.078125q1.390625 0 2.5 -0.890625q1.125 -0.90625 1.640625 -2.5625zm3.129181 1.03125q0 -2.828125 1.671875 -4.6875q1.375 -1.53125 3.609375 -1.53125q1.75 0 2.8125 1.09375q1.078125 1.09375 1.078125 2.953125q0 1.65625 -0.671875 3.09375q-0.671875 1.4375 -1.921875 2.203125q-1.25 0.765625 -2.625 0.765625q-1.125 0 -2.046875 -0.484375q-0.921875 -0.484375 -1.421875 -1.359375q-0.484375 -0.890625 -0.484375 -2.046875zm1.65625 -0.15625q0 1.359375 0.65625 2.0625q0.65625 0.703125 1.65625 0.703125q0.53125 0 1.046875 -0.203125q0.53125 -0.21875 0.96875 -0.65625q0.453125 -0.4375 0.765625 -1.0q0.3125 -0.5625 0.5 -1.203125q0.28125 -0.90625 0.28125 -1.734375q0 -1.3125 -0.65625 -2.03125q-0.65625 -0.734375 -1.65625 -0.734375q-0.78125 0 -1.421875 0.375q-0.625 0.375 -1.140625 1.09375q-0.515625 0.703125 -0.765625 1.640625q-0.234375 0.9375 -0.234375 1.6875zm8.422607 3.828125l2.015625 -9.671875l1.65625 0l-0.34375 1.59375q0.921875 -1.03125 1.640625 -1.421875q0.734375 -0.390625 1.578125 -0.390625q0.90625 0 1.515625 0.484375q0.609375 0.46875 0.796875 1.328125q0.734375 -0.90625 1.546875 -1.359375q0.8125 -0.453125 1.71875 -0.453125q1.21875 0 1.8125 0.578125q0.609375 0.5625 0.609375 1.609375q0 0.4375 -0.203125 1.46875l-1.3125 6.234375l-1.640625 0l1.328125 -6.390625q0.171875 -0.78125 0.171875 -1.125q0 -0.46875 -0.296875 -0.734375q-0.296875 -0.28125 -0.84375 -0.28125q-0.75 0 -1.515625 0.453125q-0.765625 0.4375 -1.1875 1.171875q-0.421875 0.71875 -0.734375 2.21875l-0.984375 4.6875l-1.65625 0l1.375 -6.53125q0.140625 -0.671875 0.140625 -0.953125q0 -0.46875 -0.296875 -0.75q-0.296875 -0.296875 -0.765625 -0.296875q-0.703125 0 -1.484375 0.453125q-0.765625 0.4375 -1.25 1.234375q-0.46875 0.796875 -0.78125 2.265625l-0.953125 4.578125l-1.65625 0zm15.540802 0l2.015625 -9.671875l1.65625 0l-0.34375 1.59375q0.921875 -1.03125 1.640625 -1.421875q0.734375 -0.390625 1.578125 -0.390625q0.90625 0 1.515625 0.484375q0.609375 0.46875 0.796875 1.328125q0.734375 -0.90625 1.546875 -1.359375q0.8125 -0.453125 1.71875 -0.453125q1.21875 0 1.8125 0.578125q0.609375 0.5625 0.609375 1.609375q0 0.4375 -0.203125 1.46875l-1.3125 6.234375l-1.640625 0l1.328125 -6.390625q0.171875 -0.78125 0.171875 -1.125q0 -0.46875 -0.296875 -0.734375q-0.296875 -0.28125 -0.84375 -0.28125q-0.75 0 -1.515625 0.453125q-0.765625 0.4375 -1.1875 1.171875q-0.421875 0.71875 -0.734375 2.21875l-0.984375 4.6875l-1.65625 0l1.375 -6.53125q0.140625 -0.671875 0.140625 -0.953125q0 -0.46875 -0.296875 -0.75q-0.296875 -0.296875 -0.765625 -0.296875q-0.703125 0 -1.484375 0.453125q-0.765625 0.4375 -1.25 1.234375q-0.46875 0.796875 -0.78125 2.265625l-0.953125 4.578125l-1.65625 0zm17.884552 -11.484375l0.40625 -1.875l1.625 0l-0.390625 1.875l-1.640625 0zm-2.390625 11.484375l2.015625 -9.671875l1.65625 0l-2.03125 9.671875l-1.640625 0zm8.051056 -1.34375l-0.265625 1.359375q-0.59375 0.140625 -1.15625 0.140625q-0.984375 0 -1.5625 -0.46875q-0.4375 -0.375 -0.4375 -1.0q0 -0.3125 0.234375 -1.46875l1.171875 -5.625l-1.296875 0l0.265625 -1.265625l1.296875 0l0.5 -2.375l1.890625 -1.140625l-0.734375 3.515625l1.625 0l-0.28125 1.265625l-1.609375 0l-1.125 5.359375q-0.203125 1.015625 -0.203125 1.21875q0 0.28125 0.15625 0.4375q0.171875 0.15625 0.5625 0.15625q0.546875 0 0.96875 -0.109375z" fill-rule="nonzero"/><path fill="#ffffff" d="m563.47906 396.74896l0 0c0 -6.1111145 4.9541016 -11.065186 11.065247 -11.065186l44.2594 0l0 0c2.9346924 0 5.7491455 1.165802 7.82428 3.2409363c2.0751343 2.0751038 3.2409058 4.8895874 3.2409058 7.8242493l0 60.93692c0 6.1111145 -4.9540405 11.065186 -11.065186 11.065186l-44.2594 0c-6.111145 0 -11.065247 -4.954071 -11.065247 -11.065186z" fill-rule="evenodd"/><path stroke="#000000" stroke-width="1.0" stroke-linejoin="round" stroke-linecap="butt" d="m563.47906 396.74896l0 0c0 -6.1111145 4.9541016 -11.065186 11.065247 -11.065186l44.2594 0l0 0c2.9346924 0 5.7491455 1.165802 7.82428 3.2409363c2.0751343 2.0751038 3.2409058 4.8895874 3.2409058 7.8242493l0 60.93692c0 6.1111145 -4.9540405 11.065186 -11.065186 11.065186l-44.2594 0c-6.111145 0 -11.065247 -4.954071 -11.065247 -11.065186z" fill-rule="evenodd"/><path fill="#f1c232" d="m565.97424 400.66428l61.399536 0c0.66174316 0 1.2963867 -0.26290894 1.7643433 -0.73083496c0.4678955 -0.46792603 0.7307739 -1.1025696 0.7307739 -1.7643127l0 -5.1760864l0 0c0 -4.0313416 -3.2680054 -7.2993774 -7.2993774 -7.2993774l-51.791077 0c-4.031311 0 -7.2993774 3.268036 -7.2993774 7.2993774l0 5.1760864l0 0c0 1.3780212 1.1171265 2.4951477 2.4951782 2.4951477z" fill-rule="evenodd"/><path stroke="#595959" stroke-width="1.0" stroke-linejoin="round" stroke-linecap="butt" d="m565.97424 400.66428l61.399536 0c0.66174316 0 1.2963867 -0.26290894 1.7643433 -0.73083496c0.4678955 -0.46792603 0.7307739 -1.1025696 0.7307739 -1.7643127l0 -5.1760864l0 0c0 -4.0313416 -3.2680054 -7.2993774 -7.2993774 -7.2993774l-51.791077 0c-4.031311 0 -7.2993774 3.268036 -7.2993774 7.2993774l0 5.1760864l0 0c0 1.3780212 1.1171265 2.4951477 2.4951782 2.4951477z" fill-rule="evenodd"/><path fill="#000000" fill-opacity="0.0" d="m570.08246 413.76358l50.921387 0" fill-rule="evenodd"/><path stroke="#000000" stroke-width="2.0" stroke-linejoin="round" stroke-linecap="butt" d="m570.08246 413.76358l50.921387 0" fill-rule="evenodd"/><path fill="#000000" fill-opacity="0.0" d="m570.08246 424.8071l50.921387 0" fill-rule="evenodd"/><path stroke="#000000" stroke-width="2.0" stroke-linejoin="round" stroke-linecap="butt" d="m570.08246 424.8071l50.921387 0" fill-rule="evenodd"/><path fill="#000000" fill-opacity="0.0" d="m570.08246 437.98373l50.921387 0" fill-rule="evenodd"/><path stroke="#000000" stroke-width="2.0" stroke-linejoin="round" stroke-linecap="butt" d="m570.08246 437.98373l50.921387 0" fill-rule="evenodd"/><path fill="#000000" fill-opacity="0.0" d="m570.08246 450.0924l50.921387 0" fill-rule="evenodd"/><path stroke="#000000" stroke-width="2.0" stroke-linejoin="round" stroke-linecap="butt" d="m570.08246 450.0924l50.921387 0" fill-rule="evenodd"/><path fill="#ffffff" d="m569.5042 406.9562l0 0c0 -6.111145 4.9540405 -11.065216 11.065186 -11.065216l44.2594 0l0 0c2.9346924 0 5.7491455 1.165802 7.82428 3.2409363c2.0751343 2.0751343 3.2409058 4.8895874 3.2409058 7.82428l0 60.93689c0 6.111145 -4.9540405 11.065186 -11.065186 11.065186l-44.2594 0c-6.111145 0 -11.065186 -4.9540405 -11.065186 -11.065186z" fill-rule="evenodd"/><path stroke="#000000" stroke-width="1.0" stroke-linejoin="round" stroke-linecap="butt" d="m569.5042 406.9562l0 0c0 -6.111145 4.9540405 -11.065216 11.065186 -11.065216l44.2594 0l0 0c2.9346924 0 5.7491455 1.165802 7.82428 3.2409363c2.0751343 2.0751343 3.2409058 4.8895874 3.2409058 7.82428l0 60.93689c0 6.111145 -4.9540405 11.065186 -11.065186 11.065186l-44.2594 0c-6.111145 0 -11.065186 -4.9540405 -11.065186 -11.065186z" fill-rule="evenodd"/><path fill="#f1c232" d="m571.9993 410.8715l61.399536 0c0.66174316 0 1.2963867 -0.26287842 1.7643433 -0.73083496c0.4678955 -0.46792603 0.7307739 -1.1025696 0.7307739 -1.7643127l0 -5.1760864l0 0c0 -4.0313416 -3.2680054 -7.2993774 -7.2993164 -7.2993774l-51.791138 0c-4.031311 0 -7.2993164 3.268036 -7.2993164 7.2993774l0 5.1760864l0 0c0 1.3780212 1.1170654 2.4951477 2.4951172 2.4951477z" fill-rule="evenodd"/><path stroke="#595959" stroke-width="1.0" stroke-linejoin="round" stroke-linecap="butt" d="m571.9993 410.8715l61.399536 0c0.66174316 0 1.2963867 -0.26287842 1.7643433 -0.73083496c0.4678955 -0.46792603 0.7307739 -1.1025696 0.7307739 -1.7643127l0 -5.1760864l0 0c0 -4.0313416 -3.2680054 -7.2993774 -7.2993164 -7.2993774l-51.791138 0c-4.031311 0 -7.2993164 3.268036 -7.2993164 7.2993774l0 5.1760864l0 0c0 1.3780212 1.1170654 2.4951477 2.4951172 2.4951477z" fill-rule="evenodd"/><path fill="#000000" fill-opacity="0.0" d="m576.10754 423.97083l50.921387 0" fill-rule="evenodd"/><path stroke="#000000" stroke-width="2.0" stroke-linejoin="round" stroke-linecap="butt" d="m576.10754 423.97083l50.921387 0" fill-rule="evenodd"/><path fill="#000000" fill-opacity="0.0" d="m576.10754 435.01434l50.921387 0" fill-rule="evenodd"/><path stroke="#000000" stroke-width="2.0" stroke-linejoin="round" stroke-linecap="butt" d="m576.10754 435.01434l50.921387 0" fill-rule="evenodd"/><path fill="#000000" fill-opacity="0.0" d="m576.10754 448.19098l50.921387 0" fill-rule="evenodd"/><path stroke="#000000" stroke-width="2.0" stroke-linejoin="round" stroke-linecap="butt" d="m576.10754 448.19098l50.921387 0" fill-rule="evenodd"/><path fill="#000000" fill-opacity="0.0" d="m576.10754 460.29962l50.921387 0" fill-rule="evenodd"/><path stroke="#000000" stroke-width="2.0" stroke-linejoin="round" stroke-linecap="butt" d="m576.10754 460.29962l50.921387 0" fill-rule="evenodd"/><path fill="#ffffff" d="m569.5042 406.9562l0 0c0 -6.111145 4.9540405 -11.065216 11.065186 -11.065216l44.2594 0l0 0c2.9346924 0 5.7491455 1.165802 7.82428 3.2409363c2.0751343 2.0751343 3.2409058 4.8895874 3.2409058 7.82428l0 60.93689c0 6.111145 -4.9540405 11.065186 -11.065186 11.065186l-44.2594 0c-6.111145 0 -11.065186 -4.9540405 -11.065186 -11.065186z" fill-rule="evenodd"/><path stroke="#000000" stroke-width="1.0" stroke-linejoin="round" stroke-linecap="butt" d="m569.5042 406.9562l0 0c0 -6.111145 4.9540405 -11.065216 11.065186 -11.065216l44.2594 0l0 0c2.9346924 0 5.7491455 1.165802 7.82428 3.2409363c2.0751343 2.0751343 3.2409058 4.8895874 3.2409058 7.82428l0 60.93689c0 6.111145 -4.9540405 11.065186 -11.065186 11.065186l-44.2594 0c-6.111145 0 -11.065186 -4.9540405 -11.065186 -11.065186z" fill-rule="evenodd"/><path fill="#f1c232" d="m571.9993 410.8715l61.399536 0c0.66174316 0 1.2963867 -0.26287842 1.7643433 -0.73083496c0.4678955 -0.46792603 0.7307739 -1.1025696 0.7307739 -1.7643127l0 -5.1760864l0 0c0 -4.0313416 -3.2680054 -7.2993774 -7.2993164 -7.2993774l-51.791138 0c-4.031311 0 -7.2993164 3.268036 -7.2993164 7.2993774l0 5.1760864l0 0c0 1.3780212 1.1170654 2.4951477 2.4951172 2.4951477z" fill-rule="evenodd"/><path stroke="#595959" stroke-width="1.0" stroke-linejoin="round" stroke-linecap="butt" d="m571.9993 410.8715l61.399536 0c0.66174316 0 1.2963867 -0.26287842 1.7643433 -0.73083496c0.4678955 -0.46792603 0.7307739 -1.1025696 0.7307739 -1.7643127l0 -5.1760864l0 0c0 -4.0313416 -3.2680054 -7.2993774 -7.2993164 -7.2993774l-51.791138 0c-4.031311 0 -7.2993164 3.268036 -7.2993164 7.2993774l0 5.1760864l0 0c0 1.3780212 1.1170654 2.4951477 2.4951172 2.4951477z" fill-rule="evenodd"/><path fill="#000000" fill-opacity="0.0" d="m576.10754 423.97083l50.921387 0" fill-rule="evenodd"/><path stroke="#000000" stroke-width="2.0" stroke-linejoin="round" stroke-linecap="butt" d="m576.10754 423.97083l50.921387 0" fill-rule="evenodd"/><path fill="#000000" fill-opacity="0.0" d="m576.10754 435.01434l50.921387 0" fill-rule="evenodd"/><path stroke="#000000" stroke-width="2.0" stroke-linejoin="round" stroke-linecap="butt" d="m576.10754 435.01434l50.921387 0" fill-rule="evenodd"/><path fill="#000000" fill-opacity="0.0" d="m576.10754 448.19098l50.921387 0" fill-rule="evenodd"/><path stroke="#000000" stroke-width="2.0" stroke-linejoin="round" stroke-linecap="butt" d="m576.10754 448.19098l50.921387 0" fill-rule="evenodd"/><path fill="#000000" fill-opacity="0.0" d="m576.10754 460.29962l50.921387 0" fill-rule="evenodd"/><path stroke="#000000" stroke-width="2.0" stroke-linejoin="round" stroke-linecap="butt" d="m576.10754 460.29962l50.921387 0" fill-rule="evenodd"/><path fill="#ffffff" d="m575.5293 417.16342l0 0c0 -6.111145 4.9540405 -11.065186 11.065186 -11.065186l44.2594 0l0 0c2.9346924 0 5.7491455 1.1657715 7.82428 3.2409058c2.0751343 2.0751343 3.2409058 4.8895874 3.2409058 7.82428l0 60.93689c0 6.111145 -4.9540405 11.065186 -11.065186 11.065186l-44.2594 0c-6.111145 0 -11.065186 -4.9540405 -11.065186 -11.065186z" fill-rule="evenodd"/><path stroke="#000000" stroke-width="1.0" stroke-linejoin="round" stroke-linecap="butt" d="m575.5293 417.16342l0 0c0 -6.111145 4.9540405 -11.065186 11.065186 -11.065186l44.2594 0l0 0c2.9346924 0 5.7491455 1.1657715 7.82428 3.2409058c2.0751343 2.0751343 3.2409058 4.8895874 3.2409058 7.82428l0 60.93689c0 6.111145 -4.9540405 11.065186 -11.065186 11.065186l-44.2594 0c-6.111145 0 -11.065186 -4.9540405 -11.065186 -11.065186z" fill-rule="evenodd"/><path fill="#f1c232" d="m578.0244 421.0787l61.399536 0c0.66174316 0 1.2963867 -0.26287842 1.7643433 -0.73080444c0.4678955 -0.46795654 0.7307739 -1.1026001 0.7307739 -1.7643433l0 -5.1760864l0 0c0 -4.0313416 -3.2680054 -7.2993774 -7.2993164 -7.2993774l-51.791077 0c-4.031372 0 -7.2993774 3.268036 -7.2993774 7.2993774l0 5.1760864l0 0c0 1.3780212 1.1171265 2.4951477 2.4951172 2.4951477z" fill-rule="evenodd"/><path stroke="#595959" stroke-width="1.0" stroke-linejoin="round" stroke-linecap="butt" d="m578.0244 421.0787l61.399536 0c0.66174316 0 1.2963867 -0.26287842 1.7643433 -0.73080444c0.4678955 -0.46795654 0.7307739 -1.1026001 0.7307739 -1.7643433l0 -5.1760864l0 0c0 -4.0313416 -3.2680054 -7.2993774 -7.2993164 -7.2993774l-51.791077 0c-4.031372 0 -7.2993774 3.268036 -7.2993774 7.2993774l0 5.1760864l0 0c0 1.3780212 1.1171265 2.4951477 2.4951172 2.4951477z" fill-rule="evenodd"/><path fill="#000000" fill-opacity="0.0" d="m180.00525 200.38583l0 179.55905" fill-rule="evenodd"/><path stroke="#000000" stroke-width="4.0" stroke-linejoin="round" stroke-linecap="butt" d="m180.00525 200.38583l0 155.55905" fill-rule="evenodd"/><path fill="#000000" stroke="#000000" stroke-width="4.0" stroke-linecap="butt" d="m173.39832 355.9449l6.6069336 18.152374l6.6069336 -18.152374z" fill-rule="evenodd"/><path fill="#ffffff" d="m563.47906 92.74898l0 0c0 -6.1111374 4.9541016 -11.065193 11.065247 -11.065193l44.2594 0l0 0c2.9346924 0 5.7491455 1.1657944 7.82428 3.240921c2.0751343 2.0751266 3.2409058 4.8896027 3.2409058 7.824272l0 60.93689c0 6.111145 -4.9540405 11.065201 -11.065186 11.065201l-44.2594 0c-6.111145 0 -11.065247 -4.954056 -11.065247 -11.065201z" fill-rule="evenodd"/><path stroke="#000000" stroke-width="1.0" stroke-linejoin="round" stroke-linecap="butt" d="m563.47906 92.74898l0 0c0 -6.1111374 4.9541016 -11.065193 11.065247 -11.065193l44.2594 0l0 0c2.9346924 0 5.7491455 1.1657944 7.82428 3.240921c2.0751343 2.0751266 3.2409058 4.8896027 3.2409058 7.824272l0 60.93689c0 6.111145 -4.9540405 11.065201 -11.065186 11.065201l-44.2594 0c-6.111145 0 -11.065247 -4.954056 -11.065247 -11.065201z" fill-rule="evenodd"/><path fill="#f1c232" d="m565.97424 96.66426l61.399536 0c0.66174316 0 1.2963867 -0.26287842 1.7643433 -0.7308121c0.4678955 -0.46792603 0.7307739 -1.1025772 0.7307739 -1.7643356l0 -5.1760864l0 0c0 -4.0313263 -3.2680054 -7.299362 -7.2993774 -7.299362l-51.791077 0c-4.031311 0 -7.2993774 3.268036 -7.2993774 7.299362l0 5.1760864l0 0c0 1.3780365 1.1171265 2.4951477 2.4951782 2.4951477z" fill-rule="evenodd"/><path stroke="#595959" stroke-width="1.0" stroke-linejoin="round" stroke-linecap="butt" d="m565.97424 96.66426l61.399536 0c0.66174316 0 1.2963867 -0.26287842 1.7643433 -0.7308121c0.4678955 -0.46792603 0.7307739 -1.1025772 0.7307739 -1.7643356l0 -5.1760864l0 0c0 -4.0313263 -3.2680054 -7.299362 -7.2993774 -7.299362l-51.791077 0c-4.031311 0 -7.2993774 3.268036 -7.2993774 7.299362l0 5.1760864l0 0c0 1.3780365 1.1171265 2.4951477 2.4951782 2.4951477z" fill-rule="evenodd"/><path fill="#000000" fill-opacity="0.0" d="m570.08246 109.76359l50.921387 0" fill-rule="evenodd"/><path stroke="#000000" stroke-width="2.0" stroke-linejoin="round" stroke-linecap="butt" d="m570.08246 109.76359l50.921387 0" fill-rule="evenodd"/><path fill="#000000" fill-opacity="0.0" d="m570.08246 120.80711l50.921387 0" fill-rule="evenodd"/><path stroke="#000000" stroke-width="2.0" stroke-linejoin="round" stroke-linecap="butt" d="m570.08246 120.80711l50.921387 0" fill-rule="evenodd"/><path fill="#000000" fill-opacity="0.0" d="m570.08246 133.98375l50.921387 0" fill-rule="evenodd"/><path stroke="#000000" stroke-width="2.0" stroke-linejoin="round" stroke-linecap="butt" d="m570.08246 133.98375l50.921387 0" fill-rule="evenodd"/><path fill="#000000" fill-opacity="0.0" d="m570.08246 146.09239l50.921387 0" fill-rule="evenodd"/><path stroke="#000000" stroke-width="2.0" stroke-linejoin="round" stroke-linecap="butt" d="m570.08246 146.09239l50.921387 0" fill-rule="evenodd"/><path fill="#ffffff" d="m569.5042 102.95619l0 0c0 -6.1111298 4.9540405 -11.065186 11.065186 -11.065186l44.2594 0l0 0c2.9346924 0 5.7491455 1.1657944 7.82428 3.240921c2.0751343 2.075119 3.2409058 4.889595 3.2409058 7.8242645l0 60.936905c0 6.1111298 -4.9540405 11.065186 -11.065186 11.065186l-44.2594 0c-6.111145 0 -11.065186 -4.954056 -11.065186 -11.065186z" fill-rule="evenodd"/><path stroke="#000000" stroke-width="1.0" stroke-linejoin="round" stroke-linecap="butt" d="m569.5042 102.95619l0 0c0 -6.1111298 4.9540405 -11.065186 11.065186 -11.065186l44.2594 0l0 0c2.9346924 0 5.7491455 1.1657944 7.82428 3.240921c2.0751343 2.075119 3.2409058 4.889595 3.2409058 7.8242645l0 60.936905c0 6.1111298 -4.9540405 11.065186 -11.065186 11.065186l-44.2594 0c-6.111145 0 -11.065186 -4.954056 -11.065186 -11.065186z" fill-rule="evenodd"/><path fill="#f1c232" d="m571.9993 106.87148l61.399536 0c0.66174316 0 1.2963867 -0.26287842 1.7643433 -0.7308121c0.4678955 -0.46793365 0.7307739 -1.1025848 0.7307739 -1.7643356l0 -5.1760864l0 0c0 -4.031334 -3.2680054 -7.29937 -7.2993164 -7.29937l-51.791138 0c-4.031311 0 -7.2993164 3.268036 -7.2993164 7.29937l0 5.1760864l0 0c0 1.3780289 1.1170654 2.4951477 2.4951172 2.4951477z" fill-rule="evenodd"/><path stroke="#595959" stroke-width="1.0" stroke-linejoin="round" stroke-linecap="butt" d="m571.9993 106.87148l61.399536 0c0.66174316 0 1.2963867 -0.26287842 1.7643433 -0.7308121c0.4678955 -0.46793365 0.7307739 -1.1025848 0.7307739 -1.7643356l0 -5.1760864l0 0c0 -4.031334 -3.2680054 -7.29937 -7.2993164 -7.29937l-51.791138 0c-4.031311 0 -7.2993164 3.268036 -7.2993164 7.29937l0 5.1760864l0 0c0 1.3780289 1.1170654 2.4951477 2.4951172 2.4951477z" fill-rule="evenodd"/><path fill="#000000" fill-opacity="0.0" d="m576.10754 119.97081l50.921387 0" fill-rule="evenodd"/><path stroke="#000000" stroke-width="2.0" stroke-linejoin="round" stroke-linecap="butt" d="m576.10754 119.97081l50.921387 0" fill-rule="evenodd"/><path fill="#000000" fill-opacity="0.0" d="m576.10754 131.01433l50.921387 0" fill-rule="evenodd"/><path stroke="#000000" stroke-width="2.0" stroke-linejoin="round" stroke-linecap="butt" d="m576.10754 131.01433l50.921387 0" fill-rule="evenodd"/><path fill="#000000" fill-opacity="0.0" d="m576.10754 144.19096l50.921387 0" fill-rule="evenodd"/><path stroke="#000000" stroke-width="2.0" stroke-linejoin="round" stroke-linecap="butt" d="m576.10754 144.19096l50.921387 0" fill-rule="evenodd"/><path fill="#000000" fill-opacity="0.0" d="m576.10754 156.2996l50.921387 0" fill-rule="evenodd"/><path stroke="#000000" stroke-width="2.0" stroke-linejoin="round" stroke-linecap="butt" d="m576.10754 156.2996l50.921387 0" fill-rule="evenodd"/><path fill="#ffffff" d="m569.5042 102.95619l0 0c0 -6.1111298 4.9540405 -11.065186 11.065186 -11.065186l44.2594 0l0 0c2.9346924 0 5.7491455 1.1657944 7.82428 3.240921c2.0751343 2.075119 3.2409058 4.889595 3.2409058 7.8242645l0 60.936905c0 6.1111298 -4.9540405 11.065186 -11.065186 11.065186l-44.2594 0c-6.111145 0 -11.065186 -4.954056 -11.065186 -11.065186z" fill-rule="evenodd"/><path stroke="#000000" stroke-width="1.0" stroke-linejoin="round" stroke-linecap="butt" d="m569.5042 102.95619l0 0c0 -6.1111298 4.9540405 -11.065186 11.065186 -11.065186l44.2594 0l0 0c2.9346924 0 5.7491455 1.1657944 7.82428 3.240921c2.0751343 2.075119 3.2409058 4.889595 3.2409058 7.8242645l0 60.936905c0 6.1111298 -4.9540405 11.065186 -11.065186 11.065186l-44.2594 0c-6.111145 0 -11.065186 -4.954056 -11.065186 -11.065186z" fill-rule="evenodd"/><path fill="#f1c232" d="m571.9993 106.87148l61.399536 0c0.66174316 0 1.2963867 -0.26287842 1.7643433 -0.7308121c0.4678955 -0.46793365 0.7307739 -1.1025848 0.7307739 -1.7643356l0 -5.1760864l0 0c0 -4.031334 -3.2680054 -7.29937 -7.2993164 -7.29937l-51.791138 0c-4.031311 0 -7.2993164 3.268036 -7.2993164 7.29937l0 5.1760864l0 0c0 1.3780289 1.1170654 2.4951477 2.4951172 2.4951477z" fill-rule="evenodd"/><path stroke="#595959" stroke-width="1.0" stroke-linejoin="round" stroke-linecap="butt" d="m571.9993 106.87148l61.399536 0c0.66174316 0 1.2963867 -0.26287842 1.7643433 -0.7308121c0.4678955 -0.46793365 0.7307739 -1.1025848 0.7307739 -1.7643356l0 -5.1760864l0 0c0 -4.031334 -3.2680054 -7.29937 -7.2993164 -7.29937l-51.791138 0c-4.031311 0 -7.2993164 3.268036 -7.2993164 7.29937l0 5.1760864l0 0c0 1.3780289 1.1170654 2.4951477 2.4951172 2.4951477z" fill-rule="evenodd"/><path fill="#000000" fill-opacity="0.0" d="m576.10754 119.97081l50.921387 0" fill-rule="evenodd"/><path stroke="#000000" stroke-width="2.0" stroke-linejoin="round" stroke-linecap="butt" d="m576.10754 119.97081l50.921387 0" fill-rule="evenodd"/><path fill="#000000" fill-opacity="0.0" d="m576.10754 131.01433l50.921387 0" fill-rule="evenodd"/><path stroke="#000000" stroke-width="2.0" stroke-linejoin="round" stroke-linecap="butt" d="m576.10754 131.01433l50.921387 0" fill-rule="evenodd"/><path fill="#000000" fill-opacity="0.0" d="m576.10754 144.19096l50.921387 0" fill-rule="evenodd"/><path stroke="#000000" stroke-width="2.0" stroke-linejoin="round" stroke-linecap="butt" d="m576.10754 144.19096l50.921387 0" fill-rule="evenodd"/><path fill="#000000" fill-opacity="0.0" d="m576.10754 156.2996l50.921387 0" fill-rule="evenodd"/><path stroke="#000000" stroke-width="2.0" stroke-linejoin="round" stroke-linecap="butt" d="m576.10754 156.2996l50.921387 0" fill-rule="evenodd"/><path fill="#ffffff" d="m575.5293 113.163414l0 0c0 -6.1111374 4.9540405 -11.065193 11.065186 -11.065193l44.2594 0l0 0c2.9346924 0 5.7491455 1.1657944 7.82428 3.240921c2.0751343 2.0751266 3.2409058 4.8896027 3.2409058 7.824272l0 60.936897c0 6.1111298 -4.9540405 11.065186 -11.065186 11.065186l-44.2594 0c-6.111145 0 -11.065186 -4.954056 -11.065186 -11.065186z" fill-rule="evenodd"/><path stroke="#000000" stroke-width="1.0" stroke-linejoin="round" stroke-linecap="butt" d="m575.5293 113.163414l0 0c0 -6.1111374 4.9540405 -11.065193 11.065186 -11.065193l44.2594 0l0 0c2.9346924 0 5.7491455 1.1657944 7.82428 3.240921c2.0751343 2.0751266 3.2409058 4.8896027 3.2409058 7.824272l0 60.936897c0 6.1111298 -4.9540405 11.065186 -11.065186 11.065186l-44.2594 0c-6.111145 0 -11.065186 -4.954056 -11.065186 -11.065186z" fill-rule="evenodd"/><path fill="#f1c232" d="m578.0244 117.078705l61.399536 0c0.66174316 0 1.2963867 -0.26288605 1.7643433 -0.7308197c0.4678955 -0.46792603 0.7307739 -1.1025772 0.7307739 -1.7643356l0 -5.1760864l0 0c0 -4.0313263 -3.2680054 -7.299362 -7.2993164 -7.299362l-51.791077 0c-4.031372 0 -7.2993774 3.268036 -7.2993774 7.299362l0 5.1760864l0 0c0 1.3780365 1.1171265 2.4951553 2.4951172 2.4951553z" fill-rule="evenodd"/><path stroke="#595959" stroke-width="1.0" stroke-linejoin="round" stroke-linecap="butt" d="m578.0244 117.078705l61.399536 0c0.66174316 0 1.2963867 -0.26288605 1.7643433 -0.7308197c0.4678955 -0.46792603 0.7307739 -1.1025772 0.7307739 -1.7643356l0 -5.1760864l0 0c0 -4.0313263 -3.2680054 -7.299362 -7.2993164 -7.299362l-51.791077 0c-4.031372 0 -7.2993774 3.268036 -7.2993774 7.299362l0 5.1760864l0 0c0 1.3780365 1.1171265 2.4951553 2.4951172 2.4951553z" fill-rule="evenodd"/><path fill="#000000" fill-opacity="0.0" d="m582.1327 130.17802l50.921326 0" fill-rule="evenodd"/><path stroke="#ff0000" stroke-width="4.0" stroke-linejoin="round" stroke-linecap="butt" d="m582.1327 130.17802l50.921326 0" fill-rule="evenodd"/><path fill="#000000" fill-opacity="0.0" d="m582.1327 141.22156l50.921326 0" fill-rule="evenodd"/><path stroke="#ff0000" stroke-width="4.0" stroke-linejoin="round" stroke-linecap="butt" d="m582.1327 141.22156l50.921326 0" fill-rule="evenodd"/><path fill="#000000" fill-opacity="0.0" d="m582.1327 154.3982l50.921326 0" fill-rule="evenodd"/><path stroke="#ff0000" stroke-width="4.0" stroke-linejoin="round" stroke-linecap="butt" d="m582.1327 154.3982l50.921326 0" fill-rule="evenodd"/><path fill="#000000" fill-opacity="0.0" d="m401.87927 143.21523l137.92126 0" fill-rule="evenodd"/><path stroke="#000000" stroke-width="4.0" stroke-linejoin="round" stroke-linecap="butt" d="m401.87927 143.21523l113.921265 0" fill-rule="evenodd"/><path fill="#000000" stroke="#000000" stroke-width="4.0" stroke-linecap="butt" d="m515.80054 149.82216l18.152405 -6.6069336l-18.152405 -6.6069336z" fill-rule="evenodd"/><path fill="#000000" fill-opacity="0.0" d="m401.87927 447.2152l137.92126 0" fill-rule="evenodd"/><path stroke="#000000" stroke-width="4.0" stroke-linejoin="round" stroke-linecap="butt" d="m401.87927 447.2152l113.921265 0" fill-rule="evenodd"/><path fill="#000000" stroke="#000000" stroke-width="4.0" stroke-linecap="butt" d="m515.80054 453.82214l18.152405 -6.6069336l-18.152405 -6.606903z" fill-rule="evenodd"/><path fill="#000000" fill-opacity="0.0" d="m539.98425 185.57742l141.13385 0l0 36.25197l-141.13385 0z" fill-rule="evenodd"/><path fill="#000000" d="m560.23425 207.7943l1.765625 0.25q-0.84375 2.3125 -2.453125 3.5q-1.59375 1.1875 -3.578125 1.1875q-2.4375 0 -3.875 -1.484375q-1.421875 -1.484375 -1.421875 -4.265625q0 -3.609375 2.171875 -5.96875q1.9375 -2.09375 4.796875 -2.09375q2.125 0 3.4375 1.140625q1.328125 1.125 1.53125 3.0625l-1.671875 0.140625q-0.25 -1.4375 -1.078125 -2.15625q-0.828125 -0.71875 -2.125 -0.71875q-2.453125 0 -3.96875 2.1875q-1.3125 1.875 -1.3125 4.453125q0 2.046875 1.015625 3.140625q1.015625 1.078125 2.625 1.078125q1.390625 0 2.5 -0.890625q1.125 -0.90625 1.640625 -2.5625zm3.1292114 1.03125q0 -2.828125 1.671875 -4.6875q1.375 -1.53125 3.609375 -1.53125q1.75 0 2.8125 1.09375q1.078125 1.09375 1.078125 2.953125q0 1.65625 -0.671875 3.09375q-0.671875 1.4375 -1.921875 2.203125q-1.25 0.765625 -2.625 0.765625q-1.125 0 -2.046875 -0.484375q-0.921875 -0.484375 -1.421875 -1.359375q-0.484375 -0.890625 -0.484375 -2.046875zm1.65625 -0.15625q0 1.359375 0.65625 2.0625q0.65625 0.703125 1.65625 0.703125q0.53125 0 1.046875 -0.203125q0.53125 -0.21875 0.96875 -0.65625q0.453125 -0.4375 0.765625 -1.0q0.3125 -0.5625 0.5 -1.203125q0.28125 -0.90625 0.28125 -1.734375q0 -1.3125 -0.65625 -2.03125q-0.65625 -0.734375 -1.65625 -0.734375q-0.78125 0 -1.421875 0.375q-0.625 0.375 -1.140625 1.09375q-0.515625 0.703125 -0.765625 1.640625q-0.234375 0.9375 -0.234375 1.6875zm8.422546 3.828125l2.015625 -9.671875l1.65625 0l-0.34375 1.59375q0.921875 -1.03125 1.640625 -1.421875q0.734375 -0.390625 1.578125 -0.390625q0.90625 0 1.515625 0.484375q0.609375 0.46875 0.796875 1.328125q0.734375 -0.90625 1.546875 -1.359375q0.8125 -0.453125 1.71875 -0.453125q1.21875 0 1.8125 0.578125q0.609375 0.5625 0.609375 1.609375q0 0.4375 -0.203125 1.46875l-1.3125 6.234375l-1.640625 0l1.328125 -6.390625q0.171875 -0.78125 0.171875 -1.125q0 -0.46875 -0.296875 -0.734375q-0.296875 -0.28125 -0.84375 -0.28125q-0.75 0 -1.515625 0.453125q-0.765625 0.4375 -1.1875 1.171875q-0.421875 0.71875 -0.734375 2.21875l-0.984375 4.6875l-1.65625 0l1.375 -6.53125q0.140625 -0.671875 0.140625 -0.953125q0 -0.46875 -0.296875 -0.75q-0.296875 -0.296875 -0.765625 -0.296875q-0.703125 0 -1.484375 0.453125q-0.765625 0.4375 -1.25 1.234375q-0.46875 0.796875 -0.78125 2.265625l-0.953125 4.578125l-1.65625 0zm15.5408325 0l2.015625 -9.671875l1.65625 0l-0.34375 1.59375q0.921875 -1.03125 1.640625 -1.421875q0.734375 -0.390625 1.578125 -0.390625q0.90625 0 1.515625 0.484375q0.609375 0.46875 0.796875 1.328125q0.734375 -0.90625 1.546875 -1.359375q0.8125 -0.453125 1.71875 -0.453125q1.21875 0 1.8125 0.578125q0.609375 0.5625 0.609375 1.609375q0 0.4375 -0.203125 1.46875l-1.3125 6.234375l-1.640625 0l1.328125 -6.390625q0.171875 -0.78125 0.171875 -1.125q0 -0.46875 -0.296875 -0.734375q-0.296875 -0.28125 -0.84375 -0.28125q-0.75 0 -1.515625 0.453125q-0.765625 0.4375 -1.1875 1.171875q-0.421875 0.71875 -0.734375 2.21875l-0.984375 4.6875l-1.65625 0l1.375 -6.53125q0.140625 -0.671875 0.140625 -0.953125q0 -0.46875 -0.296875 -0.75q-0.296875 -0.296875 -0.765625 -0.296875q-0.703125 0 -1.484375 0.453125q-0.765625 0.4375 -1.25 1.234375q-0.46875 0.796875 -0.78125 2.265625l-0.953125 4.578125l-1.65625 0zm17.884521 -11.484375l0.40625 -1.875l1.625 0l-0.390625 1.875l-1.640625 0zm-2.390625 11.484375l2.015625 -9.671875l1.65625 0l-2.03125 9.671875l-1.640625 0zm8.051086 -1.34375l-0.265625 1.359375q-0.59375 0.140625 -1.15625 0.140625q-0.984375 0 -1.5625 -0.46875q-0.4375 -0.375 -0.4375 -1.0q0 -0.3125 0.234375 -1.46875l1.171875 -5.625l-1.296875 0l0.265625 -1.265625l1.296875 0l0.5 -2.375l1.890625 -1.140625l-0.734375 3.515625l1.625 0l-0.28125 1.265625l-1.609375 0l-1.125 5.359375q-0.203125 1.015625 -0.203125 1.21875q0 0.28125 0.15625 0.4375q0.171875 0.15625 0.5625 0.15625q0.546875 0 0.96875 -0.109375zm6.804138 1.34375l2.796875 -13.359375l1.734375 0l2.25 5.015625q1.03125 2.296875 1.625 3.859375q0.359375 0.90625 0.8125 2.46875q0.234375 -1.6875 0.609375 -3.484375l1.640625 -7.859375l1.75 0l-2.796875 13.359375l-1.765625 0l-3.3125 -7.71875q-0.890625 -2.03125 -1.375 -3.59375q-0.140625 1.296875 -0.53125 3.203125l-1.6875 8.109375l-1.75 0zm13.4729 -3.671875q0 -2.828125 1.671875 -4.6875q1.375 -1.53125 3.609375 -1.53125q1.75 0 2.8125 1.09375q1.078125 1.09375 1.078125 2.953125q0 1.65625 -0.671875 3.09375q-0.671875 1.4375 -1.921875 2.203125q-1.25 0.765625 -2.625 0.765625q-1.125 0 -2.046875 -0.484375q-0.921875 -0.484375 -1.421875 -1.359375q-0.484375 -0.890625 -0.484375 -2.046875zm1.65625 -0.15625q0 1.359375 0.65625 2.0625q0.65625 0.703125 1.65625 0.703125q0.53125 0 1.046875 -0.203125q0.53125 -0.21875 0.96875 -0.65625q0.453125 -0.4375 0.765625 -1.0q0.3125 -0.5625 0.5 -1.203125q0.28125 -0.90625 0.28125 -1.734375q0 -1.3125 -0.65625 -2.03125q-0.65625 -0.734375 -1.65625 -0.734375q-0.78125 0 -1.421875 0.375q-0.625 0.375 -1.140625 1.09375q-0.515625 0.703125 -0.765625 1.640625q-0.234375 0.9375 -0.234375 1.6875zm8.891357 3.828125l0.390625 -1.875l1.859375 0l-0.390625 1.875l-1.859375 0zm10.382263 0q0.25 -1.1875 0.703125 -2.0q0.453125 -0.8125 1.203125 -1.53125q0.75 -0.71875 2.875 -2.421875q1.296875 -1.03125 1.765625 -1.53125q0.6875 -0.703125 1.0 -1.390625q0.203125 -0.46875 0.203125 -1.015625q0 -0.90625 -0.65625 -1.546875q-0.640625 -0.65625 -1.59375 -0.65625q-0.9375 0 -1.640625 0.65625q-0.703125 0.65625 -1.0 2.09375l-1.609375 -0.234375q0.234375 -1.78125 1.375 -2.796875q1.140625 -1.03125 2.84375 -1.03125q1.140625 0 2.0625 0.46875q0.9375 0.46875 1.390625 1.328125q0.46875 0.859375 0.46875 1.765625q0 1.328125 -0.953125 2.5625q-0.578125 0.765625 -3.421875 3.015625q-1.21875 0.96875 -1.8125 1.59375q-0.59375 0.609375 -0.90625 1.15625l5.984375 0l-0.3125 1.515625l-7.96875 0z" fill-rule="nonzero"/><path fill="#000000" fill-opacity="0.0" d="m593.2598 276.2257l141.13385 0l0 20.188995l-141.13385 0z" fill-rule="evenodd"/><path fill="#cc0000" d="m604.1036 309.54572l0 -18.125l5.875 0q3.34375 0 4.359375 0.265625q1.546875 0.40625 2.59375 1.78125q1.0625 1.359375 1.0625 3.53125q0 1.65625 -0.609375 2.796875q-0.609375 1.140625 -1.546875 1.796875q-0.921875 0.640625 -1.890625 0.859375q-1.3125 0.25 -3.796875 0.25l-2.390625 0l0 6.84375l-3.65625 0zm3.65625 -15.0625l0 5.140625l2.0 0q2.171875 0 2.890625 -0.28125q0.734375 -0.28125 1.140625 -0.890625q0.421875 -0.609375 0.421875 -1.40625q0 -1.0 -0.578125 -1.640625q-0.578125 -0.640625 -1.46875 -0.796875q-0.65625 -0.125 -2.640625 -0.125l-1.765625 0zm21.862427 15.0625l0 -1.96875q-0.71875 1.046875 -1.890625 1.65625q-1.171875 0.609375 -2.46875 0.609375q-1.328125 0 -2.375 -0.578125q-1.046875 -0.578125 -1.515625 -1.625q-0.46875 -1.0625 -0.46875 -2.921875l0 -8.3125l3.46875 0l0 6.046875q0 2.765625 0.1875 3.390625q0.203125 0.625 0.703125 1.0q0.5 0.359375 1.28125 0.359375q0.890625 0 1.59375 -0.484375q0.71875 -0.5 0.96875 -1.21875q0.265625 -0.734375 0.265625 -3.546875l0 -5.546875l3.46875 0l0 13.140625l-3.21875 0zm5.5964355 -3.75l3.484375 -0.53125q0.21875 1.015625 0.90625 1.546875q0.6875 0.515625 1.90625 0.515625q1.34375 0 2.03125 -0.484375q0.453125 -0.359375 0.453125 -0.9375q0 -0.390625 -0.25 -0.65625q-0.25 -0.234375 -1.15625 -0.453125q-4.203125 -0.921875 -5.328125 -1.6875q-1.5625 -1.0625 -1.5625 -2.96875q0 -1.703125 1.34375 -2.859375q1.34375 -1.171875 4.1875 -1.171875q2.6875 0 4.0 0.890625q1.3125 0.875 1.8125 2.59375l-3.28125 0.609375q-0.21875 -0.765625 -0.8125 -1.171875q-0.578125 -0.421875 -1.65625 -0.421875q-1.375 0 -1.96875 0.390625q-0.40625 0.265625 -0.40625 0.703125q0 0.375 0.359375 0.625q0.46875 0.34375 3.234375 0.984375q2.78125 0.625 3.890625 1.546875q1.078125 0.921875 1.078125 2.578125q0 1.8125 -1.515625 3.109375q-1.5 1.296875 -4.453125 1.296875q-2.6875 0 -4.25 -1.078125q-1.5625 -1.09375 -2.046875 -2.96875zm18.773804 -14.375l0 6.65625q1.6875 -1.96875 4.015625 -1.96875q1.203125 0 2.15625 0.453125q0.96875 0.4375 1.453125 1.140625q0.5 0.6875 0.671875 1.53125q0.1875 0.84375 0.1875 2.609375l0 7.703125l-3.46875 0l0 -6.9375q0 -2.0625 -0.203125 -2.609375q-0.203125 -0.5625 -0.703125 -0.890625q-0.5 -0.328125 -1.25 -0.328125q-0.875 0 -1.5625 0.421875q-0.671875 0.40625 -0.984375 1.265625q-0.3125 0.84375 -0.3125 2.5l0 6.578125l-3.46875 0l0 -18.125l3.46875 0z" fill-rule="nonzero"/><path fill="#000000" fill-opacity="0.0" d="m587.38055 233.24934l0 117.60631" fill-rule="evenodd"/><path stroke="#000000" stroke-width="4.0" stroke-linejoin="round" stroke-linecap="butt" d="m587.38055 257.24933l0 93.60632" fill-rule="evenodd"/><path fill="#000000" stroke="#000000" stroke-width="4.0" stroke-linecap="butt" d="m593.9875 257.24933l-6.6069336 -18.152374l-6.6069336 18.152374z" fill-rule="evenodd"/><path fill="#000000" fill-opacity="0.0" d="m288.0 269.90158l255.52759 0" fill-rule="evenodd"/><path stroke="#595959" stroke-width="3.0" stroke-linejoin="round" stroke-linecap="butt" stroke-dasharray="12.0,9.0" d="m288.0 269.90158l255.52759 0" fill-rule="evenodd"/><path fill="#000000" fill-opacity="0.0" d="m688.0 269.90158l141.79529 0" fill-rule="evenodd"/><path stroke="#595959" stroke-width="3.0" stroke-linejoin="round" stroke-linecap="butt" stroke-dasharray="12.0,9.0" d="m688.0 269.90158l141.79529 0" fill-rule="evenodd"/><path fill="#000000" fill-opacity="0.0" d="m302.12512 130.17526l50.92914 0" fill-rule="evenodd"/><path stroke="#000000" stroke-width="4.0" stroke-linejoin="round" stroke-linecap="butt" d="m302.12512 130.17526l50.92914 0" fill-rule="evenodd"/><path fill="#000000" fill-opacity="0.0" d="m582.1251 434.17526l50.920593 0" fill-rule="evenodd"/><path stroke="#ff0000" stroke-width="4.0" stroke-linejoin="round" stroke-linecap="butt" d="m582.1251 434.17526l50.920593 0" fill-rule="evenodd"/><path fill="#000000" fill-opacity="0.0" d="m582.1251 445.2186l50.920593 0" fill-rule="evenodd"/><path stroke="#ff0000" stroke-width="4.0" stroke-linejoin="round" stroke-linecap="butt" d="m582.1251 445.2186l50.920593 0" fill-rule="evenodd"/><path fill="#000000" fill-opacity="0.0" d="m582.1251 458.39502l50.920593 0" fill-rule="evenodd"/><path stroke="#ff0000" stroke-width="4.0" stroke-linejoin="round" stroke-linecap="butt" d="m582.1251 458.39502l50.920593 0" fill-rule="evenodd"/><path fill="#000000" fill-opacity="0.0" d="m302.12512 434.17526l50.92914 0" fill-rule="evenodd"/><path stroke="#000000" stroke-width="4.0" stroke-linejoin="round" stroke-linecap="butt" d="m302.12512 434.17526l50.92914 0" fill-rule="evenodd"/><path fill="#000000" fill-opacity="0.0" d="m517.0131 37.54331l178.2677 0l0 24.724407l-178.2677 0z" fill-rule="evenodd"/><path fill="#000000" d="m526.6225 64.4633l2.015625 -9.671871l1.65625 0l-0.34375 1.59375q0.921875 -1.03125 1.640625 -1.421875q0.734375 -0.390625 1.578125 -0.390625q0.90625 0 1.515625 0.484375q0.609375 0.46875 0.796875 1.328125q0.734375 -0.90625 1.546875 -1.359375q0.8125 -0.453125 1.71875 -0.453125q1.21875 0 1.8125 0.578125q0.609375 0.5625 0.609375 1.609375q0 0.4375 -0.203125 1.46875l-1.3125 6.234371l-1.640625 0l1.328125 -6.390621q0.171875 -0.78125 0.171875 -1.125q0 -0.46875 -0.296875 -0.734375q-0.296875 -0.28125 -0.84375 -0.28125q-0.75 0 -1.515625 0.453125q-0.765625 0.4375 -1.1875 1.171875q-0.421875 0.71875 -0.734375 2.21875l-0.984375 4.687496l-1.65625 0l1.375 -6.531246q0.140625 -0.671875 0.140625 -0.953125q0 -0.46875 -0.296875 -0.75q-0.296875 -0.296875 -0.765625 -0.296875q-0.703125 0 -1.484375 0.453125q-0.765625 0.4375 -1.25 1.234375q-0.46875 0.796875 -0.78125 2.265625l-0.953125 4.578121l-1.65625 0zm14.9314575 3.734375l0.09375 -1.546875q0.515625 0.140625 1.0 0.140625q0.5 0 0.8125 -0.21875q0.40625 -0.3125 0.875 -1.140625l0.53125 -0.9375l-1.625 -9.703121l1.625 0l0.734375 4.890625q0.21875 1.453125 0.375 2.890625l4.328125 -7.78125l1.71875 0l-6.171875 10.953121q-0.890625 1.609375 -1.59375 2.125q-0.6875 0.515625 -1.578125 0.515625q-0.578125 0 -1.125 -0.1875zm10.171875 -3.734375l2.796875 -13.359371l8.671875 0l-0.3125 1.53125l-6.90625 0l-0.875 4.25l7.015625 0l-0.3125 1.515625l-7.015625 0l-1.28125 6.062496l-1.78125 0zm13.50531 -11.484371l0.40625 -1.875l1.625 0l-0.390625 1.875l-1.640625 0zm-2.390625 11.484371l2.015625 -9.671871l1.65625 0l-2.03125 9.671871l-1.640625 0zm4.0667114 0l2.796875 -13.359371l1.640625 0l-2.78125 13.359371l-1.65625 0zm11.379211 -3.2812462l1.609375 0.15625q-0.34375 1.1875 -1.59375 2.265625q-1.234375 1.0781212 -2.96875 1.0781212q-1.0625 0 -1.96875 -0.5q-0.890625 -0.4999962 -1.359375 -1.4374962q-0.46875 -0.953125 -0.46875 -2.15625q0 -1.59375 0.734375 -3.078125q0.734375 -1.484375 1.890625 -2.203125q1.171875 -0.734375 2.53125 -0.734375q1.734375 0 2.765625 1.078125q1.03125 1.0625 1.03125 2.921875q0 0.71875 -0.125 1.46875l-7.125 0q-0.046875 0.28125 -0.046875 0.5q0 1.359375 0.625 2.078125q0.625 0.71875 1.53125 0.71875q0.84375 0 1.65625 -0.546875q0.828125 -0.5625 1.28125 -1.609375zm-4.78125 -2.40625l5.421875 0q0.015625 -0.25 0.015625 -0.359375q0 -1.234375 -0.625 -1.890625q-0.625 -0.671875 -1.59375 -0.671875q-1.0625 0 -1.9375 0.734375q-0.859375 0.71875 -1.28125 2.1875zm8.516357 5.687496l0.390625 -1.8749962l1.859375 0l-0.390625 1.8749962l-1.859375 0zm8.573914 -1.3437462l-0.265625 1.3593712q-0.59375 0.140625 -1.15625 0.140625q-0.984375 0 -1.5625 -0.46875q-0.4375 -0.3749962 -0.4375 -0.9999962q0 -0.3125 0.234375 -1.46875l1.171875 -5.625l-1.296875 0l0.265625 -1.265625l1.296875 0l0.5 -2.375l1.890625 -1.140625l-0.734375 3.515625l1.625 0l-0.28125 1.265625l-1.609375 0l-1.125 5.359375q-0.203125 1.015625 -0.203125 1.21875q0 0.28125 0.15625 0.4375q0.171875 0.15625 0.5625 0.15625q0.546875 0 0.96875 -0.109375zm0.6832886 1.3437462l4.21875 -4.906246l-2.421875 -4.765625l1.828125 0l0.8125 1.71875q0.453125 0.96875 0.828125 1.84375l2.78125 -3.5625l2.015625 0l-4.0625 4.890625l2.4375 4.781246l-1.8125 0l-0.96875 -1.9687462q-0.3125 -0.625 -0.703125 -1.5625l-2.875 3.5312462l-2.078125 0zm13.828125 -1.3437462l-0.265625 1.3593712q-0.59375 0.140625 -1.15625 0.140625q-0.984375 0 -1.5625 -0.46875q-0.4375 -0.3749962 -0.4375 -0.9999962q0 -0.3125 0.234375 -1.46875l1.171875 -5.625l-1.296875 0l0.265625 -1.265625l1.296875 0l0.5 -2.375l1.890625 -1.140625l-0.734375 3.515625l1.625 0l-0.28125 1.265625l-1.609375 0l-1.125 5.359375q-0.203125 1.015625 -0.203125 1.21875q0 0.28125 0.15625 0.4375q0.171875 0.15625 0.5625 0.15625q0.546875 0 0.96875 -0.109375zm8.897888 5.265621q-1.421875 -3.125 -1.421875 -6.437496q0 -2.203125 0.578125 -4.09375q0.578125 -1.90625 1.765625 -3.765625q0.78125 -1.234375 2.5 -3.203125l1.28125 0q-1.0625 1.140625 -2.25 3.203125q-1.1875 2.0625 -1.734375 4.0625q-0.53125 2.0 -0.53125 4.0q0 3.0156212 1.046875 6.234371l-1.234375 0zm10.9313965 -7.203121l1.609375 0.15625q-0.34375 1.1875 -1.59375 2.265625q-1.234375 1.0781212 -2.96875 1.0781212q-1.0625 0 -1.96875 -0.5q-0.890625 -0.4999962 -1.359375 -1.4374962q-0.46875 -0.953125 -0.46875 -2.15625q0 -1.59375 0.734375 -3.078125q0.734375 -1.484375 1.890625 -2.203125q1.171875 -0.734375 2.53125 -0.734375q1.734375 0 2.765625 1.078125q1.03125 1.0625 1.03125 2.921875q0 0.71875 -0.125 1.46875l-7.125 0q-0.046875 0.28125 -0.046875 0.5q0 1.359375 0.625 2.078125q0.625 0.71875 1.53125 0.71875q0.84375 0 1.65625 -0.546875q0.828125 -0.5625 1.28125 -1.609375zm-4.78125 -2.40625l5.421875 0q0.015625 -0.25 0.015625 -0.359375q0 -1.234375 -0.625 -1.890625q-0.625 -0.671875 -1.59375 -0.671875q-1.0625 0 -1.9375 0.734375q-0.859375 0.71875 -1.28125 2.1875zm14.578857 4.28125q-1.40625 1.6249962 -2.953125 1.6249962q-1.375 0 -2.296875 -1.0156212q-0.90625 -1.015625 -0.90625 -2.953125q0 -1.765625 0.71875 -3.21875q0.734375 -1.46875 1.8125 -2.1875q1.09375 -0.734375 2.1875 -0.734375q1.796875 0 2.71875 1.734375l1.09375 -5.203125l1.640625 0l-2.78125 13.359371l-1.53125 0l0.296875 -1.4062462zm-4.515625 -2.640625q0 1.0 0.203125 1.59375q0.203125 0.578125 0.671875 0.96875q0.484375 0.375 1.171875 0.375q1.109375 0 2.03125 -1.15625q1.21875 -1.546875 1.21875 -3.828125q0 -1.140625 -0.609375 -1.78125q-0.59375 -0.65625 -1.515625 -0.65625q-0.59375 0 -1.078125 0.265625q-0.484375 0.265625 -0.96875 0.90625q-0.46875 0.625 -0.796875 1.59375q-0.328125 0.96875 -0.328125 1.71875zm10.703857 -7.4375l0.40625 -1.875l1.625 0l-0.390625 1.875l-1.640625 0zm-2.390625 11.484371l2.015625 -9.671871l1.65625 0l-2.03125 9.671871l-1.640625 0zm8.051025 -1.3437462l-0.265625 1.3593712q-0.59375 0.140625 -1.15625 0.140625q-0.984375 0 -1.5625 -0.46875q-0.4375 -0.3749962 -0.4375 -0.9999962q0 -0.3125 0.234375 -1.46875l1.171875 -5.625l-1.296875 0l0.265625 -1.265625l1.296875 0l0.5 -2.375l1.890625 -1.140625l-0.734375 3.515625l1.625 0l-0.28125 1.265625l-1.609375 0l-1.125 5.359375q-0.203125 1.015625 -0.203125 1.21875q0 0.28125 0.15625 0.4375q0.171875 0.15625 0.5625 0.15625q0.546875 0 0.96875 -0.109375zm8.43335 -1.9375l1.609375 0.15625q-0.34375 1.1875 -1.59375 2.265625q-1.234375 1.0781212 -2.96875 1.0781212q-1.0625 0 -1.96875 -0.5q-0.890625 -0.4999962 -1.359375 -1.4374962q-0.46875 -0.953125 -0.46875 -2.15625q0 -1.59375 0.734375 -3.078125q0.734375 -1.484375 1.890625 -2.203125q1.171875 -0.734375 2.53125 -0.734375q1.734375 0 2.765625 1.078125q1.03125 1.0625 1.03125 2.921875q0 0.71875 -0.125 1.46875l-7.125 0q-0.046875 0.28125 -0.046875 0.5q0 1.359375 0.625 2.078125q0.625 0.71875 1.53125 0.71875q0.84375 0 1.65625 -0.546875q0.828125 -0.5625 1.28125 -1.609375zm-4.78125 -2.40625l5.421875 0q0.015625 -0.25 0.015625 -0.359375q0 -1.234375 -0.625 -1.890625q-0.625 -0.671875 -1.59375 -0.671875q-1.0625 0 -1.9375 0.734375q-0.859375 0.71875 -1.28125 2.1875zm14.578796 4.28125q-1.40625 1.6249962 -2.953125 1.6249962q-1.375 0 -2.296875 -1.0156212q-0.90625 -1.015625 -0.90625 -2.953125q0 -1.765625 0.71875 -3.21875q0.734375 -1.46875 1.8125 -2.1875q1.09375 -0.734375 2.1875 -0.734375q1.796875 0 2.71875 1.734375l1.09375 -5.203125l1.640625 0l-2.78125 13.359371l-1.53125 0l0.296875 -1.4062462zm-4.515625 -2.640625q0 1.0 0.203125 1.59375q0.203125 0.578125 0.671875 0.96875q0.484375 0.375 1.171875 0.375q1.109375 0 2.03125 -1.15625q1.21875 -1.546875 1.21875 -3.828125q0 -1.140625 -0.609375 -1.78125q-0.59375 -0.65625 -1.515625 -0.65625q-0.59375 0 -1.078125 0.265625q-0.484375 0.265625 -0.96875 0.90625q-0.46875 0.625 -0.796875 1.59375q-0.328125 0.96875 -0.328125 1.71875zm11.453857 -9.53125q1.4375 3.125 1.4375 6.421875q0 2.21875 -0.578125 4.125q-0.578125 1.890625 -1.765625 3.7499962q-0.796875 1.234375 -2.5 3.203125l-1.296875 0q1.0625 -1.140625 2.25 -3.21875q1.203125 -2.0624962 1.734375 -4.046871q0.53125 -2.0 0.53125 -4.015625q0 -3.0 -1.046875 -6.21875l1.234375 0z" fill-rule="nonzero"/></g></svg>