<svg version="1.1" viewBox="0.0 0.0 960.0 540.0" fill="none" stroke="none" stroke-linecap="square" stroke-miterlimit="10" xmlns:xlink="http://www.w3.org/1999/xlink" xmlns="http://www.w3.org/2000/svg"><clipPath id="g9e1ea9d259_0_1530.0"><path d="m0 0l960.0 0l0 540.0l-960.0 0l0 -540.0z" clip-rule="nonzero"/></clipPath><g clip-path="url(#g9e1ea9d259_0_1530.0)"><path fill="#ffffff" d="m0 0l960.0 0l0 540.0l-960.0 0z" fill-rule="evenodd"/><path fill="#cfe2f3" d="m13.766608 60.200203l0 0c0 -9.149216 7.4169035 -16.56612 16.56612 -16.56612l92.78074 0c4.393608 0 8.607269 1.7453537 11.71402 4.852104c3.1067505 3.1067505 4.8520966 7.320408 4.8520966 11.714016l0 3.320076c0 9.149216 -7.4169006 16.566116 -16.566116 16.566116l-92.78074 0l0 0c-9.149216 0 -16.56612 -7.4169006 -16.56612 -16.566116z" fill-rule="evenodd"/><path fill="#cfe2f3" d="m28.992718 42.11918l0 0c0 -16.235313 13.161324 -29.396637 29.396637 -29.396637l0 0c7.7964745 0 15.273624 3.0971375 20.786564 8.610077c5.5129395 5.5129375 8.610077 12.990089 8.610077 20.78656l0 0c0 16.235317 -13.161324 29.396637 -29.39664 29.396637l0 0c-16.235313 0 -29.396637 -13.16132 -29.396637 -29.396637z" fill-rule="evenodd"/><path fill="#cfe2f3" d="m80.03309 37.55668l0 0c0 -10.066029 8.160133 -18.226156 18.226158 -18.226156l0 0c4.8338776 0 9.469772 1.9202499 12.88784 5.338318c3.418068 3.418068 5.338318 8.053961 5.338318 12.887838l0 0c0 10.066029 -8.160126 18.226158 -18.226158 18.226158l0 0c-10.066025 0 -18.226158 -8.16013 -18.226158 -18.226158z" fill-rule="evenodd"/><path fill="#000000" fill-opacity="0.0" d="m13.766404 43.834644l141.13387 0l0 36.251972l-141.13387 0z" fill-rule="evenodd"/><path fill="#000000" d="m29.797655 64.91215l0 -2.0937538l5.390623 0l0 4.953129q-0.78125 0.75 -2.28125 1.34375q-1.4843731 0.578125 -3.015623 0.578125q-1.953125 0 -3.40625 -0.8125q-1.4375 -0.828125 -2.171875 -2.34375q-0.71875 -1.515625 -0.71875 -3.3125038q0 -1.9375 0.8125 -3.4375q0.8125 -1.5 2.375 -2.3125q1.203125 -0.609375 2.96875 -0.609375q2.312498 0 3.609373 0.96875q1.296875 0.96875 1.671875 2.671875l-2.484375 0.46875q-0.265625 -0.921875 -0.9843731 -1.4375q-0.71875 -0.53125 -1.8125 -0.53125q-1.640625 0 -2.609375 1.046875q-0.96875 1.03125 -0.96875 3.078125q0 2.2031288 0.984375 3.3125038q0.984375 1.109375 2.578125 1.109375q0.78125 0 1.5625 -0.3125q0.7968731 -0.3125 1.3749981 -0.75l0 -1.578125l-2.874998 0zm7.6971264 -5.640629l0 -2.203125l2.375 0l0 2.203125l-2.375 0zm0 10.203129l0 -8.984379l2.375 0l0 8.984379l-2.375 0zm8.923691 -8.984379l0 1.890625l-1.625 0l0 3.6250038q0 1.09375 0.046875 1.28125q0.046875 0.1875 0.203125 0.3125q0.171875 0.109375 0.421875 0.109375q0.328125 0 0.953125 -0.234375l0.203125 1.84375q-0.828125 0.359375 -1.875 0.359375q-0.65625 0 -1.171875 -0.21875q-0.515625 -0.21875 -0.765625 -0.546875q-0.234375 -0.34375 -0.3125 -0.9375q-0.078125 -0.40625 -0.078125 -1.671875l0 -3.9218788l-1.09375 0l0 -1.890625l1.09375 0l0 -1.78125l2.375 -1.390625l0 3.171875l1.625 0zm4.020401 -3.421875l0 4.5625q1.15625 -1.34375 2.75 -1.34375q0.828125 0 1.484375 0.3125q0.65625 0.296875 0.984375 0.78125q0.34375 0.46875 0.46875 1.046875q0.125 0.5625 0.125 1.7812538l0 5.265625l-2.375 0l0 -4.75q0 -1.4062538 -0.140625 -1.7812538q-0.140625 -0.390625 -0.484375 -0.609375q-0.34375 -0.234375 -0.859375 -0.234375q-0.59375 0 -1.0625 0.296875q-0.453125 0.28125 -0.671875 0.859375q-0.21875 0.578125 -0.21875 1.7187538l0 4.5l-2.375 0l0 -12.406254l2.375 0zm14.131592 12.406254l0 -1.34375q-0.484375 0.71875 -1.296875 1.140625q-0.796875 0.40625 -1.671875 0.40625q-0.90625 0 -1.625 -0.390625q-0.71875 -0.40625 -1.046875 -1.125q-0.328125 -0.71875 -0.328125 -1.984375l0 -5.687504l2.390625 0l0 4.125004q0 1.890625 0.125 2.328125q0.125 0.421875 0.46875 0.671875q0.359375 0.25 0.890625 0.25q0.609375 0 1.09375 -0.328125q0.484375 -0.34375 0.65625 -0.828125q0.171875 -0.5 0.171875 -2.421875l0 -3.7968788l2.375 0l0 8.984379l-2.203125 0zm4.569092 0l0 -12.406254l2.375 0l0 4.46875q1.109375 -1.25 2.609375 -1.25q1.640625 0 2.71875 1.1875q1.078125 1.1875 1.078125 3.4218788q0 2.296875 -1.109375 3.546875q-1.09375 1.234375 -2.65625 1.234375q-0.765625 0 -1.515625 -0.375q-0.75 -0.390625 -1.296875 -1.140625l0 1.3125l-2.203125 0zm2.359375 -4.6875q0 1.390625 0.4375 2.0625q0.625 0.953125 1.640625 0.953125q0.796875 0 1.34375 -0.671875q0.5625 -0.671875 0.5625 -2.125q0 -1.5312538 -0.5625 -2.2187538q-0.5625 -0.6875 -1.4375 -0.6875q-0.84375 0 -1.421875 0.671875q-0.5625 0.65625 -0.5625 2.0156288zm20.977158 -1.6406288l-2.34375 0.421875q-0.125 -0.703125 -0.546875 -1.046875q-0.40625 -0.359375 -1.078125 -0.359375q-0.890625 0 -1.421875 0.609375q-0.515625 0.609375 -0.515625 2.0468788q0 1.609375 0.53125 2.265625q0.53125 0.65625 1.4375 0.65625q0.6875 0 1.109375 -0.375q0.4375 -0.390625 0.609375 -1.328125l2.34375 0.390625q-0.375 1.609375 -1.40625 2.4375q-1.03125 0.8125 -2.765625 0.8125q-1.96875 0 -3.140625 -1.234375q-1.171875 -1.25 -1.171875 -3.453125q0 -2.2187538 1.171875 -3.4531288q1.1875 -1.25 3.1875 -1.25q1.640625 0 2.609375 0.703125q0.96875 0.703125 1.390625 2.15625zm1.80896 6.328129l0 -12.406254l2.375 0l0 12.406254l-2.375 0zm4.251816 -4.625q0 -1.1718788 0.578125 -2.2812538q0.59375 -1.109375 1.65625 -1.6875q1.078125 -0.59375 2.40625 -0.59375q2.03125 0 3.328125 1.328125q1.3125 1.3125 1.3125 3.3437538q0 2.03125 -1.328125 3.375q-1.3125 1.34375 -3.296875 1.34375q-1.234375 0 -2.359375 -0.546875q-1.125 -0.5625 -1.71875 -1.640625q-0.578125 -1.09375 -0.578125 -2.640625zm2.4375 0.125q0 1.34375 0.640625 2.0625q0.640625 0.703125 1.5625 0.703125q0.9375 0 1.5625 -0.703125q0.625 -0.71875 0.625 -2.078125q0 -1.3125038 -0.625 -2.0156288q-0.625 -0.71875 -1.5625 -0.71875q-0.921875 0 -1.5625 0.71875q-0.640625 0.703125 -0.640625 2.0312538zm14.615967 4.5l0 -1.34375q-0.484375 0.71875 -1.296875 1.140625q-0.796875 0.40625 -1.671875 0.40625q-0.90625 0 -1.625 -0.390625q-0.71875 -0.40625 -1.046875 -1.125q-0.328125 -0.71875 -0.328125 -1.984375l0 -5.687504l2.390625 0l0 4.125004q0 1.890625 0.125 2.328125q0.125 0.421875 0.46875 0.671875q0.359375 0.25 0.890625 0.25q0.609375 0 1.09375 -0.328125q0.484375 -0.34375 0.65625 -0.828125q0.171875 -0.5 0.171875 -2.421875l0 -3.7968788l2.375 0l0 8.984379l-2.203125 0zm12.912842 0l-2.203125 0l0 -1.3125q-0.5625 0.765625 -1.3125 1.140625q-0.734375 0.375 -1.5 0.375q-1.546875 0 -2.65625 -1.25q-1.109375 -1.25 -1.109375 -3.484375q0 -2.2812538 1.078125 -3.4687538q1.078125 -1.1875 2.71875 -1.1875q1.5 0 2.609375 1.25l0 -4.46875l2.375 0l0 12.406254zm-6.34375 -4.6875q0 1.4375 0.390625 2.078125q0.578125 0.9375 1.609375 0.9375q0.828125 0 1.390625 -0.703125q0.578125 -0.703125 0.578125 -2.078125q0 -1.5468788 -0.5625 -2.2343788q-0.546875 -0.6875 -1.421875 -0.6875q-0.84375 0 -1.421875 0.671875q-0.5625 0.671875 -0.5625 2.0156288z" fill-rule="nonzero"/><path fill="#f1c232" d="m153.87465 108.3649l16.997421 0l9.658813 9.658798l0 21.994873l-31.931946 0l0 -26.377953l0 0c0 -2.913704 2.3620148 -5.2757187 5.275711 -5.2757187z" fill-rule="evenodd"/><path stroke="#595959" stroke-width="1.0" stroke-linejoin="round" stroke-linecap="butt" d="m153.87465 108.3649l16.997421 0l9.658813 9.658798l0 21.994873l-31.931946 0l0 -26.377953l0 0c0 -2.913704 2.3620148 -5.2757187 5.275711 -5.2757187z" fill-rule="evenodd"/><path fill="#ffe599" d="m148.59973 118.39449l0 0c0 -2.4965897 2.0238953 -4.5204697 4.5204773 -4.5204697l68.3801 0c1.1989136 0 2.348709 0.47625732 3.196457 1.3240128c0.84776306 0.84775543 1.3240204 1.997551 1.3240204 3.196457l0 43.89199c0 2.496582 -2.02388 4.5204773 -4.5204773 4.5204773l-68.3801 0c-2.496582 0 -4.5204773 -2.0238953 -4.5204773 -4.5204773z" fill-rule="evenodd"/><path stroke="#595959" stroke-width="1.0" stroke-linejoin="round" stroke-linecap="butt" d="m148.59973 118.39449l0 0c0 -2.4965897 2.0238953 -4.5204697 4.5204773 -4.5204697l68.3801 0c1.1989136 0 2.348709 0.47625732 3.196457 1.3240128c0.84776306 0.84775543 1.3240204 1.997551 1.3240204 3.196457l0 43.89199c0 2.496582 -2.02388 4.5204773 -4.5204773 4.5204773l-68.3801 0c-2.496582 0 -4.5204773 -2.0238953 -4.5204773 -4.5204773z" fill-rule="evenodd"/><path fill="#000000" fill-opacity="0.0" d="m143.77933 122.10499l85.25984 0l0 18.614174l-85.25984 0z" fill-rule="evenodd"/><path fill="#000000" d="m155.2159 149.02498l0 -13.359375l5.921875 0q1.78125 0 2.703125 0.359375q0.9375 0.359375 1.484375 1.28125q0.5625 0.90625 0.5625 2.015625q0 1.40625 -0.921875 2.390625q-0.921875 0.96875 -2.84375 1.234375q0.703125 0.34375 1.078125 0.671875q0.765625 0.703125 1.453125 1.765625l2.328125 3.640625l-2.21875 0l-1.765625 -2.78125q-0.78125 -1.203125 -1.28125 -1.828125q-0.5 -0.640625 -0.90625 -0.890625q-0.390625 -0.265625 -0.796875 -0.359375q-0.296875 -0.078125 -0.984375 -0.078125l-2.046875 0l0 5.9375l-1.765625 0zm1.765625 -7.453125l3.796875 0q1.21875 0 1.890625 -0.25q0.6875 -0.265625 1.046875 -0.8125q0.359375 -0.546875 0.359375 -1.1875q0 -0.953125 -0.6875 -1.5625q-0.6875 -0.609375 -2.1875 -0.609375l-4.21875 0l0 4.421875zm18.097946 4.34375l1.6875 0.203125q-0.40625 1.484375 -1.484375 2.3125q-1.078125 0.8125 -2.765625 0.8125q-2.125 0 -3.375 -1.296875q-1.234375 -1.3125 -1.234375 -3.671875q0 -2.453125 1.25 -3.796875q1.265625 -1.34375 3.265625 -1.34375q1.9375 0 3.15625 1.328125q1.234375 1.3125 1.234375 3.703125q0 0.15625 0 0.4375l-7.21875 0q0.09375 1.59375 0.90625 2.453125q0.8125 0.84375 2.015625 0.84375q0.90625 0 1.546875 -0.46875q0.640625 -0.484375 1.015625 -1.515625zm-5.390625 -2.65625l5.40625 0q-0.109375 -1.21875 -0.625 -1.828125q-0.78125 -0.953125 -2.03125 -0.953125q-1.125 0 -1.90625 0.765625q-0.765625 0.75 -0.84375 2.015625zm9.141342 5.765625l0 -9.671875l1.46875 0l0 1.359375q0.453125 -0.71875 1.203125 -1.140625q0.765625 -0.4375 1.71875 -0.4375q1.078125 0 1.765625 0.453125q0.6875 0.4375 0.96875 1.234375q1.15625 -1.6875 2.984375 -1.6875q1.453125 0 2.21875 0.796875q0.78125 0.796875 0.78125 2.453125l0 6.640625l-1.640625 0l0 -6.09375q0 -0.984375 -0.15625 -1.40625q-0.15625 -0.4375 -0.578125 -0.703125q-0.421875 -0.265625 -0.984375 -0.265625q-1.015625 0 -1.6875 0.6875q-0.671875 0.671875 -0.671875 2.15625l0 5.625l-1.640625 0l0 -6.28125q0 -1.09375 -0.40625 -1.640625q-0.40625 -0.546875 -1.3125 -0.546875q-0.6875 0 -1.28125 0.359375q-0.59375 0.359375 -0.859375 1.0625q-0.25 0.703125 -0.25 2.03125l0 5.015625l-1.640625 0zm14.931427 -4.84375q0 -2.6875 1.484375 -3.96875q1.25 -1.078125 3.046875 -1.078125q2.0 0 3.265625 1.3125q1.265625 1.296875 1.265625 3.609375q0 1.859375 -0.5625 2.9375q-0.5625 1.0625 -1.640625 1.65625q-1.0625 0.59375 -2.328125 0.59375q-2.03125 0 -3.28125 -1.296875q-1.25 -1.3125 -1.25 -3.765625zm1.6875 0q0 1.859375 0.796875 2.796875q0.8125 0.921875 2.046875 0.921875q1.21875 0 2.03125 -0.921875q0.8125 -0.9375 0.8125 -2.84375q0 -1.796875 -0.8125 -2.71875q-0.8125 -0.921875 -2.03125 -0.921875q-1.234375 0 -2.046875 0.921875q-0.796875 0.90625 -0.796875 2.765625zm12.875717 3.375l0.234375 1.453125q-0.6875 0.140625 -1.234375 0.140625q-0.890625 0 -1.390625 -0.28125q-0.484375 -0.28125 -0.6875 -0.734375q-0.203125 -0.46875 -0.203125 -1.9375l0 -5.578125l-1.203125 0l0 -1.265625l1.203125 0l0 -2.390625l1.625 -0.984375l0 3.375l1.65625 0l0 1.265625l-1.65625 0l0 5.671875q0 0.6875 0.078125 0.890625q0.09375 0.203125 0.28125 0.328125q0.203125 0.109375 0.578125 0.109375q0.265625 0 0.71875 -0.0625zm8.230179 -1.640625l1.6875 0.203125q-0.40625 1.484375 -1.484375 2.3125q-1.078125 0.8125 -2.765625 0.8125q-2.125 0 -3.375 -1.296875q-1.234375 -1.3125 -1.234375 -3.671875q0 -2.453125 1.25 -3.796875q1.265625 -1.34375 3.265625 -1.34375q1.9375 0 3.15625 1.328125q1.234375 1.3125 1.234375 3.703125q0 0.15625 0 0.4375l-7.21875 0q0.09375 1.59375 0.90625 2.453125q0.8125 0.84375 2.015625 0.84375q0.90625 0 1.546875 -0.46875q0.640625 -0.484375 1.015625 -1.515625zm-5.390625 -2.65625l5.40625 0q-0.109375 -1.21875 -0.625 -1.828125q-0.78125 -0.953125 -2.03125 -0.953125q-1.125 0 -1.90625 0.765625q-0.765625 0.75 -0.84375 2.015625z" fill-rule="nonzero"/><path fill="#000000" fill-opacity="0.0" d="m230.6693 140.71916l36.25197 0" fill-rule="evenodd"/><path stroke="#000000" stroke-width="2.0" stroke-linejoin="round" stroke-linecap="butt" d="m230.6693 140.71916l28.671982 0" fill-rule="evenodd"/><path fill="#000000" stroke="#000000" stroke-width="2.0" stroke-linecap="butt" d="m265.92126 140.71916c0 1.8170166 -1.472992 3.2899933 -3.2900085 3.2899933c-1.8170166 0 -3.2900085 -1.4729767 -3.2900085 -3.2899933c0 -1.8170166 1.472992 -3.2900085 3.2900085 -3.2900085c1.8170166 0 3.2900085 1.472992 3.2900085 3.2900085z" fill-rule="nonzero"/><path fill="#000000" fill-opacity="0.0" d="m253.55905 69.60105l109.60629 0l0 16.755905l-109.60629 0z" fill-rule="evenodd"/><path fill="#000000" d="m263.16843 95.276955l2.015625 -9.671875l1.65625 0l-0.34375 1.59375q0.921875 -1.03125 1.640625 -1.421875q0.734375 -0.390625 1.578125 -0.390625q0.90625 0 1.515625 0.484375q0.609375 0.46875 0.796875 1.328125q0.734375 -0.90625 1.546875 -1.359375q0.8125 -0.453125 1.71875 -0.453125q1.21875 0 1.8125 0.578125q0.609375 0.5625 0.609375 1.609375q0 0.4375 -0.203125 1.46875l-1.3125 6.234375l-1.640625 0l1.328125 -6.390625q0.171875 -0.78125 0.171875 -1.125q0 -0.46875 -0.296875 -0.734375q-0.296875 -0.28125 -0.84375 -0.28125q-0.75 0 -1.515625 0.453125q-0.765625 0.4375 -1.1875 1.171875q-0.421875 0.71875 -0.734375 2.21875l-0.984375 4.6875l-1.65625 0l1.375 -6.53125q0.140625 -0.671875 0.140625 -0.953125q0 -0.46875 -0.296875 -0.75q-0.296875 -0.296875 -0.765625 -0.296875q-0.703125 0 -1.484375 0.453125q-0.765625 0.4375 -1.25 1.234375q-0.46875 0.796875 -0.78125 2.265625l-0.953125 4.578125l-1.65625 0zm14.931427 3.734375l0.09375 -1.546875q0.515625 0.140625 1.0 0.140625q0.5 0 0.8125 -0.21875q0.40625 -0.3125 0.875 -1.140625l0.53125 -0.9375l-1.625 -9.703125l1.625 0l0.734375 4.890625q0.21875 1.453125 0.375 2.890625l4.328125 -7.78125l1.71875 0l-6.171875 10.953125q-0.890625 1.609375 -1.59375 2.125q-0.6875 0.515625 -1.578125 0.515625q-0.578125 0 -1.125 -0.1875zm10.171875 -3.734375l2.796875 -13.359375l8.671875 0l-0.3125 1.53125l-6.90625 0l-0.875 4.25l7.015625 0l-0.3125 1.515625l-7.015625 0l-1.28125 6.0625l-1.78125 0zm13.505371 -11.484375l0.40625 -1.875l1.625 0l-0.390625 1.875l-1.640625 0zm-2.390625 11.484375l2.015625 -9.671875l1.65625 0l-2.03125 9.671875l-1.640625 0zm4.066681 0l2.796875 -13.359375l1.640625 0l-2.78125 13.359375l-1.65625 0zm11.379211 -3.28125l1.609375 0.15625q-0.34375 1.1875 -1.59375 2.265625q-1.234375 1.078125 -2.96875 1.078125q-1.0625 0 -1.96875 -0.5q-0.890625 -0.5 -1.359375 -1.4375q-0.46875 -0.953125 -0.46875 -2.15625q0 -1.59375 0.734375 -3.078125q0.734375 -1.484375 1.890625 -2.203125q1.171875 -0.734375 2.53125 -0.734375q1.734375 0 2.765625 1.078125q1.03125 1.0625 1.03125 2.921875q0 0.71875 -0.125 1.46875l-7.125 0q-0.046875 0.28125 -0.046875 0.5q0 1.359375 0.625 2.078125q0.625 0.71875 1.53125 0.71875q0.84375 0 1.65625 -0.546875q0.828125 -0.5625 1.28125 -1.609375zm-4.78125 -2.40625l5.421875 0q0.015625 -0.25 0.015625 -0.359375q0 -1.234375 -0.625 -1.890625q-0.625 -0.671875 -1.59375 -0.671875q-1.0625 0 -1.9375 0.734375q-0.859375 0.71875 -1.28125 2.1875zm8.516327 5.6875l0.390625 -1.875l1.859375 0l-0.390625 1.875l-1.859375 0zm8.573944 -1.34375l-0.265625 1.359375q-0.59375 0.140625 -1.15625 0.140625q-0.984375 0 -1.5625 -0.46875q-0.4375 -0.375 -0.4375 -1.0q0 -0.3125 0.234375 -1.46875l1.171875 -5.625l-1.296875 0l0.265625 -1.265625l1.296875 0l0.5 -2.375l1.890625 -1.140625l-0.734375 3.515625l1.625 0l-0.28125 1.265625l-1.609375 0l-1.125 5.359375q-0.203125 1.015625 -0.203125 1.21875q0 0.28125 0.15625 0.4375q0.171875 0.15625 0.5625 0.15625q0.546875 0 0.96875 -0.109375zm0.6832886 1.34375l4.21875 -4.90625l-2.421875 -4.765625l1.828125 0l0.8125 1.71875q0.453125 0.96875 0.828125 1.84375l2.78125 -3.5625l2.015625 0l-4.0625 4.890625l2.4375 4.78125l-1.8125 0l-0.96875 -1.96875q-0.3125 -0.625 -0.703125 -1.5625l-2.875 3.53125l-2.078125 0zm13.828125 -1.34375l-0.265625 1.359375q-0.59375 0.140625 -1.15625 0.140625q-0.984375 0 -1.5625 -0.46875q-0.4375 -0.375 -0.4375 -1.0q0 -0.3125 0.234375 -1.46875l1.171875 -5.625l-1.296875 0l0.265625 -1.265625l1.296875 0l0.5 -2.375l1.890625 -1.140625l-0.734375 3.515625l1.625 0l-0.28125 1.265625l-1.609375 0l-1.125 5.359375q-0.203125 1.015625 -0.203125 1.21875q0 0.28125 0.15625 0.4375q0.171875 0.15625 0.5625 0.15625q0.546875 0 0.96875 -0.109375z" fill-rule="nonzero"/><path fill="#ffffff" d="m276.7382 116.21818l0 0c0 -3.6811295 2.9841614 -6.6652756 6.665283 -6.6652756l26.660278 0l0 0c1.7677612 0 3.4630737 0.70223236 4.7130737 1.9522171c1.2499695 1.2499771 1.9522095 2.9453201 1.9522095 4.7130585l0 36.706184c0 3.6811218 -2.9841614 6.665268 -6.665283 6.665268l-26.660278 0c-3.6811218 0 -6.665283 -2.984146 -6.665283 -6.665268z" fill-rule="evenodd"/><path stroke="#000000" stroke-width="1.0" stroke-linejoin="round" stroke-linecap="butt" d="m276.7382 116.21818l0 0c0 -3.6811295 2.9841614 -6.6652756 6.665283 -6.6652756l26.660278 0l0 0c1.7677612 0 3.4630737 0.70223236 4.7130737 1.9522171c1.2499695 1.2499771 1.9522095 2.9453201 1.9522095 4.7130585l0 36.706184c0 3.6811218 -2.9841614 6.665268 -6.665283 6.665268l-26.660278 0c-3.6811218 0 -6.665283 -2.984146 -6.665283 -6.665268z" fill-rule="evenodd"/><path fill="#f1c232" d="m278.24118 118.57661l36.984863 0c0.3986206 0 0.7809143 -0.15835571 1.0627747 -0.44021606c0.28186035 -0.28186798 0.44021606 -0.6641617 0.44021606 -1.0627747l0 -3.1178894l0 0c0 -2.4283218 -1.9685364 -4.3968735 -4.396881 -4.3968735l-31.197083 0c-2.4283142 0 -4.396881 1.9685516 -4.396881 4.3968735l0 3.1178894l0 0c0 0.8300781 0.6729126 1.5029907 1.5029907 1.5029907z" fill-rule="evenodd"/><path stroke="#595959" stroke-width="1.0" stroke-linejoin="round" stroke-linecap="butt" d="m278.24118 118.57661l36.984863 0c0.3986206 0 0.7809143 -0.15835571 1.0627747 -0.44021606c0.28186035 -0.28186798 0.44021606 -0.6641617 0.44021606 -1.0627747l0 -3.1178894l0 0c0 -2.4283218 -1.9685364 -4.3968735 -4.396881 -4.3968735l-31.197083 0c-2.4283142 0 -4.396881 1.9685516 -4.396881 4.3968735l0 3.1178894l0 0c0 0.8300781 0.6729126 1.5029907 1.5029907 1.5029907z" fill-rule="evenodd"/><path fill="#000000" fill-opacity="0.0" d="m280.71585 126.46716l30.673187 0" fill-rule="evenodd"/><path stroke="#000000" stroke-width="2.0" stroke-linejoin="round" stroke-linecap="butt" d="m280.71585 126.46716l30.673187 0" fill-rule="evenodd"/><path fill="#000000" fill-opacity="0.0" d="m280.71585 133.11938l30.673187 0" fill-rule="evenodd"/><path stroke="#000000" stroke-width="2.0" stroke-linejoin="round" stroke-linecap="butt" d="m280.71585 133.11938l30.673187 0" fill-rule="evenodd"/><path fill="#000000" fill-opacity="0.0" d="m280.71585 141.05652l30.673187 0" fill-rule="evenodd"/><path stroke="#000000" stroke-width="2.0" stroke-linejoin="round" stroke-linecap="butt" d="m280.71585 141.05652l30.673187 0" fill-rule="evenodd"/><path fill="#000000" fill-opacity="0.0" d="m280.71585 148.35033l30.673187 0" fill-rule="evenodd"/><path stroke="#000000" stroke-width="2.0" stroke-linejoin="round" stroke-linecap="butt" d="m280.71585 148.35033l30.673187 0" fill-rule="evenodd"/><path fill="#ffffff" d="m280.3675 122.36664l0 0c0 -3.6811295 2.9841614 -6.6652756 6.665283 -6.6652756l26.660278 0l0 0c1.7677307 0 3.4630737 0.70223236 4.7130737 1.9522171c1.2499695 1.2499771 1.9522095 2.9453125 1.9522095 4.7130585l0 36.706177c0 3.681137 -2.9841614 6.665283 -6.665283 6.665283l-26.660278 0c-3.6811218 0 -6.665283 -2.984146 -6.665283 -6.665283z" fill-rule="evenodd"/><path stroke="#000000" stroke-width="1.0" stroke-linejoin="round" stroke-linecap="butt" d="m280.3675 122.36664l0 0c0 -3.6811295 2.9841614 -6.6652756 6.665283 -6.6652756l26.660278 0l0 0c1.7677307 0 3.4630737 0.70223236 4.7130737 1.9522171c1.2499695 1.2499771 1.9522095 2.9453125 1.9522095 4.7130585l0 36.706177c0 3.681137 -2.9841614 6.665283 -6.665283 6.665283l-26.660278 0c-3.6811218 0 -6.665283 -2.984146 -6.665283 -6.665283z" fill-rule="evenodd"/><path fill="#f1c232" d="m281.87048 124.72506l36.984863 0c0.3986206 0 0.7809143 -0.15834808 1.0627747 -0.44020844c0.28186035 -0.28186798 0.44021606 -0.6641617 0.44021606 -1.0627747l0 -3.1178894l0 0c0 -2.4283218 -1.9685669 -4.3968735 -4.396881 -4.3968735l-31.197083 0c-2.4283142 0 -4.396881 1.9685516 -4.396881 4.3968735l0 3.1178894l0 0c0 0.8300781 0.6729126 1.5029831 1.5029907 1.5029831z" fill-rule="evenodd"/><path stroke="#595959" stroke-width="1.0" stroke-linejoin="round" stroke-linecap="butt" d="m281.87048 124.72506l36.984863 0c0.3986206 0 0.7809143 -0.15834808 1.0627747 -0.44020844c0.28186035 -0.28186798 0.44021606 -0.6641617 0.44021606 -1.0627747l0 -3.1178894l0 0c0 -2.4283218 -1.9685669 -4.3968735 -4.396881 -4.3968735l-31.197083 0c-2.4283142 0 -4.396881 1.9685516 -4.396881 4.3968735l0 3.1178894l0 0c0 0.8300781 0.6729126 1.5029831 1.5029907 1.5029831z" fill-rule="evenodd"/><path fill="#000000" fill-opacity="0.0" d="m284.34515 132.61563l30.673187 0" fill-rule="evenodd"/><path stroke="#000000" stroke-width="2.0" stroke-linejoin="round" stroke-linecap="butt" d="m284.34515 132.61563l30.673187 0" fill-rule="evenodd"/><path fill="#000000" fill-opacity="0.0" d="m284.34515 139.26784l30.673187 0" fill-rule="evenodd"/><path stroke="#000000" stroke-width="2.0" stroke-linejoin="round" stroke-linecap="butt" d="m284.34515 139.26784l30.673187 0" fill-rule="evenodd"/><path fill="#000000" fill-opacity="0.0" d="m284.34515 147.20497l30.673187 0" fill-rule="evenodd"/><path stroke="#000000" stroke-width="2.0" stroke-linejoin="round" stroke-linecap="butt" d="m284.34515 147.20497l30.673187 0" fill-rule="evenodd"/><path fill="#000000" fill-opacity="0.0" d="m284.34515 154.49878l30.673187 0" fill-rule="evenodd"/><path stroke="#000000" stroke-width="2.0" stroke-linejoin="round" stroke-linecap="butt" d="m284.34515 154.49878l30.673187 0" fill-rule="evenodd"/><path fill="#ffffff" d="m280.3675 122.36664l0 0c0 -3.6811295 2.9841614 -6.6652756 6.665283 -6.6652756l26.660278 0l0 0c1.7677307 0 3.4630737 0.70223236 4.7130737 1.9522171c1.2499695 1.2499771 1.9522095 2.9453125 1.9522095 4.7130585l0 36.706177c0 3.681137 -2.9841614 6.665283 -6.665283 6.665283l-26.660278 0c-3.6811218 0 -6.665283 -2.984146 -6.665283 -6.665283z" fill-rule="evenodd"/><path stroke="#000000" stroke-width="1.0" stroke-linejoin="round" stroke-linecap="butt" d="m280.3675 122.36664l0 0c0 -3.6811295 2.9841614 -6.6652756 6.665283 -6.6652756l26.660278 0l0 0c1.7677307 0 3.4630737 0.70223236 4.7130737 1.9522171c1.2499695 1.2499771 1.9522095 2.9453125 1.9522095 4.7130585l0 36.706177c0 3.681137 -2.9841614 6.665283 -6.665283 6.665283l-26.660278 0c-3.6811218 0 -6.665283 -2.984146 -6.665283 -6.665283z" fill-rule="evenodd"/><path fill="#f1c232" d="m281.87048 124.72506l36.984863 0c0.3986206 0 0.7809143 -0.15834808 1.0627747 -0.44020844c0.28186035 -0.28186798 0.44021606 -0.6641617 0.44021606 -1.0627747l0 -3.1178894l0 0c0 -2.4283218 -1.9685669 -4.3968735 -4.396881 -4.3968735l-31.197083 0c-2.4283142 0 -4.396881 1.9685516 -4.396881 4.3968735l0 3.1178894l0 0c0 0.8300781 0.6729126 1.5029831 1.5029907 1.5029831z" fill-rule="evenodd"/><path stroke="#595959" stroke-width="1.0" stroke-linejoin="round" stroke-linecap="butt" d="m281.87048 124.72506l36.984863 0c0.3986206 0 0.7809143 -0.15834808 1.0627747 -0.44020844c0.28186035 -0.28186798 0.44021606 -0.6641617 0.44021606 -1.0627747l0 -3.1178894l0 0c0 -2.4283218 -1.9685669 -4.3968735 -4.396881 -4.3968735l-31.197083 0c-2.4283142 0 -4.396881 1.9685516 -4.396881 4.3968735l0 3.1178894l0 0c0 0.8300781 0.6729126 1.5029831 1.5029907 1.5029831z" fill-rule="evenodd"/><path fill="#000000" fill-opacity="0.0" d="m284.34515 132.61563l30.673187 0" fill-rule="evenodd"/><path stroke="#000000" stroke-width="2.0" stroke-linejoin="round" stroke-linecap="butt" d="m284.34515 132.61563l30.673187 0" fill-rule="evenodd"/><path fill="#000000" fill-opacity="0.0" d="m284.34515 139.26784l30.673187 0" fill-rule="evenodd"/><path stroke="#000000" stroke-width="2.0" stroke-linejoin="round" stroke-linecap="butt" d="m284.34515 139.26784l30.673187 0" fill-rule="evenodd"/><path fill="#000000" fill-opacity="0.0" d="m284.34515 147.20497l30.673187 0" fill-rule="evenodd"/><path stroke="#000000" stroke-width="2.0" stroke-linejoin="round" stroke-linecap="butt" d="m284.34515 147.20497l30.673187 0" fill-rule="evenodd"/><path fill="#000000" fill-opacity="0.0" d="m284.34515 154.49878l30.673187 0" fill-rule="evenodd"/><path stroke="#000000" stroke-width="2.0" stroke-linejoin="round" stroke-linecap="butt" d="m284.34515 154.49878l30.673187 0" fill-rule="evenodd"/><path fill="#ffffff" d="m283.9968 128.51509l0 0c0 -3.6811218 2.9841614 -6.665268 6.665283 -6.665268l26.660278 0l0 0c1.7677307 0 3.4630737 0.70223236 4.7130737 1.9522171c1.2499695 1.2499771 1.9522095 2.9453125 1.9522095 4.713051l0 36.706192c0 3.6811218 -2.9841614 6.665268 -6.665283 6.665268l-26.660278 0c-3.6811218 0 -6.665283 -2.984146 -6.665283 -6.665268z" fill-rule="evenodd"/><path stroke="#000000" stroke-width="1.0" stroke-linejoin="round" stroke-linecap="butt" d="m283.9968 128.51509l0 0c0 -3.6811218 2.9841614 -6.665268 6.665283 -6.665268l26.660278 0l0 0c1.7677307 0 3.4630737 0.70223236 4.7130737 1.9522171c1.2499695 1.2499771 1.9522095 2.9453125 1.9522095 4.713051l0 36.706192c0 3.6811218 -2.9841614 6.665268 -6.665283 6.665268l-26.660278 0c-3.6811218 0 -6.665283 -2.984146 -6.665283 -6.665268z" fill-rule="evenodd"/><path fill="#f1c232" d="m285.4998 130.87352l36.984863 0c0.3986206 0 0.7809143 -0.15834045 1.0627747 -0.44021606c0.28186035 -0.28186035 0.44021606 -0.66415405 0.44021606 -1.0627747l0 -3.1178818l0 0c0 -2.4283295 -1.9685669 -4.3968735 -4.396881 -4.3968735l-31.197083 0c-2.4283142 0 -4.396881 1.968544 -4.396881 4.3968735l0 3.1178818l0 0c0 0.8300781 0.6729126 1.5029907 1.5029907 1.5029907z" fill-rule="evenodd"/><path stroke="#595959" stroke-width="1.0" stroke-linejoin="round" stroke-linecap="butt" d="m285.4998 130.87352l36.984863 0c0.3986206 0 0.7809143 -0.15834045 1.0627747 -0.44021606c0.28186035 -0.28186035 0.44021606 -0.66415405 0.44021606 -1.0627747l0 -3.1178818l0 0c0 -2.4283295 -1.9685669 -4.3968735 -4.396881 -4.3968735l-31.197083 0c-2.4283142 0 -4.396881 1.968544 -4.396881 4.3968735l0 3.1178818l0 0c0 0.8300781 0.6729126 1.5029907 1.5029907 1.5029907z" fill-rule="evenodd"/><path fill="#000000" fill-opacity="0.0" d="m287.97446 138.76408l30.673187 0" fill-rule="evenodd"/><path stroke="#000000" stroke-width="2.0" stroke-linejoin="round" stroke-linecap="butt" d="m287.97446 138.76408l30.673187 0" fill-rule="evenodd"/><path fill="#000000" fill-opacity="0.0" d="m287.97446 145.4163l30.673187 0" fill-rule="evenodd"/><path stroke="#000000" stroke-width="2.0" stroke-linejoin="round" stroke-linecap="butt" d="m287.97446 145.4163l30.673187 0" fill-rule="evenodd"/><path fill="#000000" fill-opacity="0.0" d="m184.77165 287.1811l0 -98.89763" fill-rule="evenodd"/><path stroke="#ff0000" stroke-width="4.0" stroke-linejoin="round" stroke-linecap="butt" d="m184.77165 287.1811l0 -74.89763" fill-rule="evenodd"/><path fill="#ff0000" stroke="#ff0000" stroke-width="4.0" stroke-linecap="butt" d="m191.37859 212.28346l-6.6069336 -18.15239l-6.6069336 18.15239z" fill-rule="evenodd"/><path fill="#000000" fill-opacity="0.0" d="m0 293.68503l411.1811 0l0 45.543304l-411.1811 0z" fill-rule="evenodd"/><path fill="#ff0000" d="m30.003632 329.56503l-4.78125 -20.046875l4.140625 0l3.03125 13.765625l3.65625 -13.765625l4.8125 0l3.515625 14.0l3.078125 -14.0l4.078125 0l-4.875 20.046875l-4.296875 0l-3.984375 -14.984375l-3.984375 14.984375l-4.390625 0zm27.396484 -20.046875l0 7.375q1.859375 -2.171875 4.4375 -2.171875q1.328125 0 2.390625 0.5q1.0625 0.484375 1.609375 1.25q0.546875 0.765625 0.734375 1.703125q0.203125 0.921875 0.203125 2.875l0 8.515625l-3.84375 0l0 -7.671875q0 -2.28125 -0.21875 -2.890625q-0.21875 -0.625 -0.78125 -0.984375q-0.546875 -0.359375 -1.375 -0.359375q-0.953125 0 -1.71875 0.46875q-0.75 0.453125 -1.09375 1.390625q-0.34375 0.9375 -0.34375 2.765625l0 7.28125l-3.84375 0l0 -20.046875l3.84375 0zm21.68164 15.421875l3.828125 0.640625q-0.734375 2.109375 -2.328125 3.21875q-1.59375 1.09375 -3.984375 1.09375q-3.796875 0 -5.609375 -2.46875q-1.4375 -1.984375 -1.4375 -5.015625q0 -3.609375 1.875 -5.640625q1.890625 -2.046875 4.78125 -2.046875q3.234375 0 5.109375 2.140625q1.875 2.140625 1.796875 6.546875l-9.625 0q0.046875 1.71875 0.921875 2.671875q0.890625 0.9375 2.21875 0.9375q0.90625 0 1.515625 -0.484375q0.625 -0.5 0.9375 -1.59375zm0.21875 -3.875q-0.046875 -1.671875 -0.875 -2.53125q-0.8125 -0.875 -1.984375 -0.875q-1.265625 0 -2.078125 0.90625q-0.828125 0.921875 -0.8125 2.5l5.75 0zm10.619141 8.5l-3.84375 0l0 -14.515625l3.578125 0l0 2.0625q0.90625 -1.46875 1.640625 -1.921875q0.734375 -0.46875 1.65625 -0.46875q1.3125 0 2.53125 0.71875l-1.1875 3.34375q-0.96875 -0.625 -1.796875 -0.625q-0.8125 0 -1.375 0.453125q-0.5625 0.4375 -0.890625 1.609375q-0.3125 1.15625 -0.3125 4.859375l0 4.484375zm15.630859 -4.625l3.828125 0.640625q-0.734375 2.109375 -2.328125 3.21875q-1.59375 1.09375 -3.984375 1.09375q-3.796875 0 -5.609375 -2.46875q-1.4375 -1.984375 -1.4375 -5.015625q0 -3.609375 1.875 -5.640625q1.890625 -2.046875 4.78125 -2.046875q3.234375 0 5.109375 2.140625q1.875 2.140625 1.796875 6.546875l-9.625 0q0.046875 1.71875 0.921875 2.671875q0.890625 0.9375 2.21875 0.9375q0.90625 0 1.515625 -0.484375q0.625 -0.5 0.9375 -1.59375zm0.21875 -3.875q-0.046875 -1.671875 -0.875 -2.53125q-0.8125 -0.875 -1.984375 -0.875q-1.265625 0 -2.078125 0.90625q-0.828125 0.921875 -0.8125 2.5l5.75 0zm28.039062 8.5l-3.5625 0l0 -2.140625q-0.890625 1.25 -2.109375 1.859375q-1.203125 0.609375 -2.4375 0.609375q-2.5 0 -4.28125 -2.015625q-1.78125 -2.015625 -1.78125 -5.625q0 -3.6875 1.734375 -5.609375q1.734375 -1.921875 4.390625 -1.921875q2.421875 0 4.203125 2.015625l0 -7.21875l3.84375 0l0 20.046875zm-10.25 -7.578125q0 2.328125 0.640625 3.359375q0.921875 1.515625 2.59375 1.515625q1.328125 0 2.25 -1.125q0.9375 -1.140625 0.9375 -3.375q0 -2.5 -0.90625 -3.59375q-0.90625 -1.109375 -2.3125 -1.109375q-1.359375 0 -2.28125 1.09375q-0.921875 1.078125 -0.921875 3.234375zm14.041016 -8.90625l0 -3.5625l3.84375 0l0 3.5625l-3.84375 0zm0 16.484375l0 -14.515625l3.84375 0l0 14.515625l-3.84375 0zm21.091797 0l-3.5625 0l0 -2.140625q-0.890625 1.25 -2.109375 1.859375q-1.203125 0.609375 -2.4375 0.609375q-2.5 0 -4.28125 -2.015625q-1.78125 -2.015625 -1.78125 -5.625q0 -3.6875 1.734375 -5.609375q1.734375 -1.921875 4.390625 -1.921875q2.421875 0 4.203125 2.015625l0 -7.21875l3.84375 0l0 20.046875zm-10.25 -7.578125q0 2.328125 0.640625 3.359375q0.921875 1.515625 2.59375 1.515625q1.328125 0 2.25 -1.125q0.9375 -1.140625 0.9375 -3.375q0 -2.5 -0.90625 -3.59375q-0.90625 -1.109375 -2.3125 -1.109375q-1.359375 0 -2.28125 1.09375q-0.921875 1.078125 -0.921875 3.234375zm28.476562 -6.9375l0 3.0625l-2.625 0l0 5.84375q0 1.78125 0.0625 2.078125q0.078125 0.296875 0.34375 0.484375q0.28125 0.1875 0.65625 0.1875q0.53125 0 1.546875 -0.375l0.328125 2.984375q-1.34375 0.578125 -3.03125 0.578125q-1.046875 0 -1.890625 -0.34375q-0.828125 -0.359375 -1.21875 -0.90625q-0.375 -0.5625 -0.53125 -1.5q-0.125 -0.671875 -0.125 -2.703125l0 -6.328125l-1.765625 0l0 -3.0625l1.765625 0l0 -2.890625l3.859375 -2.234375l0 5.125l2.625 0zm6.4960938 -5.53125l0 7.375q1.859375 -2.171875 4.4375 -2.171875q1.328125 0 2.390625 0.5q1.0625 0.484375 1.609375 1.25q0.546875 0.765625 0.734375 1.703125q0.203125 0.921875 0.203125 2.875l0 8.515625l-3.84375 0l0 -7.671875q0 -2.28125 -0.21875 -2.890625q-0.21875 -0.625 -0.78125 -0.984375q-0.546875 -0.359375 -1.375 -0.359375q-0.953125 0 -1.71875 0.46875q-0.75 0.453125 -1.09375 1.390625q-0.34375 0.9375 -0.34375 2.765625l0 7.28125l-3.84375 0l0 -20.046875l3.84375 0zm13.275391 3.5625l0 -3.5625l3.84375 0l0 3.5625l-3.84375 0zm0 16.484375l0 -14.515625l3.84375 0l0 14.515625l-3.84375 0zm6.419922 -4.140625l3.859375 -0.59375q0.25 1.125 1.0 1.703125q0.75 0.578125 2.09375 0.578125q1.5 0 2.25 -0.546875q0.5 -0.375 0.5 -1.015625q0 -0.4375 -0.265625 -0.734375q-0.296875 -0.265625 -1.28125 -0.5q-4.65625 -1.03125 -5.90625 -1.875q-1.71875 -1.171875 -1.71875 -3.265625q0 -1.890625 1.484375 -3.171875q1.5 -1.28125 4.625 -1.28125q2.984375 0 4.4375 0.96875q1.453125 0.96875 2.0 2.875l-3.625 0.65625q-0.234375 -0.84375 -0.890625 -1.296875q-0.640625 -0.453125 -1.84375 -0.453125q-1.515625 0 -2.171875 0.4375q-0.4375 0.296875 -0.4375 0.765625q0 0.421875 0.375 0.703125q0.515625 0.390625 3.578125 1.09375q3.078125 0.6875 4.296875 1.703125q1.203125 1.015625 1.203125 2.84375q0 2.0 -1.671875 3.4375q-1.65625 1.4375 -4.9375 1.4375q-2.953125 0 -4.6875 -1.203125q-1.734375 -1.203125 -2.265625 -3.265625zm37.367188 -6.09375l-3.78125 0.6875q-0.203125 -1.125 -0.875 -1.703125q-0.671875 -0.578125 -1.75 -0.578125q-1.4375 0 -2.296875 1.0q-0.859375 0.984375 -0.859375 3.3125q0 2.578125 0.859375 3.65625q0.875 1.0625 2.34375 1.0625q1.09375 0 1.78125 -0.625q0.703125 -0.625 1.0 -2.140625l3.765625 0.640625q-0.578125 2.59375 -2.25 3.921875q-1.671875 1.328125 -4.46875 1.328125q-3.1875 0 -5.09375 -2.0q-1.890625 -2.015625 -1.890625 -5.578125q0 -3.59375 1.90625 -5.59375q1.90625 -2.0 5.140625 -2.0q2.65625 0 4.21875 1.140625q1.5625 1.140625 2.25 3.46875zm2.0253906 2.765625q0 -1.90625 0.9375 -3.703125q0.953125 -1.796875 2.671875 -2.734375q1.734375 -0.9375 3.859375 -0.9375q3.296875 0 5.40625 2.140625q2.109375 2.140625 2.109375 5.40625q0 3.296875 -2.125 5.46875q-2.125 2.15625 -5.359375 2.15625q-2.0 0 -3.8125 -0.90625q-1.796875 -0.90625 -2.75 -2.640625q-0.9375 -1.75 -0.9375 -4.25zm3.9375 0.203125q0 2.171875 1.015625 3.328125q1.03125 1.140625 2.53125 1.140625q1.515625 0 2.53125 -1.140625q1.015625 -1.15625 1.015625 -3.34375q0 -2.140625 -1.015625 -3.28125q-1.015625 -1.15625 -2.53125 -1.15625q-1.5 0 -2.53125 1.15625q-1.015625 1.140625 -1.015625 3.296875zm13.759766 -7.25l3.546875 0l0 1.984375q1.90625 -2.3125 4.53125 -2.3125q1.390625 0 2.40625 0.578125q1.03125 0.5625 1.6875 1.734375q0.953125 -1.171875 2.0625 -1.734375q1.109375 -0.578125 2.375 -0.578125q1.59375 0 2.703125 0.65625q1.109375 0.640625 1.65625 1.890625q0.390625 0.9375 0.390625 3.015625l0 9.28125l-3.84375 0l0 -8.296875q0 -2.15625 -0.390625 -2.796875q-0.53125 -0.8125 -1.640625 -0.8125q-0.8125 0 -1.53125 0.5q-0.703125 0.484375 -1.015625 1.4375q-0.3125 0.9375 -0.3125 3.0l0 6.96875l-3.84375 0l0 -7.953125q0 -2.125 -0.203125 -2.734375q-0.203125 -0.625 -0.640625 -0.921875q-0.421875 -0.296875 -1.171875 -0.296875q-0.875 0 -1.59375 0.484375q-0.703125 0.46875 -1.015625 1.375q-0.3125 0.90625 -0.3125 2.984375l0 7.0625l-3.84375 0l0 -14.515625zm33.59961 9.890625l3.828125 0.640625q-0.734375 2.109375 -2.328125 3.21875q-1.59375 1.09375 -3.984375 1.09375q-3.796875 0 -5.609375 -2.46875q-1.4375 -1.984375 -1.4375 -5.015625q0 -3.609375 1.875 -5.640625q1.890625 -2.046875 4.78125 -2.046875q3.234375 0 5.109375 2.140625q1.875 2.140625 1.796875 6.546875l-9.625 0q0.046875 1.71875 0.921875 2.671875q0.890625 0.9375 2.21875 0.9375q0.90625 0 1.515625 -0.484375q0.625 -0.5 0.9375 -1.59375zm0.21875 -3.875q-0.046875 -1.671875 -0.875 -2.53125q-0.8125 -0.875 -1.984375 -0.875q-1.265625 0 -2.078125 0.90625q-0.828125 0.921875 -0.8125 2.5l5.75 0zm13.0390625 -6.015625l2.140625 0l0 -1.09375q0 -1.84375 0.375 -2.734375q0.390625 -0.90625 1.4375 -1.46875q1.046875 -0.578125 2.65625 -0.578125q1.640625 0 3.203125 0.5l-0.515625 2.671875q-0.921875 -0.21875 -1.765625 -0.21875q-0.828125 0 -1.203125 0.390625q-0.359375 0.390625 -0.359375 1.5l0 1.03125l2.875 0l0 3.015625l-2.875 0l0 11.5l-3.828125 0l0 -11.5l-2.140625 0l0 -3.015625zm14.683594 14.515625l-3.84375 0l0 -14.515625l3.578125 0l0 2.0625q0.90625 -1.46875 1.640625 -1.921875q0.734375 -0.46875 1.65625 -0.46875q1.3125 0 2.53125 0.71875l-1.1875 3.34375q-0.96875 -0.625 -1.796875 -0.625q-0.8125 0 -1.375 0.453125q-0.5625 0.4375 -0.890625 1.609375q-0.3125 1.15625 -0.3125 4.859375l0 4.484375zm6.3339844 -7.46875q0 -1.90625 0.9375 -3.703125q0.953125 -1.796875 2.671875 -2.734375q1.734375 -0.9375 3.859375 -0.9375q3.296875 0 5.40625 2.140625q2.109375 2.140625 2.109375 5.40625q0 3.296875 -2.125 5.46875q-2.125 2.15625 -5.359375 2.15625q-2.0 0 -3.8125 -0.90625q-1.796875 -0.90625 -2.75 -2.640625q-0.9375 -1.75 -0.9375 -4.25zm3.9375 0.203125q0 2.171875 1.015625 3.328125q1.03125 1.140625 2.53125 1.140625q1.515625 0 2.53125 -1.140625q1.015625 -1.15625 1.015625 -3.34375q0 -2.140625 -1.015625 -3.28125q-1.015625 -1.15625 -2.53125 -1.15625q-1.5 0 -2.53125 1.15625q-1.015625 1.140625 -1.015625 3.296875zm13.759766 -7.25l3.546875 0l0 1.984375q1.90625 -2.3125 4.53125 -2.3125q1.390625 0 2.40625 0.578125q1.03125 0.5625 1.6875 1.734375q0.953125 -1.171875 2.0625 -1.734375q1.109375 -0.578125 2.375 -0.578125q1.59375 0 2.703125 0.65625q1.109375 0.640625 1.65625 1.890625q0.390625 0.9375 0.390625 3.015625l0 9.28125l-3.84375 0l0 -8.296875q0 -2.15625 -0.390625 -2.796875q-0.53125 -0.8125 -1.640625 -0.8125q-0.8125 0 -1.53125 0.5q-0.703125 0.484375 -1.015625 1.4375q-0.3125 0.9375 -0.3125 3.0l0 6.96875l-3.84375 0l0 -7.953125q0 -2.125 -0.203125 -2.734375q-0.203125 -0.625 -0.640625 -0.921875q-0.421875 -0.296875 -1.171875 -0.296875q-0.875 0 -1.59375 0.484375q-0.703125 0.46875 -1.015625 1.375q-0.3125 0.90625 -0.3125 2.984375l0 7.0625l-3.84375 0l0 -14.515625zm33.44336 9.34375l-3.484375 0q-0.015625 -0.75 -0.015625 -0.90625q0 -1.703125 0.5625 -2.796875q0.5625 -1.09375 2.234375 -2.453125q1.6875 -1.375 2.015625 -1.796875q0.515625 -0.671875 0.515625 -1.484375q0 -1.109375 -0.90625 -1.90625q-0.890625 -0.8125 -2.40625 -0.8125q-1.46875 0 -2.453125 0.84375q-0.984375 0.828125 -1.34375 2.53125l-3.53125 -0.4375q0.140625 -2.4375 2.078125 -4.140625q1.9375 -1.71875 5.078125 -1.71875q3.3125 0 5.265625 1.734375q1.953125 1.71875 1.953125 4.015625q0 1.28125 -0.71875 2.421875q-0.71875 1.125 -3.0625 3.078125q-1.21875 1.015625 -1.515625 1.640625q-0.296875 0.609375 -0.265625 2.1875zm-3.484375 5.171875l0 -3.84375l3.84375 0l0 3.84375l-3.84375 0z" fill-rule="nonzero"/></g></svg>