<svg version="1.1" viewBox="0.0 0.0 960.0 540.0" fill="none" stroke="none" stroke-linecap="square" stroke-miterlimit="10" xmlns:xlink="http://www.w3.org/1999/xlink" xmlns="http://www.w3.org/2000/svg"><clipPath id="ga4fdaad14b_0_180.0"><path d="m0 0l960.0 0l0 540.0l-960.0 0l0 -540.0z" clip-rule="nonzero"/></clipPath><g clip-path="url(#ga4fdaad14b_0_180.0)"><path fill="#ffffff" d="m0 0l960.0 0l0 540.0l-960.0 0z" fill-rule="evenodd"/><path fill="#cfe2f3" d="m13.766608 60.200203l0 0c0 -9.149216 7.4169035 -16.56612 16.56612 -16.56612l92.78074 0c4.393608 0 8.607269 1.7453537 11.71402 4.852104c3.1067505 3.1067505 4.8520966 7.320408 4.8520966 11.714016l0 3.320076c0 9.149216 -7.4169006 16.566116 -16.566116 16.566116l-92.78074 0l0 0c-9.149216 0 -16.56612 -7.4169006 -16.56612 -16.566116z" fill-rule="evenodd"/><path fill="#cfe2f3" d="m28.992718 42.11918l0 0c0 -16.235313 13.161324 -29.396637 29.396637 -29.396637l0 0c7.7964745 0 15.273624 3.0971375 20.786564 8.610077c5.5129395 5.5129375 8.610077 12.990089 8.610077 20.78656l0 0c0 16.235317 -13.161324 29.396637 -29.39664 29.396637l0 0c-16.235313 0 -29.396637 -13.16132 -29.396637 -29.396637z" fill-rule="evenodd"/><path fill="#cfe2f3" d="m80.03309 37.55668l0 0c0 -10.066029 8.160133 -18.226156 18.226158 -18.226156l0 0c4.8338776 0 9.469772 1.9202499 12.88784 5.338318c3.418068 3.418068 5.338318 8.053961 5.338318 12.887838l0 0c0 10.066029 -8.160126 18.226158 -18.226158 18.226158l0 0c-10.066025 0 -18.226158 -8.16013 -18.226158 -18.226158z" fill-rule="evenodd"/><path fill="#000000" fill-opacity="0.0" d="m13.766404 43.834644l141.13387 0l0 36.251972l-141.13387 0z" fill-rule="evenodd"/><path fill="#000000" d="m29.797655 64.91215l0 -2.0937538l5.390623 0l0 4.953129q-0.78125 0.75 -2.28125 1.34375q-1.4843731 0.578125 -3.015623 0.578125q-1.953125 0 -3.40625 -0.8125q-1.4375 -0.828125 -2.171875 -2.34375q-0.71875 -1.515625 -0.71875 -3.3125038q0 -1.9375 0.8125 -3.4375q0.8125 -1.5 2.375 -2.3125q1.203125 -0.609375 2.96875 -0.609375q2.312498 0 3.609373 0.96875q1.296875 0.96875 1.671875 2.671875l-2.484375 0.46875q-0.265625 -0.921875 -0.9843731 -1.4375q-0.71875 -0.53125 -1.8125 -0.53125q-1.640625 0 -2.609375 1.046875q-0.96875 1.03125 -0.96875 3.078125q0 2.2031288 0.984375 3.3125038q0.984375 1.109375 2.578125 1.109375q0.78125 0 1.5625 -0.3125q0.7968731 -0.3125 1.3749981 -0.75l0 -1.578125l-2.874998 0zm7.6971264 -5.640629l0 -2.203125l2.375 0l0 2.203125l-2.375 0zm0 10.203129l0 -8.984379l2.375 0l0 8.984379l-2.375 0zm8.923691 -8.984379l0 1.890625l-1.625 0l0 3.6250038q0 1.09375 0.046875 1.28125q0.046875 0.1875 0.203125 0.3125q0.171875 0.109375 0.421875 0.109375q0.328125 0 0.953125 -0.234375l0.203125 1.84375q-0.828125 0.359375 -1.875 0.359375q-0.65625 0 -1.171875 -0.21875q-0.515625 -0.21875 -0.765625 -0.546875q-0.234375 -0.34375 -0.3125 -0.9375q-0.078125 -0.40625 -0.078125 -1.671875l0 -3.9218788l-1.09375 0l0 -1.890625l1.09375 0l0 -1.78125l2.375 -1.390625l0 3.171875l1.625 0zm4.020401 -3.421875l0 4.5625q1.15625 -1.34375 2.75 -1.34375q0.828125 0 1.484375 0.3125q0.65625 0.296875 0.984375 0.78125q0.34375 0.46875 0.46875 1.046875q0.125 0.5625 0.125 1.7812538l0 5.265625l-2.375 0l0 -4.75q0 -1.4062538 -0.140625 -1.7812538q-0.140625 -0.390625 -0.484375 -0.609375q-0.34375 -0.234375 -0.859375 -0.234375q-0.59375 0 -1.0625 0.296875q-0.453125 0.28125 -0.671875 0.859375q-0.21875 0.578125 -0.21875 1.7187538l0 4.5l-2.375 0l0 -12.406254l2.375 0zm14.131592 12.406254l0 -1.34375q-0.484375 0.71875 -1.296875 1.140625q-0.796875 0.40625 -1.671875 0.40625q-0.90625 0 -1.625 -0.390625q-0.71875 -0.40625 -1.046875 -1.125q-0.328125 -0.71875 -0.328125 -1.984375l0 -5.687504l2.390625 0l0 4.125004q0 1.890625 0.125 2.328125q0.125 0.421875 0.46875 0.671875q0.359375 0.25 0.890625 0.25q0.609375 0 1.09375 -0.328125q0.484375 -0.34375 0.65625 -0.828125q0.171875 -0.5 0.171875 -2.421875l0 -3.7968788l2.375 0l0 8.984379l-2.203125 0zm4.569092 0l0 -12.406254l2.375 0l0 4.46875q1.109375 -1.25 2.609375 -1.25q1.640625 0 2.71875 1.1875q1.078125 1.1875 1.078125 3.4218788q0 2.296875 -1.109375 3.546875q-1.09375 1.234375 -2.65625 1.234375q-0.765625 0 -1.515625 -0.375q-0.75 -0.390625 -1.296875 -1.140625l0 1.3125l-2.203125 0zm2.359375 -4.6875q0 1.390625 0.4375 2.0625q0.625 0.953125 1.640625 0.953125q0.796875 0 1.34375 -0.671875q0.5625 -0.671875 0.5625 -2.125q0 -1.5312538 -0.5625 -2.2187538q-0.5625 -0.6875 -1.4375 -0.6875q-0.84375 0 -1.421875 0.671875q-0.5625 0.65625 -0.5625 2.0156288zm20.977158 -1.6406288l-2.34375 0.421875q-0.125 -0.703125 -0.546875 -1.046875q-0.40625 -0.359375 -1.078125 -0.359375q-0.890625 0 -1.421875 0.609375q-0.515625 0.609375 -0.515625 2.0468788q0 1.609375 0.53125 2.265625q0.53125 0.65625 1.4375 0.65625q0.6875 0 1.109375 -0.375q0.4375 -0.390625 0.609375 -1.328125l2.34375 0.390625q-0.375 1.609375 -1.40625 2.4375q-1.03125 0.8125 -2.765625 0.8125q-1.96875 0 -3.140625 -1.234375q-1.171875 -1.25 -1.171875 -3.453125q0 -2.2187538 1.171875 -3.4531288q1.1875 -1.25 3.1875 -1.25q1.640625 0 2.609375 0.703125q0.96875 0.703125 1.390625 2.15625zm1.80896 6.328129l0 -12.406254l2.375 0l0 12.406254l-2.375 0zm4.251816 -4.625q0 -1.1718788 0.578125 -2.2812538q0.59375 -1.109375 1.65625 -1.6875q1.078125 -0.59375 2.40625 -0.59375q2.03125 0 3.328125 1.328125q1.3125 1.3125 1.3125 3.3437538q0 2.03125 -1.328125 3.375q-1.3125 1.34375 -3.296875 1.34375q-1.234375 0 -2.359375 -0.546875q-1.125 -0.5625 -1.71875 -1.640625q-0.578125 -1.09375 -0.578125 -2.640625zm2.4375 0.125q0 1.34375 0.640625 2.0625q0.640625 0.703125 1.5625 0.703125q0.9375 0 1.5625 -0.703125q0.625 -0.71875 0.625 -2.078125q0 -1.3125038 -0.625 -2.0156288q-0.625 -0.71875 -1.5625 -0.71875q-0.921875 0 -1.5625 0.71875q-0.640625 0.703125 -0.640625 2.0312538zm14.615967 4.5l0 -1.34375q-0.484375 0.71875 -1.296875 1.140625q-0.796875 0.40625 -1.671875 0.40625q-0.90625 0 -1.625 -0.390625q-0.71875 -0.40625 -1.046875 -1.125q-0.328125 -0.71875 -0.328125 -1.984375l0 -5.687504l2.390625 0l0 4.125004q0 1.890625 0.125 2.328125q0.125 0.421875 0.46875 0.671875q0.359375 0.25 0.890625 0.25q0.609375 0 1.09375 -0.328125q0.484375 -0.34375 0.65625 -0.828125q0.171875 -0.5 0.171875 -2.421875l0 -3.7968788l2.375 0l0 8.984379l-2.203125 0zm12.912842 0l-2.203125 0l0 -1.3125q-0.5625 0.765625 -1.3125 1.140625q-0.734375 0.375 -1.5 0.375q-1.546875 0 -2.65625 -1.25q-1.109375 -1.25 -1.109375 -3.484375q0 -2.2812538 1.078125 -3.4687538q1.078125 -1.1875 2.71875 -1.1875q1.5 0 2.609375 1.25l0 -4.46875l2.375 0l0 12.406254zm-6.34375 -4.6875q0 1.4375 0.390625 2.078125q0.578125 0.9375 1.609375 0.9375q0.828125 0 1.390625 -0.703125q0.578125 -0.703125 0.578125 -2.078125q0 -1.5468788 -0.5625 -2.2343788q-0.546875 -0.6875 -1.421875 -0.6875q-0.84375 0 -1.421875 0.671875q-0.5625 0.671875 -0.5625 2.0156288z" fill-rule="nonzero"/><path fill="#000000" fill-opacity="0.0" d="m0 269.90158l151.90552 0" fill-rule="evenodd"/><path stroke="#595959" stroke-width="3.0" stroke-linejoin="round" stroke-linecap="butt" stroke-dasharray="12.0,9.0" d="m0 269.90158l151.90552 0" fill-rule="evenodd"/><path fill="#9fc5e8" d="m34.090313 298.91495l0 0c0 -2.2967224 1.8618774 -4.1586 4.1586227 -4.1586l76.949524 0c1.1029358 0 2.160698 0.43814087 2.94059 1.2180176c0.77989197 0.7799072 1.2180328 1.8376465 1.2180328 2.9405823l0 47.13846c0 2.296753 -1.8618774 4.1586304 -4.1586227 4.1586304l-76.949524 0c-2.2967453 0 -4.1586227 -1.8618774 -4.1586227 -4.1586304z" fill-rule="evenodd"/><path stroke="#595959" stroke-width="3.0" stroke-linejoin="round" stroke-linecap="butt" d="m34.090313 298.91495l0 0c0 -2.2967224 1.8618774 -4.1586 4.1586227 -4.1586l76.949524 0c1.1029358 0 2.160698 0.43814087 2.94059 1.2180176c0.77989197 0.7799072 1.2180328 1.8376465 1.2180328 2.9405823l0 47.13846c0 2.296753 -1.8618774 4.1586304 -4.1586227 4.1586304l-76.949524 0c-2.2967453 0 -4.1586227 -1.8618774 -4.1586227 -4.1586304z" fill-rule="evenodd"/><path fill="#595959" d="m65.80634 350.21204l21.834702 0l0 8.310577l-21.834702 0z" fill-rule="evenodd"/><path stroke="#595959" stroke-width="1.0" stroke-linejoin="round" stroke-linecap="butt" d="m65.80634 350.21204l21.834702 0l0 8.310577l-21.834702 0z" fill-rule="evenodd"/><path fill="#595959" d="m58.3573 358.5226l36.732788 0l0.69441223 0.694397l0 3.4720154l0 0l-38.121616 0l0 0l0 -3.4720154z" fill-rule="evenodd"/><path stroke="#595959" stroke-width="1.0" stroke-linejoin="round" stroke-linecap="butt" d="m58.3573 358.5226l36.732788 0l0.69441223 0.694397l0 3.4720154l0 0l-38.121616 0l0 0l0 -3.4720154z" fill-rule="evenodd"/><path fill="#000000" fill-opacity="0.0" d="m26.737534 290.83466l99.968506 0l0 52.91336l-99.968506 0z" fill-rule="evenodd"/><path fill="#000000" d="m55.42095 316.47464l0 -12.296875l2.5 0l0 10.203125l6.234375 0l0 2.09375l-8.734375 0zm9.944092 -4.625q0 -1.171875 0.578125 -2.28125q0.59375 -1.109375 1.65625 -1.6875q1.078125 -0.59375 2.40625 -0.59375q2.03125 0 3.328125 1.328125q1.3125 1.3125 1.3125 3.34375q0 2.03125 -1.328125 3.375q-1.3125 1.34375 -3.296875 1.34375q-1.234375 0 -2.359375 -0.546875q-1.125 -0.5625 -1.71875 -1.640625q-0.578125 -1.09375 -0.578125 -2.640625zm2.4375 0.125q0 1.34375 0.640625 2.0625q0.640625 0.703125 1.5625 0.703125q0.9375 0 1.5625 -0.703125q0.625 -0.71875 0.625 -2.078125q0 -1.3125 -0.625 -2.015625q-0.625 -0.71875 -1.5625 -0.71875q-0.921875 0 -1.5625 0.71875q-0.640625 0.703125 -0.640625 2.03125zm16.537842 -1.828125l-2.34375 0.421875q-0.125 -0.703125 -0.546875 -1.046875q-0.40625 -0.359375 -1.078125 -0.359375q-0.890625 0 -1.421875 0.609375q-0.515625 0.609375 -0.515625 2.046875q0 1.609375 0.53125 2.265625q0.53125 0.65625 1.4375 0.65625q0.6875 0 1.109375 -0.375q0.4375 -0.390625 0.609375 -1.328125l2.34375 0.390625q-0.375 1.609375 -1.40625 2.4375q-1.03125 0.8125 -2.765625 0.8125q-1.96875 0 -3.140625 -1.234375q-1.171875 -1.25 -1.171875 -3.453125q0 -2.21875 1.171875 -3.453125q1.1875 -1.25 3.1875 -1.25q1.640625 0 2.609375 0.703125q0.96875 0.703125 1.390625 2.15625zm3.574585 0.078125l-2.15625 -0.390625q0.375 -1.296875 1.25 -1.921875q0.890625 -0.625 2.640625 -0.625q1.59375 0 2.375 0.375q0.78125 0.375 1.09375 0.953125q0.3125 0.578125 0.3125 2.125l-0.015625 2.78125q0 1.1875 0.109375 1.75q0.109375 0.5625 0.421875 1.203125l-2.34375 0q-0.09375 -0.234375 -0.234375 -0.703125q-0.0625 -0.203125 -0.078125 -0.28125q-0.609375 0.59375 -1.3125 0.890625q-0.6875 0.296875 -1.46875 0.296875q-1.390625 0 -2.1875 -0.75q-0.796875 -0.75 -0.796875 -1.90625q0 -0.765625 0.359375 -1.359375q0.359375 -0.59375 1.015625 -0.90625q0.65625 -0.328125 1.890625 -0.5625q1.671875 -0.3125 2.3125 -0.578125l0 -0.234375q0 -0.6875 -0.34375 -0.984375q-0.328125 -0.296875 -1.28125 -0.296875q-0.625 0 -0.984375 0.25q-0.359375 0.25 -0.578125 0.875zm3.1875 1.9375q-0.453125 0.15625 -1.453125 0.375q-0.984375 0.203125 -1.296875 0.40625q-0.453125 0.328125 -0.453125 0.828125q0 0.5 0.359375 0.875q0.375 0.359375 0.953125 0.359375q0.640625 0 1.234375 -0.421875q0.421875 -0.328125 0.5625 -0.796875q0.09375 -0.296875 0.09375 -1.15625l0 -0.46875zm4.68396 4.3125l0 -12.40625l2.375 0l0 12.40625l-2.375 0z" fill-rule="nonzero"/><path fill="#000000" d="m46.325096 331.1465l-2.34375 0.421875q-0.125 -0.703125 -0.546875 -1.046875q-0.40625 -0.359375 -1.078125 -0.359375q-0.890625 0 -1.421875 0.609375q-0.515625 0.609375 -0.515625 2.046875q0 1.609375 0.53125 2.265625q0.53125 0.65625 1.4375 0.65625q0.6875 0 1.109375 -0.375q0.4375 -0.390625 0.609375 -1.328125l2.34375 0.390625q-0.375 1.609375 -1.40625 2.4375q-1.03125 0.8125 -2.765625 0.8125q-1.96875 0 -3.140625 -1.234375q-1.171875 -1.25 -1.171875 -3.453125q0 -2.21875 1.171875 -3.453125q1.1875 -1.25 3.1875 -1.25q1.640625 0 2.609375 0.703125q0.96875 0.703125 1.390625 2.15625zm1.24646 1.703125q0 -1.171875 0.578125 -2.28125q0.59375 -1.109375 1.65625 -1.6875q1.078125 -0.59375 2.40625 -0.59375q2.03125 0 3.328125 1.328125q1.3125 1.3125 1.3125 3.34375q0 2.03125 -1.328125 3.375q-1.3125 1.34375 -3.296875 1.34375q-1.234375 0 -2.359375 -0.546875q-1.125 -0.5625 -1.71875 -1.640625q-0.578125 -1.09375 -0.578125 -2.640625zm2.4375 0.125q0 1.34375 0.640625 2.0625q0.640625 0.703125 1.5625 0.703125q0.9375 0 1.5625 -0.703125q0.625 -0.71875 0.625 -2.078125q0 -1.3125 -0.625 -2.015625q-0.625 -0.71875 -1.5625 -0.71875q-0.921875 0 -1.5625 0.71875q-0.640625 0.703125 -0.640625 2.03125zm8.522217 -4.484375l2.1875 0l0 1.21875q1.1875 -1.421875 2.8125 -1.421875q0.859375 0 1.484375 0.359375q0.640625 0.34375 1.046875 1.0625q0.59375 -0.71875 1.28125 -1.0625q0.6875 -0.359375 1.46875 -0.359375q0.984375 0 1.671875 0.40625q0.6875 0.390625 1.015625 1.171875q0.25 0.578125 0.25 1.859375l0 5.75l-2.375 0l0 -5.140625q0 -1.328125 -0.25 -1.71875q-0.328125 -0.515625 -1.015625 -0.515625q-0.5 0 -0.9375 0.3125q-0.4375 0.296875 -0.640625 0.890625q-0.1875 0.59375 -0.1875 1.859375l0 4.3125l-2.375 0l0 -4.921875q0 -1.3125 -0.125 -1.6875q-0.125 -0.390625 -0.390625 -0.578125q-0.265625 -0.1875 -0.734375 -0.1875q-0.546875 0 -0.984375 0.296875q-0.4375 0.296875 -0.640625 0.859375q-0.1875 0.5625 -0.1875 1.859375l0 4.359375l-2.375 0l0 -8.984375zm15.516861 0l2.21875 0l0 1.3125q0.4375 -0.671875 1.171875 -1.09375q0.734375 -0.421875 1.625 -0.421875q1.578125 0 2.65625 1.234375q1.09375 1.21875 1.09375 3.40625q0 2.25 -1.109375 3.5q-1.09375 1.25 -2.65625 1.25q-0.734375 0 -1.34375 -0.296875q-0.609375 -0.296875 -1.28125 -1.015625l0 4.53125l-2.375 0l0 -12.40625zm2.359375 4.34375q0 1.515625 0.59375 2.234375q0.609375 0.71875 1.46875 0.71875q0.828125 0 1.375 -0.65625q0.546875 -0.671875 0.546875 -2.1875q0 -1.40625 -0.5625 -2.09375q-0.5625 -0.6875 -1.40625 -0.6875q-0.875 0 -1.453125 0.671875q-0.5625 0.671875 -0.5625 2.0zm14.209717 4.640625l0 -1.34375q-0.484375 0.71875 -1.296875 1.140625q-0.796875 0.40625 -1.671875 0.40625q-0.90625 0 -1.625 -0.390625q-0.71875 -0.40625 -1.046875 -1.125q-0.328125 -0.71875 -0.328125 -1.984375l0 -5.6875l2.390625 0l0 4.125q0 1.890625 0.125 2.328125q0.125 0.421875 0.46875 0.671875q0.359375 0.25 0.890625 0.25q0.609375 0 1.09375 -0.328125q0.484375 -0.34375 0.65625 -0.828125q0.171875 -0.5 0.171875 -2.421875l0 -3.796875l2.375 0l0 8.984375l-2.203125 0zm8.787842 -8.984375l0 1.890625l-1.625 0l0 3.625q0 1.09375 0.046875 1.28125q0.046875 0.1875 0.203125 0.3125q0.171875 0.109375 0.421875 0.109375q0.328125 0 0.953125 -0.234375l0.203125 1.84375q-0.828125 0.359375 -1.875 0.359375q-0.65625 0 -1.171875 -0.21875q-0.515625 -0.21875 -0.765625 -0.546875q-0.234375 -0.34375 -0.3125 -0.9375q-0.078125 -0.40625 -0.078125 -1.671875l0 -3.921875l-1.09375 0l0 -1.890625l1.09375 0l0 -1.78125l2.375 -1.390625l0 3.171875l1.625 0zm6.864151 6.125l2.359375 0.390625q-0.453125 1.3125 -1.4375 2.0q-0.984375 0.671875 -2.46875 0.671875q-2.34375 0 -3.46875 -1.53125q-0.890625 -1.234375 -0.890625 -3.09375q0 -2.234375 1.171875 -3.5q1.171875 -1.265625 2.953125 -1.265625q2.0 0 3.15625 1.328125q1.171875 1.3125 1.109375 4.046875l-5.953125 0q0.03125 1.0625 0.578125 1.65625q0.546875 0.578125 1.375 0.578125q0.546875 0 0.921875 -0.296875q0.390625 -0.3125 0.59375 -0.984375zm0.125 -2.40625q-0.015625 -1.03125 -0.53125 -1.5625q-0.5 -0.546875 -1.234375 -0.546875q-0.78125 0 -1.28125 0.578125q-0.515625 0.5625 -0.5 1.53125l3.546875 0zm6.574585 5.265625l-2.375 0l0 -8.984375l2.203125 0l0 1.28125q0.578125 -0.90625 1.03125 -1.1875q0.453125 -0.296875 1.015625 -0.296875q0.8125 0 1.578125 0.453125l-0.734375 2.0625q-0.609375 -0.390625 -1.125 -0.390625q-0.5 0 -0.84375 0.28125q-0.34375 0.28125 -0.546875 1.0q-0.203125 0.71875 -0.203125 3.0l0 2.78125z" fill-rule="nonzero"/><path fill="#f1c232" d="m151.85628 104.07619l16.997421 0l9.658813 9.658798l0 21.994873l-31.931946 0l0 -26.37796l0 0c0 -2.9136963 2.3620148 -5.275711 5.275711 -5.275711z" fill-rule="evenodd"/><path stroke="#595959" stroke-width="1.0" stroke-linejoin="round" stroke-linecap="butt" d="m151.85628 104.07619l16.997421 0l9.658813 9.658798l0 21.994873l-31.931946 0l0 -26.37796l0 0c0 -2.9136963 2.3620148 -5.275711 5.275711 -5.275711z" fill-rule="evenodd"/><path fill="#ffe599" d="m146.58136 114.10578l0 0c0 -2.4965897 2.02388 -4.5204773 4.5204773 -4.5204773l68.3801 0c1.1989136 0 2.348709 0.47626495 3.196457 1.3240204c0.84776306 0.8477478 1.3240204 1.997551 1.3240204 3.196457l0 43.89199c0 2.496582 -2.02388 4.5204773 -4.5204773 4.5204773l-68.3801 0c-2.4965973 0 -4.5204773 -2.0238953 -4.5204773 -4.5204773z" fill-rule="evenodd"/><path stroke="#595959" stroke-width="1.0" stroke-linejoin="round" stroke-linecap="butt" d="m146.58136 114.10578l0 0c0 -2.4965897 2.02388 -4.5204773 4.5204773 -4.5204773l68.3801 0c1.1989136 0 2.348709 0.47626495 3.196457 1.3240204c0.84776306 0.8477478 1.3240204 1.997551 1.3240204 3.196457l0 43.89199c0 2.496582 -2.02388 4.5204773 -4.5204773 4.5204773l-68.3801 0c-2.4965973 0 -4.5204773 -2.0238953 -4.5204773 -4.5204773z" fill-rule="evenodd"/><path fill="#000000" fill-opacity="0.0" d="m228.65092 136.43045l36.25197 0" fill-rule="evenodd"/><path stroke="#000000" stroke-width="2.0" stroke-linejoin="round" stroke-linecap="butt" d="m228.65092 136.43045l28.671982 0" fill-rule="evenodd"/><path fill="#000000" stroke="#000000" stroke-width="2.0" stroke-linecap="butt" d="m263.9029 136.43045c0 1.8170166 -1.472992 3.2899933 -3.2900085 3.2899933c-1.8170166 0 -3.2900085 -1.4729767 -3.2900085 -3.2899933c0 -1.8170166 1.472992 -3.2900085 3.2900085 -3.2900085c1.8170166 0 3.2900085 1.472992 3.2900085 3.2900085z" fill-rule="nonzero"/><path fill="#ffffff" d="m283.4791 92.74898l0 0c0 -6.1111374 4.9540405 -11.065193 11.065186 -11.065193l44.25943 0l0 0c2.9346619 0 5.7491455 1.1657944 7.82428 3.240921c2.0751343 2.0751266 3.2409058 4.8896027 3.2409058 7.824272l0 60.93689c0 6.111145 -4.9540405 11.065201 -11.065186 11.065201l-44.25943 0c-6.111145 0 -11.065186 -4.954056 -11.065186 -11.065201z" fill-rule="evenodd"/><path stroke="#000000" stroke-width="1.0" stroke-linejoin="round" stroke-linecap="butt" d="m283.4791 92.74898l0 0c0 -6.1111374 4.9540405 -11.065193 11.065186 -11.065193l44.25943 0l0 0c2.9346619 0 5.7491455 1.1657944 7.82428 3.240921c2.0751343 2.0751266 3.2409058 4.8896027 3.2409058 7.824272l0 60.93689c0 6.111145 -4.9540405 11.065201 -11.065186 11.065201l-44.25943 0c-6.111145 0 -11.065186 -4.954056 -11.065186 -11.065201z" fill-rule="evenodd"/><path fill="#f1c232" d="m285.97424 96.66426l61.399506 0c0.6617737 0 1.2964172 -0.26287842 1.7643433 -0.7308121c0.46792603 -0.46792603 0.73080444 -1.1025772 0.73080444 -1.7643356l0 -5.1760864l0 0c0 -4.0313263 -3.268036 -7.299362 -7.299347 -7.299362l-51.791107 0c-4.031311 0 -7.299347 3.268036 -7.299347 7.299362l0 5.1760864l0 0c0 1.3780365 1.1171265 2.4951477 2.4951477 2.4951477z" fill-rule="evenodd"/><path stroke="#595959" stroke-width="1.0" stroke-linejoin="round" stroke-linecap="butt" d="m285.97424 96.66426l61.399506 0c0.6617737 0 1.2964172 -0.26287842 1.7643433 -0.7308121c0.46792603 -0.46792603 0.73080444 -1.1025772 0.73080444 -1.7643356l0 -5.1760864l0 0c0 -4.0313263 -3.268036 -7.299362 -7.299347 -7.299362l-51.791107 0c-4.031311 0 -7.299347 3.268036 -7.299347 7.299362l0 5.1760864l0 0c0 1.3780365 1.1171265 2.4951477 2.4951477 2.4951477z" fill-rule="evenodd"/><path fill="#000000" fill-opacity="0.0" d="m290.0825 109.76359l50.921356 0" fill-rule="evenodd"/><path stroke="#000000" stroke-width="2.0" stroke-linejoin="round" stroke-linecap="butt" d="m290.0825 109.76359l50.921356 0" fill-rule="evenodd"/><path fill="#000000" fill-opacity="0.0" d="m290.0825 120.80711l50.921356 0" fill-rule="evenodd"/><path stroke="#000000" stroke-width="2.0" stroke-linejoin="round" stroke-linecap="butt" d="m290.0825 120.80711l50.921356 0" fill-rule="evenodd"/><path fill="#000000" fill-opacity="0.0" d="m290.0825 133.98375l50.921356 0" fill-rule="evenodd"/><path stroke="#000000" stroke-width="2.0" stroke-linejoin="round" stroke-linecap="butt" d="m290.0825 133.98375l50.921356 0" fill-rule="evenodd"/><path fill="#000000" fill-opacity="0.0" d="m290.0825 146.09239l50.921356 0" fill-rule="evenodd"/><path stroke="#000000" stroke-width="2.0" stroke-linejoin="round" stroke-linecap="butt" d="m290.0825 146.09239l50.921356 0" fill-rule="evenodd"/><path fill="#ffffff" d="m289.50418 102.95619l0 0c0 -6.1111298 4.954071 -11.065186 11.065186 -11.065186l44.25943 0l0 0c2.9346924 0 5.7491455 1.1657944 7.82428 3.240921c2.0751343 2.075119 3.2409363 4.889595 3.2409363 7.8242645l0 60.936905c0 6.1111298 -4.954071 11.065186 -11.065216 11.065186l-44.25943 0c-6.1111145 0 -11.065186 -4.954056 -11.065186 -11.065186z" fill-rule="evenodd"/><path stroke="#000000" stroke-width="1.0" stroke-linejoin="round" stroke-linecap="butt" d="m289.50418 102.95619l0 0c0 -6.1111298 4.954071 -11.065186 11.065186 -11.065186l44.25943 0l0 0c2.9346924 0 5.7491455 1.1657944 7.82428 3.240921c2.0751343 2.075119 3.2409363 4.889595 3.2409363 7.8242645l0 60.936905c0 6.1111298 -4.954071 11.065186 -11.065216 11.065186l-44.25943 0c-6.1111145 0 -11.065186 -4.954056 -11.065186 -11.065186z" fill-rule="evenodd"/><path fill="#f1c232" d="m291.99933 106.87148l61.399536 0c0.66174316 0 1.2963867 -0.26287842 1.7643127 -0.7308121c0.46795654 -0.46793365 0.73083496 -1.1025848 0.73083496 -1.7643356l0 -5.1760864l0 0c0 -4.031334 -3.268036 -7.29937 -7.2993774 -7.29937l-51.791077 0c-4.0313416 0 -7.2993774 3.268036 -7.2993774 7.29937l0 5.1760864l0 0c0 1.3780289 1.1171265 2.4951477 2.4951477 2.4951477z" fill-rule="evenodd"/><path stroke="#595959" stroke-width="1.0" stroke-linejoin="round" stroke-linecap="butt" d="m291.99933 106.87148l61.399536 0c0.66174316 0 1.2963867 -0.26287842 1.7643127 -0.7308121c0.46795654 -0.46793365 0.73083496 -1.1025848 0.73083496 -1.7643356l0 -5.1760864l0 0c0 -4.031334 -3.268036 -7.29937 -7.2993774 -7.29937l-51.791077 0c-4.0313416 0 -7.2993774 3.268036 -7.2993774 7.29937l0 5.1760864l0 0c0 1.3780289 1.1171265 2.4951477 2.4951477 2.4951477z" fill-rule="evenodd"/><path fill="#000000" fill-opacity="0.0" d="m296.10757 119.97081l50.921387 0" fill-rule="evenodd"/><path stroke="#000000" stroke-width="2.0" stroke-linejoin="round" stroke-linecap="butt" d="m296.10757 119.97081l50.921387 0" fill-rule="evenodd"/><path fill="#000000" fill-opacity="0.0" d="m296.10757 131.01433l50.921387 0" fill-rule="evenodd"/><path stroke="#000000" stroke-width="2.0" stroke-linejoin="round" stroke-linecap="butt" d="m296.10757 131.01433l50.921387 0" fill-rule="evenodd"/><path fill="#000000" fill-opacity="0.0" d="m296.10757 144.19096l50.921387 0" fill-rule="evenodd"/><path stroke="#000000" stroke-width="2.0" stroke-linejoin="round" stroke-linecap="butt" d="m296.10757 144.19096l50.921387 0" fill-rule="evenodd"/><path fill="#000000" fill-opacity="0.0" d="m296.10757 156.2996l50.921387 0" fill-rule="evenodd"/><path stroke="#000000" stroke-width="2.0" stroke-linejoin="round" stroke-linecap="butt" d="m296.10757 156.2996l50.921387 0" fill-rule="evenodd"/><path fill="#ffffff" d="m289.50418 102.95619l0 0c0 -6.1111298 4.954071 -11.065186 11.065186 -11.065186l44.25943 0l0 0c2.9346924 0 5.7491455 1.1657944 7.82428 3.240921c2.0751343 2.075119 3.2409363 4.889595 3.2409363 7.8242645l0 60.936905c0 6.1111298 -4.954071 11.065186 -11.065216 11.065186l-44.25943 0c-6.1111145 0 -11.065186 -4.954056 -11.065186 -11.065186z" fill-rule="evenodd"/><path stroke="#000000" stroke-width="1.0" stroke-linejoin="round" stroke-linecap="butt" d="m289.50418 102.95619l0 0c0 -6.1111298 4.954071 -11.065186 11.065186 -11.065186l44.25943 0l0 0c2.9346924 0 5.7491455 1.1657944 7.82428 3.240921c2.0751343 2.075119 3.2409363 4.889595 3.2409363 7.8242645l0 60.936905c0 6.1111298 -4.954071 11.065186 -11.065216 11.065186l-44.25943 0c-6.1111145 0 -11.065186 -4.954056 -11.065186 -11.065186z" fill-rule="evenodd"/><path fill="#f1c232" d="m291.99933 106.87148l61.399536 0c0.66174316 0 1.2963867 -0.26287842 1.7643127 -0.7308121c0.46795654 -0.46793365 0.73083496 -1.1025848 0.73083496 -1.7643356l0 -5.1760864l0 0c0 -4.031334 -3.268036 -7.29937 -7.2993774 -7.29937l-51.791077 0c-4.0313416 0 -7.2993774 3.268036 -7.2993774 7.29937l0 5.1760864l0 0c0 1.3780289 1.1171265 2.4951477 2.4951477 2.4951477z" fill-rule="evenodd"/><path stroke="#595959" stroke-width="1.0" stroke-linejoin="round" stroke-linecap="butt" d="m291.99933 106.87148l61.399536 0c0.66174316 0 1.2963867 -0.26287842 1.7643127 -0.7308121c0.46795654 -0.46793365 0.73083496 -1.1025848 0.73083496 -1.7643356l0 -5.1760864l0 0c0 -4.031334 -3.268036 -7.29937 -7.2993774 -7.29937l-51.791077 0c-4.0313416 0 -7.2993774 3.268036 -7.2993774 7.29937l0 5.1760864l0 0c0 1.3780289 1.1171265 2.4951477 2.4951477 2.4951477z" fill-rule="evenodd"/><path fill="#000000" fill-opacity="0.0" d="m296.10757 119.97081l50.921387 0" fill-rule="evenodd"/><path stroke="#000000" stroke-width="2.0" stroke-linejoin="round" stroke-linecap="butt" d="m296.10757 119.97081l50.921387 0" fill-rule="evenodd"/><path fill="#000000" fill-opacity="0.0" d="m296.10757 131.01433l50.921387 0" fill-rule="evenodd"/><path stroke="#000000" stroke-width="2.0" stroke-linejoin="round" stroke-linecap="butt" d="m296.10757 131.01433l50.921387 0" fill-rule="evenodd"/><path fill="#000000" fill-opacity="0.0" d="m296.10757 144.19096l50.921387 0" fill-rule="evenodd"/><path stroke="#000000" stroke-width="2.0" stroke-linejoin="round" stroke-linecap="butt" d="m296.10757 144.19096l50.921387 0" fill-rule="evenodd"/><path fill="#000000" fill-opacity="0.0" d="m296.10757 156.2996l50.921387 0" fill-rule="evenodd"/><path stroke="#000000" stroke-width="2.0" stroke-linejoin="round" stroke-linecap="butt" d="m296.10757 156.2996l50.921387 0" fill-rule="evenodd"/><path fill="#ffffff" d="m295.52927 113.163414l0 0c0 -6.1111374 4.954071 -11.065193 11.065216 -11.065193l44.25943 0l0 0c2.9346619 0 5.7491455 1.1657944 7.82428 3.240921c2.0751038 2.0751266 3.2409058 4.8896027 3.2409058 7.824272l0 60.936897c0 6.1111298 -4.954071 11.065186 -11.065186 11.065186l-44.25943 0c-6.111145 0 -11.065216 -4.954056 -11.065216 -11.065186z" fill-rule="evenodd"/><path stroke="#000000" stroke-width="1.0" stroke-linejoin="round" stroke-linecap="butt" d="m295.52927 113.163414l0 0c0 -6.1111374 4.954071 -11.065193 11.065216 -11.065193l44.25943 0l0 0c2.9346619 0 5.7491455 1.1657944 7.82428 3.240921c2.0751038 2.0751266 3.2409058 4.8896027 3.2409058 7.824272l0 60.936897c0 6.1111298 -4.954071 11.065186 -11.065186 11.065186l-44.25943 0c-6.111145 0 -11.065216 -4.954056 -11.065216 -11.065186z" fill-rule="evenodd"/><path fill="#f1c232" d="m298.02444 117.078705l61.399506 0c0.66174316 0 1.2964172 -0.26288605 1.7643433 -0.7308197c0.46792603 -0.46792603 0.73080444 -1.1025772 0.73080444 -1.7643356l0 -5.1760864l0 0c0 -4.0313263 -3.268036 -7.299362 -7.2993774 -7.299362l-51.791077 0c-4.031311 0 -7.2993774 3.268036 -7.2993774 7.299362l0 5.1760864l0 0c0 1.3780365 1.1171265 2.4951553 2.4951782 2.4951553z" fill-rule="evenodd"/><path stroke="#595959" stroke-width="1.0" stroke-linejoin="round" stroke-linecap="butt" d="m298.02444 117.078705l61.399506 0c0.66174316 0 1.2964172 -0.26288605 1.7643433 -0.7308197c0.46792603 -0.46792603 0.73080444 -1.1025772 0.73080444 -1.7643356l0 -5.1760864l0 0c0 -4.0313263 -3.268036 -7.299362 -7.2993774 -7.299362l-51.791077 0c-4.031311 0 -7.2993774 3.268036 -7.2993774 7.299362l0 5.1760864l0 0c0 1.3780365 1.1171265 2.4951553 2.4951782 2.4951553z" fill-rule="evenodd"/><path fill="#f1c232" d="m151.85628 408.07617l16.997421 0l9.658813 9.658813l0 21.994873l-31.931946 0l0 -26.37796l0 0c0 -2.9136963 2.3620148 -5.2757263 5.275711 -5.2757263z" fill-rule="evenodd"/><path stroke="#595959" stroke-width="1.0" stroke-linejoin="round" stroke-linecap="butt" d="m151.85628 408.07617l16.997421 0l9.658813 9.658813l0 21.994873l-31.931946 0l0 -26.37796l0 0c0 -2.9136963 2.3620148 -5.2757263 5.275711 -5.2757263z" fill-rule="evenodd"/><path fill="#ffe599" d="m146.58136 418.10577l0 0c0 -2.496582 2.02388 -4.5204773 4.5204773 -4.5204773l68.3801 0c1.1989136 0 2.348709 0.47628784 3.196457 1.3240356c0.84776306 0.8477478 1.3240204 1.9975281 1.3240204 3.1964417l0 43.892c0 2.496582 -2.02388 4.5204773 -4.5204773 4.5204773l-68.3801 0c-2.4965973 0 -4.5204773 -2.0238953 -4.5204773 -4.5204773z" fill-rule="evenodd"/><path stroke="#595959" stroke-width="1.0" stroke-linejoin="round" stroke-linecap="butt" d="m146.58136 418.10577l0 0c0 -2.496582 2.02388 -4.5204773 4.5204773 -4.5204773l68.3801 0c1.1989136 0 2.348709 0.47628784 3.196457 1.3240356c0.84776306 0.8477478 1.3240204 1.9975281 1.3240204 3.1964417l0 43.892c0 2.496582 -2.02388 4.5204773 -4.5204773 4.5204773l-68.3801 0c-2.4965973 0 -4.5204773 -2.0238953 -4.5204773 -4.5204773z" fill-rule="evenodd"/><path fill="#000000" fill-opacity="0.0" d="m228.65092 440.43045l36.25197 0" fill-rule="evenodd"/><path stroke="#000000" stroke-width="2.0" stroke-linejoin="round" stroke-linecap="butt" d="m228.65092 440.43045l28.671982 0" fill-rule="evenodd"/><path fill="#000000" stroke="#000000" stroke-width="2.0" stroke-linecap="butt" d="m263.9029 440.43045c0 1.8170166 -1.472992 3.2900085 -3.2900085 3.2900085c-1.8170166 0 -3.2900085 -1.472992 -3.2900085 -3.2900085c0 -1.8170166 1.472992 -3.2900085 3.2900085 -3.2900085c1.8170166 0 3.2900085 1.472992 3.2900085 3.2900085z" fill-rule="nonzero"/><path fill="#ffffff" d="m283.4791 396.74896l0 0c0 -6.1111145 4.9540405 -11.065186 11.065186 -11.065186l44.25943 0l0 0c2.9346619 0 5.7491455 1.165802 7.82428 3.2409363c2.0751343 2.0751038 3.2409058 4.8895874 3.2409058 7.8242493l0 60.93692c0 6.1111145 -4.9540405 11.065186 -11.065186 11.065186l-44.25943 0c-6.111145 0 -11.065186 -4.954071 -11.065186 -11.065186z" fill-rule="evenodd"/><path stroke="#000000" stroke-width="1.0" stroke-linejoin="round" stroke-linecap="butt" d="m283.4791 396.74896l0 0c0 -6.1111145 4.9540405 -11.065186 11.065186 -11.065186l44.25943 0l0 0c2.9346619 0 5.7491455 1.165802 7.82428 3.2409363c2.0751343 2.0751038 3.2409058 4.8895874 3.2409058 7.8242493l0 60.93692c0 6.1111145 -4.9540405 11.065186 -11.065186 11.065186l-44.25943 0c-6.111145 0 -11.065186 -4.954071 -11.065186 -11.065186z" fill-rule="evenodd"/><path fill="#f1c232" d="m285.97424 400.66428l61.399506 0c0.6617737 0 1.2964172 -0.26290894 1.7643433 -0.73083496c0.46792603 -0.46792603 0.73080444 -1.1025696 0.73080444 -1.7643127l0 -5.1760864l0 0c0 -4.0313416 -3.268036 -7.2993774 -7.299347 -7.2993774l-51.791107 0c-4.031311 0 -7.299347 3.268036 -7.299347 7.2993774l0 5.1760864l0 0c0 1.3780212 1.1171265 2.4951477 2.4951477 2.4951477z" fill-rule="evenodd"/><path stroke="#595959" stroke-width="1.0" stroke-linejoin="round" stroke-linecap="butt" d="m285.97424 400.66428l61.399506 0c0.6617737 0 1.2964172 -0.26290894 1.7643433 -0.73083496c0.46792603 -0.46792603 0.73080444 -1.1025696 0.73080444 -1.7643127l0 -5.1760864l0 0c0 -4.0313416 -3.268036 -7.2993774 -7.299347 -7.2993774l-51.791107 0c-4.031311 0 -7.299347 3.268036 -7.299347 7.2993774l0 5.1760864l0 0c0 1.3780212 1.1171265 2.4951477 2.4951477 2.4951477z" fill-rule="evenodd"/><path fill="#000000" fill-opacity="0.0" d="m290.0825 413.76358l50.921356 0" fill-rule="evenodd"/><path stroke="#000000" stroke-width="2.0" stroke-linejoin="round" stroke-linecap="butt" d="m290.0825 413.76358l50.921356 0" fill-rule="evenodd"/><path fill="#000000" fill-opacity="0.0" d="m290.0825 424.8071l50.921356 0" fill-rule="evenodd"/><path stroke="#000000" stroke-width="2.0" stroke-linejoin="round" stroke-linecap="butt" d="m290.0825 424.8071l50.921356 0" fill-rule="evenodd"/><path fill="#000000" fill-opacity="0.0" d="m290.0825 437.98373l50.921356 0" fill-rule="evenodd"/><path stroke="#000000" stroke-width="2.0" stroke-linejoin="round" stroke-linecap="butt" d="m290.0825 437.98373l50.921356 0" fill-rule="evenodd"/><path fill="#000000" fill-opacity="0.0" d="m290.0825 450.0924l50.921356 0" fill-rule="evenodd"/><path stroke="#000000" stroke-width="2.0" stroke-linejoin="round" stroke-linecap="butt" d="m290.0825 450.0924l50.921356 0" fill-rule="evenodd"/><path fill="#ffffff" d="m289.50418 406.9562l0 0c0 -6.111145 4.954071 -11.065216 11.065186 -11.065216l44.25943 0l0 0c2.9346924 0 5.7491455 1.165802 7.82428 3.2409363c2.0751343 2.0751343 3.2409363 4.8895874 3.2409363 7.82428l0 60.93689c0 6.111145 -4.954071 11.065186 -11.065216 11.065186l-44.25943 0c-6.1111145 0 -11.065186 -4.9540405 -11.065186 -11.065186z" fill-rule="evenodd"/><path stroke="#000000" stroke-width="1.0" stroke-linejoin="round" stroke-linecap="butt" d="m289.50418 406.9562l0 0c0 -6.111145 4.954071 -11.065216 11.065186 -11.065216l44.25943 0l0 0c2.9346924 0 5.7491455 1.165802 7.82428 3.2409363c2.0751343 2.0751343 3.2409363 4.8895874 3.2409363 7.82428l0 60.93689c0 6.111145 -4.954071 11.065186 -11.065216 11.065186l-44.25943 0c-6.1111145 0 -11.065186 -4.9540405 -11.065186 -11.065186z" fill-rule="evenodd"/><path fill="#f1c232" d="m291.99933 410.8715l61.399536 0c0.66174316 0 1.2963867 -0.26287842 1.7643127 -0.73083496c0.46795654 -0.46792603 0.73083496 -1.1025696 0.73083496 -1.7643127l0 -5.1760864l0 0c0 -4.0313416 -3.268036 -7.2993774 -7.2993774 -7.2993774l-51.791077 0c-4.0313416 0 -7.2993774 3.268036 -7.2993774 7.2993774l0 5.1760864l0 0c0 1.3780212 1.1171265 2.4951477 2.4951477 2.4951477z" fill-rule="evenodd"/><path stroke="#595959" stroke-width="1.0" stroke-linejoin="round" stroke-linecap="butt" d="m291.99933 410.8715l61.399536 0c0.66174316 0 1.2963867 -0.26287842 1.7643127 -0.73083496c0.46795654 -0.46792603 0.73083496 -1.1025696 0.73083496 -1.7643127l0 -5.1760864l0 0c0 -4.0313416 -3.268036 -7.2993774 -7.2993774 -7.2993774l-51.791077 0c-4.0313416 0 -7.2993774 3.268036 -7.2993774 7.2993774l0 5.1760864l0 0c0 1.3780212 1.1171265 2.4951477 2.4951477 2.4951477z" fill-rule="evenodd"/><path fill="#000000" fill-opacity="0.0" d="m296.10757 423.97083l50.921387 0" fill-rule="evenodd"/><path stroke="#000000" stroke-width="2.0" stroke-linejoin="round" stroke-linecap="butt" d="m296.10757 423.97083l50.921387 0" fill-rule="evenodd"/><path fill="#000000" fill-opacity="0.0" d="m296.10757 435.01434l50.921387 0" fill-rule="evenodd"/><path stroke="#000000" stroke-width="2.0" stroke-linejoin="round" stroke-linecap="butt" d="m296.10757 435.01434l50.921387 0" fill-rule="evenodd"/><path fill="#000000" fill-opacity="0.0" d="m296.10757 448.19098l50.921387 0" fill-rule="evenodd"/><path stroke="#000000" stroke-width="2.0" stroke-linejoin="round" stroke-linecap="butt" d="m296.10757 448.19098l50.921387 0" fill-rule="evenodd"/><path fill="#000000" fill-opacity="0.0" d="m296.10757 460.29962l50.921387 0" fill-rule="evenodd"/><path stroke="#000000" stroke-width="2.0" stroke-linejoin="round" stroke-linecap="butt" d="m296.10757 460.29962l50.921387 0" fill-rule="evenodd"/><path fill="#ffffff" d="m289.50418 406.9562l0 0c0 -6.111145 4.954071 -11.065216 11.065186 -11.065216l44.25943 0l0 0c2.9346924 0 5.7491455 1.165802 7.82428 3.2409363c2.0751343 2.0751343 3.2409363 4.8895874 3.2409363 7.82428l0 60.93689c0 6.111145 -4.954071 11.065186 -11.065216 11.065186l-44.25943 0c-6.1111145 0 -11.065186 -4.9540405 -11.065186 -11.065186z" fill-rule="evenodd"/><path stroke="#000000" stroke-width="1.0" stroke-linejoin="round" stroke-linecap="butt" d="m289.50418 406.9562l0 0c0 -6.111145 4.954071 -11.065216 11.065186 -11.065216l44.25943 0l0 0c2.9346924 0 5.7491455 1.165802 7.82428 3.2409363c2.0751343 2.0751343 3.2409363 4.8895874 3.2409363 7.82428l0 60.93689c0 6.111145 -4.954071 11.065186 -11.065216 11.065186l-44.25943 0c-6.1111145 0 -11.065186 -4.9540405 -11.065186 -11.065186z" fill-rule="evenodd"/><path fill="#f1c232" d="m291.99933 410.8715l61.399536 0c0.66174316 0 1.2963867 -0.26287842 1.7643127 -0.73083496c0.46795654 -0.46792603 0.73083496 -1.1025696 0.73083496 -1.7643127l0 -5.1760864l0 0c0 -4.0313416 -3.268036 -7.2993774 -7.2993774 -7.2993774l-51.791077 0c-4.0313416 0 -7.2993774 3.268036 -7.2993774 7.2993774l0 5.1760864l0 0c0 1.3780212 1.1171265 2.4951477 2.4951477 2.4951477z" fill-rule="evenodd"/><path stroke="#595959" stroke-width="1.0" stroke-linejoin="round" stroke-linecap="butt" d="m291.99933 410.8715l61.399536 0c0.66174316 0 1.2963867 -0.26287842 1.7643127 -0.73083496c0.46795654 -0.46792603 0.73083496 -1.1025696 0.73083496 -1.7643127l0 -5.1760864l0 0c0 -4.0313416 -3.268036 -7.2993774 -7.2993774 -7.2993774l-51.791077 0c-4.0313416 0 -7.2993774 3.268036 -7.2993774 7.2993774l0 5.1760864l0 0c0 1.3780212 1.1171265 2.4951477 2.4951477 2.4951477z" fill-rule="evenodd"/><path fill="#000000" fill-opacity="0.0" d="m296.10757 423.97083l50.921387 0" fill-rule="evenodd"/><path stroke="#000000" stroke-width="2.0" stroke-linejoin="round" stroke-linecap="butt" d="m296.10757 423.97083l50.921387 0" fill-rule="evenodd"/><path fill="#000000" fill-opacity="0.0" d="m296.10757 435.01434l50.921387 0" fill-rule="evenodd"/><path stroke="#000000" stroke-width="2.0" stroke-linejoin="round" stroke-linecap="butt" d="m296.10757 435.01434l50.921387 0" fill-rule="evenodd"/><path fill="#000000" fill-opacity="0.0" d="m296.10757 448.19098l50.921387 0" fill-rule="evenodd"/><path stroke="#000000" stroke-width="2.0" stroke-linejoin="round" stroke-linecap="butt" d="m296.10757 448.19098l50.921387 0" fill-rule="evenodd"/><path fill="#000000" fill-opacity="0.0" d="m296.10757 460.29962l50.921387 0" fill-rule="evenodd"/><path stroke="#000000" stroke-width="2.0" stroke-linejoin="round" stroke-linecap="butt" d="m296.10757 460.29962l50.921387 0" fill-rule="evenodd"/><path fill="#ffffff" d="m295.52927 417.16342l0 0c0 -6.111145 4.954071 -11.065186 11.065216 -11.065186l44.25943 0l0 0c2.9346619 0 5.7491455 1.1657715 7.82428 3.2409058c2.0751038 2.0751343 3.2409058 4.8895874 3.2409058 7.82428l0 60.93689c0 6.111145 -4.954071 11.065186 -11.065186 11.065186l-44.25943 0c-6.111145 0 -11.065216 -4.9540405 -11.065216 -11.065186z" fill-rule="evenodd"/><path stroke="#000000" stroke-width="1.0" stroke-linejoin="round" stroke-linecap="butt" d="m295.52927 417.16342l0 0c0 -6.111145 4.954071 -11.065186 11.065216 -11.065186l44.25943 0l0 0c2.9346619 0 5.7491455 1.1657715 7.82428 3.2409058c2.0751038 2.0751343 3.2409058 4.8895874 3.2409058 7.82428l0 60.93689c0 6.111145 -4.954071 11.065186 -11.065186 11.065186l-44.25943 0c-6.111145 0 -11.065216 -4.9540405 -11.065216 -11.065186z" fill-rule="evenodd"/><path fill="#f1c232" d="m298.02444 421.0787l61.399506 0c0.66174316 0 1.2964172 -0.26287842 1.7643433 -0.73080444c0.46792603 -0.46795654 0.73080444 -1.1026001 0.73080444 -1.7643433l0 -5.1760864l0 0c0 -4.0313416 -3.268036 -7.2993774 -7.2993774 -7.2993774l-51.791077 0c-4.031311 0 -7.2993774 3.268036 -7.2993774 7.2993774l0 5.1760864l0 0c0 1.3780212 1.1171265 2.4951477 2.4951782 2.4951477z" fill-rule="evenodd"/><path stroke="#595959" stroke-width="1.0" stroke-linejoin="round" stroke-linecap="butt" d="m298.02444 421.0787l61.399506 0c0.66174316 0 1.2964172 -0.26287842 1.7643433 -0.73080444c0.46792603 -0.46795654 0.73080444 -1.1026001 0.73080444 -1.7643433l0 -5.1760864l0 0c0 -4.0313416 -3.268036 -7.2993774 -7.2993774 -7.2993774l-51.791077 0c-4.031311 0 -7.2993774 3.268036 -7.2993774 7.2993774l0 5.1760864l0 0c0 1.3780212 1.1171265 2.4951477 2.4951782 2.4951477z" fill-rule="evenodd"/><path fill="#000000" fill-opacity="0.0" d="m259.98425 185.57742l141.13385 0l0 36.25197l-141.13385 0z" fill-rule="evenodd"/><path fill="#000000" d="m270.04675 212.49742l2.796875 -13.359375l1.78125 0l-2.796875 13.359375l-1.78125 0zm4.7457886 0l2.015625 -9.671875l1.5 0l-0.359375 1.6875q0.96875 -1.0 1.8125 -1.453125q0.859375 -0.453125 1.734375 -0.453125q1.1875 0 1.84375 0.640625q0.671875 0.625 0.671875 1.703125q0 0.53125 -0.234375 1.6875l-1.234375 5.859375l-1.640625 0l1.28125 -6.125q0.1875 -0.890625 0.1875 -1.328125q0 -0.484375 -0.328125 -0.78125q-0.328125 -0.296875 -0.953125 -0.296875q-1.28125 0 -2.265625 0.90625q-0.984375 0.90625 -1.453125 3.125l-0.9375 4.5l-1.640625 0zm12.703857 -11.484375l0.40625 -1.875l1.625 0l-0.390625 1.875l-1.640625 0zm-2.390625 11.484375l2.015625 -9.671875l1.65625 0l-2.03125 9.671875l-1.640625 0zm8.051056 -1.34375l-0.265625 1.359375q-0.59375 0.140625 -1.15625 0.140625q-0.984375 0 -1.5625 -0.46875q-0.4375 -0.375 -0.4375 -1.0q0 -0.3125 0.234375 -1.46875l1.171875 -5.625l-1.296875 0l0.265625 -1.265625l1.296875 0l0.5 -2.375l1.890625 -1.140625l-0.734375 3.515625l1.625 0l-0.28125 1.265625l-1.609375 0l-1.125 5.359375q-0.203125 1.015625 -0.203125 1.21875q0 0.28125 0.15625 0.4375q0.171875 0.15625 0.5625 0.15625q0.546875 0 0.96875 -0.109375zm3.667694 -10.140625l0.40625 -1.875l1.625 0l-0.390625 1.875l-1.640625 0zm-2.390625 11.484375l2.015625 -9.671875l1.65625 0l-2.03125 9.671875l-1.640625 0zm10.722931 -1.203125q-0.859375 0.734375 -1.65625 1.078125q-0.78125 0.34375 -1.6875 0.34375q-1.34375 0 -2.171875 -0.78125q-0.8125 -0.796875 -0.8125 -2.03125q0 -0.796875 0.375 -1.421875q0.375 -0.625 0.984375 -1.0q0.609375 -0.390625 1.484375 -0.546875q0.5625 -0.109375 2.109375 -0.171875q1.5625 -0.0625 2.234375 -0.328125q0.1875 -0.671875 0.1875 -1.125q0 -0.578125 -0.421875 -0.90625q-0.5625 -0.453125 -1.671875 -0.453125q-1.03125 0 -1.703125 0.46875q-0.65625 0.453125 -0.953125 1.296875l-1.671875 -0.140625q0.515625 -1.4375 1.609375 -2.203125q1.109375 -0.765625 2.796875 -0.765625q1.796875 0 2.84375 0.859375q0.796875 0.625 0.796875 1.65625q0 0.765625 -0.21875 1.796875l-0.53125 2.40625q-0.265625 1.140625 -0.265625 1.859375q0 0.453125 0.203125 1.3125l-1.671875 0q-0.125 -0.46875 -0.1875 -1.203125zm0.609375 -3.703125q-0.34375 0.140625 -0.75 0.21875q-0.390625 0.0625 -1.3125 0.15625q-1.4375 0.125 -2.03125 0.328125q-0.59375 0.1875 -0.90625 0.625q-0.296875 0.421875 -0.296875 0.9375q0 0.6875 0.484375 1.140625q0.484375 0.4375 1.359375 0.4375q0.828125 0 1.578125 -0.421875q0.75 -0.4375 1.1875 -1.203125q0.4375 -0.78125 0.6875 -2.21875zm3.1101074 4.90625l2.796875 -13.359375l1.640625 0l-2.78125 13.359375l-1.65625 0zm20.09375 -4.703125l1.765625 0.25q-0.84375 2.3125 -2.453125 3.5q-1.59375 1.1875 -3.578125 1.1875q-2.4375 0 -3.875 -1.484375q-1.421875 -1.484375 -1.421875 -4.265625q0 -3.609375 2.171875 -5.96875q1.9375 -2.09375 4.796875 -2.09375q2.125 0 3.4375 1.140625q1.328125 1.125 1.53125 3.0625l-1.671875 0.140625q-0.25 -1.4375 -1.078125 -2.15625q-0.828125 -0.71875 -2.125 -0.71875q-2.453125 0 -3.96875 2.1875q-1.3125 1.875 -1.3125 4.453125q0 2.046875 1.015625 3.140625q1.015625 1.078125 2.625 1.078125q1.390625 0 2.5 -0.890625q1.125 -0.90625 1.640625 -2.5625zm3.129181 1.03125q0 -2.828125 1.671875 -4.6875q1.375 -1.53125 3.609375 -1.53125q1.75 0 2.8125 1.09375q1.078125 1.09375 1.078125 2.953125q0 1.65625 -0.671875 3.09375q-0.671875 1.4375 -1.921875 2.203125q-1.25 0.765625 -2.625 0.765625q-1.125 0 -2.046875 -0.484375q-0.921875 -0.484375 -1.421875 -1.359375q-0.484375 -0.890625 -0.484375 -2.046875zm1.65625 -0.15625q0 1.359375 0.65625 2.0625q0.65625 0.703125 1.65625 0.703125q0.53125 0 1.046875 -0.203125q0.53125 -0.21875 0.96875 -0.65625q0.453125 -0.4375 0.765625 -1.0q0.3125 -0.5625 0.5 -1.203125q0.28125 -0.90625 0.28125 -1.734375q0 -1.3125 -0.65625 -2.03125q-0.65625 -0.734375 -1.65625 -0.734375q-0.78125 0 -1.421875 0.375q-0.625 0.375 -1.140625 1.09375q-0.515625 0.703125 -0.765625 1.640625q-0.234375 0.9375 -0.234375 1.6875zm8.422607 3.828125l2.015625 -9.671875l1.65625 0l-0.34375 1.59375q0.921875 -1.03125 1.640625 -1.421875q0.734375 -0.390625 1.578125 -0.390625q0.90625 0 1.515625 0.484375q0.609375 0.46875 0.796875 1.328125q0.734375 -0.90625 1.546875 -1.359375q0.8125 -0.453125 1.71875 -0.453125q1.21875 0 1.8125 0.578125q0.609375 0.5625 0.609375 1.609375q0 0.4375 -0.203125 1.46875l-1.3125 6.234375l-1.640625 0l1.328125 -6.390625q0.171875 -0.78125 0.171875 -1.125q0 -0.46875 -0.296875 -0.734375q-0.296875 -0.28125 -0.84375 -0.28125q-0.75 0 -1.515625 0.453125q-0.765625 0.4375 -1.1875 1.171875q-0.421875 0.71875 -0.734375 2.21875l-0.984375 4.6875l-1.65625 0l1.375 -6.53125q0.140625 -0.671875 0.140625 -0.953125q0 -0.46875 -0.296875 -0.75q-0.296875 -0.296875 -0.765625 -0.296875q-0.703125 0 -1.484375 0.453125q-0.765625 0.4375 -1.25 1.234375q-0.46875 0.796875 -0.78125 2.265625l-0.953125 4.578125l-1.65625 0zm15.540802 0l2.015625 -9.671875l1.65625 0l-0.34375 1.59375q0.921875 -1.03125 1.640625 -1.421875q0.734375 -0.390625 1.578125 -0.390625q0.90625 0 1.515625 0.484375q0.609375 0.46875 0.796875 1.328125q0.734375 -0.90625 1.546875 -1.359375q0.8125 -0.453125 1.71875 -0.453125q1.21875 0 1.8125 0.578125q0.609375 0.5625 0.609375 1.609375q0 0.4375 -0.203125 1.46875l-1.3125 6.234375l-1.640625 0l1.328125 -6.390625q0.171875 -0.78125 0.171875 -1.125q0 -0.46875 -0.296875 -0.734375q-0.296875 -0.28125 -0.84375 -0.28125q-0.75 0 -1.515625 0.453125q-0.765625 0.4375 -1.1875 1.171875q-0.421875 0.71875 -0.734375 2.21875l-0.984375 4.6875l-1.65625 0l1.375 -6.53125q0.140625 -0.671875 0.140625 -0.953125q0 -0.46875 -0.296875 -0.75q-0.296875 -0.296875 -0.765625 -0.296875q-0.703125 0 -1.484375 0.453125q-0.765625 0.4375 -1.25 1.234375q-0.46875 0.796875 -0.78125 2.265625l-0.953125 4.578125l-1.65625 0zm17.884552 -11.484375l0.40625 -1.875l1.625 0l-0.390625 1.875l-1.640625 0zm-2.390625 11.484375l2.015625 -9.671875l1.65625 0l-2.03125 9.671875l-1.640625 0zm8.051056 -1.34375l-0.265625 1.359375q-0.59375 0.140625 -1.15625 0.140625q-0.984375 0 -1.5625 -0.46875q-0.4375 -0.375 -0.4375 -1.0q0 -0.3125 0.234375 -1.46875l1.171875 -5.625l-1.296875 0l0.265625 -1.265625l1.296875 0l0.5 -2.375l1.890625 -1.140625l-0.734375 3.515625l1.625 0l-0.28125 1.265625l-1.609375 0l-1.125 5.359375q-0.203125 1.015625 -0.203125 1.21875q0 0.28125 0.15625 0.4375q0.171875 0.15625 0.5625 0.15625q0.546875 0 0.96875 -0.109375z" fill-rule="nonzero"/><path fill="#000000" fill-opacity="0.0" d="m180.00525 245.92651l0 134.01575" fill-rule="evenodd"/><path stroke="#000000" stroke-width="4.0" stroke-linejoin="round" stroke-linecap="butt" d="m180.00525 245.92651l0 110.01575" fill-rule="evenodd"/><path fill="#000000" stroke="#000000" stroke-width="4.0" stroke-linecap="butt" d="m173.39832 355.94226l6.6069336 18.152374l6.6069336 -18.152374z" fill-rule="evenodd"/><path fill="#000000" fill-opacity="0.0" d="m188.00525 276.2257l95.055115 0l0 20.188995l-95.055115 0z" fill-rule="evenodd"/><path fill="#cc0000" d="m210.44275 302.87384l3.5625 1.125q-0.828125 2.96875 -2.734375 4.421875q-1.890625 1.4375 -4.796875 1.4375q-3.625 0 -5.953125 -2.46875q-2.3125 -2.46875 -2.3125 -6.75q0 -4.53125 2.328125 -7.03125q2.34375 -2.5 6.15625 -2.5q3.328125 0 5.40625 1.96875q1.234375 1.15625 1.84375 3.328125l-3.625 0.875q-0.3125 -1.40625 -1.34375 -2.21875q-1.015625 -0.828125 -2.46875 -0.828125q-2.015625 0 -3.28125 1.453125q-1.25 1.4375 -1.25 4.6875q0 3.4375 1.234375 4.90625q1.234375 1.453125 3.21875 1.453125q1.46875 0 2.515625 -0.921875q1.046875 -0.9375 1.5 -2.9375zm6.666168 6.671875l0 -18.125l3.484375 0l0 18.125l-3.484375 0zm6.240097 -6.75q0 -1.734375 0.84375 -3.34375q0.859375 -1.625 2.421875 -2.484375q1.5625 -0.859375 3.5 -0.859375q2.984375 0 4.875 1.9375q1.90625 1.9375 1.90625 4.890625q0 2.984375 -1.921875 4.953125q-1.921875 1.953125 -4.84375 1.953125q-1.796875 0 -3.4375 -0.8125q-1.640625 -0.8125 -2.5 -2.390625q-0.84375 -1.578125 -0.84375 -3.84375zm3.5625 0.1875q0 1.953125 0.921875 3.0q0.9375 1.03125 2.296875 1.03125q1.359375 0 2.28125 -1.03125q0.921875 -1.046875 0.921875 -3.03125q0 -1.921875 -0.921875 -2.953125q-0.921875 -1.046875 -2.28125 -1.046875q-1.359375 0 -2.296875 1.046875q-0.921875 1.03125 -0.921875 2.984375zm24.658936 6.5625l-3.46875 0l0 -6.703125q0 -2.125 -0.234375 -2.75q-0.21875 -0.625 -0.71875 -0.96875q-0.5 -0.34375 -1.203125 -0.34375q-0.90625 0 -1.625 0.5q-0.71875 0.484375 -0.984375 1.296875q-0.265625 0.8125 -0.265625 3.015625l0 5.953125l-3.46875 0l0 -13.140625l3.21875 0l0 1.9375q1.71875 -2.234375 4.328125 -2.234375q1.15625 0 2.109375 0.421875q0.953125 0.40625 1.4375 1.0625q0.484375 0.640625 0.671875 1.453125q0.203125 0.8125 0.203125 2.34375l0 8.15625zm11.127701 -4.1875l3.46875 0.59375q-0.671875 1.90625 -2.109375 2.90625q-1.4375 0.984375 -3.609375 0.984375q-3.421875 0 -5.0625153 -2.234375q-1.3125 -1.796875 -1.3125 -4.53125q0 -3.265625 1.703125 -5.109375q1.7187653 -1.859375 4.3281403 -1.859375q2.921875 0 4.609375 1.9375q1.703125 1.9375 1.640625 5.9375l-8.71875 0q0.046875 1.546875 0.84375 2.40625q0.8125 0.859375 2.0 0.859375q0.828125 0 1.375 -0.4375q0.5625 -0.453125 0.84375 -1.453125zm0.203125 -3.5q-0.046875 -1.515625 -0.796875 -2.296875q-0.734375 -0.78125 -1.796875 -0.78125q-1.125 0 -1.875 0.828125q-0.734375 0.828125 -0.734375 2.25l5.203125 0z" fill-rule="nonzero"/><path fill="#000000" fill-opacity="0.0" d="m259.98425 489.57742l141.13385 0l0 36.251984l-141.13385 0z" fill-rule="evenodd"/><path fill="#000000" d="m270.04675 516.49744l2.796875 -13.359375l1.78125 0l-2.796875 13.359375l-1.78125 0zm4.7457886 0l2.015625 -9.671875l1.5 0l-0.359375 1.6875q0.96875 -1.0 1.8125 -1.453125q0.859375 -0.453125 1.734375 -0.453125q1.1875 0 1.84375 0.640625q0.671875 0.625 0.671875 1.703125q0 0.53125 -0.234375 1.6875l-1.234375 5.859375l-1.640625 0l1.28125 -6.125q0.1875 -0.890625 0.1875 -1.328125q0 -0.484375 -0.328125 -0.78125q-0.328125 -0.296875 -0.953125 -0.296875q-1.28125 0 -2.265625 0.90625q-0.984375 0.90625 -1.453125 3.125l-0.9375 4.5l-1.640625 0zm12.703857 -11.484375l0.40625 -1.875l1.625 0l-0.390625 1.875l-1.640625 0zm-2.390625 11.484375l2.015625 -9.671875l1.65625 0l-2.03125 9.671875l-1.640625 0zm8.051056 -1.34375l-0.265625 1.359375q-0.59375 0.140625 -1.15625 0.140625q-0.984375 0 -1.5625 -0.46875q-0.4375 -0.375 -0.4375 -1.0q0 -0.3125 0.234375 -1.46875l1.171875 -5.625l-1.296875 0l0.265625 -1.265625l1.296875 0l0.5 -2.375l1.890625 -1.140625l-0.734375 3.515625l1.625 0l-0.28125 1.265625l-1.609375 0l-1.125 5.359375q-0.203125 1.015625 -0.203125 1.21875q0 0.28125 0.15625 0.4375q0.171875 0.15625 0.5625 0.15625q0.546875 0 0.96875 -0.109375zm3.667694 -10.140625l0.40625 -1.875l1.625 0l-0.390625 1.875l-1.640625 0zm-2.390625 11.484375l2.015625 -9.671875l1.65625 0l-2.03125 9.671875l-1.640625 0zm10.722931 -1.203125q-0.859375 0.734375 -1.65625 1.078125q-0.78125 0.34375 -1.6875 0.34375q-1.34375 0 -2.171875 -0.78125q-0.8125 -0.796875 -0.8125 -2.03125q0 -0.796875 0.375 -1.421875q0.375 -0.625 0.984375 -1.0q0.609375 -0.390625 1.484375 -0.546875q0.5625 -0.109375 2.109375 -0.171875q1.5625 -0.0625 2.234375 -0.328125q0.1875 -0.671875 0.1875 -1.125q0 -0.578125 -0.421875 -0.90625q-0.5625 -0.453125 -1.671875 -0.453125q-1.03125 0 -1.703125 0.46875q-0.65625 0.453125 -0.953125 1.296875l-1.671875 -0.140625q0.515625 -1.4375 1.609375 -2.203125q1.109375 -0.765625 2.796875 -0.765625q1.796875 0 2.84375 0.859375q0.796875 0.625 0.796875 1.65625q0 0.765625 -0.21875 1.796875l-0.53125 2.40625q-0.265625 1.140625 -0.265625 1.859375q0 0.453125 0.203125 1.3125l-1.671875 0q-0.125 -0.46875 -0.1875 -1.203125zm0.609375 -3.703125q-0.34375 0.140625 -0.75 0.21875q-0.390625 0.0625 -1.3125 0.15625q-1.4375 0.125 -2.03125 0.328125q-0.59375 0.1875 -0.90625 0.625q-0.296875 0.421875 -0.296875 0.9375q0 0.6875 0.484375 1.140625q0.484375 0.4375 1.359375 0.4375q0.828125 0 1.578125 -0.421875q0.75 -0.4375 1.1875 -1.203125q0.4375 -0.78125 0.6875 -2.21875zm3.1101074 4.90625l2.796875 -13.359375l1.640625 0l-2.78125 13.359375l-1.65625 0zm20.09375 -4.703125l1.765625 0.25q-0.84375 2.3125 -2.453125 3.5q-1.59375 1.1875 -3.578125 1.1875q-2.4375 0 -3.875 -1.484375q-1.421875 -1.484375 -1.421875 -4.265625q0 -3.609375 2.171875 -5.96875q1.9375 -2.09375 4.796875 -2.09375q2.125 0 3.4375 1.140625q1.328125 1.125 1.53125 3.0625l-1.671875 0.140625q-0.25 -1.4375 -1.078125 -2.15625q-0.828125 -0.71875 -2.125 -0.71875q-2.453125 0 -3.96875 2.1875q-1.3125 1.875 -1.3125 4.453125q0 2.046875 1.015625 3.140625q1.015625 1.078125 2.625 1.078125q1.390625 0 2.5 -0.890625q1.125 -0.90625 1.640625 -2.5625zm3.129181 1.03125q0 -2.828125 1.671875 -4.6875q1.375 -1.53125 3.609375 -1.53125q1.75 0 2.8125 1.09375q1.078125 1.09375 1.078125 2.953125q0 1.65625 -0.671875 3.09375q-0.671875 1.4375 -1.921875 2.203125q-1.25 0.765625 -2.625 0.765625q-1.125 0 -2.046875 -0.484375q-0.921875 -0.484375 -1.421875 -1.359375q-0.484375 -0.890625 -0.484375 -2.046875zm1.65625 -0.15625q0 1.359375 0.65625 2.0625q0.65625 0.703125 1.65625 0.703125q0.53125 0 1.046875 -0.203125q0.53125 -0.21875 0.96875 -0.65625q0.453125 -0.4375 0.765625 -1.0q0.3125 -0.5625 0.5 -1.203125q0.28125 -0.90625 0.28125 -1.734375q0 -1.3125 -0.65625 -2.03125q-0.65625 -0.734375 -1.65625 -0.734375q-0.78125 0 -1.421875 0.375q-0.625 0.375 -1.140625 1.09375q-0.515625 0.703125 -0.765625 1.640625q-0.234375 0.9375 -0.234375 1.6875zm8.422607 3.828125l2.015625 -9.671875l1.65625 0l-0.34375 1.59375q0.921875 -1.03125 1.640625 -1.421875q0.734375 -0.390625 1.578125 -0.390625q0.90625 0 1.515625 0.484375q0.609375 0.46875 0.796875 1.328125q0.734375 -0.90625 1.546875 -1.359375q0.8125 -0.453125 1.71875 -0.453125q1.21875 0 1.8125 0.578125q0.609375 0.5625 0.609375 1.609375q0 0.4375 -0.203125 1.46875l-1.3125 6.234375l-1.640625 0l1.328125 -6.390625q0.171875 -0.78125 0.171875 -1.125q0 -0.46875 -0.296875 -0.734375q-0.296875 -0.28125 -0.84375 -0.28125q-0.75 0 -1.515625 0.453125q-0.765625 0.4375 -1.1875 1.171875q-0.421875 0.71875 -0.734375 2.21875l-0.984375 4.6875l-1.65625 0l1.375 -6.53125q0.140625 -0.671875 0.140625 -0.953125q0 -0.46875 -0.296875 -0.75q-0.296875 -0.296875 -0.765625 -0.296875q-0.703125 0 -1.484375 0.453125q-0.765625 0.4375 -1.25 1.234375q-0.46875 0.796875 -0.78125 2.265625l-0.953125 4.578125l-1.65625 0zm15.540802 0l2.015625 -9.671875l1.65625 0l-0.34375 1.59375q0.921875 -1.03125 1.640625 -1.421875q0.734375 -0.390625 1.578125 -0.390625q0.90625 0 1.515625 0.484375q0.609375 0.46875 0.796875 1.328125q0.734375 -0.90625 1.546875 -1.359375q0.8125 -0.453125 1.71875 -0.453125q1.21875 0 1.8125 0.578125q0.609375 0.5625 0.609375 1.609375q0 0.4375 -0.203125 1.46875l-1.3125 6.234375l-1.640625 0l1.328125 -6.390625q0.171875 -0.78125 0.171875 -1.125q0 -0.46875 -0.296875 -0.734375q-0.296875 -0.28125 -0.84375 -0.28125q-0.75 0 -1.515625 0.453125q-0.765625 0.4375 -1.1875 1.171875q-0.421875 0.71875 -0.734375 2.21875l-0.984375 4.6875l-1.65625 0l1.375 -6.53125q0.140625 -0.671875 0.140625 -0.953125q0 -0.46875 -0.296875 -0.75q-0.296875 -0.296875 -0.765625 -0.296875q-0.703125 0 -1.484375 0.453125q-0.765625 0.4375 -1.25 1.234375q-0.46875 0.796875 -0.78125 2.265625l-0.953125 4.578125l-1.65625 0zm17.884552 -11.484375l0.40625 -1.875l1.625 0l-0.390625 1.875l-1.640625 0zm-2.390625 11.484375l2.015625 -9.671875l1.65625 0l-2.03125 9.671875l-1.640625 0zm8.051056 -1.34375l-0.265625 1.359375q-0.59375 0.140625 -1.15625 0.140625q-0.984375 0 -1.5625 -0.46875q-0.4375 -0.375 -0.4375 -1.0q0 -0.3125 0.234375 -1.46875l1.171875 -5.625l-1.296875 0l0.265625 -1.265625l1.296875 0l0.5 -2.375l1.890625 -1.140625l-0.734375 3.515625l1.625 0l-0.28125 1.265625l-1.609375 0l-1.125 5.359375q-0.203125 1.015625 -0.203125 1.21875q0 0.28125 0.15625 0.4375q0.171875 0.15625 0.5625 0.15625q0.546875 0 0.96875 -0.109375z" fill-rule="nonzero"/><path fill="#000000" fill-opacity="0.0" d="m288.0 269.90158l672.28345 0" fill-rule="evenodd"/><path stroke="#595959" stroke-width="3.0" stroke-linejoin="round" stroke-linecap="butt" stroke-dasharray="12.0,9.0" d="m288.0 269.90158l672.28345 0" fill-rule="evenodd"/><path fill="#000000" fill-opacity="0.0" d="m142.66142 113.37008l85.25984 0l0 37.732277l-85.25984 0z" fill-rule="evenodd"/><path fill="#000000" d="m153.13017 140.29007l0 -13.359367l5.921875 0q1.78125 0 2.703125 0.359375q0.9375 0.359375 1.484375 1.2812424q0.5625 0.90625 0.5625 2.015625q0 1.40625 -0.921875 2.390625q-0.921875 0.96875 -2.84375 1.234375q0.703125 0.34375 1.078125 0.671875q0.765625 0.703125 1.453125 1.765625l2.328125 3.640625l-2.21875 0l-1.765625 -2.78125q-0.78125 -1.203125 -1.28125 -1.828125q-0.5 -0.640625 -0.90625 -0.890625q-0.390625 -0.265625 -0.796875 -0.359375q-0.296875 -0.078125 -0.984375 -0.078125l-2.046875 0l0 5.9375l-1.765625 0zm1.765625 -7.453125l3.796875 0q1.21875 0 1.890625 -0.25q0.6875 -0.265625 1.046875 -0.8125q0.359375 -0.546875 0.359375 -1.1875q0 -0.953125 -0.6875 -1.5625q-0.6875 -0.609375 -2.1875 -0.609375l-4.21875 0l0 4.421875zm18.097946 4.34375l1.6875 0.203125q-0.40625 1.484375 -1.484375 2.3125q-1.078125 0.8125 -2.765625 0.8125q-2.125 0 -3.375 -1.296875q-1.234375 -1.3125 -1.234375 -3.671875q0 -2.453125 1.25 -3.796875q1.265625 -1.34375 3.265625 -1.34375q1.9375 0 3.15625 1.328125q1.234375 1.3125 1.234375 3.703125q0 0.15625 0 0.4375l-7.21875 0q0.09375 1.59375 0.90625 2.453125q0.8125 0.84375 2.015625 0.84375q0.90625 0 1.546875 -0.46875q0.640625 -0.484375 1.015625 -1.515625zm-5.390625 -2.65625l5.40625 0q-0.109375 -1.21875 -0.625 -1.828125q-0.78125 -0.953125 -2.03125 -0.953125q-1.125 0 -1.90625 0.765625q-0.765625 0.75 -0.84375 2.015625zm9.141342 5.765625l0 -9.671875l1.46875 0l0 1.359375q0.453125 -0.71875 1.203125 -1.140625q0.765625 -0.4375 1.71875 -0.4375q1.078125 0 1.765625 0.453125q0.6875 0.4375 0.96875 1.234375q1.15625 -1.6875 2.984375 -1.6875q1.453125 0 2.21875 0.796875q0.78125 0.796875 0.78125 2.453125l0 6.640625l-1.640625 0l0 -6.09375q0 -0.984375 -0.15625 -1.40625q-0.15625 -0.4375 -0.578125 -0.703125q-0.421875 -0.265625 -0.984375 -0.265625q-1.015625 0 -1.6875 0.6875q-0.671875 0.671875 -0.671875 2.15625l0 5.625l-1.640625 0l0 -6.28125q0 -1.09375 -0.40625 -1.640625q-0.40625 -0.546875 -1.3125 -0.546875q-0.6875 0 -1.28125 0.359375q-0.59375 0.359375 -0.859375 1.0625q-0.25 0.703125 -0.25 2.03125l0 5.015625l-1.640625 0zm14.931427 -4.84375q0 -2.6875 1.484375 -3.96875q1.25 -1.078125 3.046875 -1.078125q2.0 0 3.265625 1.3125q1.265625 1.296875 1.265625 3.609375q0 1.859375 -0.5625 2.9375q-0.5625 1.0625 -1.640625 1.65625q-1.0625 0.59375 -2.328125 0.59375q-2.03125 0 -3.28125 -1.296875q-1.25 -1.3125 -1.25 -3.765625zm1.6875 0q0 1.859375 0.796875 2.796875q0.8125 0.921875 2.046875 0.921875q1.21875 0 2.03125 -0.921875q0.8125 -0.9375 0.8125 -2.84375q0 -1.796875 -0.8125 -2.71875q-0.8125 -0.921875 -2.03125 -0.921875q-1.234375 0 -2.046875 0.921875q-0.796875 0.90625 -0.796875 2.765625zm12.875717 3.375l0.234375 1.453125q-0.6875 0.140625 -1.234375 0.140625q-0.890625 0 -1.390625 -0.28125q-0.484375 -0.28125 -0.6875 -0.734375q-0.203125 -0.46875 -0.203125 -1.9375l0 -5.578125l-1.203125 0l0 -1.265625l1.203125 0l0 -2.390625l1.625 -0.9843674l0 3.3749924l1.65625 0l0 1.265625l-1.65625 0l0 5.671875q0 0.6875 0.078125 0.890625q0.09375 0.203125 0.28125 0.328125q0.203125 0.109375 0.578125 0.109375q0.265625 0 0.71875 -0.0625zm8.230179 -1.640625l1.6875 0.203125q-0.40625 1.484375 -1.484375 2.3125q-1.078125 0.8125 -2.765625 0.8125q-2.125 0 -3.375 -1.296875q-1.234375 -1.3125 -1.234375 -3.671875q0 -2.453125 1.25 -3.796875q1.265625 -1.34375 3.265625 -1.34375q1.9375 0 3.15625 1.328125q1.234375 1.3125 1.234375 3.703125q0 0.15625 0 0.4375l-7.21875 0q0.09375 1.59375 0.90625 2.453125q0.8125 0.84375 2.015625 0.84375q0.90625 0 1.546875 -0.46875q0.640625 -0.484375 1.015625 -1.515625zm-5.390625 -2.65625l5.40625 0q-0.109375 -1.21875 -0.625 -1.828125q-0.78125 -0.953125 -2.03125 -0.953125q-1.125 0 -1.90625 0.765625q-0.765625 0.75 -0.84375 2.015625z" fill-rule="nonzero"/><path fill="#000000" fill-opacity="0.0" d="m142.66142 417.3701l85.25984 0l0 37.73227l-85.25984 0z" fill-rule="evenodd"/><path fill="#000000" d="m164.35066 444.29007l0 -13.359375l1.78125 0l0 11.78125l6.5625 0l0 1.578125l-8.34375 0zm9.641342 -4.84375q0 -2.6875 1.484375 -3.96875q1.25 -1.078125 3.046875 -1.078125q2.0 0 3.265625 1.3125q1.265625 1.296875 1.265625 3.609375q0 1.859375 -0.5625 2.9375q-0.5625 1.0625 -1.640625 1.65625q-1.0625 0.59375 -2.328125 0.59375q-2.03125 0 -3.28125 -1.296875q-1.25 -1.3125 -1.25 -3.765625zm1.6875 0q0 1.859375 0.796875 2.796875q0.8125 0.921875 2.046875 0.921875q1.21875 0 2.03125 -0.921875q0.8125 -0.9375 0.8125 -2.84375q0 -1.796875 -0.8125 -2.71875q-0.8125 -0.921875 -2.03125 -0.921875q-1.234375 0 -2.046875 0.921875q-0.796875 0.90625 -0.796875 2.765625zm15.610092 1.296875l1.609375 0.21875q-0.265625 1.65625 -1.359375 2.609375q-1.078125 0.9375 -2.671875 0.9375q-1.984375 0 -3.1875 -1.296875q-1.203125 -1.296875 -1.203125 -3.71875q0 -1.578125 0.515625 -2.75q0.515625 -1.171875 1.578125 -1.75q1.0625 -0.59375 2.3125 -0.59375q1.578125 0 2.578125 0.796875q1.0 0.796875 1.28125 2.265625l-1.59375 0.234375q-0.234375 -0.96875 -0.8125 -1.453125q-0.578125 -0.5 -1.390625 -0.5q-1.234375 0 -2.015625 0.890625q-0.78125 0.890625 -0.78125 2.8125q0 1.953125 0.75 2.84375q0.75 0.875 1.953125 0.875q0.96875 0 1.609375 -0.59375q0.65625 -0.59375 0.828125 -1.828125zm9.328125 2.359375q-0.921875 0.765625 -1.765625 1.09375q-0.828125 0.3125 -1.796875 0.3125q-1.59375 0 -2.453125 -0.78125q-0.859375 -0.78125 -0.859375 -1.984375q0 -0.71875 0.328125 -1.296875q0.328125 -0.59375 0.84375 -0.9375q0.53125 -0.359375 1.1875 -0.546875q0.46875 -0.125 1.453125 -0.25q1.984375 -0.234375 2.921875 -0.5625q0.015625 -0.34375 0.015625 -0.421875q0 -1.0 -0.46875 -1.421875q-0.625 -0.546875 -1.875 -0.546875q-1.15625 0 -1.703125 0.40625q-0.546875 0.40625 -0.8125 1.421875l-1.609375 -0.21875q0.21875 -1.015625 0.71875 -1.640625q0.5 -0.640625 1.453125 -0.984375q0.953125 -0.34375 2.1875 -0.34375q1.25 0 2.015625 0.296875q0.78125 0.28125 1.140625 0.734375q0.375 0.4375 0.515625 1.109375q0.078125 0.421875 0.078125 1.515625l0 2.1875q0 2.28125 0.109375 2.890625q0.109375 0.59375 0.40625 1.15625l-1.703125 0q-0.265625 -0.515625 -0.328125 -1.1875zm-0.140625 -3.671875q-0.890625 0.375 -2.671875 0.625q-1.015625 0.140625 -1.4375 0.328125q-0.421875 0.1875 -0.65625 0.53125q-0.21875 0.34375 -0.21875 0.78125q0 0.65625 0.5 1.09375q0.5 0.4375 1.453125 0.4375q0.9375 0 1.671875 -0.40625q0.75 -0.421875 1.09375 -1.140625q0.265625 -0.5625 0.265625 -1.640625l0 -0.609375zm4.156967 4.859375l0 -13.359375l1.640625 0l0 13.359375l-1.640625 0z" fill-rule="nonzero"/><path fill="#000000" fill-opacity="0.0" d="m302.12512 130.17526l50.92914 0" fill-rule="evenodd"/><path stroke="#000000" stroke-width="4.0" stroke-linejoin="round" stroke-linecap="butt" d="m302.12512 130.17526l50.92914 0" fill-rule="evenodd"/><path fill="#000000" fill-opacity="0.0" d="m302.12512 434.17526l50.92914 0" fill-rule="evenodd"/><path stroke="#000000" stroke-width="4.0" stroke-linejoin="round" stroke-linecap="butt" d="m302.12512 434.17526l50.92914 0" fill-rule="evenodd"/><path fill="#000000" fill-opacity="0.0" d="m569.5276 151.58792l-147.05515 0" fill-rule="evenodd"/><path stroke="#ff0000" stroke-width="4.0" stroke-linejoin="round" stroke-linecap="butt" d="m569.5276 151.58792l-123.055145 0" fill-rule="evenodd"/><path fill="#ff0000" stroke="#ff0000" stroke-width="4.0" stroke-linecap="butt" d="m446.47244 144.981l-18.152405 6.6069183l18.152405 6.6069336z" fill-rule="evenodd"/><path fill="#000000" fill-opacity="0.0" d="m563.2808 125.35433l411.1811 0l0 45.543312l-411.1811 0z" fill-rule="evenodd"/><path fill="#ff0000" d="m593.2845 161.23433l-4.78125 -20.046875l4.140625 0l3.03125 13.765625l3.65625 -13.765625l4.8125 0l3.515625 14.0l3.078125 -14.0l4.078125 0l-4.875 20.046875l-4.296875 0l-3.984375 -14.984375l-3.984375 14.984375l-4.390625 0zm27.396484 -20.046875l0 7.375q1.859375 -2.171875 4.4375 -2.171875q1.328125 0 2.390625 0.5q1.0625 0.484375 1.609375 1.25q0.546875 0.765625 0.734375 1.703125q0.203125 0.921875 0.203125 2.875l0 8.515625l-3.84375 0l0 -7.671875q0 -2.28125 -0.21875 -2.890625q-0.21875 -0.625 -0.78125 -0.984375q-0.546875 -0.359375 -1.375 -0.359375q-0.953125 0 -1.71875 0.46875q-0.75 0.453125 -1.09375 1.390625q-0.34375 0.9375 -0.34375 2.765625l0 7.28125l-3.84375 0l0 -20.046875l3.84375 0zm21.68164 15.421875l3.828125 0.640625q-0.734375 2.109375 -2.328125 3.21875q-1.59375 1.09375 -3.984375 1.09375q-3.796875 0 -5.609375 -2.46875q-1.4375 -1.984375 -1.4375 -5.015625q0 -3.609375 1.875 -5.640625q1.890625 -2.046875 4.78125 -2.046875q3.234375 0 5.109375 2.140625q1.875 2.140625 1.796875 6.546875l-9.625 0q0.046875 1.71875 0.921875 2.671875q0.890625 0.9375 2.21875 0.9375q0.90625 0 1.515625 -0.484375q0.625 -0.5 0.9375 -1.59375zm0.21875 -3.875q-0.046875 -1.671875 -0.875 -2.53125q-0.8125 -0.875 -1.984375 -0.875q-1.265625 0 -2.078125 0.90625q-0.828125 0.921875 -0.8125 2.5l5.75 0zm10.619141 8.5l-3.84375 0l0 -14.515625l3.578125 0l0 2.0625q0.90625 -1.46875 1.640625 -1.921875q0.734375 -0.46875 1.65625 -0.46875q1.3125 0 2.53125 0.71875l-1.1875 3.34375q-0.96875 -0.625 -1.796875 -0.625q-0.8125 0 -1.375 0.453125q-0.5625 0.4375 -0.890625 1.609375q-0.3125 1.15625 -0.3125 4.859375l0 4.484375zm15.630859 -4.625l3.828125 0.640625q-0.734375 2.109375 -2.328125 3.21875q-1.59375 1.09375 -3.984375 1.09375q-3.796875 0 -5.609375 -2.46875q-1.4375 -1.984375 -1.4375 -5.015625q0 -3.609375 1.875 -5.640625q1.890625 -2.046875 4.78125 -2.046875q3.234375 0 5.109375 2.140625q1.875 2.140625 1.796875 6.546875l-9.625 0q0.046875 1.71875 0.921875 2.671875q0.890625 0.9375 2.21875 0.9375q0.90625 0 1.515625 -0.484375q0.625 -0.5 0.9375 -1.59375zm0.21875 -3.875q-0.046875 -1.671875 -0.875 -2.53125q-0.8125 -0.875 -1.984375 -0.875q-1.265625 0 -2.078125 0.90625q-0.828125 0.921875 -0.8125 2.5l5.75 0zm28.039062 8.5l-3.5625 0l0 -2.140625q-0.890625 1.25 -2.109375 1.859375q-1.203125 0.609375 -2.4375 0.609375q-2.5 0 -4.28125 -2.015625q-1.78125 -2.015625 -1.78125 -5.625q0 -3.6875 1.734375 -5.609375q1.734375 -1.921875 4.390625 -1.921875q2.421875 0 4.203125 2.015625l0 -7.21875l3.84375 0l0 20.046875zm-10.25 -7.578125q0 2.328125 0.640625 3.359375q0.921875 1.515625 2.59375 1.515625q1.328125 0 2.25 -1.125q0.9375 -1.140625 0.9375 -3.375q0 -2.5 -0.90625 -3.59375q-0.90625 -1.109375 -2.3125 -1.109375q-1.359375 0 -2.28125 1.09375q-0.921875 1.078125 -0.921875 3.234375zm14.041016 -8.90625l0 -3.5625l3.84375 0l0 3.5625l-3.84375 0zm0 16.484375l0 -14.515625l3.84375 0l0 14.515625l-3.84375 0zm21.091797 0l-3.5625 0l0 -2.140625q-0.890625 1.25 -2.109375 1.859375q-1.203125 0.609375 -2.4375 0.609375q-2.5 0 -4.28125 -2.015625q-1.78125 -2.015625 -1.78125 -5.625q0 -3.6875 1.734375 -5.609375q1.734375 -1.921875 4.390625 -1.921875q2.421875 0 4.203125 2.015625l0 -7.21875l3.84375 0l0 20.046875zm-10.25 -7.578125q0 2.328125 0.640625 3.359375q0.921875 1.515625 2.59375 1.515625q1.328125 0 2.25 -1.125q0.9375 -1.140625 0.9375 -3.375q0 -2.5 -0.90625 -3.59375q-0.90625 -1.109375 -2.3125 -1.109375q-1.359375 0 -2.28125 1.09375q-0.921875 1.078125 -0.921875 3.234375zm28.476562 -6.9375l0 3.0625l-2.625 0l0 5.84375q0 1.78125 0.0625 2.078125q0.078125 0.296875 0.34375 0.484375q0.28125 0.1875 0.65625 0.1875q0.53125 0 1.546875 -0.375l0.328125 2.984375q-1.34375 0.578125 -3.03125 0.578125q-1.046875 0 -1.890625 -0.34375q-0.828125 -0.359375 -1.21875 -0.90625q-0.375 -0.5625 -0.53125 -1.5q-0.125 -0.671875 -0.125 -2.703125l0 -6.328125l-1.765625 0l0 -3.0625l1.765625 0l0 -2.890625l3.859375 -2.234375l0 5.125l2.625 0zm6.4960938 -5.53125l0 7.375q1.859375 -2.171875 4.4375 -2.171875q1.328125 0 2.390625 0.5q1.0625 0.484375 1.609375 1.25q0.546875 0.765625 0.734375 1.703125q0.203125 0.921875 0.203125 2.875l0 8.515625l-3.84375 0l0 -7.671875q0 -2.28125 -0.21875 -2.890625q-0.21875 -0.625 -0.78125 -0.984375q-0.546875 -0.359375 -1.375 -0.359375q-0.953125 0 -1.71875 0.46875q-0.75 0.453125 -1.09375 1.390625q-0.34375 0.9375 -0.34375 2.765625l0 7.28125l-3.84375 0l0 -20.046875l3.84375 0zm13.275391 3.5625l0 -3.5625l3.84375 0l0 3.5625l-3.84375 0zm0 16.484375l0 -14.515625l3.84375 0l0 14.515625l-3.84375 0zm6.419922 -4.140625l3.859375 -0.59375q0.25 1.125 1.0 1.703125q0.75 0.578125 2.09375 0.578125q1.5 0 2.25 -0.546875q0.5 -0.375 0.5 -1.015625q0 -0.4375 -0.265625 -0.734375q-0.296875 -0.265625 -1.28125 -0.5q-4.65625 -1.03125 -5.90625 -1.875q-1.71875 -1.171875 -1.71875 -3.265625q0 -1.890625 1.484375 -3.171875q1.5 -1.28125 4.625 -1.28125q2.984375 0 4.4375 0.96875q1.453125 0.96875 2.0 2.875l-3.625 0.65625q-0.234375 -0.84375 -0.890625 -1.296875q-0.640625 -0.453125 -1.84375 -0.453125q-1.515625 0 -2.171875 0.4375q-0.4375 0.296875 -0.4375 0.765625q0 0.421875 0.375 0.703125q0.515625 0.390625 3.578125 1.09375q3.078125 0.6875 4.296875 1.703125q1.203125 1.015625 1.203125 2.84375q0 2.0 -1.671875 3.4375q-1.65625 1.4375 -4.9375 1.4375q-2.953125 0 -4.6875 -1.203125q-1.734375 -1.203125 -2.265625 -3.265625zm37.367188 -6.09375l-3.78125 0.6875q-0.203125 -1.125 -0.875 -1.703125q-0.671875 -0.578125 -1.75 -0.578125q-1.4375 0 -2.296875 1.0q-0.859375 0.984375 -0.859375 3.3125q0 2.578125 0.859375 3.65625q0.875 1.0625 2.34375 1.0625q1.09375 0 1.78125 -0.625q0.703125 -0.625 1.0 -2.140625l3.765625 0.640625q-0.578125 2.59375 -2.25 3.921875q-1.671875 1.328125 -4.46875 1.328125q-3.1875 0 -5.09375 -2.0q-1.890625 -2.015625 -1.890625 -5.578125q0 -3.59375 1.90625 -5.59375q1.90625 -2.0 5.140625 -2.0q2.65625 0 4.21875 1.140625q1.5625 1.140625 2.25 3.46875zm2.0253906 2.765625q0 -1.90625 0.9375 -3.703125q0.953125 -1.796875 2.671875 -2.734375q1.734375 -0.9375 3.859375 -0.9375q3.296875 0 5.40625 2.140625q2.109375 2.140625 2.109375 5.40625q0 3.296875 -2.125 5.46875q-2.125 2.15625 -5.359375 2.15625q-2.0 0 -3.8125 -0.90625q-1.796875 -0.90625 -2.75 -2.640625q-0.9375 -1.75 -0.9375 -4.25zm3.9375 0.203125q0 2.171875 1.015625 3.328125q1.03125 1.140625 2.53125 1.140625q1.515625 0 2.53125 -1.140625q1.015625 -1.15625 1.015625 -3.34375q0 -2.140625 -1.015625 -3.28125q-1.015625 -1.15625 -2.53125 -1.15625q-1.5 0 -2.53125 1.15625q-1.015625 1.140625 -1.015625 3.296875zm13.759766 -7.25l3.546875 0l0 1.984375q1.90625 -2.3125 4.53125 -2.3125q1.390625 0 2.40625 0.578125q1.03125 0.5625 1.6875 1.734375q0.953125 -1.171875 2.0625 -1.734375q1.109375 -0.578125 2.375 -0.578125q1.59375 0 2.703125 0.65625q1.109375 0.640625 1.65625 1.890625q0.390625 0.9375 0.390625 3.015625l0 9.28125l-3.84375 0l0 -8.296875q0 -2.15625 -0.390625 -2.796875q-0.53125 -0.8125 -1.640625 -0.8125q-0.8125 0 -1.53125 0.5q-0.703125 0.484375 -1.015625 1.4375q-0.3125 0.9375 -0.3125 3.0l0 6.96875l-3.84375 0l0 -7.953125q0 -2.125 -0.203125 -2.734375q-0.203125 -0.625 -0.640625 -0.921875q-0.421875 -0.296875 -1.171875 -0.296875q-0.875 0 -1.59375 0.484375q-0.703125 0.46875 -1.015625 1.375q-0.3125 0.90625 -0.3125 2.984375l0 7.0625l-3.84375 0l0 -14.515625zm33.59961 9.890625l3.828125 0.640625q-0.734375 2.109375 -2.328125 3.21875q-1.59375 1.09375 -3.984375 1.09375q-3.796875 0 -5.609375 -2.46875q-1.4375 -1.984375 -1.4375 -5.015625q0 -3.609375 1.875 -5.640625q1.890625 -2.046875 4.78125 -2.046875q3.234375 0 5.109375 2.140625q1.875 2.140625 1.796875 6.546875l-9.625 0q0.046875 1.71875 0.921875 2.671875q0.890625 0.9375 2.21875 0.9375q0.90625 0 1.515625 -0.484375q0.625 -0.5 0.9375 -1.59375zm0.21875 -3.875q-0.046875 -1.671875 -0.875 -2.53125q-0.8125 -0.875 -1.984375 -0.875q-1.265625 0 -2.078125 0.90625q-0.828125 0.921875 -0.8125 2.5l5.75 0zm13.0390625 -6.015625l2.140625 0l0 -1.09375q0 -1.84375 0.375 -2.734375q0.390625 -0.90625 1.4375 -1.46875q1.046875 -0.578125 2.65625 -0.578125q1.640625 0 3.203125 0.5l-0.515625 2.671875q-0.921875 -0.21875 -1.765625 -0.21875q-0.828125 0 -1.203125 0.390625q-0.359375 0.390625 -0.359375 1.5l0 1.03125l2.875 0l0 3.015625l-2.875 0l0 11.5l-3.828125 0l0 -11.5l-2.140625 0l0 -3.015625zm14.683594 14.515625l-3.84375 0l0 -14.515625l3.578125 0l0 2.0625q0.90625 -1.46875 1.640625 -1.921875q0.734375 -0.46875 1.65625 -0.46875q1.3125 0 2.53125 0.71875l-1.1875 3.34375q-0.96875 -0.625 -1.796875 -0.625q-0.8125 0 -1.375 0.453125q-0.5625 0.4375 -0.890625 1.609375q-0.3125 1.15625 -0.3125 4.859375l0 4.484375zm6.3339844 -7.46875q0 -1.90625 0.9375 -3.703125q0.953125 -1.796875 2.671875 -2.734375q1.734375 -0.9375 3.859375 -0.9375q3.296875 0 5.40625 2.140625q2.109375 2.140625 2.109375 5.40625q0 3.296875 -2.125 5.46875q-2.125 2.15625 -5.359375 2.15625q-2.0 0 -3.8125 -0.90625q-1.796875 -0.90625 -2.75 -2.640625q-0.9375 -1.75 -0.9375 -4.25zm3.9375 0.203125q0 2.171875 1.015625 3.328125q1.03125 1.140625 2.53125 1.140625q1.515625 0 2.53125 -1.140625q1.015625 -1.15625 1.015625 -3.34375q0 -2.140625 -1.015625 -3.28125q-1.015625 -1.15625 -2.53125 -1.15625q-1.5 0 -2.53125 1.15625q-1.015625 1.140625 -1.015625 3.296875zm13.759766 -7.25l3.546875 0l0 1.984375q1.90625 -2.3125 4.53125 -2.3125q1.390625 0 2.40625 0.578125q1.03125 0.5625 1.6875 1.734375q0.953125 -1.171875 2.0625 -1.734375q1.109375 -0.578125 2.375 -0.578125q1.59375 0 2.703125 0.65625q1.109375 0.640625 1.65625 1.890625q0.390625 0.9375 0.390625 3.015625l0 9.28125l-3.84375 0l0 -8.296875q0 -2.15625 -0.390625 -2.796875q-0.53125 -0.8125 -1.640625 -0.8125q-0.8125 0 -1.53125 0.5q-0.703125 0.484375 -1.015625 1.4375q-0.3125 0.9375 -0.3125 3.0l0 6.96875l-3.84375 0l0 -7.953125q0 -2.125 -0.203125 -2.734375q-0.203125 -0.625 -0.640625 -0.921875q-0.421875 -0.296875 -1.171875 -0.296875q-0.875 0 -1.59375 0.484375q-0.703125 0.46875 -1.015625 1.375q-0.3125 0.90625 -0.3125 2.984375l0 7.0625l-3.84375 0l0 -14.515625zm33.44336 9.34375l-3.484375 0q-0.015625 -0.75 -0.015625 -0.90625q0 -1.703125 0.5625 -2.796875q0.5625 -1.09375 2.234375 -2.453125q1.6875 -1.375 2.015625 -1.796875q0.515625 -0.671875 0.515625 -1.484375q0 -1.109375 -0.90625 -1.90625q-0.890625 -0.8125 -2.40625 -0.8125q-1.46875 0 -2.453125 0.84375q-0.984375 0.828125 -1.34375 2.53125l-3.53125 -0.4375q0.140625 -2.4375 2.078125 -4.140625q1.9375 -1.71875 5.078125 -1.71875q3.3125 0 5.265625 1.734375q1.953125 1.71875 1.953125 4.015625q0 1.28125 -0.71875 2.421875q-0.71875 1.125 -3.0625 3.078125q-1.21875 1.015625 -1.515625 1.640625q-0.296875 0.609375 -0.265625 2.1875zm-3.484375 5.171875l0 -3.84375l3.84375 0l0 3.84375l-3.84375 0z" fill-rule="nonzero"/><path fill="#000000" fill-opacity="0.0" d="m134.02362 70.26509l260.25198 0l0 162.64568l-260.25198 0z" fill-rule="evenodd"/><path stroke="#ff0000" stroke-width="4.0" stroke-linejoin="round" stroke-linecap="butt" d="m134.02362 70.26509l260.25198 0l0 162.64568l-260.25198 0z" fill-rule="evenodd"/></g></svg>