<svg version="1.1" viewBox="0.0 0.0 960.0 540.0" fill="none" stroke="none" stroke-linecap="square" stroke-miterlimit="10" xmlns:xlink="http://www.w3.org/1999/xlink" xmlns="http://www.w3.org/2000/svg"><clipPath id="g9e1ea9d259_0_2049.0"><path d="m0 0l960.0 0l0 540.0l-960.0 0l0 -540.0z" clip-rule="nonzero"/></clipPath><g clip-path="url(#g9e1ea9d259_0_2049.0)"><path fill="#ffffff" d="m0 0l960.0 0l0 540.0l-960.0 0z" fill-rule="evenodd"/><path fill="#cfe2f3" d="m13.766608 60.200203l0 0c0 -9.149216 7.4169035 -16.56612 16.56612 -16.56612l92.78074 0c4.393608 0 8.607269 1.7453537 11.71402 4.852104c3.1067505 3.1067505 4.8520966 7.320408 4.8520966 11.714016l0 3.320076c0 9.149216 -7.4169006 16.566116 -16.566116 16.566116l-92.78074 0l0 0c-9.149216 0 -16.56612 -7.4169006 -16.56612 -16.566116z" fill-rule="evenodd"/><path fill="#cfe2f3" d="m28.992718 42.11918l0 0c0 -16.235313 13.161324 -29.396637 29.396637 -29.396637l0 0c7.7964745 0 15.273624 3.0971375 20.786564 8.610077c5.5129395 5.5129375 8.610077 12.990089 8.610077 20.78656l0 0c0 16.235317 -13.161324 29.396637 -29.39664 29.396637l0 0c-16.235313 0 -29.396637 -13.16132 -29.396637 -29.396637z" fill-rule="evenodd"/><path fill="#cfe2f3" d="m80.03309 37.55668l0 0c0 -10.066029 8.160133 -18.226156 18.226158 -18.226156l0 0c4.8338776 0 9.469772 1.9202499 12.88784 5.338318c3.418068 3.418068 5.338318 8.053961 5.338318 12.887838l0 0c0 10.066029 -8.160126 18.226158 -18.226158 18.226158l0 0c-10.066025 0 -18.226158 -8.16013 -18.226158 -18.226158z" fill-rule="evenodd"/><path fill="#000000" fill-opacity="0.0" d="m0 269.90158l151.90552 0" fill-rule="evenodd"/><path stroke="#595959" stroke-width="3.0" stroke-linejoin="round" stroke-linecap="butt" stroke-dasharray="12.0,9.0" d="m0 269.90158l151.90552 0" fill-rule="evenodd"/><path fill="#9fc5e8" d="m34.090313 290.91495l0 0c0 -2.2967224 1.8618774 -4.1586 4.1586227 -4.1586l76.949524 0c1.1029358 0 2.160698 0.43814087 2.94059 1.2180176c0.77989197 0.7799072 1.2180328 1.8376465 1.2180328 2.9405823l0 47.13846c0 2.296753 -1.8618774 4.1586304 -4.1586227 4.1586304l-76.949524 0c-2.2967453 0 -4.1586227 -1.8618774 -4.1586227 -4.1586304z" fill-rule="evenodd"/><path stroke="#595959" stroke-width="3.0" stroke-linejoin="round" stroke-linecap="butt" d="m34.090313 290.91495l0 0c0 -2.2967224 1.8618774 -4.1586 4.1586227 -4.1586l76.949524 0c1.1029358 0 2.160698 0.43814087 2.94059 1.2180176c0.77989197 0.7799072 1.2180328 1.8376465 1.2180328 2.9405823l0 47.13846c0 2.296753 -1.8618774 4.1586304 -4.1586227 4.1586304l-76.949524 0c-2.2967453 0 -4.1586227 -1.8618774 -4.1586227 -4.1586304z" fill-rule="evenodd"/><path fill="#595959" d="m65.80634 342.21204l21.834702 0l0 8.310577l-21.834702 0z" fill-rule="evenodd"/><path stroke="#595959" stroke-width="1.0" stroke-linejoin="round" stroke-linecap="butt" d="m65.80634 342.21204l21.834702 0l0 8.310577l-21.834702 0z" fill-rule="evenodd"/><path fill="#595959" d="m58.3573 350.5226l36.732788 0l0.69441223 0.694397l0 3.4720154l0 0l-38.121616 0l0 0l0 -3.4720154z" fill-rule="evenodd"/><path stroke="#595959" stroke-width="1.0" stroke-linejoin="round" stroke-linecap="butt" d="m58.3573 350.5226l36.732788 0l0.69441223 0.694397l0 3.4720154l0 0l-38.121616 0l0 0l0 -3.4720154z" fill-rule="evenodd"/><path fill="#000000" fill-opacity="0.0" d="m196.00525 233.24934l0 117.60631" fill-rule="evenodd"/><path stroke="#000000" stroke-width="4.0" stroke-linejoin="round" stroke-linecap="butt" d="m196.00525 233.24934l0 93.60631" fill-rule="evenodd"/><path fill="#000000" stroke="#000000" stroke-width="4.0" stroke-linecap="butt" d="m189.39832 326.85565l6.6069336 18.152374l6.6069336 -18.152374z" fill-rule="evenodd"/><path fill="#000000" fill-opacity="0.0" d="m304.79004 270.0l297.92126 0" fill-rule="evenodd"/><path stroke="#595959" stroke-width="3.0" stroke-linejoin="round" stroke-linecap="butt" stroke-dasharray="12.0,9.0" d="m304.79004 270.0l297.92126 0" fill-rule="evenodd"/><path fill="#000000" fill-opacity="0.0" d="m641.2598 260.2257l141.13385 0l0 20.188995l-141.13385 0z" fill-rule="evenodd"/><path fill="#cc0000" d="m652.1036 293.54572l0 -18.125l5.875 0q3.34375 0 4.359375 0.265625q1.546875 0.40625 2.59375 1.78125q1.0625 1.359375 1.0625 3.53125q0 1.65625 -0.609375 2.796875q-0.609375 1.140625 -1.546875 1.796875q-0.921875 0.640625 -1.890625 0.859375q-1.3125 0.25 -3.796875 0.25l-2.390625 0l0 6.84375l-3.65625 0zm3.65625 -15.0625l0 5.140625l2.0 0q2.171875 0 2.890625 -0.28125q0.734375 -0.28125 1.140625 -0.890625q0.421875 -0.609375 0.421875 -1.40625q0 -1.0 -0.578125 -1.640625q-0.578125 -0.640625 -1.46875 -0.796875q-0.65625 -0.125 -2.640625 -0.125l-1.765625 0zm21.862427 15.0625l0 -1.96875q-0.71875 1.046875 -1.890625 1.65625q-1.171875 0.609375 -2.46875 0.609375q-1.328125 0 -2.375 -0.578125q-1.046875 -0.578125 -1.515625 -1.625q-0.46875 -1.0625 -0.46875 -2.921875l0 -8.3125l3.46875 0l0 6.046875q0 2.765625 0.1875 3.390625q0.203125 0.625 0.703125 1.0q0.5 0.359375 1.28125 0.359375q0.890625 0 1.59375 -0.484375q0.71875 -0.5 0.96875 -1.21875q0.265625 -0.734375 0.265625 -3.546875l0 -5.546875l3.46875 0l0 13.140625l-3.21875 0zm5.5964355 -3.75l3.484375 -0.53125q0.21875 1.015625 0.90625 1.546875q0.6875 0.515625 1.90625 0.515625q1.34375 0 2.03125 -0.484375q0.453125 -0.359375 0.453125 -0.9375q0 -0.390625 -0.25 -0.65625q-0.25 -0.234375 -1.15625 -0.453125q-4.203125 -0.921875 -5.328125 -1.6875q-1.5625 -1.0625 -1.5625 -2.96875q0 -1.703125 1.34375 -2.859375q1.34375 -1.171875 4.1875 -1.171875q2.6875 0 4.0 0.890625q1.3125 0.875 1.8125 2.59375l-3.28125 0.609375q-0.21875 -0.765625 -0.8125 -1.171875q-0.578125 -0.421875 -1.65625 -0.421875q-1.375 0 -1.96875 0.390625q-0.40625 0.265625 -0.40625 0.703125q0 0.375 0.359375 0.625q0.46875 0.34375 3.234375 0.984375q2.78125 0.625 3.890625 1.546875q1.078125 0.921875 1.078125 2.578125q0 1.8125 -1.515625 3.109375q-1.5 1.296875 -4.453125 1.296875q-2.6875 0 -4.25 -1.078125q-1.5625 -1.09375 -2.046875 -2.96875zm18.773804 -14.375l0 6.65625q1.6875 -1.96875 4.015625 -1.96875q1.203125 0 2.15625 0.453125q0.96875 0.4375 1.453125 1.140625q0.5 0.6875 0.671875 1.53125q0.1875 0.84375 0.1875 2.609375l0 7.703125l-3.46875 0l0 -6.9375q0 -2.0625 -0.203125 -2.609375q-0.203125 -0.5625 -0.703125 -0.890625q-0.5 -0.328125 -1.25 -0.328125q-0.875 0 -1.5625 0.421875q-0.671875 0.40625 -0.984375 1.265625q-0.3125 0.84375 -0.3125 2.5l0 6.578125l-3.46875 0l0 -18.125l3.46875 0z" fill-rule="nonzero"/><path fill="#000000" fill-opacity="0.0" d="m749.72705 270.32022l210.2677 0" fill-rule="evenodd"/><path stroke="#595959" stroke-width="3.0" stroke-linejoin="round" stroke-linecap="butt" stroke-dasharray="12.0,9.0" d="m749.72705 270.32022l210.2677 0" fill-rule="evenodd"/><path fill="#000000" fill-opacity="0.0" d="m635.38055 233.24934l0 117.60631" fill-rule="evenodd"/><path stroke="#000000" stroke-width="4.0" stroke-linejoin="round" stroke-linecap="butt" d="m635.38055 257.24933l0 93.60632" fill-rule="evenodd"/><path fill="#000000" stroke="#000000" stroke-width="4.0" stroke-linecap="butt" d="m641.9875 257.24933l-6.6069336 -18.152374l-6.6069336 18.152374z" fill-rule="evenodd"/><path fill="#f1c232" d="m153.87465 402.05518l16.997421 0l9.658813 9.658813l0 21.994873l-31.931946 0l0 -26.37796l0 0c0 -2.9136963 2.3620148 -5.2757263 5.275711 -5.2757263z" fill-rule="evenodd"/><path stroke="#595959" stroke-width="1.0" stroke-linejoin="round" stroke-linecap="butt" d="m153.87465 402.05518l16.997421 0l9.658813 9.658813l0 21.994873l-31.931946 0l0 -26.37796l0 0c0 -2.9136963 2.3620148 -5.2757263 5.275711 -5.2757263z" fill-rule="evenodd"/><path fill="#ffe599" d="m148.59973 412.08478l0 0c0 -2.496582 2.0238953 -4.5204773 4.5204773 -4.5204773l68.3801 0c1.1989136 0 2.348709 0.47625732 3.196457 1.3240356c0.84776306 0.8477478 1.3240204 1.9975281 1.3240204 3.1964417l0 43.892c0 2.496582 -2.02388 4.5204773 -4.5204773 4.5204773l-68.3801 0c-2.496582 0 -4.5204773 -2.0238953 -4.5204773 -4.5204773z" fill-rule="evenodd"/><path stroke="#595959" stroke-width="1.0" stroke-linejoin="round" stroke-linecap="butt" d="m148.59973 412.08478l0 0c0 -2.496582 2.0238953 -4.5204773 4.5204773 -4.5204773l68.3801 0c1.1989136 0 2.348709 0.47625732 3.196457 1.3240356c0.84776306 0.8477478 1.3240204 1.9975281 1.3240204 3.1964417l0 43.892c0 2.496582 -2.02388 4.5204773 -4.5204773 4.5204773l-68.3801 0c-2.496582 0 -4.5204773 -2.0238953 -4.5204773 -4.5204773z" fill-rule="evenodd"/><path fill="#000000" fill-opacity="0.0" d="m230.6693 434.40945l36.25197 0" fill-rule="evenodd"/><path stroke="#000000" stroke-width="2.0" stroke-linejoin="round" stroke-linecap="butt" d="m230.6693 434.40945l28.671982 0" fill-rule="evenodd"/><path fill="#000000" stroke="#000000" stroke-width="2.0" stroke-linecap="butt" d="m265.92126 434.40945c0 1.8170166 -1.472992 3.2900085 -3.2900085 3.2900085c-1.8170166 0 -3.2900085 -1.472992 -3.2900085 -3.2900085c0 -1.8170166 1.472992 -3.2900085 3.2900085 -3.2900085c1.8170166 0 3.2900085 1.472992 3.2900085 3.2900085z" fill-rule="nonzero"/><path fill="#ffffff" d="m276.7382 409.90848l0 0c0 -3.6811523 2.9841614 -6.665283 6.665283 -6.665283l26.660278 0l0 0c1.7677612 0 3.4630737 0.70224 4.7130737 1.9522095c1.2499695 1.2499695 1.9522095 2.9453125 1.9522095 4.7130737l0 36.706177c0 3.6811218 -2.9841614 6.6652527 -6.665283 6.6652527l-26.660278 0c-3.6811218 0 -6.665283 -2.9841309 -6.665283 -6.6652527z" fill-rule="evenodd"/><path stroke="#000000" stroke-width="1.0" stroke-linejoin="round" stroke-linecap="butt" d="m276.7382 409.90848l0 0c0 -3.6811523 2.9841614 -6.665283 6.665283 -6.665283l26.660278 0l0 0c1.7677612 0 3.4630737 0.70224 4.7130737 1.9522095c1.2499695 1.2499695 1.9522095 2.9453125 1.9522095 4.7130737l0 36.706177c0 3.6811218 -2.9841614 6.6652527 -6.665283 6.6652527l-26.660278 0c-3.6811218 0 -6.665283 -2.9841309 -6.665283 -6.6652527z" fill-rule="evenodd"/><path fill="#f1c232" d="m278.24118 412.2669l36.984863 0c0.3986206 0 0.7809143 -0.15835571 1.0627747 -0.44021606c0.28186035 -0.28189087 0.44021606 -0.6641846 0.44021606 -1.0627747l0 -3.1178894l0 0c0 -2.4283447 -1.9685364 -4.396881 -4.396881 -4.396881l-31.197083 0c-2.4283142 0 -4.396881 1.9685364 -4.396881 4.396881l0 3.1178894l0 0c0 0.8300781 0.6729126 1.5029907 1.5029907 1.5029907z" fill-rule="evenodd"/><path stroke="#595959" stroke-width="1.0" stroke-linejoin="round" stroke-linecap="butt" d="m278.24118 412.2669l36.984863 0c0.3986206 0 0.7809143 -0.15835571 1.0627747 -0.44021606c0.28186035 -0.28189087 0.44021606 -0.6641846 0.44021606 -1.0627747l0 -3.1178894l0 0c0 -2.4283447 -1.9685364 -4.396881 -4.396881 -4.396881l-31.197083 0c-2.4283142 0 -4.396881 1.9685364 -4.396881 4.396881l0 3.1178894l0 0c0 0.8300781 0.6729126 1.5029907 1.5029907 1.5029907z" fill-rule="evenodd"/><path fill="#000000" fill-opacity="0.0" d="m280.71585 420.15744l30.673187 0" fill-rule="evenodd"/><path stroke="#000000" stroke-width="2.0" stroke-linejoin="round" stroke-linecap="butt" d="m280.71585 420.15744l30.673187 0" fill-rule="evenodd"/><path fill="#000000" fill-opacity="0.0" d="m280.71585 426.80966l30.673187 0" fill-rule="evenodd"/><path stroke="#000000" stroke-width="2.0" stroke-linejoin="round" stroke-linecap="butt" d="m280.71585 426.80966l30.673187 0" fill-rule="evenodd"/><path fill="#000000" fill-opacity="0.0" d="m280.71585 434.7468l30.673187 0" fill-rule="evenodd"/><path stroke="#000000" stroke-width="2.0" stroke-linejoin="round" stroke-linecap="butt" d="m280.71585 434.7468l30.673187 0" fill-rule="evenodd"/><path fill="#000000" fill-opacity="0.0" d="m280.71585 442.04062l30.673187 0" fill-rule="evenodd"/><path stroke="#000000" stroke-width="2.0" stroke-linejoin="round" stroke-linecap="butt" d="m280.71585 442.04062l30.673187 0" fill-rule="evenodd"/><path fill="#ffffff" d="m280.3675 416.05692l0 0c0 -3.6811218 2.9841614 -6.6652527 6.665283 -6.6652527l26.660278 0l0 0c1.7677307 0 3.4630737 0.7022095 4.7130737 1.9522095c1.2499695 1.2499695 1.9522095 2.9453125 1.9522095 4.713043l0 36.706207c0 3.6811218 -2.9841614 6.6652527 -6.665283 6.6652527l-26.660278 0c-3.6811218 0 -6.665283 -2.9841309 -6.665283 -6.6652527z" fill-rule="evenodd"/><path stroke="#000000" stroke-width="1.0" stroke-linejoin="round" stroke-linecap="butt" d="m280.3675 416.05692l0 0c0 -3.6811218 2.9841614 -6.6652527 6.665283 -6.6652527l26.660278 0l0 0c1.7677307 0 3.4630737 0.7022095 4.7130737 1.9522095c1.2499695 1.2499695 1.9522095 2.9453125 1.9522095 4.713043l0 36.706207c0 3.6811218 -2.9841614 6.6652527 -6.665283 6.6652527l-26.660278 0c-3.6811218 0 -6.665283 -2.9841309 -6.665283 -6.6652527z" fill-rule="evenodd"/><path fill="#f1c232" d="m281.87048 418.41534l36.984863 0c0.3986206 0 0.7809143 -0.15835571 1.0627747 -0.44021606c0.28186035 -0.28186035 0.44021606 -0.66415405 0.44021606 -1.0627747l0 -3.1178894l0 0c0 -2.4283142 -1.9685669 -4.3968506 -4.396881 -4.3968506l-31.197083 0c-2.4283142 0 -4.396881 1.9685364 -4.396881 4.3968506l0 3.1178894l0 0c0 0.8300781 0.6729126 1.5029907 1.5029907 1.5029907z" fill-rule="evenodd"/><path stroke="#595959" stroke-width="1.0" stroke-linejoin="round" stroke-linecap="butt" d="m281.87048 418.41534l36.984863 0c0.3986206 0 0.7809143 -0.15835571 1.0627747 -0.44021606c0.28186035 -0.28186035 0.44021606 -0.66415405 0.44021606 -1.0627747l0 -3.1178894l0 0c0 -2.4283142 -1.9685669 -4.3968506 -4.396881 -4.3968506l-31.197083 0c-2.4283142 0 -4.396881 1.9685364 -4.396881 4.3968506l0 3.1178894l0 0c0 0.8300781 0.6729126 1.5029907 1.5029907 1.5029907z" fill-rule="evenodd"/><path fill="#000000" fill-opacity="0.0" d="m284.34515 426.3059l30.673187 0" fill-rule="evenodd"/><path stroke="#000000" stroke-width="2.0" stroke-linejoin="round" stroke-linecap="butt" d="m284.34515 426.3059l30.673187 0" fill-rule="evenodd"/><path fill="#000000" fill-opacity="0.0" d="m284.34515 432.95813l30.673187 0" fill-rule="evenodd"/><path stroke="#000000" stroke-width="2.0" stroke-linejoin="round" stroke-linecap="butt" d="m284.34515 432.95813l30.673187 0" fill-rule="evenodd"/><path fill="#000000" fill-opacity="0.0" d="m284.34515 440.89526l30.673187 0" fill-rule="evenodd"/><path stroke="#000000" stroke-width="2.0" stroke-linejoin="round" stroke-linecap="butt" d="m284.34515 440.89526l30.673187 0" fill-rule="evenodd"/><path fill="#000000" fill-opacity="0.0" d="m284.34515 448.1891l30.673187 0" fill-rule="evenodd"/><path stroke="#000000" stroke-width="2.0" stroke-linejoin="round" stroke-linecap="butt" d="m284.34515 448.1891l30.673187 0" fill-rule="evenodd"/><path fill="#ffffff" d="m280.3675 416.05692l0 0c0 -3.6811218 2.9841614 -6.6652527 6.665283 -6.6652527l26.660278 0l0 0c1.7677307 0 3.4630737 0.7022095 4.7130737 1.9522095c1.2499695 1.2499695 1.9522095 2.9453125 1.9522095 4.713043l0 36.706207c0 3.6811218 -2.9841614 6.6652527 -6.665283 6.6652527l-26.660278 0c-3.6811218 0 -6.665283 -2.9841309 -6.665283 -6.6652527z" fill-rule="evenodd"/><path stroke="#000000" stroke-width="1.0" stroke-linejoin="round" stroke-linecap="butt" d="m280.3675 416.05692l0 0c0 -3.6811218 2.9841614 -6.6652527 6.665283 -6.6652527l26.660278 0l0 0c1.7677307 0 3.4630737 0.7022095 4.7130737 1.9522095c1.2499695 1.2499695 1.9522095 2.9453125 1.9522095 4.713043l0 36.706207c0 3.6811218 -2.9841614 6.6652527 -6.665283 6.6652527l-26.660278 0c-3.6811218 0 -6.665283 -2.9841309 -6.665283 -6.6652527z" fill-rule="evenodd"/><path fill="#f1c232" d="m281.87048 418.41534l36.984863 0c0.3986206 0 0.7809143 -0.15835571 1.0627747 -0.44021606c0.28186035 -0.28186035 0.44021606 -0.66415405 0.44021606 -1.0627747l0 -3.1178894l0 0c0 -2.4283142 -1.9685669 -4.3968506 -4.396881 -4.3968506l-31.197083 0c-2.4283142 0 -4.396881 1.9685364 -4.396881 4.3968506l0 3.1178894l0 0c0 0.8300781 0.6729126 1.5029907 1.5029907 1.5029907z" fill-rule="evenodd"/><path stroke="#595959" stroke-width="1.0" stroke-linejoin="round" stroke-linecap="butt" d="m281.87048 418.41534l36.984863 0c0.3986206 0 0.7809143 -0.15835571 1.0627747 -0.44021606c0.28186035 -0.28186035 0.44021606 -0.66415405 0.44021606 -1.0627747l0 -3.1178894l0 0c0 -2.4283142 -1.9685669 -4.3968506 -4.396881 -4.3968506l-31.197083 0c-2.4283142 0 -4.396881 1.9685364 -4.396881 4.3968506l0 3.1178894l0 0c0 0.8300781 0.6729126 1.5029907 1.5029907 1.5029907z" fill-rule="evenodd"/><path fill="#000000" fill-opacity="0.0" d="m284.34515 426.3059l30.673187 0" fill-rule="evenodd"/><path stroke="#000000" stroke-width="2.0" stroke-linejoin="round" stroke-linecap="butt" d="m284.34515 426.3059l30.673187 0" fill-rule="evenodd"/><path fill="#000000" fill-opacity="0.0" d="m284.34515 432.95813l30.673187 0" fill-rule="evenodd"/><path stroke="#000000" stroke-width="2.0" stroke-linejoin="round" stroke-linecap="butt" d="m284.34515 432.95813l30.673187 0" fill-rule="evenodd"/><path fill="#000000" fill-opacity="0.0" d="m284.34515 440.89526l30.673187 0" fill-rule="evenodd"/><path stroke="#000000" stroke-width="2.0" stroke-linejoin="round" stroke-linecap="butt" d="m284.34515 440.89526l30.673187 0" fill-rule="evenodd"/><path fill="#000000" fill-opacity="0.0" d="m284.34515 448.1891l30.673187 0" fill-rule="evenodd"/><path stroke="#000000" stroke-width="2.0" stroke-linejoin="round" stroke-linecap="butt" d="m284.34515 448.1891l30.673187 0" fill-rule="evenodd"/><path fill="#ffffff" d="m283.9968 422.20538l0 0c0 -3.6811218 2.9841614 -6.665283 6.665283 -6.665283l26.660278 0l0 0c1.7677307 0 3.4630737 0.70224 4.7130737 1.95224c1.2499695 1.2499695 1.9522095 2.9453125 1.9522095 4.713043l0 36.706177c0 3.6811218 -2.9841614 6.665283 -6.665283 6.665283l-26.660278 0c-3.6811218 0 -6.665283 -2.9841614 -6.665283 -6.665283z" fill-rule="evenodd"/><path stroke="#000000" stroke-width="1.0" stroke-linejoin="round" stroke-linecap="butt" d="m283.9968 422.20538l0 0c0 -3.6811218 2.9841614 -6.665283 6.665283 -6.665283l26.660278 0l0 0c1.7677307 0 3.4630737 0.70224 4.7130737 1.95224c1.2499695 1.2499695 1.9522095 2.9453125 1.9522095 4.713043l0 36.706177c0 3.6811218 -2.9841614 6.665283 -6.665283 6.665283l-26.660278 0c-3.6811218 0 -6.665283 -2.9841614 -6.665283 -6.665283z" fill-rule="evenodd"/><path fill="#f1c232" d="m285.4998 424.5638l36.984863 0c0.3986206 0 0.7809143 -0.15835571 1.0627747 -0.44021606c0.28186035 -0.28186035 0.44021606 -0.66415405 0.44021606 -1.0627747l0 -3.1178894l0 0c0 -2.4283142 -1.9685669 -4.396881 -4.396881 -4.396881l-31.197083 0c-2.4283142 0 -4.396881 1.9685669 -4.396881 4.396881l0 3.1178894l0 0c0 0.8300781 0.6729126 1.5029907 1.5029907 1.5029907z" fill-rule="evenodd"/><path stroke="#595959" stroke-width="1.0" stroke-linejoin="round" stroke-linecap="butt" d="m285.4998 424.5638l36.984863 0c0.3986206 0 0.7809143 -0.15835571 1.0627747 -0.44021606c0.28186035 -0.28186035 0.44021606 -0.66415405 0.44021606 -1.0627747l0 -3.1178894l0 0c0 -2.4283142 -1.9685669 -4.396881 -4.396881 -4.396881l-31.197083 0c-2.4283142 0 -4.396881 1.9685669 -4.396881 4.396881l0 3.1178894l0 0c0 0.8300781 0.6729126 1.5029907 1.5029907 1.5029907z" fill-rule="evenodd"/><path fill="#000000" fill-opacity="0.0" d="m287.97446 432.45438l30.673187 0" fill-rule="evenodd"/><path stroke="#000000" stroke-width="2.0" stroke-linejoin="round" stroke-linecap="butt" d="m287.97446 432.45438l30.673187 0" fill-rule="evenodd"/><path fill="#000000" fill-opacity="0.0" d="m287.97446 439.1066l30.673187 0" fill-rule="evenodd"/><path stroke="#000000" stroke-width="2.0" stroke-linejoin="round" stroke-linecap="butt" d="m287.97446 439.1066l30.673187 0" fill-rule="evenodd"/><path fill="#000000" fill-opacity="0.0" d="m287.97446 447.04373l30.673187 0" fill-rule="evenodd"/><path stroke="#000000" stroke-width="2.0" stroke-linejoin="round" stroke-linecap="butt" d="m287.97446 447.04373l30.673187 0" fill-rule="evenodd"/><path fill="#000000" fill-opacity="0.0" d="m287.97446 454.33752l30.673187 0" fill-rule="evenodd"/><path stroke="#000000" stroke-width="2.0" stroke-linejoin="round" stroke-linecap="butt" d="m287.97446 454.33752l30.673187 0" fill-rule="evenodd"/><path fill="#f1c232" d="m612.85364 402.05518l16.997437 0l9.658813 9.658813l0 21.994873l-31.931946 0l0 -26.37796l0 0c0 -2.9136963 2.3619995 -5.2757263 5.275696 -5.2757263z" fill-rule="evenodd"/><path stroke="#595959" stroke-width="1.0" stroke-linejoin="round" stroke-linecap="butt" d="m612.85364 402.05518l16.997437 0l9.658813 9.658813l0 21.994873l-31.931946 0l0 -26.37796l0 0c0 -2.9136963 2.3619995 -5.2757263 5.275696 -5.2757263z" fill-rule="evenodd"/><path fill="#ffe599" d="m607.57874 412.08478l0 0c0 -2.496582 2.0238647 -4.5204773 4.520447 -4.5204773l68.38013 0c1.1989136 0 2.3486938 0.47625732 3.1964722 1.3240356c0.8477173 0.8477478 1.3240356 1.9975281 1.3240356 3.1964417l0 43.892c0 2.496582 -2.0239258 4.5204773 -4.520508 4.5204773l-68.38013 0c-2.496582 0 -4.520447 -2.0238953 -4.520447 -4.5204773z" fill-rule="evenodd"/><path stroke="#595959" stroke-width="1.0" stroke-linejoin="round" stroke-linecap="butt" d="m607.57874 412.08478l0 0c0 -2.496582 2.0238647 -4.5204773 4.520447 -4.5204773l68.38013 0c1.1989136 0 2.3486938 0.47625732 3.1964722 1.3240356c0.8477173 0.8477478 1.3240356 1.9975281 1.3240356 3.1964417l0 43.892c0 2.496582 -2.0239258 4.5204773 -4.520508 4.5204773l-68.38013 0c-2.496582 0 -4.520447 -2.0238953 -4.520447 -4.5204773z" fill-rule="evenodd"/><path fill="#000000" fill-opacity="0.0" d="m602.7583 415.7953l85.25989 0l0 18.614166l-85.25989 0z" fill-rule="evenodd"/><path fill="#000000" d="m624.4476 442.71527l0 -13.359375l1.78125 0l0 11.78125l6.5625 0l0 1.578125l-8.34375 0zm9.641357 -4.84375q0 -2.6875 1.484375 -3.96875q1.25 -1.078125 3.046875 -1.078125q2.0 0 3.265625 1.3125q1.265625 1.296875 1.265625 3.609375q0 1.859375 -0.5625 2.9375q-0.5625 1.0625 -1.640625 1.65625q-1.0625 0.59375 -2.328125 0.59375q-2.03125 0 -3.28125 -1.296875q-1.25 -1.3125 -1.25 -3.765625zm1.6875 0q0 1.859375 0.796875 2.796875q0.8125 0.921875 2.046875 0.921875q1.21875 0 2.03125 -0.921875q0.8125 -0.9375 0.8125 -2.84375q0 -1.796875 -0.8125 -2.71875q-0.8125 -0.921875 -2.03125 -0.921875q-1.234375 0 -2.046875 0.921875q-0.796875 0.90625 -0.796875 2.765625zm15.610107 1.296875l1.609375 0.21875q-0.265625 1.65625 -1.359375 2.609375q-1.078125 0.9375 -2.671875 0.9375q-1.984375 0 -3.1875 -1.296875q-1.203125 -1.296875 -1.203125 -3.71875q0 -1.578125 0.515625 -2.75q0.515625 -1.171875 1.578125 -1.75q1.0625 -0.59375 2.3125 -0.59375q1.578125 0 2.578125 0.796875q1.0 0.796875 1.28125 2.265625l-1.59375 0.234375q-0.234375 -0.96875 -0.8125 -1.453125q-0.578125 -0.5 -1.390625 -0.5q-1.234375 0 -2.015625 0.890625q-0.78125 0.890625 -0.78125 2.8125q0 1.953125 0.75 2.84375q0.75 0.875 1.953125 0.875q0.96875 0 1.609375 -0.59375q0.65625 -0.59375 0.828125 -1.828125zm9.328125 2.359375q-0.921875 0.765625 -1.765625 1.09375q-0.828125 0.3125 -1.796875 0.3125q-1.59375 0 -2.453125 -0.78125q-0.859375 -0.78125 -0.859375 -1.984375q0 -0.71875 0.328125 -1.296875q0.328125 -0.59375 0.84375 -0.9375q0.53125 -0.359375 1.1875 -0.546875q0.46875 -0.125 1.453125 -0.25q1.984375 -0.234375 2.921875 -0.5625q0.015625 -0.34375 0.015625 -0.421875q0 -1.0 -0.46875 -1.421875q-0.625 -0.546875 -1.875 -0.546875q-1.15625 0 -1.703125 0.40625q-0.546875 0.40625 -0.8125 1.421875l-1.609375 -0.21875q0.21875 -1.015625 0.71875 -1.640625q0.5 -0.640625 1.453125 -0.984375q0.953125 -0.34375 2.1875 -0.34375q1.25 0 2.015625 0.296875q0.78125 0.28125 1.140625 0.734375q0.375 0.4375 0.515625 1.109375q0.078125 0.421875 0.078125 1.515625l0 2.1875q0 2.28125 0.109375 2.890625q0.109375 0.59375 0.40625 1.15625l-1.703125 0q-0.265625 -0.515625 -0.328125 -1.1875zm-0.140625 -3.671875q-0.890625 0.375 -2.671875 0.625q-1.015625 0.140625 -1.4375 0.328125q-0.421875 0.1875 -0.65625 0.53125q-0.21875 0.34375 -0.21875 0.78125q0 0.65625 0.5 1.09375q0.5 0.4375 1.453125 0.4375q0.9375 0 1.671875 -0.40625q0.75 -0.421875 1.09375 -1.140625q0.265625 -0.5625 0.265625 -1.640625l0 -0.609375zm4.1569214 4.859375l0 -13.359375l1.640625 0l0 13.359375l-1.640625 0z" fill-rule="nonzero"/><path fill="#000000" fill-opacity="0.0" d="m689.6483 434.40945l36.251953 0" fill-rule="evenodd"/><path stroke="#000000" stroke-width="2.0" stroke-linejoin="round" stroke-linecap="butt" d="m689.6483 434.40945l28.671997 0" fill-rule="evenodd"/><path fill="#000000" stroke="#000000" stroke-width="2.0" stroke-linecap="butt" d="m724.90027 434.40945c0 1.8170166 -1.4729614 3.2900085 -3.289978 3.2900085c-1.8170166 0 -3.290039 -1.472992 -3.290039 -3.2900085c0 -1.8170166 1.4730225 -3.2900085 3.290039 -3.2900085c1.8170166 0 3.289978 1.472992 3.289978 3.2900085z" fill-rule="nonzero"/><path fill="#000000" fill-opacity="0.0" d="m712.5381 363.29135l173.4173 0l0 16.75589l-173.4173 0z" fill-rule="evenodd"/><path fill="#000000" d="m722.14746 388.96725l2.015625 -9.671875l1.65625 0l-0.34375 1.59375q0.921875 -1.03125 1.640625 -1.421875q0.734375 -0.390625 1.578125 -0.390625q0.90625 0 1.515625 0.484375q0.609375 0.46875 0.796875 1.328125q0.734375 -0.90625 1.546875 -1.359375q0.8125 -0.453125 1.71875 -0.453125q1.21875 0 1.8125 0.578125q0.609375 0.5625 0.609375 1.609375q0 0.4375 -0.203125 1.46875l-1.3125 6.234375l-1.640625 0l1.328125 -6.390625q0.171875 -0.78125 0.171875 -1.125q0 -0.46875 -0.296875 -0.734375q-0.296875 -0.28125 -0.84375 -0.28125q-0.75 0 -1.515625 0.453125q-0.765625 0.4375 -1.1875 1.171875q-0.421875 0.71875 -0.734375 2.21875l-0.984375 4.6875l-1.65625 0l1.375 -6.53125q0.140625 -0.671875 0.140625 -0.953125q0 -0.46875 -0.296875 -0.75q-0.296875 -0.296875 -0.765625 -0.296875q-0.703125 0 -1.484375 0.453125q-0.765625 0.4375 -1.25 1.234375q-0.46875 0.796875 -0.78125 2.265625l-0.953125 4.578125l-1.65625 0zm14.9313965 3.734375l0.09375 -1.546875q0.515625 0.140625 1.0 0.140625q0.5 0 0.8125 -0.21875q0.40625 -0.3125 0.875 -1.140625l0.53125 -0.9375l-1.625 -9.703125l1.625 0l0.734375 4.890625q0.21875 1.453125 0.375 2.890625l4.328125 -7.78125l1.71875 0l-6.171875 10.953125q-0.890625 1.609375 -1.59375 2.125q-0.6875 0.515625 -1.578125 0.515625q-0.578125 0 -1.125 -0.1875zm10.171875 -3.734375l2.796875 -13.359375l8.671875 0l-0.3125 1.53125l-6.90625 0l-0.875 4.25l7.015625 0l-0.3125 1.515625l-7.015625 0l-1.28125 6.0625l-1.78125 0zm13.505371 -11.484375l0.40625 -1.875l1.625 0l-0.390625 1.875l-1.640625 0zm-2.390625 11.484375l2.015625 -9.671875l1.65625 0l-2.03125 9.671875l-1.640625 0zm4.0667114 0l2.796875 -13.359375l1.640625 0l-2.78125 13.359375l-1.65625 0zm11.37915 -3.28125l1.609375 0.15625q-0.34375 1.1875 -1.59375 2.265625q-1.234375 1.078125 -2.96875 1.078125q-1.0625 0 -1.96875 -0.5q-0.890625 -0.5 -1.359375 -1.4375q-0.46875 -0.953125 -0.46875 -2.15625q0 -1.59375 0.734375 -3.078125q0.734375 -1.484375 1.890625 -2.203125q1.171875 -0.734375 2.53125 -0.734375q1.734375 0 2.765625 1.078125q1.03125 1.0625 1.03125 2.921875q0 0.71875 -0.125 1.46875l-7.125 0q-0.046875 0.28125 -0.046875 0.5q0 1.359375 0.625 2.078125q0.625 0.71875 1.53125 0.71875q0.84375 0 1.65625 -0.546875q0.828125 -0.5625 1.28125 -1.609375zm-4.78125 -2.40625l5.421875 0q0.015625 -0.25 0.015625 -0.359375q0 -1.234375 -0.625 -1.890625q-0.625 -0.671875 -1.59375 -0.671875q-1.0625 0 -1.9375 0.734375q-0.859375 0.71875 -1.28125 2.1875zm8.516357 5.6875l0.390625 -1.875l1.859375 0l-0.390625 1.875l-1.859375 0zm8.573914 -1.34375l-0.265625 1.359375q-0.59375 0.140625 -1.15625 0.140625q-0.984375 0 -1.5625 -0.46875q-0.4375 -0.375 -0.4375 -1.0q0 -0.3125 0.234375 -1.46875l1.171875 -5.625l-1.296875 0l0.265625 -1.265625l1.296875 0l0.5 -2.375l1.890625 -1.140625l-0.734375 3.515625l1.625 0l-0.28125 1.265625l-1.609375 0l-1.125 5.359375q-0.203125 1.015625 -0.203125 1.21875q0 0.28125 0.15625 0.4375q0.171875 0.15625 0.5625 0.15625q0.546875 0 0.96875 -0.109375zm0.6833496 1.34375l4.21875 -4.90625l-2.421875 -4.765625l1.828125 0l0.8125 1.71875q0.453125 0.96875 0.828125 1.84375l2.78125 -3.5625l2.015625 0l-4.0625 4.890625l2.4375 4.78125l-1.8125 0l-0.96875 -1.96875q-0.3125 -0.625 -0.703125 -1.5625l-2.875 3.53125l-2.078125 0zm13.828125 -1.34375l-0.265625 1.359375q-0.59375 0.140625 -1.15625 0.140625q-0.984375 0 -1.5625 -0.46875q-0.4375 -0.375 -0.4375 -1.0q0 -0.3125 0.234375 -1.46875l1.171875 -5.625l-1.296875 0l0.265625 -1.265625l1.296875 0l0.5 -2.375l1.890625 -1.140625l-0.734375 3.515625l1.625 0l-0.28125 1.265625l-1.609375 0l-1.125 5.359375q-0.203125 1.015625 -0.203125 1.21875q0 0.28125 0.15625 0.4375q0.171875 0.15625 0.5625 0.15625q0.546875 0 0.96875 -0.109375zm8.897827 5.265625q-1.421875 -3.125 -1.421875 -6.4375q0 -2.203125 0.578125 -4.09375q0.578125 -1.90625 1.765625 -3.765625q0.78125 -1.234375 2.5 -3.203125l1.28125 0q-1.0625 1.140625 -2.25 3.203125q-1.1875 2.0625 -1.734375 4.0625q-0.53125 2.0 -0.53125 4.0q0 3.015625 1.046875 6.234375l-1.234375 0zm10.9314575 -7.203125l1.609375 0.15625q-0.34375 1.1875 -1.59375 2.265625q-1.234375 1.078125 -2.96875 1.078125q-1.0625 0 -1.96875 -0.5q-0.890625 -0.5 -1.359375 -1.4375q-0.46875 -0.953125 -0.46875 -2.15625q0 -1.59375 0.734375 -3.078125q0.734375 -1.484375 1.890625 -2.203125q1.171875 -0.734375 2.53125 -0.734375q1.734375 0 2.765625 1.078125q1.03125 1.0625 1.03125 2.921875q0 0.71875 -0.125 1.46875l-7.125 0q-0.046875 0.28125 -0.046875 0.5q0 1.359375 0.625 2.078125q0.625 0.71875 1.53125 0.71875q0.84375 0 1.65625 -0.546875q0.828125 -0.5625 1.28125 -1.609375zm-4.78125 -2.40625l5.421875 0q0.015625 -0.25 0.015625 -0.359375q0 -1.234375 -0.625 -1.890625q-0.625 -0.671875 -1.59375 -0.671875q-1.0625 0 -1.9375 0.734375q-0.859375 0.71875 -1.28125 2.1875zm14.578796 4.28125q-1.40625 1.625 -2.953125 1.625q-1.375 0 -2.296875 -1.015625q-0.90625 -1.015625 -0.90625 -2.953125q0 -1.765625 0.71875 -3.21875q0.734375 -1.46875 1.8125 -2.1875q1.09375 -0.734375 2.1875 -0.734375q1.796875 0 2.71875 1.734375l1.09375 -5.203125l1.640625 0l-2.78125 13.359375l-1.53125 0l0.296875 -1.40625zm-4.515625 -2.640625q0 1.0 0.203125 1.59375q0.203125 0.578125 0.671875 0.96875q0.484375 0.375 1.171875 0.375q1.109375 0 2.03125 -1.15625q1.21875 -1.546875 1.21875 -3.828125q0 -1.140625 -0.609375 -1.78125q-0.59375 -0.65625 -1.515625 -0.65625q-0.59375 0 -1.078125 0.265625q-0.484375 0.265625 -0.96875 0.90625q-0.46875 0.625 -0.796875 1.59375q-0.328125 0.96875 -0.328125 1.71875zm10.703857 -7.4375l0.40625 -1.875l1.625 0l-0.390625 1.875l-1.640625 0zm-2.390625 11.484375l2.015625 -9.671875l1.65625 0l-2.03125 9.671875l-1.640625 0zm8.051086 -1.34375l-0.265625 1.359375q-0.59375 0.140625 -1.15625 0.140625q-0.984375 0 -1.5625 -0.46875q-0.4375 -0.375 -0.4375 -1.0q0 -0.3125 0.234375 -1.46875l1.171875 -5.625l-1.296875 0l0.265625 -1.265625l1.296875 0l0.5 -2.375l1.890625 -1.140625l-0.734375 3.515625l1.625 0l-0.28125 1.265625l-1.609375 0l-1.125 5.359375q-0.203125 1.015625 -0.203125 1.21875q0 0.28125 0.15625 0.4375q0.171875 0.15625 0.5625 0.15625q0.546875 0 0.96875 -0.109375zm8.433289 -1.9375l1.609375 0.15625q-0.34375 1.1875 -1.59375 2.265625q-1.234375 1.078125 -2.96875 1.078125q-1.0625 0 -1.96875 -0.5q-0.890625 -0.5 -1.359375 -1.4375q-0.46875 -0.953125 -0.46875 -2.15625q0 -1.59375 0.734375 -3.078125q0.734375 -1.484375 1.890625 -2.203125q1.171875 -0.734375 2.53125 -0.734375q1.734375 0 2.765625 1.078125q1.03125 1.0625 1.03125 2.921875q0 0.71875 -0.125 1.46875l-7.125 0q-0.046875 0.28125 -0.046875 0.5q0 1.359375 0.625 2.078125q0.625 0.71875 1.53125 0.71875q0.84375 0 1.65625 -0.546875q0.828125 -0.5625 1.28125 -1.609375zm-4.78125 -2.40625l5.421875 0q0.015625 -0.25 0.015625 -0.359375q0 -1.234375 -0.625 -1.890625q-0.625 -0.671875 -1.59375 -0.671875q-1.0625 0 -1.9375 0.734375q-0.859375 0.71875 -1.28125 2.1875zm14.578857 4.28125q-1.40625 1.625 -2.953125 1.625q-1.375 0 -2.296875 -1.015625q-0.90625 -1.015625 -0.90625 -2.953125q0 -1.765625 0.71875 -3.21875q0.734375 -1.46875 1.8125 -2.1875q1.09375 -0.734375 2.1875 -0.734375q1.796875 0 2.71875 1.734375l1.09375 -5.203125l1.640625 0l-2.78125 13.359375l-1.53125 0l0.296875 -1.40625zm-4.515625 -2.640625q0 1.0 0.203125 1.59375q0.203125 0.578125 0.671875 0.96875q0.484375 0.375 1.171875 0.375q1.109375 0 2.03125 -1.15625q1.21875 -1.546875 1.21875 -3.828125q0 -1.140625 -0.609375 -1.78125q-0.59375 -0.65625 -1.515625 -0.65625q-0.59375 0 -1.078125 0.265625q-0.484375 0.265625 -0.96875 0.90625q-0.46875 0.625 -0.796875 1.59375q-0.328125 0.96875 -0.328125 1.71875zm11.453857 -9.53125q1.4375 3.125 1.4375 6.421875q0 2.21875 -0.578125 4.125q-0.578125 1.890625 -1.765625 3.75q-0.796875 1.234375 -2.5 3.203125l-1.296875 0q1.0625 -1.140625 2.25 -3.21875q1.203125 -2.0625 1.734375 -4.046875q0.53125 -2.0 0.53125 -4.015625q0 -3.0 -1.046875 -6.21875l1.234375 0z" fill-rule="nonzero"/><path fill="#ffffff" d="m735.7172 409.90848l0 0c0 -3.6811523 2.9841309 -6.665283 6.665283 -6.665283l26.660278 0l0 0c1.7677002 0 3.4630737 0.70224 4.7130127 1.9522095c1.25 1.2499695 1.9522095 2.9453125 1.9522095 4.7130737l0 36.706177c0 3.6811218 -2.9841309 6.6652527 -6.665222 6.6652527l-26.660278 0c-3.6811523 0 -6.665283 -2.9841309 -6.665283 -6.6652527z" fill-rule="evenodd"/><path stroke="#000000" stroke-width="1.0" stroke-linejoin="round" stroke-linecap="butt" d="m735.7172 409.90848l0 0c0 -3.6811523 2.9841309 -6.665283 6.665283 -6.665283l26.660278 0l0 0c1.7677002 0 3.4630737 0.70224 4.7130127 1.9522095c1.25 1.2499695 1.9522095 2.9453125 1.9522095 4.7130737l0 36.706177c0 3.6811218 -2.9841309 6.6652527 -6.665222 6.6652527l-26.660278 0c-3.6811523 0 -6.665283 -2.9841309 -6.665283 -6.6652527z" fill-rule="evenodd"/><path fill="#f1c232" d="m737.2202 412.2669l36.984802 0c0.3986206 0 0.7809448 -0.15835571 1.0628052 -0.44021606c0.28186035 -0.28189087 0.44018555 -0.6641846 0.44018555 -1.0627747l0 -3.1178894l0 0c0 -2.4283447 -1.9685059 -4.396881 -4.3968506 -4.396881l-31.197083 0c-2.4283447 0 -4.3968506 1.9685364 -4.3968506 4.396881l0 3.1178894l0 0c0 0.8300781 0.6729126 1.5029907 1.5029907 1.5029907z" fill-rule="evenodd"/><path stroke="#595959" stroke-width="1.0" stroke-linejoin="round" stroke-linecap="butt" d="m737.2202 412.2669l36.984802 0c0.3986206 0 0.7809448 -0.15835571 1.0628052 -0.44021606c0.28186035 -0.28189087 0.44018555 -0.6641846 0.44018555 -1.0627747l0 -3.1178894l0 0c0 -2.4283447 -1.9685059 -4.396881 -4.3968506 -4.396881l-31.197083 0c-2.4283447 0 -4.3968506 1.9685364 -4.3968506 4.396881l0 3.1178894l0 0c0 0.8300781 0.6729126 1.5029907 1.5029907 1.5029907z" fill-rule="evenodd"/><path fill="#000000" fill-opacity="0.0" d="m739.6948 420.15744l30.673218 0" fill-rule="evenodd"/><path stroke="#000000" stroke-width="2.0" stroke-linejoin="round" stroke-linecap="butt" d="m739.6948 420.15744l30.673218 0" fill-rule="evenodd"/><path fill="#000000" fill-opacity="0.0" d="m739.6948 426.80966l30.673218 0" fill-rule="evenodd"/><path stroke="#000000" stroke-width="2.0" stroke-linejoin="round" stroke-linecap="butt" d="m739.6948 426.80966l30.673218 0" fill-rule="evenodd"/><path fill="#000000" fill-opacity="0.0" d="m739.6948 434.7468l30.673218 0" fill-rule="evenodd"/><path stroke="#000000" stroke-width="2.0" stroke-linejoin="round" stroke-linecap="butt" d="m739.6948 434.7468l30.673218 0" fill-rule="evenodd"/><path fill="#000000" fill-opacity="0.0" d="m739.6948 442.04062l30.673218 0" fill-rule="evenodd"/><path stroke="#000000" stroke-width="2.0" stroke-linejoin="round" stroke-linecap="butt" d="m739.6948 442.04062l30.673218 0" fill-rule="evenodd"/><path fill="#ffffff" d="m739.3465 416.05692l0 0c0 -3.6811218 2.9841309 -6.6652527 6.665283 -6.6652527l26.660278 0l0 0c1.7677612 0 3.4630737 0.7022095 4.7130737 1.9522095c1.249939 1.2499695 1.9522095 2.9453125 1.9522095 4.713043l0 36.706207c0 3.6811218 -2.9841309 6.6652527 -6.665283 6.6652527l-26.660278 0c-3.6811523 0 -6.665283 -2.9841309 -6.665283 -6.6652527z" fill-rule="evenodd"/><path stroke="#000000" stroke-width="1.0" stroke-linejoin="round" stroke-linecap="butt" d="m739.3465 416.05692l0 0c0 -3.6811218 2.9841309 -6.6652527 6.665283 -6.6652527l26.660278 0l0 0c1.7677612 0 3.4630737 0.7022095 4.7130737 1.9522095c1.249939 1.2499695 1.9522095 2.9453125 1.9522095 4.713043l0 36.706207c0 3.6811218 -2.9841309 6.6652527 -6.665283 6.6652527l-26.660278 0c-3.6811523 0 -6.665283 -2.9841309 -6.665283 -6.6652527z" fill-rule="evenodd"/><path fill="#f1c232" d="m740.8495 418.41534l36.984863 0c0.3986206 0 0.7808838 -0.15835571 1.0627441 -0.44021606c0.28186035 -0.28186035 0.44024658 -0.66415405 0.44024658 -1.0627747l0 -3.1178894l0 0c0 -2.4283142 -1.9685669 -4.3968506 -4.3969116 -4.3968506l-31.197021 0c-2.4283447 0 -4.3969116 1.9685364 -4.3969116 4.3968506l0 3.1178894l0 0c0 0.8300781 0.6729126 1.5029907 1.5029907 1.5029907z" fill-rule="evenodd"/><path stroke="#595959" stroke-width="1.0" stroke-linejoin="round" stroke-linecap="butt" d="m740.8495 418.41534l36.984863 0c0.3986206 0 0.7808838 -0.15835571 1.0627441 -0.44021606c0.28186035 -0.28186035 0.44024658 -0.66415405 0.44024658 -1.0627747l0 -3.1178894l0 0c0 -2.4283142 -1.9685669 -4.3968506 -4.3969116 -4.3968506l-31.197021 0c-2.4283447 0 -4.3969116 1.9685364 -4.3969116 4.3968506l0 3.1178894l0 0c0 0.8300781 0.6729126 1.5029907 1.5029907 1.5029907z" fill-rule="evenodd"/><path fill="#000000" fill-opacity="0.0" d="m743.32416 426.3059l30.673157 0" fill-rule="evenodd"/><path stroke="#000000" stroke-width="2.0" stroke-linejoin="round" stroke-linecap="butt" d="m743.32416 426.3059l30.673157 0" fill-rule="evenodd"/><path fill="#000000" fill-opacity="0.0" d="m743.32416 432.95813l30.673157 0" fill-rule="evenodd"/><path stroke="#000000" stroke-width="2.0" stroke-linejoin="round" stroke-linecap="butt" d="m743.32416 432.95813l30.673157 0" fill-rule="evenodd"/><path fill="#000000" fill-opacity="0.0" d="m743.32416 440.89526l30.673157 0" fill-rule="evenodd"/><path stroke="#000000" stroke-width="2.0" stroke-linejoin="round" stroke-linecap="butt" d="m743.32416 440.89526l30.673157 0" fill-rule="evenodd"/><path fill="#000000" fill-opacity="0.0" d="m743.32416 448.1891l30.673157 0" fill-rule="evenodd"/><path stroke="#000000" stroke-width="2.0" stroke-linejoin="round" stroke-linecap="butt" d="m743.32416 448.1891l30.673157 0" fill-rule="evenodd"/><path fill="#ffffff" d="m739.3465 416.05692l0 0c0 -3.6811218 2.9841309 -6.6652527 6.665283 -6.6652527l26.660278 0l0 0c1.7677612 0 3.4630737 0.7022095 4.7130737 1.9522095c1.249939 1.2499695 1.9522095 2.9453125 1.9522095 4.713043l0 36.706207c0 3.6811218 -2.9841309 6.6652527 -6.665283 6.6652527l-26.660278 0c-3.6811523 0 -6.665283 -2.9841309 -6.665283 -6.6652527z" fill-rule="evenodd"/><path stroke="#000000" stroke-width="1.0" stroke-linejoin="round" stroke-linecap="butt" d="m739.3465 416.05692l0 0c0 -3.6811218 2.9841309 -6.6652527 6.665283 -6.6652527l26.660278 0l0 0c1.7677612 0 3.4630737 0.7022095 4.7130737 1.9522095c1.249939 1.2499695 1.9522095 2.9453125 1.9522095 4.713043l0 36.706207c0 3.6811218 -2.9841309 6.6652527 -6.665283 6.6652527l-26.660278 0c-3.6811523 0 -6.665283 -2.9841309 -6.665283 -6.6652527z" fill-rule="evenodd"/><path fill="#f1c232" d="m740.8495 418.41534l36.984863 0c0.3986206 0 0.7808838 -0.15835571 1.0627441 -0.44021606c0.28186035 -0.28186035 0.44024658 -0.66415405 0.44024658 -1.0627747l0 -3.1178894l0 0c0 -2.4283142 -1.9685669 -4.3968506 -4.3969116 -4.3968506l-31.197021 0c-2.4283447 0 -4.3969116 1.9685364 -4.3969116 4.3968506l0 3.1178894l0 0c0 0.8300781 0.6729126 1.5029907 1.5029907 1.5029907z" fill-rule="evenodd"/><path stroke="#595959" stroke-width="1.0" stroke-linejoin="round" stroke-linecap="butt" d="m740.8495 418.41534l36.984863 0c0.3986206 0 0.7808838 -0.15835571 1.0627441 -0.44021606c0.28186035 -0.28186035 0.44024658 -0.66415405 0.44024658 -1.0627747l0 -3.1178894l0 0c0 -2.4283142 -1.9685669 -4.3968506 -4.3969116 -4.3968506l-31.197021 0c-2.4283447 0 -4.3969116 1.9685364 -4.3969116 4.3968506l0 3.1178894l0 0c0 0.8300781 0.6729126 1.5029907 1.5029907 1.5029907z" fill-rule="evenodd"/><path fill="#000000" fill-opacity="0.0" d="m743.32416 426.3059l30.673157 0" fill-rule="evenodd"/><path stroke="#000000" stroke-width="2.0" stroke-linejoin="round" stroke-linecap="butt" d="m743.32416 426.3059l30.673157 0" fill-rule="evenodd"/><path fill="#000000" fill-opacity="0.0" d="m743.32416 432.95813l30.673157 0" fill-rule="evenodd"/><path stroke="#000000" stroke-width="2.0" stroke-linejoin="round" stroke-linecap="butt" d="m743.32416 432.95813l30.673157 0" fill-rule="evenodd"/><path fill="#000000" fill-opacity="0.0" d="m743.32416 440.89526l30.673157 0" fill-rule="evenodd"/><path stroke="#000000" stroke-width="2.0" stroke-linejoin="round" stroke-linecap="butt" d="m743.32416 440.89526l30.673157 0" fill-rule="evenodd"/><path fill="#000000" fill-opacity="0.0" d="m743.32416 448.1891l30.673157 0" fill-rule="evenodd"/><path stroke="#000000" stroke-width="2.0" stroke-linejoin="round" stroke-linecap="butt" d="m743.32416 448.1891l30.673157 0" fill-rule="evenodd"/><path fill="#ffffff" d="m742.9758 422.20538l0 0c0 -3.6811218 2.9841309 -6.665283 6.665222 -6.665283l26.660278 0l0 0c1.7677612 0 3.4631348 0.70224 4.7130737 1.95224c1.25 1.2499695 1.9522095 2.9453125 1.9522095 4.713043l0 36.706177c0 3.6811218 -2.9841309 6.665283 -6.665283 6.665283l-26.660278 0c-3.6810913 0 -6.665222 -2.9841614 -6.665222 -6.665283z" fill-rule="evenodd"/><path stroke="#000000" stroke-width="1.0" stroke-linejoin="round" stroke-linecap="butt" d="m742.9758 422.20538l0 0c0 -3.6811218 2.9841309 -6.665283 6.665222 -6.665283l26.660278 0l0 0c1.7677612 0 3.4631348 0.70224 4.7130737 1.95224c1.25 1.2499695 1.9522095 2.9453125 1.9522095 4.713043l0 36.706177c0 3.6811218 -2.9841309 6.665283 -6.665283 6.665283l-26.660278 0c-3.6810913 0 -6.665222 -2.9841614 -6.665222 -6.665283z" fill-rule="evenodd"/><path fill="#f1c232" d="m744.4788 424.5638l36.984802 0c0.3986206 0 0.7809448 -0.15835571 1.0628052 -0.44021606c0.28186035 -0.28186035 0.44018555 -0.66415405 0.44018555 -1.0627747l0 -3.1178894l0 0c0 -2.4283142 -1.9685059 -4.396881 -4.3968506 -4.396881l-31.197083 0c-2.4283447 0 -4.3968506 1.9685669 -4.3968506 4.396881l0 3.1178894l0 0c0 0.8300781 0.6729126 1.5029907 1.5029907 1.5029907z" fill-rule="evenodd"/><path stroke="#595959" stroke-width="1.0" stroke-linejoin="round" stroke-linecap="butt" d="m744.4788 424.5638l36.984802 0c0.3986206 0 0.7809448 -0.15835571 1.0628052 -0.44021606c0.28186035 -0.28186035 0.44018555 -0.66415405 0.44018555 -1.0627747l0 -3.1178894l0 0c0 -2.4283142 -1.9685059 -4.396881 -4.3968506 -4.396881l-31.197083 0c-2.4283447 0 -4.3968506 1.9685669 -4.3968506 4.396881l0 3.1178894l0 0c0 0.8300781 0.6729126 1.5029907 1.5029907 1.5029907z" fill-rule="evenodd"/><path fill="#000000" fill-opacity="0.0" d="m746.9534 432.45438l30.673218 0" fill-rule="evenodd"/><path stroke="#cc0000" stroke-width="2.0" stroke-linejoin="round" stroke-linecap="butt" d="m746.9534 432.45438l30.673218 0" fill-rule="evenodd"/><path fill="#000000" fill-opacity="0.0" d="m746.9534 439.1066l30.673218 0" fill-rule="evenodd"/><path stroke="#cc0000" stroke-width="2.0" stroke-linejoin="round" stroke-linecap="butt" d="m746.9534 439.1066l30.673218 0" fill-rule="evenodd"/><path fill="#000000" fill-opacity="0.0" d="m746.9534 447.04373l30.673218 0" fill-rule="evenodd"/><path stroke="#0000ff" stroke-width="2.0" stroke-linejoin="round" stroke-linecap="butt" d="m746.9534 447.04373l30.673218 0" fill-rule="evenodd"/><path fill="#000000" fill-opacity="0.0" d="m746.9534 454.33752l30.673218 0" fill-rule="evenodd"/><path stroke="#0000ff" stroke-width="2.0" stroke-linejoin="round" stroke-linecap="butt" d="m746.9534 454.33752l30.673218 0" fill-rule="evenodd"/><path fill="#000000" fill-opacity="0.0" d="m389.35434 431.2152l181.29135 0" fill-rule="evenodd"/><path stroke="#000000" stroke-width="4.0" stroke-linejoin="round" stroke-linecap="butt" d="m389.35434 431.2152l157.29135 0" fill-rule="evenodd"/><path fill="#000000" stroke="#000000" stroke-width="4.0" stroke-linecap="butt" d="m546.6457 437.82214l18.152344 -6.6069336l-18.152344 -6.606903z" fill-rule="evenodd"/><path fill="#f1c232" d="m153.87465 108.3649l16.997421 0l9.658813 9.658798l0 21.994873l-31.931946 0l0 -26.377953l0 0c0 -2.913704 2.3620148 -5.2757187 5.275711 -5.2757187z" fill-rule="evenodd"/><path stroke="#595959" stroke-width="1.0" stroke-linejoin="round" stroke-linecap="butt" d="m153.87465 108.3649l16.997421 0l9.658813 9.658798l0 21.994873l-31.931946 0l0 -26.377953l0 0c0 -2.913704 2.3620148 -5.2757187 5.275711 -5.2757187z" fill-rule="evenodd"/><path fill="#ffe599" d="m148.59973 118.39449l0 0c0 -2.4965897 2.0238953 -4.5204697 4.5204773 -4.5204697l68.3801 0c1.1989136 0 2.348709 0.47625732 3.196457 1.3240128c0.84776306 0.84775543 1.3240204 1.997551 1.3240204 3.196457l0 43.89199c0 2.496582 -2.02388 4.5204773 -4.5204773 4.5204773l-68.3801 0c-2.496582 0 -4.5204773 -2.0238953 -4.5204773 -4.5204773z" fill-rule="evenodd"/><path stroke="#595959" stroke-width="1.0" stroke-linejoin="round" stroke-linecap="butt" d="m148.59973 118.39449l0 0c0 -2.4965897 2.0238953 -4.5204697 4.5204773 -4.5204697l68.3801 0c1.1989136 0 2.348709 0.47625732 3.196457 1.3240128c0.84776306 0.84775543 1.3240204 1.997551 1.3240204 3.196457l0 43.89199c0 2.496582 -2.02388 4.5204773 -4.5204773 4.5204773l-68.3801 0c-2.496582 0 -4.5204773 -2.0238953 -4.5204773 -4.5204773z" fill-rule="evenodd"/><path fill="#000000" fill-opacity="0.0" d="m230.6693 140.71916l36.25197 0" fill-rule="evenodd"/><path stroke="#000000" stroke-width="2.0" stroke-linejoin="round" stroke-linecap="butt" d="m230.6693 140.71916l28.671982 0" fill-rule="evenodd"/><path fill="#000000" stroke="#000000" stroke-width="2.0" stroke-linecap="butt" d="m265.92126 140.71916c0 1.8170166 -1.472992 3.2899933 -3.2900085 3.2899933c-1.8170166 0 -3.2900085 -1.4729767 -3.2900085 -3.2899933c0 -1.8170166 1.472992 -3.2900085 3.2900085 -3.2900085c1.8170166 0 3.2900085 1.472992 3.2900085 3.2900085z" fill-rule="nonzero"/><path fill="#ffffff" d="m276.7382 116.21818l0 0c0 -3.6811295 2.9841614 -6.6652756 6.665283 -6.6652756l26.660278 0l0 0c1.7677612 0 3.4630737 0.70223236 4.7130737 1.9522171c1.2499695 1.2499771 1.9522095 2.9453201 1.9522095 4.7130585l0 36.706184c0 3.6811218 -2.9841614 6.665268 -6.665283 6.665268l-26.660278 0c-3.6811218 0 -6.665283 -2.984146 -6.665283 -6.665268z" fill-rule="evenodd"/><path stroke="#000000" stroke-width="1.0" stroke-linejoin="round" stroke-linecap="butt" d="m276.7382 116.21818l0 0c0 -3.6811295 2.9841614 -6.6652756 6.665283 -6.6652756l26.660278 0l0 0c1.7677612 0 3.4630737 0.70223236 4.7130737 1.9522171c1.2499695 1.2499771 1.9522095 2.9453201 1.9522095 4.7130585l0 36.706184c0 3.6811218 -2.9841614 6.665268 -6.665283 6.665268l-26.660278 0c-3.6811218 0 -6.665283 -2.984146 -6.665283 -6.665268z" fill-rule="evenodd"/><path fill="#f1c232" d="m278.24118 118.57661l36.984863 0c0.3986206 0 0.7809143 -0.15835571 1.0627747 -0.44021606c0.28186035 -0.28186798 0.44021606 -0.6641617 0.44021606 -1.0627747l0 -3.1178894l0 0c0 -2.4283218 -1.9685364 -4.3968735 -4.396881 -4.3968735l-31.197083 0c-2.4283142 0 -4.396881 1.9685516 -4.396881 4.3968735l0 3.1178894l0 0c0 0.8300781 0.6729126 1.5029907 1.5029907 1.5029907z" fill-rule="evenodd"/><path stroke="#595959" stroke-width="1.0" stroke-linejoin="round" stroke-linecap="butt" d="m278.24118 118.57661l36.984863 0c0.3986206 0 0.7809143 -0.15835571 1.0627747 -0.44021606c0.28186035 -0.28186798 0.44021606 -0.6641617 0.44021606 -1.0627747l0 -3.1178894l0 0c0 -2.4283218 -1.9685364 -4.3968735 -4.396881 -4.3968735l-31.197083 0c-2.4283142 0 -4.396881 1.9685516 -4.396881 4.3968735l0 3.1178894l0 0c0 0.8300781 0.6729126 1.5029907 1.5029907 1.5029907z" fill-rule="evenodd"/><path fill="#000000" fill-opacity="0.0" d="m280.71585 126.46716l30.673187 0" fill-rule="evenodd"/><path stroke="#000000" stroke-width="2.0" stroke-linejoin="round" stroke-linecap="butt" d="m280.71585 126.46716l30.673187 0" fill-rule="evenodd"/><path fill="#000000" fill-opacity="0.0" d="m280.71585 133.11938l30.673187 0" fill-rule="evenodd"/><path stroke="#000000" stroke-width="2.0" stroke-linejoin="round" stroke-linecap="butt" d="m280.71585 133.11938l30.673187 0" fill-rule="evenodd"/><path fill="#000000" fill-opacity="0.0" d="m280.71585 141.05652l30.673187 0" fill-rule="evenodd"/><path stroke="#000000" stroke-width="2.0" stroke-linejoin="round" stroke-linecap="butt" d="m280.71585 141.05652l30.673187 0" fill-rule="evenodd"/><path fill="#000000" fill-opacity="0.0" d="m280.71585 148.35033l30.673187 0" fill-rule="evenodd"/><path stroke="#000000" stroke-width="2.0" stroke-linejoin="round" stroke-linecap="butt" d="m280.71585 148.35033l30.673187 0" fill-rule="evenodd"/><path fill="#ffffff" d="m280.3675 122.36664l0 0c0 -3.6811295 2.9841614 -6.6652756 6.665283 -6.6652756l26.660278 0l0 0c1.7677307 0 3.4630737 0.70223236 4.7130737 1.9522171c1.2499695 1.2499771 1.9522095 2.9453125 1.9522095 4.7130585l0 36.706177c0 3.681137 -2.9841614 6.665283 -6.665283 6.665283l-26.660278 0c-3.6811218 0 -6.665283 -2.984146 -6.665283 -6.665283z" fill-rule="evenodd"/><path stroke="#000000" stroke-width="1.0" stroke-linejoin="round" stroke-linecap="butt" d="m280.3675 122.36664l0 0c0 -3.6811295 2.9841614 -6.6652756 6.665283 -6.6652756l26.660278 0l0 0c1.7677307 0 3.4630737 0.70223236 4.7130737 1.9522171c1.2499695 1.2499771 1.9522095 2.9453125 1.9522095 4.7130585l0 36.706177c0 3.681137 -2.9841614 6.665283 -6.665283 6.665283l-26.660278 0c-3.6811218 0 -6.665283 -2.984146 -6.665283 -6.665283z" fill-rule="evenodd"/><path fill="#f1c232" d="m281.87048 124.72506l36.984863 0c0.3986206 0 0.7809143 -0.15834808 1.0627747 -0.44020844c0.28186035 -0.28186798 0.44021606 -0.6641617 0.44021606 -1.0627747l0 -3.1178894l0 0c0 -2.4283218 -1.9685669 -4.3968735 -4.396881 -4.3968735l-31.197083 0c-2.4283142 0 -4.396881 1.9685516 -4.396881 4.3968735l0 3.1178894l0 0c0 0.8300781 0.6729126 1.5029831 1.5029907 1.5029831z" fill-rule="evenodd"/><path stroke="#595959" stroke-width="1.0" stroke-linejoin="round" stroke-linecap="butt" d="m281.87048 124.72506l36.984863 0c0.3986206 0 0.7809143 -0.15834808 1.0627747 -0.44020844c0.28186035 -0.28186798 0.44021606 -0.6641617 0.44021606 -1.0627747l0 -3.1178894l0 0c0 -2.4283218 -1.9685669 -4.3968735 -4.396881 -4.3968735l-31.197083 0c-2.4283142 0 -4.396881 1.9685516 -4.396881 4.3968735l0 3.1178894l0 0c0 0.8300781 0.6729126 1.5029831 1.5029907 1.5029831z" fill-rule="evenodd"/><path fill="#000000" fill-opacity="0.0" d="m284.34515 132.61563l30.673187 0" fill-rule="evenodd"/><path stroke="#000000" stroke-width="2.0" stroke-linejoin="round" stroke-linecap="butt" d="m284.34515 132.61563l30.673187 0" fill-rule="evenodd"/><path fill="#000000" fill-opacity="0.0" d="m284.34515 139.26784l30.673187 0" fill-rule="evenodd"/><path stroke="#000000" stroke-width="2.0" stroke-linejoin="round" stroke-linecap="butt" d="m284.34515 139.26784l30.673187 0" fill-rule="evenodd"/><path fill="#000000" fill-opacity="0.0" d="m284.34515 147.20497l30.673187 0" fill-rule="evenodd"/><path stroke="#000000" stroke-width="2.0" stroke-linejoin="round" stroke-linecap="butt" d="m284.34515 147.20497l30.673187 0" fill-rule="evenodd"/><path fill="#000000" fill-opacity="0.0" d="m284.34515 154.49878l30.673187 0" fill-rule="evenodd"/><path stroke="#000000" stroke-width="2.0" stroke-linejoin="round" stroke-linecap="butt" d="m284.34515 154.49878l30.673187 0" fill-rule="evenodd"/><path fill="#ffffff" d="m280.3675 122.36664l0 0c0 -3.6811295 2.9841614 -6.6652756 6.665283 -6.6652756l26.660278 0l0 0c1.7677307 0 3.4630737 0.70223236 4.7130737 1.9522171c1.2499695 1.2499771 1.9522095 2.9453125 1.9522095 4.7130585l0 36.706177c0 3.681137 -2.9841614 6.665283 -6.665283 6.665283l-26.660278 0c-3.6811218 0 -6.665283 -2.984146 -6.665283 -6.665283z" fill-rule="evenodd"/><path stroke="#000000" stroke-width="1.0" stroke-linejoin="round" stroke-linecap="butt" d="m280.3675 122.36664l0 0c0 -3.6811295 2.9841614 -6.6652756 6.665283 -6.6652756l26.660278 0l0 0c1.7677307 0 3.4630737 0.70223236 4.7130737 1.9522171c1.2499695 1.2499771 1.9522095 2.9453125 1.9522095 4.7130585l0 36.706177c0 3.681137 -2.9841614 6.665283 -6.665283 6.665283l-26.660278 0c-3.6811218 0 -6.665283 -2.984146 -6.665283 -6.665283z" fill-rule="evenodd"/><path fill="#f1c232" d="m281.87048 124.72506l36.984863 0c0.3986206 0 0.7809143 -0.15834808 1.0627747 -0.44020844c0.28186035 -0.28186798 0.44021606 -0.6641617 0.44021606 -1.0627747l0 -3.1178894l0 0c0 -2.4283218 -1.9685669 -4.3968735 -4.396881 -4.3968735l-31.197083 0c-2.4283142 0 -4.396881 1.9685516 -4.396881 4.3968735l0 3.1178894l0 0c0 0.8300781 0.6729126 1.5029831 1.5029907 1.5029831z" fill-rule="evenodd"/><path stroke="#595959" stroke-width="1.0" stroke-linejoin="round" stroke-linecap="butt" d="m281.87048 124.72506l36.984863 0c0.3986206 0 0.7809143 -0.15834808 1.0627747 -0.44020844c0.28186035 -0.28186798 0.44021606 -0.6641617 0.44021606 -1.0627747l0 -3.1178894l0 0c0 -2.4283218 -1.9685669 -4.3968735 -4.396881 -4.3968735l-31.197083 0c-2.4283142 0 -4.396881 1.9685516 -4.396881 4.3968735l0 3.1178894l0 0c0 0.8300781 0.6729126 1.5029831 1.5029907 1.5029831z" fill-rule="evenodd"/><path fill="#000000" fill-opacity="0.0" d="m284.34515 132.61563l30.673187 0" fill-rule="evenodd"/><path stroke="#000000" stroke-width="2.0" stroke-linejoin="round" stroke-linecap="butt" d="m284.34515 132.61563l30.673187 0" fill-rule="evenodd"/><path fill="#000000" fill-opacity="0.0" d="m284.34515 139.26784l30.673187 0" fill-rule="evenodd"/><path stroke="#000000" stroke-width="2.0" stroke-linejoin="round" stroke-linecap="butt" d="m284.34515 139.26784l30.673187 0" fill-rule="evenodd"/><path fill="#000000" fill-opacity="0.0" d="m284.34515 147.20497l30.673187 0" fill-rule="evenodd"/><path stroke="#000000" stroke-width="2.0" stroke-linejoin="round" stroke-linecap="butt" d="m284.34515 147.20497l30.673187 0" fill-rule="evenodd"/><path fill="#000000" fill-opacity="0.0" d="m284.34515 154.49878l30.673187 0" fill-rule="evenodd"/><path stroke="#000000" stroke-width="2.0" stroke-linejoin="round" stroke-linecap="butt" d="m284.34515 154.49878l30.673187 0" fill-rule="evenodd"/><path fill="#ffffff" d="m283.9968 128.51509l0 0c0 -3.6811218 2.9841614 -6.665268 6.665283 -6.665268l26.660278 0l0 0c1.7677307 0 3.4630737 0.70223236 4.7130737 1.9522171c1.2499695 1.2499771 1.9522095 2.9453125 1.9522095 4.713051l0 36.706192c0 3.6811218 -2.9841614 6.665268 -6.665283 6.665268l-26.660278 0c-3.6811218 0 -6.665283 -2.984146 -6.665283 -6.665268z" fill-rule="evenodd"/><path stroke="#000000" stroke-width="1.0" stroke-linejoin="round" stroke-linecap="butt" d="m283.9968 128.51509l0 0c0 -3.6811218 2.9841614 -6.665268 6.665283 -6.665268l26.660278 0l0 0c1.7677307 0 3.4630737 0.70223236 4.7130737 1.9522171c1.2499695 1.2499771 1.9522095 2.9453125 1.9522095 4.713051l0 36.706192c0 3.6811218 -2.9841614 6.665268 -6.665283 6.665268l-26.660278 0c-3.6811218 0 -6.665283 -2.984146 -6.665283 -6.665268z" fill-rule="evenodd"/><path fill="#f1c232" d="m285.4998 130.87352l36.984863 0c0.3986206 0 0.7809143 -0.15834045 1.0627747 -0.44021606c0.28186035 -0.28186035 0.44021606 -0.66415405 0.44021606 -1.0627747l0 -3.1178818l0 0c0 -2.4283295 -1.9685669 -4.3968735 -4.396881 -4.3968735l-31.197083 0c-2.4283142 0 -4.396881 1.968544 -4.396881 4.3968735l0 3.1178818l0 0c0 0.8300781 0.6729126 1.5029907 1.5029907 1.5029907z" fill-rule="evenodd"/><path stroke="#595959" stroke-width="1.0" stroke-linejoin="round" stroke-linecap="butt" d="m285.4998 130.87352l36.984863 0c0.3986206 0 0.7809143 -0.15834045 1.0627747 -0.44021606c0.28186035 -0.28186035 0.44021606 -0.66415405 0.44021606 -1.0627747l0 -3.1178818l0 0c0 -2.4283295 -1.9685669 -4.3968735 -4.396881 -4.3968735l-31.197083 0c-2.4283142 0 -4.396881 1.968544 -4.396881 4.3968735l0 3.1178818l0 0c0 0.8300781 0.6729126 1.5029907 1.5029907 1.5029907z" fill-rule="evenodd"/><path fill="#000000" fill-opacity="0.0" d="m287.97446 138.76408l30.673187 0" fill-rule="evenodd"/><path stroke="#000000" stroke-width="2.0" stroke-linejoin="round" stroke-linecap="butt" d="m287.97446 138.76408l30.673187 0" fill-rule="evenodd"/><path fill="#000000" fill-opacity="0.0" d="m287.97446 145.4163l30.673187 0" fill-rule="evenodd"/><path stroke="#000000" stroke-width="2.0" stroke-linejoin="round" stroke-linecap="butt" d="m287.97446 145.4163l30.673187 0" fill-rule="evenodd"/><path fill="#000000" fill-opacity="0.0" d="m287.97446 153.35344l30.673187 0" fill-rule="evenodd"/><path stroke="#000000" stroke-width="2.0" stroke-linejoin="round" stroke-linecap="butt" d="m287.97446 153.35344l30.673187 0" fill-rule="evenodd"/><path fill="#000000" fill-opacity="0.0" d="m287.97446 160.64725l30.673187 0" fill-rule="evenodd"/><path stroke="#000000" stroke-width="2.0" stroke-linejoin="round" stroke-linecap="butt" d="m287.97446 160.64725l30.673187 0" fill-rule="evenodd"/><path fill="#f1c232" d="m612.85364 108.3649l16.997437 0l9.658813 9.658798l0 21.994873l-31.931946 0l0 -26.377953l0 0c0 -2.913704 2.3619995 -5.2757187 5.275696 -5.2757187z" fill-rule="evenodd"/><path stroke="#595959" stroke-width="1.0" stroke-linejoin="round" stroke-linecap="butt" d="m612.85364 108.3649l16.997437 0l9.658813 9.658798l0 21.994873l-31.931946 0l0 -26.377953l0 0c0 -2.913704 2.3619995 -5.2757187 5.275696 -5.2757187z" fill-rule="evenodd"/><path fill="#ffe599" d="m607.57874 118.39449l0 0c0 -2.4965897 2.0238647 -4.5204697 4.520447 -4.5204697l68.38013 0c1.1989136 0 2.3486938 0.47625732 3.1964722 1.3240128c0.8477173 0.84775543 1.3240356 1.997551 1.3240356 3.196457l0 43.89199c0 2.496582 -2.0239258 4.5204773 -4.520508 4.5204773l-68.38013 0c-2.496582 0 -4.520447 -2.0238953 -4.520447 -4.5204773z" fill-rule="evenodd"/><path stroke="#595959" stroke-width="1.0" stroke-linejoin="round" stroke-linecap="butt" d="m607.57874 118.39449l0 0c0 -2.4965897 2.0238647 -4.5204697 4.520447 -4.5204697l68.38013 0c1.1989136 0 2.3486938 0.47625732 3.1964722 1.3240128c0.8477173 0.84775543 1.3240356 1.997551 1.3240356 3.196457l0 43.89199c0 2.496582 -2.0239258 4.5204773 -4.520508 4.5204773l-68.38013 0c-2.496582 0 -4.520447 -2.0238953 -4.520447 -4.5204773z" fill-rule="evenodd"/><path fill="#000000" fill-opacity="0.0" d="m602.7583 122.10499l85.25989 0l0 18.614174l-85.25989 0z" fill-rule="evenodd"/><path fill="#000000" d="m614.1949 149.02498l0 -13.359375l5.921875 0q1.78125 0 2.703125 0.359375q0.9375 0.359375 1.484375 1.28125q0.5625 0.90625 0.5625 2.015625q0 1.40625 -0.921875 2.390625q-0.921875 0.96875 -2.84375 1.234375q0.703125 0.34375 1.078125 0.671875q0.765625 0.703125 1.453125 1.765625l2.328125 3.640625l-2.21875 0l-1.765625 -2.78125q-0.78125 -1.203125 -1.28125 -1.828125q-0.5 -0.640625 -0.90625 -0.890625q-0.390625 -0.265625 -0.796875 -0.359375q-0.296875 -0.078125 -0.984375 -0.078125l-2.046875 0l0 5.9375l-1.765625 0zm1.765625 -7.453125l3.796875 0q1.21875 0 1.890625 -0.25q0.6875 -0.265625 1.046875 -0.8125q0.359375 -0.546875 0.359375 -1.1875q0 -0.953125 -0.6875 -1.5625q-0.6875 -0.609375 -2.1875 -0.609375l-4.21875 0l0 4.421875zm18.097961 4.34375l1.6875 0.203125q-0.40625 1.484375 -1.484375 2.3125q-1.078125 0.8125 -2.765625 0.8125q-2.125 0 -3.375 -1.296875q-1.234375 -1.3125 -1.234375 -3.671875q0 -2.453125 1.25 -3.796875q1.265625 -1.34375 3.265625 -1.34375q1.9375 0 3.15625 1.328125q1.234375 1.3125 1.234375 3.703125q0 0.15625 0 0.4375l-7.21875 0q0.09375 1.59375 0.90625 2.453125q0.8125 0.84375 2.015625 0.84375q0.90625 0 1.546875 -0.46875q0.640625 -0.484375 1.015625 -1.515625zm-5.390625 -2.65625l5.40625 0q-0.109375 -1.21875 -0.625 -1.828125q-0.78125 -0.953125 -2.03125 -0.953125q-1.125 0 -1.90625 0.765625q-0.765625 0.75 -0.84375 2.015625zm9.141357 5.765625l0 -9.671875l1.46875 0l0 1.359375q0.453125 -0.71875 1.203125 -1.140625q0.765625 -0.4375 1.71875 -0.4375q1.078125 0 1.765625 0.453125q0.6875 0.4375 0.96875 1.234375q1.15625 -1.6875 2.984375 -1.6875q1.453125 0 2.21875 0.796875q0.78125 0.796875 0.78125 2.453125l0 6.640625l-1.640625 0l0 -6.09375q0 -0.984375 -0.15625 -1.40625q-0.15625 -0.4375 -0.578125 -0.703125q-0.421875 -0.265625 -0.984375 -0.265625q-1.015625 0 -1.6875 0.6875q-0.671875 0.671875 -0.671875 2.15625l0 5.625l-1.640625 0l0 -6.28125q0 -1.09375 -0.40625 -1.640625q-0.40625 -0.546875 -1.3125 -0.546875q-0.6875 0 -1.28125 0.359375q-0.59375 0.359375 -0.859375 1.0625q-0.25 0.703125 -0.25 2.03125l0 5.015625l-1.640625 0zm14.9313965 -4.84375q0 -2.6875 1.484375 -3.96875q1.25 -1.078125 3.046875 -1.078125q2.0 0 3.265625 1.3125q1.265625 1.296875 1.265625 3.609375q0 1.859375 -0.5625 2.9375q-0.5625 1.0625 -1.640625 1.65625q-1.0625 0.59375 -2.328125 0.59375q-2.03125 0 -3.28125 -1.296875q-1.25 -1.3125 -1.25 -3.765625zm1.6875 0q0 1.859375 0.796875 2.796875q0.8125 0.921875 2.046875 0.921875q1.21875 0 2.03125 -0.921875q0.8125 -0.9375 0.8125 -2.84375q0 -1.796875 -0.8125 -2.71875q-0.8125 -0.921875 -2.03125 -0.921875q-1.234375 0 -2.046875 0.921875q-0.796875 0.90625 -0.796875 2.765625zm12.875732 3.375l0.234375 1.453125q-0.6875 0.140625 -1.234375 0.140625q-0.890625 0 -1.390625 -0.28125q-0.484375 -0.28125 -0.6875 -0.734375q-0.203125 -0.46875 -0.203125 -1.9375l0 -5.578125l-1.203125 0l0 -1.265625l1.203125 0l0 -2.390625l1.625 -0.984375l0 3.375l1.65625 0l0 1.265625l-1.65625 0l0 5.671875q0 0.6875 0.078125 0.890625q0.09375 0.203125 0.28125 0.328125q0.203125 0.109375 0.578125 0.109375q0.265625 0 0.71875 -0.0625zm8.230164 -1.640625l1.6875 0.203125q-0.40625 1.484375 -1.484375 2.3125q-1.078125 0.8125 -2.765625 0.8125q-2.125 0 -3.375 -1.296875q-1.234375 -1.3125 -1.234375 -3.671875q0 -2.453125 1.25 -3.796875q1.265625 -1.34375 3.265625 -1.34375q1.9375 0 3.15625 1.328125q1.234375 1.3125 1.234375 3.703125q0 0.15625 0 0.4375l-7.21875 0q0.09375 1.59375 0.90625 2.453125q0.8125 0.84375 2.015625 0.84375q0.90625 0 1.546875 -0.46875q0.640625 -0.484375 1.015625 -1.515625zm-5.390625 -2.65625l5.40625 0q-0.109375 -1.21875 -0.625 -1.828125q-0.78125 -0.953125 -2.03125 -0.953125q-1.125 0 -1.90625 0.765625q-0.765625 0.75 -0.84375 2.015625z" fill-rule="nonzero"/><path fill="#000000" fill-opacity="0.0" d="m689.6483 140.71916l36.251953 0" fill-rule="evenodd"/><path stroke="#000000" stroke-width="2.0" stroke-linejoin="round" stroke-linecap="butt" d="m689.6483 140.71916l28.671997 0" fill-rule="evenodd"/><path fill="#000000" stroke="#000000" stroke-width="2.0" stroke-linecap="butt" d="m724.90027 140.71916c0 1.8170166 -1.4729614 3.2899933 -3.289978 3.2899933c-1.8170166 0 -3.290039 -1.4729767 -3.290039 -3.2899933c0 -1.8170166 1.4730225 -3.2900085 3.290039 -3.2900085c1.8170166 0 3.289978 1.472992 3.289978 3.2900085z" fill-rule="nonzero"/><path fill="#000000" fill-opacity="0.0" d="m712.5381 69.60105l173.4173 0l0 16.755905l-173.4173 0z" fill-rule="evenodd"/><path fill="#000000" d="m722.14746 95.276955l2.015625 -9.671875l1.65625 0l-0.34375 1.59375q0.921875 -1.03125 1.640625 -1.421875q0.734375 -0.390625 1.578125 -0.390625q0.90625 0 1.515625 0.484375q0.609375 0.46875 0.796875 1.328125q0.734375 -0.90625 1.546875 -1.359375q0.8125 -0.453125 1.71875 -0.453125q1.21875 0 1.8125 0.578125q0.609375 0.5625 0.609375 1.609375q0 0.4375 -0.203125 1.46875l-1.3125 6.234375l-1.640625 0l1.328125 -6.390625q0.171875 -0.78125 0.171875 -1.125q0 -0.46875 -0.296875 -0.734375q-0.296875 -0.28125 -0.84375 -0.28125q-0.75 0 -1.515625 0.453125q-0.765625 0.4375 -1.1875 1.171875q-0.421875 0.71875 -0.734375 2.21875l-0.984375 4.6875l-1.65625 0l1.375 -6.53125q0.140625 -0.671875 0.140625 -0.953125q0 -0.46875 -0.296875 -0.75q-0.296875 -0.296875 -0.765625 -0.296875q-0.703125 0 -1.484375 0.453125q-0.765625 0.4375 -1.25 1.234375q-0.46875 0.796875 -0.78125 2.265625l-0.953125 4.578125l-1.65625 0zm14.9313965 3.734375l0.09375 -1.546875q0.515625 0.140625 1.0 0.140625q0.5 0 0.8125 -0.21875q0.40625 -0.3125 0.875 -1.140625l0.53125 -0.9375l-1.625 -9.703125l1.625 0l0.734375 4.890625q0.21875 1.453125 0.375 2.890625l4.328125 -7.78125l1.71875 0l-6.171875 10.953125q-0.890625 1.609375 -1.59375 2.125q-0.6875 0.515625 -1.578125 0.515625q-0.578125 0 -1.125 -0.1875zm10.171875 -3.734375l2.796875 -13.359375l8.671875 0l-0.3125 1.53125l-6.90625 0l-0.875 4.25l7.015625 0l-0.3125 1.515625l-7.015625 0l-1.28125 6.0625l-1.78125 0zm13.505371 -11.484375l0.40625 -1.875l1.625 0l-0.390625 1.875l-1.640625 0zm-2.390625 11.484375l2.015625 -9.671875l1.65625 0l-2.03125 9.671875l-1.640625 0zm4.0667114 0l2.796875 -13.359375l1.640625 0l-2.78125 13.359375l-1.65625 0zm11.37915 -3.28125l1.609375 0.15625q-0.34375 1.1875 -1.59375 2.265625q-1.234375 1.078125 -2.96875 1.078125q-1.0625 0 -1.96875 -0.5q-0.890625 -0.5 -1.359375 -1.4375q-0.46875 -0.953125 -0.46875 -2.15625q0 -1.59375 0.734375 -3.078125q0.734375 -1.484375 1.890625 -2.203125q1.171875 -0.734375 2.53125 -0.734375q1.734375 0 2.765625 1.078125q1.03125 1.0625 1.03125 2.921875q0 0.71875 -0.125 1.46875l-7.125 0q-0.046875 0.28125 -0.046875 0.5q0 1.359375 0.625 2.078125q0.625 0.71875 1.53125 0.71875q0.84375 0 1.65625 -0.546875q0.828125 -0.5625 1.28125 -1.609375zm-4.78125 -2.40625l5.421875 0q0.015625 -0.25 0.015625 -0.359375q0 -1.234375 -0.625 -1.890625q-0.625 -0.671875 -1.59375 -0.671875q-1.0625 0 -1.9375 0.734375q-0.859375 0.71875 -1.28125 2.1875zm8.516357 5.6875l0.390625 -1.875l1.859375 0l-0.390625 1.875l-1.859375 0zm8.573914 -1.34375l-0.265625 1.359375q-0.59375 0.140625 -1.15625 0.140625q-0.984375 0 -1.5625 -0.46875q-0.4375 -0.375 -0.4375 -1.0q0 -0.3125 0.234375 -1.46875l1.171875 -5.625l-1.296875 0l0.265625 -1.265625l1.296875 0l0.5 -2.375l1.890625 -1.140625l-0.734375 3.515625l1.625 0l-0.28125 1.265625l-1.609375 0l-1.125 5.359375q-0.203125 1.015625 -0.203125 1.21875q0 0.28125 0.15625 0.4375q0.171875 0.15625 0.5625 0.15625q0.546875 0 0.96875 -0.109375zm0.6833496 1.34375l4.21875 -4.90625l-2.421875 -4.765625l1.828125 0l0.8125 1.71875q0.453125 0.96875 0.828125 1.84375l2.78125 -3.5625l2.015625 0l-4.0625 4.890625l2.4375 4.78125l-1.8125 0l-0.96875 -1.96875q-0.3125 -0.625 -0.703125 -1.5625l-2.875 3.53125l-2.078125 0zm13.828125 -1.34375l-0.265625 1.359375q-0.59375 0.140625 -1.15625 0.140625q-0.984375 0 -1.5625 -0.46875q-0.4375 -0.375 -0.4375 -1.0q0 -0.3125 0.234375 -1.46875l1.171875 -5.625l-1.296875 0l0.265625 -1.265625l1.296875 0l0.5 -2.375l1.890625 -1.140625l-0.734375 3.515625l1.625 0l-0.28125 1.265625l-1.609375 0l-1.125 5.359375q-0.203125 1.015625 -0.203125 1.21875q0 0.28125 0.15625 0.4375q0.171875 0.15625 0.5625 0.15625q0.546875 0 0.96875 -0.109375zm8.897827 5.265625q-1.421875 -3.125 -1.421875 -6.4375q0 -2.203125 0.578125 -4.09375q0.578125 -1.90625 1.765625 -3.765625q0.78125 -1.234375 2.5 -3.203125l1.28125 0q-1.0625 1.140625 -2.25 3.203125q-1.1875 2.0625 -1.734375 4.0625q-0.53125 2.0 -0.53125 4.0q0 3.015625 1.046875 6.234375l-1.234375 0zm10.9314575 -7.203125l1.609375 0.15625q-0.34375 1.1875 -1.59375 2.265625q-1.234375 1.078125 -2.96875 1.078125q-1.0625 0 -1.96875 -0.5q-0.890625 -0.5 -1.359375 -1.4375q-0.46875 -0.953125 -0.46875 -2.15625q0 -1.59375 0.734375 -3.078125q0.734375 -1.484375 1.890625 -2.203125q1.171875 -0.734375 2.53125 -0.734375q1.734375 0 2.765625 1.078125q1.03125 1.0625 1.03125 2.921875q0 0.71875 -0.125 1.46875l-7.125 0q-0.046875 0.28125 -0.046875 0.5q0 1.359375 0.625 2.078125q0.625 0.71875 1.53125 0.71875q0.84375 0 1.65625 -0.546875q0.828125 -0.5625 1.28125 -1.609375zm-4.78125 -2.40625l5.421875 0q0.015625 -0.25 0.015625 -0.359375q0 -1.234375 -0.625 -1.890625q-0.625 -0.671875 -1.59375 -0.671875q-1.0625 0 -1.9375 0.734375q-0.859375 0.71875 -1.28125 2.1875zm14.578796 4.28125q-1.40625 1.625 -2.953125 1.625q-1.375 0 -2.296875 -1.015625q-0.90625 -1.015625 -0.90625 -2.953125q0 -1.765625 0.71875 -3.21875q0.734375 -1.46875 1.8125 -2.1875q1.09375 -0.734375 2.1875 -0.734375q1.796875 0 2.71875 1.734375l1.09375 -5.203125l1.640625 0l-2.78125 13.359375l-1.53125 0l0.296875 -1.40625zm-4.515625 -2.640625q0 1.0 0.203125 1.59375q0.203125 0.578125 0.671875 0.96875q0.484375 0.375 1.171875 0.375q1.109375 0 2.03125 -1.15625q1.21875 -1.546875 1.21875 -3.828125q0 -1.140625 -0.609375 -1.78125q-0.59375 -0.65625 -1.515625 -0.65625q-0.59375 0 -1.078125 0.265625q-0.484375 0.265625 -0.96875 0.90625q-0.46875 0.625 -0.796875 1.59375q-0.328125 0.96875 -0.328125 1.71875zm10.703857 -7.4375l0.40625 -1.875l1.625 0l-0.390625 1.875l-1.640625 0zm-2.390625 11.484375l2.015625 -9.671875l1.65625 0l-2.03125 9.671875l-1.640625 0zm8.051086 -1.34375l-0.265625 1.359375q-0.59375 0.140625 -1.15625 0.140625q-0.984375 0 -1.5625 -0.46875q-0.4375 -0.375 -0.4375 -1.0q0 -0.3125 0.234375 -1.46875l1.171875 -5.625l-1.296875 0l0.265625 -1.265625l1.296875 0l0.5 -2.375l1.890625 -1.140625l-0.734375 3.515625l1.625 0l-0.28125 1.265625l-1.609375 0l-1.125 5.359375q-0.203125 1.015625 -0.203125 1.21875q0 0.28125 0.15625 0.4375q0.171875 0.15625 0.5625 0.15625q0.546875 0 0.96875 -0.109375zm8.433289 -1.9375l1.609375 0.15625q-0.34375 1.1875 -1.59375 2.265625q-1.234375 1.078125 -2.96875 1.078125q-1.0625 0 -1.96875 -0.5q-0.890625 -0.5 -1.359375 -1.4375q-0.46875 -0.953125 -0.46875 -2.15625q0 -1.59375 0.734375 -3.078125q0.734375 -1.484375 1.890625 -2.203125q1.171875 -0.734375 2.53125 -0.734375q1.734375 0 2.765625 1.078125q1.03125 1.0625 1.03125 2.921875q0 0.71875 -0.125 1.46875l-7.125 0q-0.046875 0.28125 -0.046875 0.5q0 1.359375 0.625 2.078125q0.625 0.71875 1.53125 0.71875q0.84375 0 1.65625 -0.546875q0.828125 -0.5625 1.28125 -1.609375zm-4.78125 -2.40625l5.421875 0q0.015625 -0.25 0.015625 -0.359375q0 -1.234375 -0.625 -1.890625q-0.625 -0.671875 -1.59375 -0.671875q-1.0625 0 -1.9375 0.734375q-0.859375 0.71875 -1.28125 2.1875zm14.578857 4.28125q-1.40625 1.625 -2.953125 1.625q-1.375 0 -2.296875 -1.015625q-0.90625 -1.015625 -0.90625 -2.953125q0 -1.765625 0.71875 -3.21875q0.734375 -1.46875 1.8125 -2.1875q1.09375 -0.734375 2.1875 -0.734375q1.796875 0 2.71875 1.734375l1.09375 -5.203125l1.640625 0l-2.78125 13.359375l-1.53125 0l0.296875 -1.40625zm-4.515625 -2.640625q0 1.0 0.203125 1.59375q0.203125 0.578125 0.671875 0.96875q0.484375 0.375 1.171875 0.375q1.109375 0 2.03125 -1.15625q1.21875 -1.546875 1.21875 -3.828125q0 -1.140625 -0.609375 -1.78125q-0.59375 -0.65625 -1.515625 -0.65625q-0.59375 0 -1.078125 0.265625q-0.484375 0.265625 -0.96875 0.90625q-0.46875 0.625 -0.796875 1.59375q-0.328125 0.96875 -0.328125 1.71875zm11.453857 -9.53125q1.4375 3.125 1.4375 6.421875q0 2.21875 -0.578125 4.125q-0.578125 1.890625 -1.765625 3.75q-0.796875 1.234375 -2.5 3.203125l-1.296875 0q1.0625 -1.140625 2.25 -3.21875q1.203125 -2.0625 1.734375 -4.046875q0.53125 -2.0 0.53125 -4.015625q0 -3.0 -1.046875 -6.21875l1.234375 0z" fill-rule="nonzero"/><path fill="#ffffff" d="m735.7172 116.21818l0 0c0 -3.6811295 2.9841309 -6.6652756 6.665283 -6.6652756l26.660278 0l0 0c1.7677002 0 3.4630737 0.70223236 4.7130127 1.9522171c1.25 1.2499771 1.9522095 2.9453201 1.9522095 4.7130585l0 36.706184c0 3.6811218 -2.9841309 6.665268 -6.665222 6.665268l-26.660278 0c-3.6811523 0 -6.665283 -2.984146 -6.665283 -6.665268z" fill-rule="evenodd"/><path stroke="#000000" stroke-width="1.0" stroke-linejoin="round" stroke-linecap="butt" d="m735.7172 116.21818l0 0c0 -3.6811295 2.9841309 -6.6652756 6.665283 -6.6652756l26.660278 0l0 0c1.7677002 0 3.4630737 0.70223236 4.7130127 1.9522171c1.25 1.2499771 1.9522095 2.9453201 1.9522095 4.7130585l0 36.706184c0 3.6811218 -2.9841309 6.665268 -6.665222 6.665268l-26.660278 0c-3.6811523 0 -6.665283 -2.984146 -6.665283 -6.665268z" fill-rule="evenodd"/><path fill="#f1c232" d="m737.2202 118.57661l36.984802 0c0.3986206 0 0.7809448 -0.15835571 1.0628052 -0.44021606c0.28186035 -0.28186798 0.44018555 -0.6641617 0.44018555 -1.0627747l0 -3.1178894l0 0c0 -2.4283218 -1.9685059 -4.3968735 -4.3968506 -4.3968735l-31.197083 0c-2.4283447 0 -4.3968506 1.9685516 -4.3968506 4.3968735l0 3.1178894l0 0c0 0.8300781 0.6729126 1.5029907 1.5029907 1.5029907z" fill-rule="evenodd"/><path stroke="#595959" stroke-width="1.0" stroke-linejoin="round" stroke-linecap="butt" d="m737.2202 118.57661l36.984802 0c0.3986206 0 0.7809448 -0.15835571 1.0628052 -0.44021606c0.28186035 -0.28186798 0.44018555 -0.6641617 0.44018555 -1.0627747l0 -3.1178894l0 0c0 -2.4283218 -1.9685059 -4.3968735 -4.3968506 -4.3968735l-31.197083 0c-2.4283447 0 -4.3968506 1.9685516 -4.3968506 4.3968735l0 3.1178894l0 0c0 0.8300781 0.6729126 1.5029907 1.5029907 1.5029907z" fill-rule="evenodd"/><path fill="#000000" fill-opacity="0.0" d="m739.6948 126.46716l30.673218 0" fill-rule="evenodd"/><path stroke="#000000" stroke-width="2.0" stroke-linejoin="round" stroke-linecap="butt" d="m739.6948 126.46716l30.673218 0" fill-rule="evenodd"/><path fill="#000000" fill-opacity="0.0" d="m739.6948 133.11938l30.673218 0" fill-rule="evenodd"/><path stroke="#000000" stroke-width="2.0" stroke-linejoin="round" stroke-linecap="butt" d="m739.6948 133.11938l30.673218 0" fill-rule="evenodd"/><path fill="#000000" fill-opacity="0.0" d="m739.6948 141.05652l30.673218 0" fill-rule="evenodd"/><path stroke="#000000" stroke-width="2.0" stroke-linejoin="round" stroke-linecap="butt" d="m739.6948 141.05652l30.673218 0" fill-rule="evenodd"/><path fill="#000000" fill-opacity="0.0" d="m739.6948 148.35033l30.673218 0" fill-rule="evenodd"/><path stroke="#000000" stroke-width="2.0" stroke-linejoin="round" stroke-linecap="butt" d="m739.6948 148.35033l30.673218 0" fill-rule="evenodd"/><path fill="#ffffff" d="m739.3465 122.36664l0 0c0 -3.6811295 2.9841309 -6.6652756 6.665283 -6.6652756l26.660278 0l0 0c1.7677612 0 3.4630737 0.70223236 4.7130737 1.9522171c1.249939 1.2499771 1.9522095 2.9453125 1.9522095 4.7130585l0 36.706177c0 3.681137 -2.9841309 6.665283 -6.665283 6.665283l-26.660278 0c-3.6811523 0 -6.665283 -2.984146 -6.665283 -6.665283z" fill-rule="evenodd"/><path stroke="#000000" stroke-width="1.0" stroke-linejoin="round" stroke-linecap="butt" d="m739.3465 122.36664l0 0c0 -3.6811295 2.9841309 -6.6652756 6.665283 -6.6652756l26.660278 0l0 0c1.7677612 0 3.4630737 0.70223236 4.7130737 1.9522171c1.249939 1.2499771 1.9522095 2.9453125 1.9522095 4.7130585l0 36.706177c0 3.681137 -2.9841309 6.665283 -6.665283 6.665283l-26.660278 0c-3.6811523 0 -6.665283 -2.984146 -6.665283 -6.665283z" fill-rule="evenodd"/><path fill="#f1c232" d="m740.8495 124.72506l36.984863 0c0.3986206 0 0.7808838 -0.15834808 1.0627441 -0.44020844c0.28186035 -0.28186798 0.44024658 -0.6641617 0.44024658 -1.0627747l0 -3.1178894l0 0c0 -2.4283218 -1.9685669 -4.3968735 -4.3969116 -4.3968735l-31.197021 0c-2.4283447 0 -4.3969116 1.9685516 -4.3969116 4.3968735l0 3.1178894l0 0c0 0.8300781 0.6729126 1.5029831 1.5029907 1.5029831z" fill-rule="evenodd"/><path stroke="#595959" stroke-width="1.0" stroke-linejoin="round" stroke-linecap="butt" d="m740.8495 124.72506l36.984863 0c0.3986206 0 0.7808838 -0.15834808 1.0627441 -0.44020844c0.28186035 -0.28186798 0.44024658 -0.6641617 0.44024658 -1.0627747l0 -3.1178894l0 0c0 -2.4283218 -1.9685669 -4.3968735 -4.3969116 -4.3968735l-31.197021 0c-2.4283447 0 -4.3969116 1.9685516 -4.3969116 4.3968735l0 3.1178894l0 0c0 0.8300781 0.6729126 1.5029831 1.5029907 1.5029831z" fill-rule="evenodd"/><path fill="#000000" fill-opacity="0.0" d="m743.32416 132.61563l30.673157 0" fill-rule="evenodd"/><path stroke="#000000" stroke-width="2.0" stroke-linejoin="round" stroke-linecap="butt" d="m743.32416 132.61563l30.673157 0" fill-rule="evenodd"/><path fill="#000000" fill-opacity="0.0" d="m743.32416 139.26784l30.673157 0" fill-rule="evenodd"/><path stroke="#000000" stroke-width="2.0" stroke-linejoin="round" stroke-linecap="butt" d="m743.32416 139.26784l30.673157 0" fill-rule="evenodd"/><path fill="#000000" fill-opacity="0.0" d="m743.32416 147.20497l30.673157 0" fill-rule="evenodd"/><path stroke="#000000" stroke-width="2.0" stroke-linejoin="round" stroke-linecap="butt" d="m743.32416 147.20497l30.673157 0" fill-rule="evenodd"/><path fill="#000000" fill-opacity="0.0" d="m743.32416 154.49878l30.673157 0" fill-rule="evenodd"/><path stroke="#000000" stroke-width="2.0" stroke-linejoin="round" stroke-linecap="butt" d="m743.32416 154.49878l30.673157 0" fill-rule="evenodd"/><path fill="#ffffff" d="m739.3465 122.36664l0 0c0 -3.6811295 2.9841309 -6.6652756 6.665283 -6.6652756l26.660278 0l0 0c1.7677612 0 3.4630737 0.70223236 4.7130737 1.9522171c1.249939 1.2499771 1.9522095 2.9453125 1.9522095 4.7130585l0 36.706177c0 3.681137 -2.9841309 6.665283 -6.665283 6.665283l-26.660278 0c-3.6811523 0 -6.665283 -2.984146 -6.665283 -6.665283z" fill-rule="evenodd"/><path stroke="#000000" stroke-width="1.0" stroke-linejoin="round" stroke-linecap="butt" d="m739.3465 122.36664l0 0c0 -3.6811295 2.9841309 -6.6652756 6.665283 -6.6652756l26.660278 0l0 0c1.7677612 0 3.4630737 0.70223236 4.7130737 1.9522171c1.249939 1.2499771 1.9522095 2.9453125 1.9522095 4.7130585l0 36.706177c0 3.681137 -2.9841309 6.665283 -6.665283 6.665283l-26.660278 0c-3.6811523 0 -6.665283 -2.984146 -6.665283 -6.665283z" fill-rule="evenodd"/><path fill="#f1c232" d="m740.8495 124.72506l36.984863 0c0.3986206 0 0.7808838 -0.15834808 1.0627441 -0.44020844c0.28186035 -0.28186798 0.44024658 -0.6641617 0.44024658 -1.0627747l0 -3.1178894l0 0c0 -2.4283218 -1.9685669 -4.3968735 -4.3969116 -4.3968735l-31.197021 0c-2.4283447 0 -4.3969116 1.9685516 -4.3969116 4.3968735l0 3.1178894l0 0c0 0.8300781 0.6729126 1.5029831 1.5029907 1.5029831z" fill-rule="evenodd"/><path stroke="#595959" stroke-width="1.0" stroke-linejoin="round" stroke-linecap="butt" d="m740.8495 124.72506l36.984863 0c0.3986206 0 0.7808838 -0.15834808 1.0627441 -0.44020844c0.28186035 -0.28186798 0.44024658 -0.6641617 0.44024658 -1.0627747l0 -3.1178894l0 0c0 -2.4283218 -1.9685669 -4.3968735 -4.3969116 -4.3968735l-31.197021 0c-2.4283447 0 -4.3969116 1.9685516 -4.3969116 4.3968735l0 3.1178894l0 0c0 0.8300781 0.6729126 1.5029831 1.5029907 1.5029831z" fill-rule="evenodd"/><path fill="#000000" fill-opacity="0.0" d="m743.32416 132.61563l30.673157 0" fill-rule="evenodd"/><path stroke="#000000" stroke-width="2.0" stroke-linejoin="round" stroke-linecap="butt" d="m743.32416 132.61563l30.673157 0" fill-rule="evenodd"/><path fill="#000000" fill-opacity="0.0" d="m743.32416 139.26784l30.673157 0" fill-rule="evenodd"/><path stroke="#000000" stroke-width="2.0" stroke-linejoin="round" stroke-linecap="butt" d="m743.32416 139.26784l30.673157 0" fill-rule="evenodd"/><path fill="#000000" fill-opacity="0.0" d="m743.32416 147.20497l30.673157 0" fill-rule="evenodd"/><path stroke="#000000" stroke-width="2.0" stroke-linejoin="round" stroke-linecap="butt" d="m743.32416 147.20497l30.673157 0" fill-rule="evenodd"/><path fill="#000000" fill-opacity="0.0" d="m743.32416 154.49878l30.673157 0" fill-rule="evenodd"/><path stroke="#000000" stroke-width="2.0" stroke-linejoin="round" stroke-linecap="butt" d="m743.32416 154.49878l30.673157 0" fill-rule="evenodd"/><path fill="#ffffff" d="m742.9758 128.51509l0 0c0 -3.6811218 2.9841309 -6.665268 6.665222 -6.665268l26.660278 0l0 0c1.7677612 0 3.4631348 0.70223236 4.7130737 1.9522171c1.25 1.2499771 1.9522095 2.9453125 1.9522095 4.713051l0 36.706192c0 3.6811218 -2.9841309 6.665268 -6.665283 6.665268l-26.660278 0c-3.6810913 0 -6.665222 -2.984146 -6.665222 -6.665268z" fill-rule="evenodd"/><path stroke="#000000" stroke-width="1.0" stroke-linejoin="round" stroke-linecap="butt" d="m742.9758 128.51509l0 0c0 -3.6811218 2.9841309 -6.665268 6.665222 -6.665268l26.660278 0l0 0c1.7677612 0 3.4631348 0.70223236 4.7130737 1.9522171c1.25 1.2499771 1.9522095 2.9453125 1.9522095 4.713051l0 36.706192c0 3.6811218 -2.9841309 6.665268 -6.665283 6.665268l-26.660278 0c-3.6810913 0 -6.665222 -2.984146 -6.665222 -6.665268z" fill-rule="evenodd"/><path fill="#f1c232" d="m744.4788 130.87352l36.984802 0c0.3986206 0 0.7809448 -0.15834045 1.0628052 -0.44021606c0.28186035 -0.28186035 0.44018555 -0.66415405 0.44018555 -1.0627747l0 -3.1178818l0 0c0 -2.4283295 -1.9685059 -4.3968735 -4.3968506 -4.3968735l-31.197083 0c-2.4283447 0 -4.3968506 1.968544 -4.3968506 4.3968735l0 3.1178818l0 0c0 0.8300781 0.6729126 1.5029907 1.5029907 1.5029907z" fill-rule="evenodd"/><path stroke="#595959" stroke-width="1.0" stroke-linejoin="round" stroke-linecap="butt" d="m744.4788 130.87352l36.984802 0c0.3986206 0 0.7809448 -0.15834045 1.0628052 -0.44021606c0.28186035 -0.28186035 0.44018555 -0.66415405 0.44018555 -1.0627747l0 -3.1178818l0 0c0 -2.4283295 -1.9685059 -4.3968735 -4.3968506 -4.3968735l-31.197083 0c-2.4283447 0 -4.3968506 1.968544 -4.3968506 4.3968735l0 3.1178818l0 0c0 0.8300781 0.6729126 1.5029907 1.5029907 1.5029907z" fill-rule="evenodd"/><path fill="#000000" fill-opacity="0.0" d="m746.9534 138.76408l30.673218 0" fill-rule="evenodd"/><path stroke="#cc0000" stroke-width="2.0" stroke-linejoin="round" stroke-linecap="butt" d="m746.9534 138.76408l30.673218 0" fill-rule="evenodd"/><path fill="#000000" fill-opacity="0.0" d="m746.9534 145.4163l30.673218 0" fill-rule="evenodd"/><path stroke="#cc0000" stroke-width="2.0" stroke-linejoin="round" stroke-linecap="butt" d="m746.9534 145.4163l30.673218 0" fill-rule="evenodd"/><path fill="#000000" fill-opacity="0.0" d="m746.9534 153.35344l30.673218 0" fill-rule="evenodd"/><path stroke="#0000ff" stroke-width="2.0" stroke-linejoin="round" stroke-linecap="butt" d="m746.9534 153.35344l30.673218 0" fill-rule="evenodd"/><path fill="#000000" fill-opacity="0.0" d="m746.9534 160.64725l30.673218 0" fill-rule="evenodd"/><path stroke="#0000ff" stroke-width="2.0" stroke-linejoin="round" stroke-linecap="butt" d="m746.9534 160.64725l30.673218 0" fill-rule="evenodd"/><path fill="#000000" fill-opacity="0.0" d="m389.35434 137.52493l181.29135 0" fill-rule="evenodd"/><path stroke="#000000" stroke-width="4.0" stroke-linejoin="round" stroke-linecap="butt" d="m389.35434 137.52493l157.29135 0" fill-rule="evenodd"/><path fill="#000000" stroke="#000000" stroke-width="4.0" stroke-linecap="butt" d="m546.6457 144.13187l18.152344 -6.6069336l-18.152344 -6.6069336z" fill-rule="evenodd"/><path fill="#000000" fill-opacity="0.0" d="m147.98425 171.88715l172.47244 0l0 36.25197l-172.47244 0z" fill-rule="evenodd"/><path fill="#000000" d="m168.23425 194.10402l1.765625 0.25q-0.84375 2.3125 -2.453125 3.5q-1.59375 1.1875 -3.578125 1.1875q-2.4375 0 -3.875 -1.484375q-1.421875 -1.484375 -1.421875 -4.265625q0 -3.609375 2.171875 -5.96875q1.9375 -2.09375 4.796875 -2.09375q2.125 0 3.4375 1.140625q1.328125 1.125 1.53125 3.0625l-1.671875 0.140625q-0.25 -1.4375 -1.078125 -2.15625q-0.828125 -0.71875 -2.125 -0.71875q-2.453125 0 -3.96875 2.1875q-1.3125 1.875 -1.3125 4.453125q0 2.046875 1.015625 3.140625q1.015625 1.078125 2.625 1.078125q1.390625 0 2.5 -0.890625q1.125 -0.90625 1.640625 -2.5625zm3.1291962 1.03125q0 -2.828125 1.671875 -4.6875q1.375 -1.53125 3.609375 -1.53125q1.75 0 2.8125 1.09375q1.078125 1.09375 1.078125 2.953125q0 1.65625 -0.671875 3.09375q-0.671875 1.4375 -1.921875 2.203125q-1.25 0.765625 -2.625 0.765625q-1.125 0 -2.046875 -0.484375q-0.921875 -0.484375 -1.421875 -1.359375q-0.484375 -0.890625 -0.484375 -2.046875zm1.65625 -0.15625q0 1.359375 0.65625 2.0625q0.65625 0.703125 1.65625 0.703125q0.53125 0 1.046875 -0.203125q0.53125 -0.21875 0.96875 -0.65625q0.453125 -0.4375 0.765625 -1.0q0.3125 -0.5625 0.5 -1.203125q0.28125 -0.90625 0.28125 -1.734375q0 -1.3125 -0.65625 -2.03125q-0.65625 -0.734375 -1.65625 -0.734375q-0.78125 0 -1.421875 0.375q-0.625 0.375 -1.140625 1.09375q-0.515625 0.703125 -0.765625 1.640625q-0.234375 0.9375 -0.234375 1.6875zm8.422592 3.828125l2.015625 -9.671875l1.65625 0l-0.34375 1.59375q0.921875 -1.03125 1.640625 -1.421875q0.734375 -0.390625 1.578125 -0.390625q0.90625 0 1.515625 0.484375q0.609375 0.46875 0.796875 1.328125q0.734375 -0.90625 1.546875 -1.359375q0.8125 -0.453125 1.71875 -0.453125q1.21875 0 1.8125 0.578125q0.609375 0.5625 0.609375 1.609375q0 0.4375 -0.203125 1.46875l-1.3125 6.234375l-1.640625 0l1.328125 -6.390625q0.171875 -0.78125 0.171875 -1.125q0 -0.46875 -0.296875 -0.734375q-0.296875 -0.28125 -0.84375 -0.28125q-0.75 0 -1.515625 0.453125q-0.765625 0.4375 -1.1875 1.171875q-0.421875 0.71875 -0.734375 2.21875l-0.984375 4.6875l-1.65625 0l1.375 -6.53125q0.140625 -0.671875 0.140625 -0.953125q0 -0.46875 -0.296875 -0.75q-0.296875 -0.296875 -0.765625 -0.296875q-0.703125 0 -1.484375 0.453125q-0.765625 0.4375 -1.25 1.234375q-0.46875 0.796875 -0.78125 2.265625l-0.953125 4.578125l-1.65625 0zm15.540802 0l2.015625 -9.671875l1.65625 0l-0.34375 1.59375q0.921875 -1.03125 1.640625 -1.421875q0.734375 -0.390625 1.578125 -0.390625q0.90625 0 1.515625 0.484375q0.609375 0.46875 0.796875 1.328125q0.734375 -0.90625 1.546875 -1.359375q0.8125 -0.453125 1.71875 -0.453125q1.21875 0 1.8125 0.578125q0.609375 0.5625 0.609375 1.609375q0 0.4375 -0.203125 1.46875l-1.3125 6.234375l-1.640625 0l1.328125 -6.390625q0.171875 -0.78125 0.171875 -1.125q0 -0.46875 -0.296875 -0.734375q-0.296875 -0.28125 -0.84375 -0.28125q-0.75 0 -1.515625 0.453125q-0.765625 0.4375 -1.1875 1.171875q-0.421875 0.71875 -0.734375 2.21875l-0.984375 4.6875l-1.65625 0l1.375 -6.53125q0.140625 -0.671875 0.140625 -0.953125q0 -0.46875 -0.296875 -0.75q-0.296875 -0.296875 -0.765625 -0.296875q-0.703125 0 -1.484375 0.453125q-0.765625 0.4375 -1.25 1.234375q-0.46875 0.796875 -0.78125 2.265625l-0.953125 4.578125l-1.65625 0zm17.884552 -11.484375l0.40625 -1.875l1.625 0l-0.390625 1.875l-1.640625 0zm-2.390625 11.484375l2.015625 -9.671875l1.65625 0l-2.03125 9.671875l-1.640625 0zm8.051071 -1.34375l-0.265625 1.359375q-0.59375 0.140625 -1.15625 0.140625q-0.984375 0 -1.5625 -0.46875q-0.4375 -0.375 -0.4375 -1.0q0 -0.3125 0.234375 -1.46875l1.171875 -5.625l-1.296875 0l0.265625 -1.265625l1.296875 0l0.5 -2.375l1.890625 -1.140625l-0.734375 3.515625l1.625 0l-0.28125 1.265625l-1.609375 0l-1.125 5.359375q-0.203125 1.015625 -0.203125 1.21875q0 0.28125 0.15625 0.4375q0.171875 0.15625 0.5625 0.15625q0.546875 0 0.96875 -0.109375zm6.8041077 1.34375l2.796875 -13.359375l1.734375 0l2.25 5.015625q1.03125 2.296875 1.625 3.859375q0.359375 0.90625 0.8125 2.46875q0.234375 -1.6875 0.609375 -3.484375l1.640625 -7.859375l1.75 0l-2.796875 13.359375l-1.765625 0l-3.3125 -7.71875q-0.890625 -2.03125 -1.375 -3.59375q-0.140625 1.296875 -0.53125 3.203125l-1.6875 8.109375l-1.75 0zm13.472946 -3.671875q0 -2.828125 1.671875 -4.6875q1.375 -1.53125 3.609375 -1.53125q1.75 0 2.8125 1.09375q1.078125 1.09375 1.078125 2.953125q0 1.65625 -0.671875 3.09375q-0.671875 1.4375 -1.921875 2.203125q-1.25 0.765625 -2.625 0.765625q-1.125 0 -2.046875 -0.484375q-0.921875 -0.484375 -1.421875 -1.359375q-0.484375 -0.890625 -0.484375 -2.046875zm1.65625 -0.15625q0 1.359375 0.65625 2.0625q0.65625 0.703125 1.65625 0.703125q0.53125 0 1.046875 -0.203125q0.53125 -0.21875 0.96875 -0.65625q0.453125 -0.4375 0.765625 -1.0q0.3125 -0.5625 0.5 -1.203125q0.28125 -0.90625 0.28125 -1.734375q0 -1.3125 -0.65625 -2.03125q-0.65625 -0.734375 -1.65625 -0.734375q-0.78125 0 -1.421875 0.375q-0.625 0.375 -1.140625 1.09375q-0.515625 0.703125 -0.765625 1.640625q-0.234375 0.9375 -0.234375 1.6875zm8.891342 3.828125l0.390625 -1.875l1.859375 0l-0.390625 1.875l-1.859375 0zm13.772842 0l2.125 -10.078125q-1.375 1.0625 -3.84375 1.71875l0.296875 -1.5q1.234375 -0.484375 2.4375 -1.28125q1.203125 -0.796875 1.796875 -1.390625q0.359375 -0.359375 0.6875 -0.875l0.96875 0l-2.796875 13.40625l-1.671875 0z" fill-rule="nonzero"/><path fill="#000000" fill-opacity="0.0" d="m609.92126 171.88715l172.47241 0l0 36.25197l-172.47241 0z" fill-rule="evenodd"/><path fill="#000000" d="m630.17126 194.10402l1.765625 0.25q-0.84375 2.3125 -2.453125 3.5q-1.59375 1.1875 -3.578125 1.1875q-2.4375 0 -3.875 -1.484375q-1.421875 -1.484375 -1.421875 -4.265625q0 -3.609375 2.171875 -5.96875q1.9375 -2.09375 4.796875 -2.09375q2.125 0 3.4375 1.140625q1.328125 1.125 1.53125 3.0625l-1.671875 0.140625q-0.25 -1.4375 -1.078125 -2.15625q-0.828125 -0.71875 -2.125 -0.71875q-2.453125 0 -3.96875 2.1875q-1.3125 1.875 -1.3125 4.453125q0 2.046875 1.015625 3.140625q1.015625 1.078125 2.625 1.078125q1.390625 0 2.5 -0.890625q1.125 -0.90625 1.640625 -2.5625zm3.1292114 1.03125q0 -2.828125 1.671875 -4.6875q1.375 -1.53125 3.609375 -1.53125q1.75 0 2.8125 1.09375q1.078125 1.09375 1.078125 2.953125q0 1.65625 -0.671875 3.09375q-0.671875 1.4375 -1.921875 2.203125q-1.25 0.765625 -2.625 0.765625q-1.125 0 -2.046875 -0.484375q-0.921875 -0.484375 -1.421875 -1.359375q-0.484375 -0.890625 -0.484375 -2.046875zm1.65625 -0.15625q0 1.359375 0.65625 2.0625q0.65625 0.703125 1.65625 0.703125q0.53125 0 1.046875 -0.203125q0.53125 -0.21875 0.96875 -0.65625q0.453125 -0.4375 0.765625 -1.0q0.3125 -0.5625 0.5 -1.203125q0.28125 -0.90625 0.28125 -1.734375q0 -1.3125 -0.65625 -2.03125q-0.65625 -0.734375 -1.65625 -0.734375q-0.78125 0 -1.421875 0.375q-0.625 0.375 -1.140625 1.09375q-0.515625 0.703125 -0.765625 1.640625q-0.234375 0.9375 -0.234375 1.6875zm8.422546 3.828125l2.015625 -9.671875l1.65625 0l-0.34375 1.59375q0.921875 -1.03125 1.640625 -1.421875q0.734375 -0.390625 1.578125 -0.390625q0.90625 0 1.515625 0.484375q0.609375 0.46875 0.796875 1.328125q0.734375 -0.90625 1.546875 -1.359375q0.8125 -0.453125 1.71875 -0.453125q1.21875 0 1.8125 0.578125q0.609375 0.5625 0.609375 1.609375q0 0.4375 -0.203125 1.46875l-1.3125 6.234375l-1.640625 0l1.328125 -6.390625q0.171875 -0.78125 0.171875 -1.125q0 -0.46875 -0.296875 -0.734375q-0.296875 -0.28125 -0.84375 -0.28125q-0.75 0 -1.515625 0.453125q-0.765625 0.4375 -1.1875 1.171875q-0.421875 0.71875 -0.734375 2.21875l-0.984375 4.6875l-1.65625 0l1.375 -6.53125q0.140625 -0.671875 0.140625 -0.953125q0 -0.46875 -0.296875 -0.75q-0.296875 -0.296875 -0.765625 -0.296875q-0.703125 0 -1.484375 0.453125q-0.765625 0.4375 -1.25 1.234375q-0.46875 0.796875 -0.78125 2.265625l-0.953125 4.578125l-1.65625 0zm15.5408325 0l2.015625 -9.671875l1.65625 0l-0.34375 1.59375q0.921875 -1.03125 1.640625 -1.421875q0.734375 -0.390625 1.578125 -0.390625q0.90625 0 1.515625 0.484375q0.609375 0.46875 0.796875 1.328125q0.734375 -0.90625 1.546875 -1.359375q0.8125 -0.453125 1.71875 -0.453125q1.21875 0 1.8125 0.578125q0.609375 0.5625 0.609375 1.609375q0 0.4375 -0.203125 1.46875l-1.3125 6.234375l-1.640625 0l1.328125 -6.390625q0.171875 -0.78125 0.171875 -1.125q0 -0.46875 -0.296875 -0.734375q-0.296875 -0.28125 -0.84375 -0.28125q-0.75 0 -1.515625 0.453125q-0.765625 0.4375 -1.1875 1.171875q-0.421875 0.71875 -0.734375 2.21875l-0.984375 4.6875l-1.65625 0l1.375 -6.53125q0.140625 -0.671875 0.140625 -0.953125q0 -0.46875 -0.296875 -0.75q-0.296875 -0.296875 -0.765625 -0.296875q-0.703125 0 -1.484375 0.453125q-0.765625 0.4375 -1.25 1.234375q-0.46875 0.796875 -0.78125 2.265625l-0.953125 4.578125l-1.65625 0zm17.884521 -11.484375l0.40625 -1.875l1.625 0l-0.390625 1.875l-1.640625 0zm-2.390625 11.484375l2.015625 -9.671875l1.65625 0l-2.03125 9.671875l-1.640625 0zm8.051086 -1.34375l-0.265625 1.359375q-0.59375 0.140625 -1.15625 0.140625q-0.984375 0 -1.5625 -0.46875q-0.4375 -0.375 -0.4375 -1.0q0 -0.3125 0.234375 -1.46875l1.171875 -5.625l-1.296875 0l0.265625 -1.265625l1.296875 0l0.5 -2.375l1.890625 -1.140625l-0.734375 3.515625l1.625 0l-0.28125 1.265625l-1.609375 0l-1.125 5.359375q-0.203125 1.015625 -0.203125 1.21875q0 0.28125 0.15625 0.4375q0.171875 0.15625 0.5625 0.15625q0.546875 0 0.96875 -0.109375zm6.804138 1.34375l2.796875 -13.359375l1.734375 0l2.25 5.015625q1.03125 2.296875 1.625 3.859375q0.359375 0.90625 0.8125 2.46875q0.234375 -1.6875 0.609375 -3.484375l1.640625 -7.859375l1.75 0l-2.796875 13.359375l-1.765625 0l-3.3125 -7.71875q-0.890625 -2.03125 -1.375 -3.59375q-0.140625 1.296875 -0.53125 3.203125l-1.6875 8.109375l-1.75 0zm13.4729 -3.671875q0 -2.828125 1.671875 -4.6875q1.375 -1.53125 3.609375 -1.53125q1.75 0 2.8125 1.09375q1.078125 1.09375 1.078125 2.953125q0 1.65625 -0.671875 3.09375q-0.671875 1.4375 -1.921875 2.203125q-1.25 0.765625 -2.625 0.765625q-1.125 0 -2.046875 -0.484375q-0.921875 -0.484375 -1.421875 -1.359375q-0.484375 -0.890625 -0.484375 -2.046875zm1.65625 -0.15625q0 1.359375 0.65625 2.0625q0.65625 0.703125 1.65625 0.703125q0.53125 0 1.046875 -0.203125q0.53125 -0.21875 0.96875 -0.65625q0.453125 -0.4375 0.765625 -1.0q0.3125 -0.5625 0.5 -1.203125q0.28125 -0.90625 0.28125 -1.734375q0 -1.3125 -0.65625 -2.03125q-0.65625 -0.734375 -1.65625 -0.734375q-0.78125 0 -1.421875 0.375q-0.625 0.375 -1.140625 1.09375q-0.515625 0.703125 -0.765625 1.640625q-0.234375 0.9375 -0.234375 1.6875zm8.891357 3.828125l0.390625 -1.875l1.859375 0l-0.390625 1.875l-1.859375 0zm10.382263 0q0.25 -1.1875 0.703125 -2.0q0.453125 -0.8125 1.203125 -1.53125q0.75 -0.71875 2.875 -2.421875q1.296875 -1.03125 1.765625 -1.53125q0.6875 -0.703125 1.0 -1.390625q0.203125 -0.46875 0.203125 -1.015625q0 -0.90625 -0.65625 -1.546875q-0.640625 -0.65625 -1.59375 -0.65625q-0.9375 0 -1.640625 0.65625q-0.703125 0.65625 -1.0 2.09375l-1.609375 -0.234375q0.234375 -1.78125 1.375 -2.796875q1.140625 -1.03125 2.84375 -1.03125q1.140625 0 2.0625 0.46875q0.9375 0.46875 1.390625 1.328125q0.46875 0.859375 0.46875 1.765625q0 1.328125 -0.953125 2.5625q-0.578125 0.765625 -3.421875 3.015625q-1.21875 0.96875 -1.8125 1.59375q-0.59375 0.609375 -0.90625 1.15625l5.984375 0l-0.3125 1.515625l-7.96875 0z" fill-rule="nonzero"/></g></svg>